<svg xmlns="http://www.w3.org/2000/svg" xmlns:xlink="http://www.w3.org/1999/xlink" width="720" height="806" viewBox="0 0 720 806">
    <defs>
        <path id="a" d="M78.265 316.736C56.4 570.021 214.661 705.491 297.58 745.28c255.132 122.426 111.43 283.11 340.41 294.393 57.363 2.826 154.695-94.24 168.388-100.097 22.643-9.688 9.97-57.549 40.231-129.31 30.26-71.761 38.743-66.72 96.87-66.82 0 0 56.009-21.826 56.086-67.46.077-45.634 160.975-463.131-77.275-508.358-223.85-42.493-273.045-26.76-585.091-81.781-90.425-15.945-237.068-22.396-258.934 230.89z"/>
    </defs>
    <g fill="none" fill-rule="evenodd">
        <g transform="translate(0 -217.15)">
            <mask id="b" fill="#fff">
                <use xlink:href="#a"/>
            </mask>
            <use fill="#E3E6F2" opacity=".4" transform="rotate(-10 564.485 559.55)" xlink:href="#a"/>
            <g mask="url(#b)">
                <path fill="#FFE6E6" d="M32.425 723.198c7.633 1.198 14.556 14.841 17.165 14.938 3.582.133 17.34-10.743 19.93-13.402 2.59-2.66 4.965 4.32 2.334 10.245-2.631 5.926-13.687 11.022-20.839 13.238-7.152 2.216-23.01-15.334-23.01-15.334s-.336-10.431 4.42-9.685"/>
                <path fill="#174724" d="M569.37 379.76s-1.408 21.637-7.033 26.074c-5.41 4.268-30.708 9.2-30.333 17.015.375 7.815 22.006 8.476 38.393-7.102 16.386-15.577 14.982-25.396 11.049-29.928-3.933-4.531-12.076-6.059-12.076-6.059"/>
                <path fill="#FFF" d="M596 482.1s3.791 6.18 2.918 7.82c.461.481 1.232.945 2.504.94 1.45-.006 4.212-.347 6.578-.883-.606-6.006-2.17-7.887-2.306-9.217L596 482.1zM601.766 494.152c-3.97.364-8.46.15-10.686 0-.048.23-.081.48-.08.773.007 1.382 14.577 1.266 17.021-.073.657-.36.955-1.092.979-1.972-1.87.475-4.444 1.016-7.234 1.272"/>
                <path fill="#1E1240" d="M601.733 494.693c2.802-.263 5.387-.82 7.265-1.309.023-.857-.202-1.85-.61-2.783a6.277 6.277 0 0 1-.246-.695c-2.17.517-4.704.846-6.033.852-1.166.005-1.874-.443-2.297-.908-.018.036-.036.072-.056.103-.391.62-1.542 1.087-3.127 1.752-2.282 1.167-5.14.594-5.629 2.988 2.236.155 6.745.375 10.733 0M617.038 400.365s6.965 17.465-5.35 25.557c-12.316 8.093-24.595 13.101-24.595 13.101s19.517 38.016 20.199 42.57c.681 4.554-7.027 5.952-11.224 6.235-4.198.283-23.921-30.419-27.742-45.651-3.557-14.178 23.006-39.446 31.417-42.114 8.41-2.67 17.295.302 17.295.302"/>
                <path fill="#1E1240" d="M622.818 395.92s8.04 5.23 7.01 23.66c0 0 1.174 18.748 1.765 20.5.59 1.753 13.053 35.759 15.085 41.684 2.033 5.924-6.05 8.51-10.719 8.03-4.67-.48-18.812-24.599-25.499-38.803-6.686-14.204-7.406-44.926-5.627-46.23 1.78-1.305 17.985-8.841 17.985-8.841"/>
                <path fill="#2A632C" d="M595.512 357.896c-3.481-1.26-8.25.858-14.051 5.838-5.802 4.98-11.75 13.816-11.45 16.338 1.205 10.111 15.426 12.899 17.392 17.589 1.967 4.69-2.99 14.533 13.72 11.984 11.902-1.815 25.343-6.597 23.747-11.775-5.43-17.618-15.622-35-29.358-39.974"/>
                <path fill="#174724" d="M597.994 370.591c4.392 4.329 12.525 25.764 16.396 36.439 6.658-2.273 11.475-5.302 10.48-8.482-5.473-17.473-15.744-34.712-29.587-39.645-3.332-1.188-7.833.652-13.283 5.066 2.994.41 11.23 1.927 15.994 6.622"/>
                <path fill="#614CD4" d="M570.018 358.727s1.654-1.97 2.686-2.478c1.032-.508.897-2.364 2.052-2.699 1.155-.335 2.051 1.082 1.655 2.121-.395 1.04 3.853 4.591 2.21 7.099-1.644 2.507-9.038-1.198-8.603-4.043"/>
                <path fill="#7265EA" d="M583.983 372.69s3.278-6.651 3-9.242c-.277-2.59.103-2.83-2.32-2.878-2.423-.046-8.498 3.961-9.451 6.871-.954 2.91 1.202 5.296 8.771 5.248"/>
                <path fill="#311E69" d="M571.385 363.736s-1.68.94-2.988-1.333c-.852-1.481-.198-5.051.694-5.675.892-.624 1.058.398 1.484.726 2.31 1.783 5.382.992 6.843 2.695 1.46 1.703-.166 4.258-1.196 4.44-1.031.181-4.837-.853-4.837-.853"/>
                <path fill="#FF6161" d="M577.56 361.58l5.099 2.8c1.116.611 1.61 1.898 1.195 3.067-.66 1.862-2.053 4.163-3.385 4.232-.614.032-1.178-.768-1.56-1.832l-1.909-5.94.56-2.327z"/>
                <path fill="#311E69" d="M578 365.726c.554-.893 1.3-2.126 1.3-2.126s.88 1.392.667 3.43c-.113 1.078-.501 1.973-1.006 2.63l-.961-3.934z"/>
                <path fill="#FF6161" d="M573.735 360.879l3.953 2.046c1.25.781 1.682 2.458.966 3.782-.573 1.057-1.082 1.6-2.216 2.541-.945.785-2.197.4-3.317-.748-1.453-1.49-2.385-3.294-2.832-4.287-1.018-2.266.775-4.471 3.446-3.334"/>
                <path fill="#FF6161" d="M575.432 361.291a3.405 3.405 0 0 0-.251-.67c-.197-.41-.396-1.065.35-1.061 1.084.005 2.015 2.248 1.093 2.906-.685.49-1.05-.588-1.192-1.175"/>
                <path fill="#FFF" d="M574.772 365.62s-.568.895-1.772 1.79c0 0 .354.357 1.022.182.67-.176 1.343-.952.75-1.972"/>
                <path fill="#AD263D" d="M575.66 367.511c.827-1.066 3.213-.415 3.544-3.257.062-.53-.435-1.25-.745-1.664l.095.04c1.378.699 1.854 2.198 1.065 3.38-.632.947-1.194 1.431-2.445 2.273-.635.428-1.396.465-2.174.197.215-.133.408-.643.66-.969"/>
                <path fill="#FF6161" d="M675.4 757.503c-1.118-.052-2.121.681-2.37 1.749-.09.389-.234.786-.457 1.136-.337.528-1.33.926-2.697 1.495-.643.552-1.269 1.26-.567 1.473 1.2.366 8.233.32 8.884-.812.219-.38.497-.68.807-.914a6.85 6.85 0 0 1-.985-2.07 2.84 2.84 0 0 0-2.59-2.056l-.025-.001z"/>
                <path fill="#311E69" d="M676.978 763.62c-.639 1.322-7.531 1.376-8.708.949-.688-.25-.074-1.077.556-1.723-2.121 1.28-4.74 2.93-4.825 3.772-.143 1.402 12.397 1.251 14.473-.123 1.085-.719.313-2.236-.705-3.945a3.44 3.44 0 0 0-.791 1.07"/>
                <path fill="#FF6161" d="M698.4 757.503c-1.118-.052-2.121.681-2.37 1.749a3.65 3.65 0 0 1-.457 1.136c-.337.528-1.33.926-2.697 1.495-.643.552-1.269 1.26-.568 1.473 1.202.366 8.234.32 8.885-.812.219-.38.497-.68.807-.914a6.85 6.85 0 0 1-.985-2.07 2.84 2.84 0 0 0-2.59-2.056l-.025-.001z"/>
                <path fill="#311E69" d="M699.978 763.62c-.639 1.322-7.531 1.376-8.708.949-.688-.25-.074-1.077.555-1.723-2.12 1.28-4.738 2.93-4.824 3.772-.143 1.402 12.397 1.251 14.472-.123 1.086-.719.314-2.236-.704-3.945a3.437 3.437 0 0 0-.791 1.07"/>
                <path fill="#174724" d="M681 604.99s-15.38 12.385-21.7 15.182c-6.321 2.798-26.745 4.63-29.098 11.77-2.353 7.138 16.489 5.886 25.295 3.472 19.694-5.398 22.141-16.014 23.083-20.644.94-4.63 2.42-9.78 2.42-9.78"/>
                <path fill="#311E69" d="M690 592.655s.953-5.13 5.302-5.786c4.348-.654 5.381 4.257 4.566 7.04-.816 2.784.214 3.544.214 3.544s3.204-1.542 4.593 1.401c1.575 3.333-2.84 6.635-7.569 6.073-4.729-.561-7.135-7.554-7.106-9.204.03-1.65 0-3.068 0-3.068"/>
                <path fill="#1E1240" d="M704.675 598.181c-1.39-3.266-4.593-1.555-4.593-1.555s-1.03-.843-.214-3.931c.22-.836.3-1.843.221-2.855a6.313 6.313 0 0 1-2.362 3.112c-2.323 1.643-6.31.854-7.725-1.538.006.377.023 1.737-.002 3.293-.03 1.83 2.377 9.59 7.106 10.213 4.73.623 9.143-3.04 7.57-6.739"/>
                <path fill="#FFF" d="M660.63 661.277c.331-7.544 5.13-10.107 7.614-17.596.316-.952 2.543-7.598 2.833-8.516 4.548-14.42 18.333-12.837 19.774-5.555.676 3.418 3.765 6.07 6.939 10.017 4.989 6.03 7.403 13.485 7.725 21.324.24 5.838-1.388 73.735.482 97.532.216 2.757-10.813 1.931-10.813 1.931-2.614.194-3.587-2.357-3.994-5.004-2.938-19.071-8.903-82.408-8.903-82.408-3.84 8.58.249 60.111 1.855 78.479.305 3.491.27 8.432-3.16 8.432l-9.717.5c-.858.062-1.116-2.49-1.287-3.351-1.955-9.878-12.655-66.026-9.349-95.785"/>
                <path fill="#FFE6E6" d="M677.323 674.03c-4.423 7.876-.1 67.165-2.666 70.765-1.605 2.252-4.05 3.746-5.657 4.549.62 3.566 1.118 6.27 1.41 7.827.164.864.408 3.42 1.225 3.358l9.245-.501c3.263 0 3.297-4.95 3.006-8.449-1.527-18.404-5.419-70.038-1.764-78.634-.29-5.096-.377-6.792-4.8 1.084M694.05 690.673c1.027 14.13 4.008 55.147.939 59.27-1.255 1.684-2.707 2.898-3.989 3.79.084.586.167 1.146.247 1.668.406 2.651 1.375 5.207 3.979 5.013 0 0 10.987.827 10.77-1.934-1.862-23.844-.24-91.871-.48-97.72a41.697 41.697 0 0 0-.596-5.517l-3.797-5.813s-8.1 27.113-7.073 41.243"/>
                <path fill="#2A632C" d="M658.657 687.93c-6.102-21.661 6.085-49.104 13.295-65.741 3.05-7.039 4.784-12.352 6.186-14.543 4.272-6.673 8.617-5.233 14.969-1.686 7.713 4.307-3.782 15.476-2.322 22.82.686 3.449 3.205 5.725 6.913 9.237 12.307 11.656 6.389 44.183 10.135 54.683.464 1.3-.064 2.763-1.273 3.398-6.274 3.292-18.534 8.985-27.83-18.852-.92-2.751-2.612 14.41-5.452 15.167-8.607 2.294-14.245-3.15-14.62-4.483"/>
                <path fill="#1E1240" d="M686.941 604.914s1.946-1.952 3.596-.213c1.65 1.739-1.543 6.311-2.854 11.033-1.311 4.72-4.058 27-6.528 29.656-2.47 2.656-6.359 2.73-6.147 0 .212-2.73 5.768-33.296 11.933-40.476"/>
                <path fill="#311E69" d="M685.059 595.317s-.519-3 1.526-4.788c2.045-1.788 4.345-2.308 6.701-.865 2.356 1.442 2.885 10.671-2.344 11.248-5.228.577-5.883-5.595-5.883-5.595"/>
                <path fill="#174724" d="M707.838 692.903c-3.632-10.451 2.105-42.825-9.826-54.426-3.595-3.496-6.038-5.761-6.703-9.193-1.37-7.073 9.018-17.708 2.92-22.274-2.234 5.303-7.963 19.422-8.222 25.297-.322 7.304 10.903 28.57 11.944 38.757.854 8.366 1.55 22.917 1.77 27.856 2.665-.438 5.041-1.644 6.883-2.636 1.172-.631 1.684-2.087 1.234-3.381"/>
                <path fill="#FF6161" d="M690.912 597.92l.088 6.332c.01 1.042-2.924 3.72-4.803 2.4-.55-.386.173-1.819.692-2.9l1.419-5.44 2.604-.392z"/>
                <path fill="#2A214F" d="M688 601.96c.998-.343 2-2.02 2-2.02h-1.589l-.411 2.02z"/>
                <path fill="#FF6161" d="M686.546 592.687c.158-.334.35-.605.558-.827.402.863 1.094 2.163 1.804 2.636 1.097.732 1.893.638 1.893.638l.158 1.22c.271 2.091-.837 4.165-2.565 4.535-1.595.342-3.135-.767-3.37-3.198-.21-2.161 1.062-4.026 1.522-5.004"/>
                <path fill="#FF6161" d="M690.278 596.332c.099-.215.158-.439.201-.666.083-.432.324-1.057 1.014-.637 1.004.61.415 2.89-.87 2.891-.953 0-.593-1.048-.345-1.588M685.938 595.43a2.373 2.373 0 0 1-.02-.679c.039-.43-.038-1.078-.935-.807-1.304.394-1.345 2.698.085 2.945 1.061.184.981-.893.87-1.46"/>
                <path fill="#FFF" d="M687 597.247s-1.003-.045-2-.337c0 0 .246.885.845.999.408.077.98-.26 1.155-.662"/>
                <path fill="#AD263D" d="M687.36 600.125c-.693.022-1.922-.259-2.427-.691-.449-.384-.848-1.308-.933-1.514.003.035.003.07.007.106.249 2.182 1.874 3.176 3.556 2.87 1.124-.205 1.998-.991 2.437-2.003-.942.909-2.019 1.213-2.64 1.232"/>
                <path fill="#311E69" d="M664.664 801.232l-3.626-31.167h45.848l3.626 31.167h-45.848zm-7.75-66.61h45.08c.266 0 .517-.055.751-.147l3.644 31.314H660.54l-3.627-31.167zm-4.123-35.442h45.848l3.63 31.195c-.091-.012-.181-.028-.275-.028h-45.577l-3.626-31.167zm-4.123-35.443h45.848l3.626 31.168h-45.849l-3.625-31.168zm71.317 183.283l-23.767-204.808c-.124-1.068-1.012-1.872-2.066-1.872-1.246 0-2.212 1.108-2.066 2.368l1.932 16.754H648.17l-1.99-17.249c-.123-1.068-1.011-1.873-2.066-1.873h-.033c-1.246 0-2.213 1.109-2.066 2.37l6.232 53.72a2.146 2.146 0 0 0-.099.612c0 .394.112.76.295 1.076l17.304 149.405c.127 1.088 1.032 1.887 2.08 1.887.083 0 .166-.005.25-.015 1.15-.139 1.972-1.202 1.836-2.375l-4.752-41.513h45.849l4.81 42.016c.126 1.088 1.032 1.887 2.08 1.887.082 0 .166-.005.25-.015 1.15-.139 1.971-1.202 1.835-2.375z"/>
                <path fill="#313131" d="M651.415 698.567L658 671.846l-16.497-4.162c.02-.667.033-1.335.033-2.006 0-2.205-.11-4.385-.323-6.534l16.165-5.314-8.41-26.192-16.185 5.32a65.321 65.321 0 0 0-7.223-10.112c-.037-.158-.078-.315-.115-.473l10.226-15.787-22.6-14.986-67.192-116.12c-19.58-33.838-55.428-54.633-94.184-54.633H337.54l-.441-1.373c-.509-1.583-2.19-2.45-3.755-1.936l-10.064 3.309h-7.705a78.032 78.032 0 0 0-6.178-8.586c-.853-1.03-.963-2.492-.236-3.616l9.5-14.665a3.036 3.036 0 0 0-.859-4.174l-22.21-14.728a2.959 2.959 0 0 0-4.126.869l-8.435 13.02c-.79 1.22-2.321 1.67-3.657 1.121a75.5 75.5 0 0 0-10.257-3.383 3.026 3.026 0 0 1-2.3-2.931v-15.139c0-1.665-1.335-3.015-2.98-3.015H237.28c-1.645 0-2.98 1.35-2.98 3.015v15.137c0 1.4-.958 2.594-2.302 2.933-1.744.44-3.465.94-5.16 1.498-1.317.434-2.756-.065-3.49-1.253l-7.929-12.837a2.96 2.96 0 0 0-4.106-.96l-22.52 14.239c-1.396.882-1.82 2.742-.948 4.154l7.951 12.875c.734 1.188.547 2.715-.415 3.722a77.99 77.99 0 0 0-3.585 4.02c-.89 1.071-2.369 1.418-3.612.805l-13.483-6.654a2.965 2.965 0 0 0-3.984 1.389l-11.641 24.149c-.722 1.496-.107 3.301 1.372 4.031l.471.233a109.56 109.56 0 0 0-34.303 32.191L46.49 585.11c-34.368 50.1-22.087 118.902 27.43 153.674 49.516 34.772 117.52 22.348 151.887-27.752l47.57-69.342h115.747l35.974 62.17c20.308 35.095 56.798 54.652 94.287 54.65 18.727 0 37.709-4.883 55.037-15.147 1.588-.941 3.143-1.917 4.667-2.925l1.482 7.06 26.624-5.726-3.534-16.826a63.962 63.962 0 0 0 7.444-4.024l11.823 12.387 19.58-19.13-11.825-12.389a65.246 65.246 0 0 0 4.23-7.387l16.503 4.164z"/>
                <path fill="#7F79A3" d="M438.72 441.669c1.868-.066 3.343-1.652 3.278-3.526-.066-1.873-1.647-3.353-3.515-3.287l-5.32.186a51.125 51.125 0 0 0-1.291-7.362l5.06-1.649a3.42 3.42 0 0 0 2.181-4.295 3.405 3.405 0 0 0-4.281-2.188l-5.067 1.65a51.06 51.06 0 0 0-3.27-6.714l4.42-2.99a3.425 3.425 0 0 0 .917-4.732 3.401 3.401 0 0 0-4.717-.92l-4.425 2.994a51.403 51.403 0 0 0-4.986-5.55l3.434-4.103a3.426 3.426 0 0 0-.42-4.802 3.4 3.4 0 0 0-4.787.42l-3.428 4.097a51.04 51.04 0 0 0-7.91-4.784l2.13-5.87a3.421 3.421 0 0 0-2.032-4.369 3.405 3.405 0 0 0-4.355 2.037l-2.052 5.656a50.64 50.64 0 0 0-10.652-2.282v-6.117c0-1.875-1.53-3.409-3.398-3.409-1.87 0-3.399 1.534-3.399 3.409v5.885c-3.163.094-6.255.469-9.249 1.114l-1.468-5.135a3.407 3.407 0 0 0-4.203-2.337c-1.796.516-2.845 2.414-2.33 4.216l1.466 5.128a50.72 50.72 0 0 0-6.806 3.044l-2.82-4.527a3.402 3.402 0 0 0-4.683-1.085 3.425 3.425 0 0 0-1.081 4.697l2.828 4.54a51.346 51.346 0 0 0-5.704 4.804l-3.967-3.584a3.4 3.4 0 0 0-4.8.252 3.426 3.426 0 0 0 .252 4.814l3.968 3.584a51.316 51.316 0 0 0-4.17 6.19l-4.794-2.345a3.403 3.403 0 0 0-4.543 1.57 3.424 3.424 0 0 0 1.564 4.557l4.786 2.342a50.868 50.868 0 0 0-2.3 7.108l-5.246-.927a3.409 3.409 0 0 0-3.937 2.764c-.324 1.847.916 3.624 2.757 3.949l5.248.928a51.84 51.84 0 0 0-.3 5.517c0 .654.025 1.302.05 1.95l-5.31.56c-1.859.197-3.22 1.882-3.024 3.747a3.41 3.41 0 0 0 3.734 3.033l5.304-.559a50.975 50.975 0 0 0 1.796 7.253l-4.938 2.001a3.422 3.422 0 0 0-1.879 4.437 3.405 3.405 0 0 0 4.424 1.884l4.93-1.998a51.23 51.23 0 0 0 3.733 6.47l-4.196 3.288a3.426 3.426 0 0 0-.586 4.785 3.401 3.401 0 0 0 4.77.587l4.203-3.294a51.432 51.432 0 0 0 5.357 5.192l-3.134 4.327a3.425 3.425 0 0 0 .752 4.761 3.402 3.402 0 0 0 4.746-.754l3.135-4.328a50.858 50.858 0 0 0 6.575 3.513l-1.822 5.022a3.422 3.422 0 0 0 2.031 4.369 3.405 3.405 0 0 0 4.355-2.038l1.823-5.022a50.661 50.661 0 0 0 7.288 1.547l-.372 5.339c-.131 1.87 1.288 3.507 3.153 3.638 1.864.13 3.496-1.293 3.626-3.163l.372-5.334c.055 0 .109.004.164.004 2.468 0 4.893-.186 7.268-.525l1.108 5.23a3.408 3.408 0 0 0 4.03 2.625c1.828-.39 3.006-2.209 2.617-4.042l-1.108-5.23a50.514 50.514 0 0 0 7.001-2.555l2.502 4.72a3.403 3.403 0 0 0 4.596 1.41 3.424 3.424 0 0 0 1.405-4.61l-2.502-4.721a51.192 51.192 0 0 0 6.022-4.397l3.707 3.85a3.4 3.4 0 0 0 4.805.084 3.426 3.426 0 0 0 .084-4.82l-3.701-3.843a51.411 51.411 0 0 0 4.59-5.888l4.611 2.67a3.402 3.402 0 0 0 4.642-1.247 3.424 3.424 0 0 0-1.244-4.656l-4.611-2.67a50.997 50.997 0 0 0 2.793-6.93l5.164 1.291a3.408 3.408 0 0 0 4.12-2.483c.452-1.819-.662-3.678-2.476-4.131l-5.175-1.295c.431-2.422.692-4.902.77-7.43l5.34-.187z"/>
                <path fill="#BF9734" d="M399 439.855c0 8.088-6.268 14.645-14 14.645s-14-6.557-14-14.645 6.268-14.645 14-14.645 14 6.557 14 14.645"/>
                <path fill="#F4CC5B" d="M396 439.855c0 8.088-6.268 14.645-14 14.645s-14-6.557-14-14.645 6.268-14.645 14-14.645 14 6.557 14 14.645"/>
                <path fill="#C0C0C0" d="M183.035 384.923c22.504 0 40.812 18.481 40.812 41.198s-18.308 41.198-40.812 41.198c-22.504 0-40.812-18.481-40.812-41.198s18.308-41.198 40.812-41.198zm81.706 77.37L272 432.904l-18.185-4.577c.022-.733.036-1.468.036-2.206 0-2.426-.121-4.823-.356-7.187l17.82-5.845-9.272-28.806-17.84 5.851a71.863 71.863 0 0 0-8.225-11.434l11.408-17.571-25.095-16.603-10.551 16.25a69.773 69.773 0 0 0-13.702-4.523V337.34h-30.005v18.913a69.726 69.726 0 0 0-8.951 2.593l-9.93-16.041-25.445 16.05 9.95 16.076a71.927 71.927 0 0 0-6.222 6.965l-16.871-8.306-13.153 27.224 16.84 8.29a71.645 71.645 0 0 0-1.614 9.258L94 420.34l3.137 30.124 18.635-1.978a71.412 71.412 0 0 0 3.494 8.71l-14.772 11.651 18.474 23.868 14.793-11.667c2.378 2 4.887 3.846 7.513 5.524l-6.417 17.797 28.196 10.36 6.408-17.775c3.04.416 6.14.639 9.288.651l3.897 18.506 29.349-6.297-3.897-18.506a70.46 70.46 0 0 0 8.206-4.426l13.033 13.624 21.584-21.04-13.035-13.626a71.765 71.765 0 0 0 4.662-8.125l18.193 4.58zM558.517 729.85c10.746 0 19.489 8.876 19.489 19.785 0 10.91-8.743 19.784-19.49 19.784-10.745 0-19.488-8.875-19.488-19.784 0-10.91 8.743-19.785 19.489-19.785zm39.017 37.156L601 752.892l-8.684-2.198a35.04 35.04 0 0 0-.153-4.51l8.51-2.807-4.428-13.834-8.52 2.81a34.497 34.497 0 0 0-3.926-5.491l5.447-8.438-11.983-7.973-5.039 7.804a33.157 33.157 0 0 0-6.543-2.172V707h-14.328v9.083a33.165 33.165 0 0 0-4.275 1.245l-4.741-7.704-12.151 7.709 4.752 7.72a34.445 34.445 0 0 0-2.972 3.344l-8.056-3.989-6.281 13.074 8.042 3.981a34.528 34.528 0 0 0-.771 4.446l-8.9.95 1.498 14.465 8.899-.949a34.435 34.435 0 0 0 1.668 4.183l-7.054 5.595 8.822 11.462 7.064-5.603a34.056 34.056 0 0 0 3.588 2.653l-3.064 8.546 13.464 4.975 3.06-8.536c1.452.2 2.932.307 4.435.313l1.861 8.887 14.015-3.024-1.86-8.887a33.586 33.586 0 0 0 3.918-2.126l6.223 6.543 10.307-10.104-6.224-6.544a34.48 34.48 0 0 0 2.226-3.901l8.688 2.199z"/>
                <path fill="#C0BCD8" d="M674.843 573.618l5.086-20.808c.316-1.29-.454-2.595-1.718-2.917l-11.513-2.927c-1.055-.268-1.771-1.243-1.77-2.352v-.02c0-1.455-.05-2.9-.148-4.33-.076-1.115.578-2.144 1.62-2.489l11.268-3.734c1.239-.41 1.917-1.768 1.514-3.032l-6.497-20.395c-.402-1.264-1.734-1.956-2.973-1.545l-11.287 3.74c-1.041.345-2.163-.095-2.744-1.04a62.29 62.29 0 0 0-4.93-6.913 2.458 2.458 0 0 1-.187-2.885l7.522-11.706c.715-1.111.41-2.603-.68-3.331l-17.586-11.755a2.332 2.332 0 0 0-3.267.693l-6.678 10.393a2.35 2.35 0 0 1-2.896.894 59.383 59.383 0 0 0-8.121-2.7 2.411 2.411 0 0 1-1.822-2.34v-12.082c0-1.33-1.056-2.407-2.36-2.407H593.65c-1.303 0-2.36 1.077-2.36 2.407v12.081c0 1.118-.759 2.07-1.822 2.341-1.382.35-2.744.75-4.087 1.196a2.352 2.352 0 0 1-2.763-1l-6.278-10.247a2.332 2.332 0 0 0-3.251-.765l-17.831 11.364c-1.106.704-1.442 2.19-.751 3.316l6.296 10.277c.58.948.433 2.166-.329 2.97a61.893 61.893 0 0 0-2.838 3.209c-.705.854-1.876 1.131-2.86.642l-10.676-5.31a2.34 2.34 0 0 0-3.155 1.107l-9.217 19.275c-.571 1.195-.085 2.635 1.086 3.218l10.647 5.296c.985.49 1.493 1.603 1.265 2.696a62.796 62.796 0 0 0-.737 4.27c-.152 1.108-1.002 1.978-2.093 2.095l-11.783 1.263c-1.296.14-2.236 1.324-2.1 2.645l2.198 21.327c.137 1.322 1.298 2.281 2.593 2.142l11.784-1.263c1.09-.117 2.098.553 2.473 1.602a62.25 62.25 0 0 0 1.595 4.017c.447 1.022.178 2.22-.686 2.909l-9.34 7.442a2.438 2.438 0 0 0-.406 3.378l12.946 16.899a2.329 2.329 0 0 0 3.312.414l9.358-7.457c.864-.689 2.069-.665 2.932.024a61.216 61.216 0 0 0 3.427 2.546 2.448 2.448 0 0 1 .924 2.833l-4.06 11.377c-.445 1.25.186 2.63 1.41 3.085l19.76 7.334c1.224.455 2.578-.189 3.023-1.438l4.053-11.356a2.371 2.371 0 0 1 2.496-1.564c1.4.15 2.815.25 4.242.3a2.387 2.387 0 0 1 2.26 1.904l2.464 11.822c.27 1.3 1.524 2.13 2.798 1.854l20.567-4.458c1.275-.277 2.089-1.555 1.818-2.855l-2.465-11.826a2.436 2.436 0 0 1 1.302-2.674 60.269 60.269 0 0 0 3.744-2.042c.95-.561 2.147-.414 2.91.391l8.241 8.705a2.327 2.327 0 0 0 3.337.06l15.125-14.898a2.44 2.44 0 0 0 .058-3.403l-8.243-8.706c-.763-.805-.865-2.03-.283-2.978.75-1.22 1.46-2.47 2.127-3.745.515-.985 1.604-1.504 2.666-1.234l11.51 2.927c1.264.322 2.544-.463 2.86-1.753M510.454 736.35L516 713.768l-13.895-3.517a56.37 56.37 0 0 0 .029-1.695c0-1.864-.093-3.706-.273-5.522l13.615-4.491-7.084-22.134-13.63 4.496a55.227 55.227 0 0 0-6.285-8.786l8.717-13.5-19.174-12.758-8.061 12.487a53.123 53.123 0 0 0-10.47-3.476V640.34h-22.925v14.532a53.035 53.035 0 0 0-6.839 1.993l-7.586-12.326-19.442 12.333 7.603 12.352a55.121 55.121 0 0 0-4.754 5.351l-12.89-6.382-10.05 20.918 12.867 6.37a55.383 55.383 0 0 0-1.233 7.113l-14.24 1.52 2.397 23.145 14.238-1.519a55.095 55.095 0 0 0 2.67 6.692l-11.287 8.952 14.114 18.34 11.303-8.965a54.431 54.431 0 0 0 5.74 4.244l-4.902 13.675 21.543 7.96 4.896-13.658c2.322.32 4.691.491 7.096.501l2.978 14.219 22.424-4.838-2.978-14.22a53.695 53.695 0 0 0 6.27-3.4l9.958 10.468 16.49-16.167-9.958-10.47a55.17 55.17 0 0 0 3.561-6.242l13.901 3.519z"/>
                <path fill="#C0C0C0" d="M538.611 447.678l-8.436-4.894a3.944 3.944 0 0 1-1.937-3.949 21.713 21.713 0 0 0 0-6.04 3.944 3.944 0 0 1 1.937-3.95l8.436-4.893c2.27-1.316 5.164-.083 5.8 2.472a38.827 38.827 0 0 1 1.147 9.391c0 3.238-.398 6.383-1.147 9.391-.636 2.555-3.53 3.788-5.8 2.472zm-26.032 21.569v-9.788c0-1.617.98-3.065 2.471-3.673a21.435 21.435 0 0 0 5.16-3.007 3.906 3.906 0 0 1 4.376-.293l8.426 4.887c2.271 1.318 2.652 4.453.766 6.285a38.53 38.53 0 0 1-16.145 9.391 3.953 3.953 0 0 1-5.054-3.802zm-11.158 0a3.953 3.953 0 0 1-5.054 3.802 38.528 38.528 0 0 1-16.145-9.391c-1.886-1.832-1.506-4.967.766-6.285l8.426-4.887a3.906 3.906 0 0 1 4.375.293 21.438 21.438 0 0 0 5.161 3.007 3.967 3.967 0 0 1 2.47 3.673v9.788zm-31.832-24.04a38.829 38.829 0 0 1-1.147-9.392c0-3.237.398-6.383 1.147-9.39.636-2.556 3.53-3.79 5.8-2.473l8.437 4.894a3.944 3.944 0 0 1 1.936 3.95 21.669 21.669 0 0 0 0 6.039 3.944 3.944 0 0 1-1.936 3.95l-8.437 4.893c-2.27 1.316-5.164.083-5.8-2.472zm31.832-42.823v9.788c0 1.616-.98 3.064-2.471 3.673-1.864.76-3.6 1.777-5.16 3.007a3.905 3.905 0 0 1-4.376.292l-8.426-4.887c-2.272-1.318-2.652-4.453-.766-6.285a38.53 38.53 0 0 1 16.145-9.391 3.953 3.953 0 0 1 5.054 3.803zm11.158 0a3.953 3.953 0 0 1 5.054-3.803 38.532 38.532 0 0 1 16.145 9.391c1.886 1.832 1.505 4.967-.766 6.285l-8.426 4.887a3.905 3.905 0 0 1-4.376-.292 21.435 21.435 0 0 0-5.16-3.007 3.968 3.968 0 0 1-2.47-3.673v-9.788zm47.257 38.996l-3.367-.596c.183-1.861.269-3.75.243-5.665a50.213 50.213 0 0 0-.244-4.272l3.368-.597c1.777-.315 3.15-1.83 3.164-3.644.019-2.398-2.127-4.128-4.367-3.731l-3.459.613a49.698 49.698 0 0 0-3.398-9.328l2.979-1.728c1.562-.906 2.336-2.803 1.733-4.51a3.723 3.723 0 0 0-5.374-2.007l-3.072 1.782c-1.868-2.738-4-5.28-6.359-7.592l2.23-2.67c1.16-1.39 1.242-3.437.093-4.835a3.718 3.718 0 0 0-5.732-.039l-2.283 2.733a49.765 49.765 0 0 0-8.546-4.983l1.175-3.245c.618-1.703-.003-3.656-1.559-4.574-2.058-1.216-4.622-.214-5.4 1.933l-1.202 3.317a49.034 49.034 0 0 0-9.74-1.728v-3.436c0-1.813-1.247-3.435-3.022-3.763-2.348-.435-4.416 1.387-4.416 3.672v3.527c-3.35.25-6.61.834-9.743 1.72l-1.168-3.224c-.617-1.703-2.342-2.798-4.122-2.497-2.355.398-3.677 2.82-2.9 4.968l1.202 3.316a49.693 49.693 0 0 0-8.555 4.98l-2.21-2.646c-1.16-1.388-3.154-1.825-4.724-.93-2.077 1.182-2.495 3.914-1.033 5.664l2.273 2.72a50.275 50.275 0 0 0-6.36 7.602l-2.976-1.726c-1.563-.907-3.585-.632-4.756.748a3.756 3.756 0 0 0 .957 5.678l3.045 1.765a49.707 49.707 0 0 0-3.392 9.334l-3.363-.595c-1.777-.315-3.583.638-4.214 2.337-.834 2.247.593 4.61 2.833 5.006l3.457.613c-.185 1.86-.27 3.75-.244 5.664.02 1.44.104 2.864.244 4.272l-3.368.597c-1.777.315-3.15 1.831-3.164 3.644-.019 2.398 2.127 4.128 4.367 3.731l3.459-.613a49.68 49.68 0 0 0 3.398 9.328l-2.979 1.728c-1.563.906-2.336 2.803-1.733 4.51a3.723 3.723 0 0 0 5.374 2.007l3.072-1.782c1.868 2.738 4 5.28 6.358 7.592l-2.23 2.67c-1.16 1.39-1.241 3.437-.092 4.835a3.718 3.718 0 0 0 5.732.039l2.283-2.732a49.767 49.767 0 0 0 8.546 4.982l-1.176 3.245c-.617 1.703.004 3.656 1.56 4.575 2.058 1.215 4.622.213 5.4-1.934l1.202-3.317a49.037 49.037 0 0 0 9.74 1.728v3.437c0 1.812 1.247 3.434 3.022 3.762 2.348.436 4.416-1.387 4.416-3.671v-3.528c3.35-.25 6.61-.833 9.743-1.72l1.168 3.224c.617 1.703 2.342 2.798 4.122 2.497 2.354-.397 3.677-2.82 2.9-4.968l-1.202-3.316a49.686 49.686 0 0 0 8.555-4.98l2.21 2.646c1.16 1.389 3.154 1.825 4.724.93 2.077-1.182 2.495-3.914 1.033-5.664l-2.273-2.72a50.288 50.288 0 0 0 6.36-7.602l2.976 1.727c1.563.906 3.585.631 4.756-.748a3.756 3.756 0 0 0-.958-5.679l-3.044-1.765a49.67 49.67 0 0 0 3.392-9.334l3.452.611c2.24.397 4.386-1.333 4.367-3.731-.014-1.813-1.387-3.33-3.164-3.644z"/>
                <path fill="#C0BCD8" d="M560.142 654.027c0 7.657-6.177 13.887-13.77 13.887s-13.77-6.23-13.77-13.887 6.177-13.886 13.77-13.886 13.77 6.23 13.77 13.886zm37.326 12.847l-7.165-5.137c.34-1.973.552-3.988.627-6.04l8.07-3.523-8.285-2.944a45.015 45.015 0 0 0-1.049-5.987l6.789-5.625-8.777-.528a44.975 44.975 0 0 0-2.648-5.447l5-7.31-8.605 1.937a45.202 45.202 0 0 0-4.014-4.494l2.81-8.427-7.737 4.251a44.78 44.78 0 0 0-3.72-2.443l.405-9.022-6.199 6.161a43.976 43.976 0 0 0-4.088-1.43l-1.803-9.059-4.658 7.67a44.334 44.334 0 0 0-4.06-.373l-3.96-8.154-2.483 8.328c-1.602.16-3.178.41-4.726.738l-5.335-7.034-.829 8.814a44.253 44.253 0 0 0-5.498 2.486l-7.064-5.288 1.619 8.732a45.013 45.013 0 0 0-4.592 3.896l-8.255-3.127 3.945 7.95a45.113 45.113 0 0 0-3.365 5.014l-8.777-.71 5.951 6.53a44.84 44.84 0 0 0-1.872 5.775l-8.608 1.752 7.492 4.615a45.694 45.694 0 0 0-.232 4.606c0 .492.021.98.037 1.467L494 659.578l8.476 2.357c.356 2.014.84 3.982 1.453 5.895l-6.383 6.09 8.793-.09a45.127 45.127 0 0 0 3.013 5.252l-4.477 7.638 8.44-2.535a45.194 45.194 0 0 0 4.324 4.202l-2.22 8.6 7.418-4.78a44.393 44.393 0 0 0 5.307 2.851l.217 8.869 5.815-6.648c1.916.55 3.882.977 5.892 1.265l2.63 8.456 3.77-8a44.398 44.398 0 0 0 6.012-.43l4.84 7.4 1.438-8.746a44 44 0 0 0 5.656-2.081l6.68 5.77-1.01-8.822a44.844 44.844 0 0 0 4.858-3.561l8.01 3.696-3.383-8.204a45.215 45.215 0 0 0 3.706-4.769l8.702 1.325-5.482-6.928a44.893 44.893 0 0 0 2.256-5.632l8.717-1.144z"/>
                <path fill="#AD263D" d="M447 733.26h-3.671L423 709.02l20.329-24.24H447l24 24.24z"/>
                <path fill="#FF6161" d="M443 733.26l-24-24.24 24-24.24 24 24.24z"/>
                <path fill="#C0BCD8" d="M380.269 665.045l-5.525-3.193a30.488 30.488 0 0 0 0-16.765l5.525-3.193c2.606-1.506 3.507-4.873 2.002-7.482l-1.9-3.294c-1.504-2.61-4.867-3.512-7.473-2.005l-5.53 3.196a30.367 30.367 0 0 0-14.497-8.389v-6.383c0-3.012-2.462-5.477-5.471-5.477h-3.8c-3.009 0-5.471 2.465-5.471 5.477v6.383a30.369 30.369 0 0 0-14.496 8.39l-5.53-3.197c-2.607-1.507-5.97-.604-7.474 2.005l-1.9 3.294c-1.505 2.61-.604 5.976 2.002 7.482l5.525 3.194a30.479 30.479 0 0 0-1.176 8.382c0 2.908.416 5.718 1.176 8.382l-5.525 3.193c-2.606 1.507-3.507 4.874-2.002 7.483l1.9 3.294c1.504 2.609 4.867 3.511 7.473 2.005l5.53-3.197a30.371 30.371 0 0 0 14.497 8.39v6.383c0 3.012 2.462 5.477 5.471 5.477h3.8c3.009 0 5.471-2.465 5.471-5.477v-6.383a30.369 30.369 0 0 0 14.496-8.39l5.53 3.197c2.607 1.506 5.97.604 7.474-2.005l1.9-3.294c1.505-2.61.604-5.976-2.002-7.483"/>
                <path fill="#311E69" d="M357 652.965c0 6.415-5.149 11.615-11.5 11.615s-11.5-5.2-11.5-11.615 5.149-11.615 11.5-11.615 11.5 5.2 11.5 11.615"/>
                <path fill="#BF9734" d="M595.374 566.315L595 521.472l7.536-.312v.017c11.302 0 20.464 10.17 20.464 22.716 0 12.546-9.162 22.717-20.464 22.717l-7.162-.295z"/>
                <path fill="#FFE181" d="M595 566.61c11.598 0 21-10.174 21-22.725 0-12.55-9.402-22.725-21-22.725s-21 10.174-21 22.725c0 12.55 9.402 22.725 21 22.725"/>
                <path fill="#1E1240" d="M196.333 406.189s6.684-2.587 9.133-.096c2.448 2.49-.529 7.999-.529 7.999s.698 8.047 3.396 11.16c2.698 3.114 4.418 11.35-.233 14.68-4.65 3.33-13.302 1.27-19.441-10.369-6.14-11.64-.838-22.13 7.674-23.374"/>
                <path fill="#2A632C" d="M693.387 608.02c2.505 0 3.64 1.79 3.613 3.99-.075 6.036-2.013 20.696-11.44 33.063-12.205 16.01-33.276 8.128-37.052 1.581-3.777-6.547.333-7.282 3.673-8.699 4.778-2.025 14.476-.651 22.663-4.027 6.405-2.641 12.548-18.545 14.918-23.94.663-1.508 2.53-1.968 3.625-1.968"/>
                <path fill="#174724" d="M694.04 608.02c-.704 7.022-3.347 18.684-11.219 28.798-11.037 14.18-29.32 9.227-35.515 3.406-.582 1.158-.411 2.85 1.196 5.58 3.777 6.414 24.85 14.134 37.057-1.549 9.428-12.113 11.366-26.473 11.44-32.386.025-1.954-.917-3.564-2.96-3.849"/>
                <path fill="#FF6161" d="M647.999 642.432a5.833 5.833 0 0 0-.142-1.166c-.17-.764-.543-2.096-1.145-2.462-.858-.522-3.12-.642-2.9-.26.218.38 2.143.879 2.143.879s-2.22.114-2.746.567c-.526.453.05 1.573.53 1.913.482.34 2.532 2.48 3.517 2.477.67-.002.756-1.19.743-1.948"/>
                <path fill="#2A632C" d="M595.335 360.654c-9.095-1.687-11.004 22.408-16.421 30.014-6.306 8.854-36.888 25.846-33.679 31.677 3.21 5.831 27.492-3.018 39.494-13.58 12.001-10.562 21.229-46.14 10.606-48.11"/>
                <path fill="#174724" d="M596.277 360.577c-.025-.004-.048-.003-.073-.007-.214 3.948-.785 11.147-2.241 16.597-2.114 7.908-14.444 27.153-18.499 29.916-4.055 2.763-13.757 6.288-17.336 8.48-3.58 2.191-11.492 5.05-11.115 7.717.017.125.064.252.111.379 6.441 2.747 27.468-5.382 38.415-14.908 12.15-10.576 21.493-46.2 10.738-48.174"/>
                <path fill="#FF6161" d="M547.66 421.09c.794 1.207.133 2.785-1.33 3.143-2.674.655-7.172 1.523-9.076.522-2.795-1.47-3.918-1.962-2.864-2.325 1.054-.364 3.268.494 4.682.287 1.414-.208 1.074-1.005.604-1.17-.47-.166-2.43-.185-2.597-.981-.167-.797.215-.41 2.03-.873 1.816-.463 5.839-1.104 7.637.381.386.32.684.667.914 1.017"/>
                <path fill="#7265EA" d="M578.164 369.823s2.014-.188 2.779-.423c.764-.235.591-5.776 1.676-5.8 1.084-.023 2.07.54 2.341 1.856.271 1.314-.863 6.738-2.687 7.067-1.824.329-2.982.164-3.549-.423-.567-.587-.962-2.094-.56-2.277"/>
                <path fill="#FFF" d="M210.85 487.353c-.342-2.602-1.701-5.699-3.638-8.991-7.124-12.114-22.089-26.883-23.248-29.502-12.027 2.083-22.796-14.663-28.041 1.976-5.386 17.084 16.185 40.997 16.114 41.528-.368 2.749-20.263 25.606-17.831 34.844.897 3.407 7.143 1.992 8.44 1.015 8.32-6.26 24.421-23.882 26.052-35.15.289-1.997.15-3.963-.272-5.92-1.169-5.418-4.525-10.777-7.132-16.609 0 0 12.496 17.74 12.518 18.257.165 3.732-17.706 36.261-14.274 45.326.932 2.46 6.801 2.74 7.89 1.346 5.219-6.692 25.505-32.323 23.423-48.12"/>
                <path fill="#AD263D" d="M202.246 426.651c2.085 6.478-2.166 22.145.082 27.683 3.161 7.794 20.74 20.061 17.205 24.897-5.28 7.222-25.658-12.979-27.653-22.141-4.261-19.575 8.22-37.104 10.366-30.439"/>
                <path fill="#1E1240" d="M192.344 437.625A37.862 37.862 0 0 0 191 447.43c1.372-.312 3.966-1.215 5.4-3.734 2.01-3.53 3.6-11.416 3.6-11.416s-5.116 3.53-7.656 5.345"/>
                <path fill="#FF9791" d="M158.223 446.46c4.743-11.03 9.178-17.105 19.618-27.027 4.392-4.174 11.48-3.348 12.925-3.025 4.034.902 10.103 3.59 11.513 6.842 3.14 7.243-4.89 12.908-6.678 15.126-3.8 4.713-3.57 11.001-7.617 19.801-4.62 10.044-32.761-4.739-29.76-11.718"/>
                <path fill="#FFE6E6" d="M210.85 488.607c-.344-2.589-1.708-5.67-3.65-8.947-2.117-3.57-4.924-7.37-7.857-11.02 1.677 4.74 3.245 10.388 2.454 13.258-1.514 5.489-3.837 5.338-3.913 8.303-.075 2.964-8.36 29.355-11.674 33.471-1.714 2.13-3.943 1.265-6.012 1.335-1.156 4.278-1.608 7.92-.76 10.141.935 2.447 6.823 2.726 7.914 1.339 5.237-6.658 25.587-32.161 23.498-47.88"/>
                <path fill="#D95F76" d="M201.288 422.692c-.989-2.279-4.292-4.274-7.552-5.562.243 2.603.364 7.04-1.007 10.7-2.081 5.557-9.55 9.677-11.62 11.689-1.737 1.69-8.077 12.707-10.109 18.802 6.786 2.802 14.023 3.535 16.161-1.114 4-8.696 3.772-14.91 7.527-19.568 1.767-2.191 9.703-7.79 6.6-14.947"/>
                <path fill="#FF6161" d="M193.354 413.09l-3.193 5.63c-.522.929.227 4.736 2.208 4.455.58-.082.777-1.712.944-2.93l1.687-5.553-1.646-1.602z"/>
                <path fill="#FFE6E6" d="M188.575 488.211c-1.17-5.395-4.53-10.733-7.14-16.541 0 0-3.133 1.836-.998 9.476 2.134 7.64 3.201 12.02.996 15.25-2.206 3.23-6.475.646-10.957 7.395-3.202 4.82-10.103 16.671-13.476 26.373 2.172.348 4.948-.435 5.766-1.047 8.33-6.235 24.449-23.786 26.081-35.008.29-1.99.15-3.948-.272-5.898"/>
                <path fill="#311E69" d="M195.154 417.13c-1.726-1.88-1.004-4.04-1.004-4.04l1.85 1.37-.846 2.67z"/>
                <path fill="#FF6161" d="M196.653 409.713l-2.09 1.63c-1.656 1.291-2.095 3.699-.837 5.38 1.16 1.554 3.258 2.012 5.114.445 1.65-1.392 1.804-3.783 2.065-4.867.596-2.47-1.713-4.285-4.252-2.588"/>
                <path fill="#FFF" d="M196 414.1s1.093.164 2 .919c0 0-.931.518-2-.919"/>
                <path fill="#AD263D" d="M194.246 415.202c.469.568 1.507 1.314 2.136 1.36.558.039 1.428-.41 1.618-.512-.025.027-.047.057-.073.083-1.566 1.607-3.336 1.137-4.316-.456-.654-1.064-.762-2.41-.423-3.597.077 1.501.635 2.61 1.058 3.122"/>
                <path fill="#FF6161" d="M195.561 412.806c.058-.233.15-.454.254-.67.2-.409.402-1.064-.34-1.066-1.077-.003-2.02 2.237-1.107 2.903.677.496 1.047-.58 1.193-1.167"/>
                <path fill="#311E69" d="M179.004 432.28s-.273 20.984 3.557 28.444C189.687 474.601 196 474.7 196 474.7l-16.996-42.42z"/>
                <path fill="#614CD4" d="M207.295 669.084l-19.963-11.648c-3.27-1.909-5.11-5.624-4.581-9.402.328-2.35.498-4.75.498-7.189 0-2.44-.17-4.84-.498-7.189-.529-3.778 1.312-7.493 4.581-9.402l19.963-11.648c5.372-3.135 12.218-.198 13.723 5.883a92.97 92.97 0 0 1 2.713 22.356c0 7.707-.941 15.195-2.713 22.356-1.505 6.081-8.351 9.018-13.723 5.883zM145.7 720.43v-23.3a9.444 9.444 0 0 1 5.846-8.744 50.647 50.647 0 0 0 12.21-7.16c2.973-2.355 7.08-2.604 10.352-.694l19.937 11.633c5.374 3.136 6.275 10.601 1.813 14.96-10.597 10.35-23.66 18.136-38.2 22.357-5.984 1.738-11.958-2.76-11.958-9.052zm-26.402 0c0 6.293-5.974 10.79-11.958 9.052-14.54-4.221-27.603-12.006-38.2-22.356-4.462-4.36-3.561-11.825 1.814-14.96l19.936-11.634c3.272-1.91 7.379-1.66 10.352.695a50.643 50.643 0 0 0 12.21 7.159 9.444 9.444 0 0 1 5.846 8.743v23.3zM43.982 663.2a92.98 92.98 0 0 1-2.713-22.355 92.98 92.98 0 0 1 2.713-22.356c1.505-6.081 8.351-9.018 13.723-5.883l19.963 11.648c3.27 1.909 5.11 5.624 4.582 9.402a51.92 51.92 0 0 0 0 14.378c.528 3.778-1.312 7.493-4.582 9.402l-19.963 11.648c-5.372 3.135-12.218.198-13.723-5.883zm75.317-101.94v23.301a9.444 9.444 0 0 1-5.846 8.743 50.643 50.643 0 0 0-12.21 7.16c-2.973 2.355-7.08 2.604-10.352.694l-19.936-11.633c-5.375-3.136-6.276-10.601-1.813-14.96 10.596-10.35 23.659-18.135 38.199-22.357 5.984-1.738 11.958 2.76 11.958 9.052zm15.424 104.093c-15.168 1.368-27.823-11.422-26.472-26.752 1.036-11.752 10.399-21.216 22.026-22.264 15.168-1.368 27.823 11.422 26.472 26.752-1.036 11.752-10.399 21.216-22.026 22.264zm10.978-104.093c0-6.293 5.974-10.79 11.958-9.052 14.54 4.222 27.603 12.007 38.2 22.357 4.462 4.359 3.561 11.824-1.813 14.96l-19.937 11.633c-3.272 1.91-7.379 1.661-10.352-.695a50.647 50.647 0 0 0-12.21-7.159 9.444 9.444 0 0 1-5.846-8.743v-23.3zm111.812 92.833l-7.967-1.42c.435-4.43.637-8.928.576-13.486a120.168 120.168 0 0 0-.578-10.17l7.97-1.42c4.204-.749 7.452-4.358 7.486-8.673.045-5.71-5.033-9.828-10.332-8.883l-8.184 1.458a118.76 118.76 0 0 0-8.04-22.205l7.047-4.113c3.698-2.157 5.528-6.672 4.1-10.738-1.89-5.382-8.055-7.495-12.714-4.776l-7.27 4.242a119.862 119.862 0 0 0-15.043-18.074l5.277-6.356c2.744-3.305 2.937-8.18.218-11.508-3.597-4.404-10.105-4.259-13.563-.093l-5.4 6.504a117.616 117.616 0 0 0-20.221-11.862l2.78-7.723c1.46-4.055-.008-8.703-3.688-10.89-4.87-2.894-10.937-.509-12.777 4.602l-2.844 7.896a115.434 115.434 0 0 0-23.045-4.114v-8.18c0-4.314-2.954-8.174-7.152-8.957-5.556-1.036-10.45 3.303-10.45 8.74v8.397a115.81 115.81 0 0 0-23.051 4.096l-2.764-7.675c-1.46-4.054-5.542-6.66-9.752-5.945-5.571.947-8.701 6.716-6.861 11.826l2.843 7.895a117.39 117.39 0 0 0-20.241 11.856l-5.23-6.3c-2.745-3.305-7.462-4.344-11.176-2.216-4.915 2.816-5.904 9.32-2.446 13.485l5.378 6.477a119.523 119.523 0 0 0-15.047 18.095l-7.043-4.11c-3.697-2.157-8.48-1.502-11.25 1.781-3.667 4.345-2.395 10.798 2.264 13.517l7.203 4.203a118.802 118.802 0 0 0-8.025 22.22l-7.958-1.418c-4.204-.749-8.478 1.52-9.97 5.564-1.974 5.35 1.404 10.974 6.702 11.918l8.179 1.457c-.435 4.43-.637 8.928-.575 13.486.046 3.427.246 6.817.577 10.17l-7.97 1.42c-4.204.749-7.452 4.358-7.486 8.673-.045 5.71 5.033 9.828 10.332 8.883l8.184-1.458a118.754 118.754 0 0 0 8.041 22.205l-7.048 4.113c-3.697 2.157-5.528 6.672-4.1 10.738 1.89 5.382 8.055 7.495 12.714 4.776l7.27-4.242a119.871 119.871 0 0 0 15.043 18.074l-5.277 6.356c-2.744 3.306-2.937 8.18-.218 11.508 3.597 4.404 10.105 4.259 13.563.093l5.4-6.504a117.585 117.585 0 0 0 20.222 11.862l-2.782 7.723c-1.46 4.055.009 8.703 3.69 10.89 4.87 2.894 10.936.509 12.777-4.601l2.843-7.897a115.418 115.418 0 0 0 23.046 4.114v8.18c0 4.315 2.953 8.174 7.151 8.957 5.556 1.036 10.45-3.303 10.45-8.74v-8.397a115.85 115.85 0 0 0 23.051-4.096l2.764 7.675c1.46 4.054 5.542 6.66 9.752 5.945 5.571-.947 8.701-6.716 6.861-11.826l-2.843-7.895a117.392 117.392 0 0 0 20.242-11.856l5.23 6.3c2.744 3.305 7.46 4.344 11.175 2.216 4.915-2.816 5.904-9.319 2.446-13.485L214.6 725.9a119.496 119.496 0 0 0 15.047-18.095l7.043 4.11c3.697 2.157 8.481 1.503 11.251-1.781 3.666-4.345 2.395-10.798-2.265-13.517l-7.203-4.203a118.813 118.813 0 0 0 8.025-22.22l8.17 1.455c5.298.945 10.376-3.172 10.33-8.883-.033-4.314-3.281-7.924-7.486-8.673z"/>
                <path fill="#FFE181" d="M301.836 529.338c0 14.293-11.473 25.92-25.574 25.92s-25.574-11.627-25.574-25.92c0-14.293 11.473-25.921 25.574-25.921s25.574 11.628 25.574 25.92zm69.319 23.98l-13.307-9.59a85.015 85.015 0 0 0 1.164-11.272L374 525.878l-15.386-5.495a84.446 84.446 0 0 0-1.947-11.176l12.606-10.5-16.3-.985a84.162 84.162 0 0 0-4.916-10.168l9.283-13.645-15.979 3.616a84.22 84.22 0 0 0-7.455-8.39l5.22-15.73-14.37 7.936a82.945 82.945 0 0 0-6.907-4.56l.75-16.842-11.511 11.5a81.327 81.327 0 0 0-7.594-2.668l-3.347-16.91-8.651 14.317a81.85 81.85 0 0 0-7.54-.697L272.6 430.26l-4.61 15.545c-2.974.3-5.902.765-8.777 1.378l-9.908-13.129-1.538 16.452a81.85 81.85 0 0 0-10.21 4.64l-13.12-9.87 3.006 16.3a83.73 83.73 0 0 0-8.528 7.272l-15.33-5.837 7.326 14.838a84.344 84.344 0 0 0-6.249 9.361l-16.3-1.325 11.052 12.188a84.017 84.017 0 0 0-3.476 10.78l-15.988 3.272 13.915 8.614a85.71 85.71 0 0 0-.432 8.599c0 .918.04 1.827.069 2.738L179 539.699l15.741 4.399c.661 3.76 1.56 7.435 2.7 11.005l-11.856 11.367 16.331-.17a84.294 84.294 0 0 0 5.596 9.806l-8.316 14.258 15.674-4.732a84.074 84.074 0 0 0 8.03 7.844l-4.122 16.055 13.777-8.926a82.341 82.341 0 0 0 9.855 5.324l.403 16.555 10.8-12.41a81.155 81.155 0 0 0 10.943 2.362l4.884 15.784 7-14.934a82.068 82.068 0 0 0 11.165-.803l8.99 13.812 2.67-16.324a81.48 81.48 0 0 0 10.505-3.884l12.405 10.772-1.876-16.468a83.324 83.324 0 0 0 9.022-6.649l14.877 6.9-6.285-15.313a84.338 84.338 0 0 0 6.884-8.903l16.16 2.474-10.18-12.933a84.052 84.052 0 0 0 4.19-10.514l16.188-2.135z"/>
                <path fill="#AD263D" d="M485.973 591.272c-5.607-3.28-7.528-10.546-4.29-16.228 3.237-5.682 10.407-7.628 16.014-4.348 5.607 3.28 7.529 10.546 4.291 16.228-3.237 5.682-10.407 7.629-16.015 4.348m-23.763.329c6.084-2.244 12.812.935 15.026 7.1 2.215 6.165-.922 12.982-7.007 15.226-6.084 2.244-12.812-.935-15.026-7.1-2.215-6.165.922-12.982 7.007-15.226m-24.434-84.918c0-6.56 5.249-11.88 11.724-11.88 6.475 0 11.724 5.32 11.724 11.88 0 6.561-5.249 11.88-11.724 11.88-6.475 0-11.724-5.319-11.724-11.88m6.021 100.144c-2.214 6.165-8.942 9.344-15.026 7.1-6.085-2.244-9.222-9.06-7.007-15.226 2.214-6.165 8.942-9.344 15.026-7.1 6.084 2.244 9.222 9.06 7.007 15.226m-46.785-19.903c-3.238-5.682-1.317-12.947 4.29-16.228 5.608-3.28 12.778-1.334 16.015 4.348 3.238 5.682 1.317 12.948-4.29 16.228-5.608 3.28-12.778 1.334-16.015-4.348m-7.2-41.371c1.124-6.461 7.205-10.775 13.582-9.636 6.376 1.14 10.634 7.3 9.51 13.762-1.125 6.46-7.205 10.775-13.582 9.636-6.376-1.14-10.634-7.3-9.51-13.762m37.246-34.917c4.162 5.026 3.515 12.519-1.445 16.736-4.96 4.217-12.355 3.562-16.517-1.464-4.161-5.026-3.515-12.519 1.446-16.736 4.96-4.217 12.354-3.562 16.516 1.464m44.884 0c4.161-5.026 11.556-5.681 16.516-1.464 4.96 4.217 5.607 11.71 1.445 16.736s-11.556 5.681-16.517 1.464c-4.96-4.217-5.607-11.71-1.444-16.736m37.246 34.917c1.124 6.461-3.134 12.623-9.51 13.762-6.377 1.14-12.457-3.175-13.582-9.636-1.124-6.461 3.133-12.623 9.51-13.762 6.377-1.14 12.457 3.175 13.582 9.636m19.855 12.905l7.355-1.315c4.345-.776 7.245-4.974 6.48-9.376l-2.78-15.97c-.766-4.403-4.909-7.342-9.253-6.566l-7.333 1.31a80.808 80.808 0 0 0-11.653-20.42l4.796-5.793c2.836-3.424 2.395-8.53-.984-11.403l-12.26-10.424a7.915 7.915 0 0 0-11.254.998l-4.775 5.766a78.383 78.383 0 0 0-21.892-8.074v-7.527c0-4.47-3.576-8.094-7.988-8.094h-16.004c-4.412 0-7.988 3.624-7.988 8.094v7.527a78.38 78.38 0 0 0-21.892 8.074l-4.775-5.766a7.916 7.916 0 0 0-11.253-.998l-12.26 10.424c-3.38 2.874-3.82 7.979-.985 11.403l4.796 5.792a80.8 80.8 0 0 0-11.653 20.421l-7.333-1.31c-4.344-.776-8.487 2.163-9.253 6.565l-2.78 15.971c-.765 4.402 2.135 8.6 6.48 9.376l7.355 1.315a81.394 81.394 0 0 0 4.02 23.232l-6.447 3.772c-3.82 2.235-5.13 7.185-2.924 11.056l8.002 14.045c2.206 3.871 7.091 5.198 10.912 2.963l6.46-3.78a80.243 80.243 0 0 0 17.825 15.177l-2.546 7.086c-1.509 4.2.629 8.845 4.774 10.374l15.04 5.547c4.145 1.529 8.729-.637 10.237-4.838l2.546-7.087c3.802.565 7.687.868 11.644.868s7.842-.303 11.644-.868l2.545 7.087c1.51 4.2 6.093 6.367 10.238 4.838l15.04-5.547c4.145-1.529 6.282-6.173 4.774-10.374l-2.546-7.086a80.239 80.239 0 0 0 17.825-15.177l6.46 3.78c3.82 2.235 8.706.908 10.911-2.963l8.003-14.045c2.205-3.87.896-8.82-2.924-11.056l-6.447-3.772a81.386 81.386 0 0 0 4.02-23.232"/>
                <path fill="#FF6161" d="M478.973 591.272c-5.607-3.28-7.528-10.546-4.29-16.228 3.237-5.682 10.407-7.628 16.014-4.348 5.608 3.28 7.529 10.546 4.291 16.228-3.237 5.682-10.407 7.629-16.015 4.348m-23.763.329c6.084-2.244 12.812.935 15.026 7.1 2.215 6.165-.922 12.982-7.007 15.226-6.084 2.244-12.812-.935-15.026-7.1-2.215-6.165.922-12.982 7.007-15.226m-24.434-84.918c0-6.56 5.249-11.88 11.724-11.88 6.475 0 11.724 5.32 11.724 11.88 0 6.561-5.249 11.88-11.724 11.88-6.475 0-11.724-5.319-11.724-11.88m6.021 100.144c-2.214 6.165-8.942 9.344-15.026 7.1-6.085-2.244-9.222-9.06-7.007-15.226 2.214-6.165 8.942-9.344 15.026-7.1 6.085 2.244 9.222 9.06 7.007 15.226m-46.785-19.903c-3.238-5.682-1.317-12.947 4.29-16.228 5.608-3.28 12.778-1.334 16.015 4.348 3.238 5.682 1.317 12.948-4.29 16.228-5.608 3.28-12.778 1.334-16.015-4.348m-7.2-41.371c1.124-6.461 7.205-10.775 13.582-9.636 6.376 1.14 10.634 7.3 9.51 13.762-1.125 6.46-7.205 10.775-13.582 9.636-6.376-1.14-10.634-7.3-9.51-13.762m37.246-34.917c4.162 5.026 3.515 12.519-1.445 16.736-4.96 4.217-12.355 3.562-16.516-1.464-4.162-5.026-3.516-12.519 1.445-16.736 4.96-4.217 12.354-3.562 16.516 1.464m44.884 0c4.161-5.026 11.556-5.681 16.516-1.464 4.96 4.217 5.607 11.71 1.445 16.736s-11.556 5.681-16.517 1.464c-4.96-4.217-5.607-11.71-1.444-16.736m37.246 34.917c1.124 6.461-3.134 12.623-9.51 13.762-6.377 1.14-12.457-3.175-13.582-9.636-1.124-6.461 3.133-12.623 9.51-13.762 6.377-1.14 12.457 3.175 13.582 9.636m19.855 12.905l7.355-1.315c4.345-.776 7.245-4.974 6.48-9.376l-2.78-15.97c-.766-4.403-4.909-7.342-9.253-6.566l-7.333 1.31a80.816 80.816 0 0 0-11.653-20.42l4.796-5.793c2.836-3.424 2.395-8.53-.984-11.403l-12.26-10.424a7.916 7.916 0 0 0-11.254.998l-4.775 5.766a78.383 78.383 0 0 0-21.892-8.074v-7.527c0-4.47-3.576-8.094-7.988-8.094h-16.004c-4.412 0-7.988 3.624-7.988 8.094v7.527a78.388 78.388 0 0 0-21.892 8.074l-4.775-5.766a7.916 7.916 0 0 0-11.253-.998l-12.26 10.424c-3.38 2.874-3.82 7.979-.985 11.403l4.796 5.792a80.8 80.8 0 0 0-11.653 20.421l-7.333-1.31c-4.344-.776-8.487 2.163-9.253 6.565l-2.78 15.971c-.765 4.402 2.135 8.6 6.48 9.376l7.355 1.315a81.394 81.394 0 0 0 4.02 23.232l-6.447 3.772c-3.82 2.235-5.13 7.185-2.924 11.056l8.002 14.045c2.206 3.871 7.091 5.198 10.912 2.963l6.46-3.78a80.243 80.243 0 0 0 17.825 15.177l-2.546 7.086c-1.509 4.2.629 8.845 4.774 10.374l15.04 5.547c4.145 1.529 8.729-.637 10.237-4.838l2.546-7.087c3.802.565 7.687.868 11.644.868s7.842-.303 11.644-.868l2.546 7.087c1.508 4.2 6.092 6.367 10.237 4.838l15.04-5.547c4.145-1.529 6.282-6.173 4.774-10.374l-2.546-7.086a80.239 80.239 0 0 0 17.825-15.177l6.46 3.78c3.82 2.235 8.706.908 10.911-2.963l8.003-14.045c2.205-3.87.896-8.82-2.924-11.056l-6.447-3.772a81.386 81.386 0 0 0 4.02-23.232"/>
                <path fill="#1E1240" d="M19.442 875.562c1.095-1.637 1.396-3.439 1.523-4.919l5.452-.023s-.363 1.879.561 3.342c.403.638 8.908 4.773 9.02 5.648.188 1.459-14.85 1.476-17.355.073-1.31-.734-.403-2.326.799-4.12"/>
                <path fill="#1E1240" d="M5.442 875.562c1.095-1.637 1.396-3.439 1.523-4.919l5.452-.023s-.363 1.879.561 3.342c.403.638 8.908 4.773 9.02 5.648.188 1.459-14.85 1.476-17.355.073-1.31-.734-.403-2.326.799-4.12"/>
                <path fill="#614CD4" d="M9.954 763.56c-2.119 4.094-4.263 9.13-4.333 15.357-.034 3.056 2.089 40.376-.545 44.777-6.12 10.223-1.463 37.2-.01 45.894.27 1.617 1.512 2.88 3.091 3.127 2.32.36 5.512-.06 5.873-1.095 13.459-38.666 14.66-94.736 15.412-94.828 1.055-.128 3.766 43.747 1.181 48.064-6.226 10.4-10.64 37.487-11.556 45.518-.142 1.237.66 2.376 1.847 2.634 2.327.507 5.916 1.097 6.575.102 17.345-26.228 30.283-66.092 19.665-107.413-16.978 6.08-31.682.525-37.2-2.137"/>
                <path fill="#311E69" d="M38.393 731.24c-2.746 2.248-3.595 4.991-3.354 7.666 2.896 2.574 6.513 5.498 9.961 7.484-.346-7.59-6.607-15.15-6.607-15.15M47.148 766.59c-2.471.876-19.025 1.946-21.38 2.38-.347 2.104 10.15 4.939 10.895 7.555 3.078 10.815 8.443 40.791 3.825 51.321-3.868 8.82-14.32 17.636-18.023 22.442-1.809 8.427-3.017 16.364-3.449 20.113-.141 1.227.661 2.357 1.85 2.613 2.331.502 5.926 1.087 6.585.1 17.373-26.01 30.331-65.545 19.697-106.524"/>
                <path fill="#FFF" d="M49 764.865a119.713 119.713 0 0 0-3.531-11.222c-.143-.385-.243-.771-.359-1.149-.056-1.194-.414-2.542-1.13-4.032-4.987-11.451 1.328-14.733-2.21-18.816-.703-.811-3.53-3.451-4.418-4.458-1.472-1.669-2.289-3.037-3.906-3.038-8.35-.002-12.26 3.717-15.22 7.309-6.871 8.335-1.866 22.482-3.82 26.869-.815 1.831-2.105 3.948-3.406 6.404 5.637 2.657 20.657 8.201 38 2.133"/>
                <path fill="#FFE6E6" d="M44.603 753.88c-.138-.387-.234-.776-.345-1.157-.055-1.204-.399-2.561-1.088-4.063-4.798-11.537 1.278-14.844-2.126-18.958-.676-.817-3.396-3.477-4.25-4.491-1.417-1.681-2.203-3.06-3.759-3.061-1.36 0-2.59.114-3.722.31 2.45 2.34 7.579 7.507 8.307 10.402.961 3.823-9.552 6.998-8.553 11.471 1 4.474 8.403 2.165 8.615 11.833.073 3.325.2 7.45.335 11.434A44.872 44.872 0 0 0 48 765.187a124.91 124.91 0 0 0-3.397-11.306"/>
                <path fill="#311E69" d="M19.434 814.487c.898 8.042-2.046 21.288-4.401 24.6-1.737 2.441-9.042 3.332-12.996-1.298-.368 11.712 2.098 25.764 3.094 31.596a3.8 3.8 0 0 0 3.162 3.128c2.373.361 5.637-.06 6.006-1.095C27.701 833.76 29.219 779.607 30 776.69c-.463.988-3.455 7.6-3.78 14.145-.354 7.095-7.683 15.61-6.786 23.652M43.69 754.902c-.14-.39-.237-.78-.35-1.161-.004-.093-.013-.187-.02-.281L24 755.846s.633 4.859 6.947 7.006c3.697 1.257 9.968.749 15.053-.808a124.801 124.801 0 0 0-2.31-7.142"/>
                <path fill="#1E1240" d="M24.933 709.83s0-4.103-2.844-3.827c-2.843.276-4.474 1.026-4.265 2.684a6.515 6.515 0 0 0 1.12 2.85s-1.497-.325-1.79-1.548c0 0-1.17 5.01 2.928 5.09 4.098.078 5.224-3.185 4.85-5.248"/>
                <path fill="#1E1240" d="M31 715.628s-.255-4.324-2.717-5.929c-2.461-1.605-5.942 0-6.128 1.07 0 0-5.613 4.637-1.865 8.62 3.748 3.982 8.243.504 10.71-3.76"/>
                <path fill="#FF6161" d="M24 719.12l.074 7.092c.017 1.167 2.946 4.1 4.745 2.58.527-.444-.214-2.032-.748-3.231l-1.52-6.059L24 719.12z"/>
                <path fill="#311E69" d="M28 722.15c-2.49-.632-3-3.03-3-3.03l2.33.094.67 2.936z"/>
                <path fill="#FF6161" d="M24.429 714.713l-.39 2.75c-.308 2.181 1.22 4.304 3.532 4.64 2.133.309 4.156-.887 4.41-3.42.224-2.25-1.518-4.152-2.155-5.154-1.454-2.284-4.704-1.948-5.397 1.184"/>
                <path fill="#FF6161" d="M24.7 717.52a2.944 2.944 0 0 1-.216-.663c-.092-.432-.345-1.054-1.013-.62-.971.633-.332 2.907.93 2.883.939-.019.557-1.063.299-1.6M30.045 715.63a2.35 2.35 0 0 0 0-.68c-.053-.43.004-1.078.916-.822 1.327.372 1.44 2.676.007 2.947-1.064.202-1.017-.877-.923-1.445"/>
                <path fill="#FFF" d="M27 718.571s.862.075 2-.461c0 0-.133 1.318-.544 1.837-.411.519-1.012-.105-1.456-1.376"/>
                <path fill="#AD263D" d="M28.124 721.086c.81.007 2.242-.396 2.823-.975.515-.513.959-1.73 1.053-2.001-.003.047-.002.092-.005.14-.235 2.849-2.112 4.194-4.09 3.846-1.32-.232-2.365-1.23-2.905-2.535 1.126 1.155 2.395 1.519 3.124 1.525"/>
                <path fill="#FFF" d="M24.38 732.907c4.153 4.145 8.41 14.65 11.07 15.369 3.65.985 17.614-7.254 20.898-9.372 3.284-2.119 6.926 3.35 2.835 8.815-4.09 5.466-16.753 12.215-24.625 12.796-5.333.393-13.873-6.986-17.29-15.346-2.295-5.613-1.471-11.189 2.444-13.61 1.398-.865 3.497.178 4.669 1.348"/>
                <path fill="#FFE6E6" d="M53.644 746.374c-4.733 1.213-9.231 7.578-14.718 10.112-5.486 2.533-6.516-.883-10.152-6.328-3.058-4.58-9.867-12.483-11.954-14.878-1.221 2.746-1.082 6.406.443 10.088 3.417 8.252 11.959 15.535 17.293 15.147 7.872-.573 20.538-7.235 24.628-12.63 1.906-2.514 2.132-5.028 1.499-6.785-1.64 1.977-4.23 4.554-7.039 5.274"/>
                <path fill="#FF6161" d="M58 738.231s.468-1.376 1.121-2.23c.654-.855 1.784-1.44 1.982-2.029.198-.59.692-1.047.81-.389.117.659.41 1.653-1.56 3.422-1.971 1.77-2.353 1.226-2.353 1.226"/>
                <path fill="#FF6161" d="M57.6 737.845l.318-.295 1.808-1.713s.966 1.088 1.896 1.004c.93-.084 2.176-2.865 3.119-2.546.542.184.035 1.492.218 2.272.182.78-.9 2.08-.841 2.566.06.486-.289 1.718-.546 2.125-.256.407-3.76 3.828-6.24.979-.88-1.012.269-4.392.269-4.392M183.753 420.431c9.034 3.232 7.358 26.403 10.897 32.694 4.053 7.203 12.728 18.908 14.972 24.88 1.091 2.903-.3 4.452-2.633 3.47-24.985-10.508-28.062-45.028-28.887-53.04-.746-7.252 2.748-9.042 5.65-8.004"/>
                <path fill="#AD263D" d="M209.8 480.591c-.852-3.16-8.739-6.625-13.169-10.057-4.43-3.432-5.375-7.151-6.44-10.485-1.066-3.335-4.547-10.946-6.253-14.063-1.705-3.117-1.705-15.15-2.76-18.194-.622-1.793-1.425-2.945-1.981-3.592-.21 1.117-.267 2.472-.099 4.123.817 8.028 3.866 42.623 28.618 53.154.96.409 1.755.374 2.284-.008a11.326 11.326 0 0 0-.2-.878"/>
                <path fill="#FF6161" d="M208.684 479.778s3.758-1.413 4.946-.942c1.187.471 3.828 1.053 3.917 1.892.089.838-1.741.368-1.741.368s1.978.567 2.077 1.201c.1.635-.336.635-.336.635s.712.612.351.8c-.361.188-3.329-.141-5.398-.141-1.47 0-5.597-1.016-5.498-2.344.099-1.328 1.682-1.47 1.682-1.47"/>
            </g>
        </g>
        <path fill="#FFE181" d="M518.796 707.467l-8.749-4.984c-1.433-.816-2.24-2.406-2.008-4.022a21.726 21.726 0 0 0 0-6.152c-.231-1.616.575-3.206 2.008-4.022l8.75-4.984c2.354-1.341 5.354-.085 6.014 2.518a38.876 38.876 0 0 1 1.189 9.564c0 3.297-.413 6.501-1.19 9.565-.659 2.602-3.66 3.858-6.014 2.517zM492 729.307v-9.767c0-1.612 1.006-3.058 2.537-3.665a22.16 22.16 0 0 0 5.297-3c1.29-.988 3.072-1.092 4.492-.292l8.65 4.877c2.332 1.314 2.723 4.443.786 6.27a39.825 39.825 0 0 1-16.573 9.372c-2.597.729-5.189-1.156-5.189-3.794zm-11 0c0 2.639-2.592 4.524-5.188 3.795a39.824 39.824 0 0 1-16.574-9.371c-1.937-1.828-1.546-4.957.786-6.271l8.65-4.877c1.42-.8 3.202-.696 4.492.292a22.164 22.164 0 0 0 5.298 3c1.53.607 2.536 2.053 2.536 3.665v9.768zm-32.81-24.357a38.879 38.879 0 0 1-1.19-9.565c0-3.297.413-6.501 1.19-9.565.659-2.602 3.66-3.858 6.014-2.517l8.749 4.984c1.433.816 2.239 2.406 2.008 4.022a21.683 21.683 0 0 0 0 6.152c.23 1.616-.575 3.206-2.008 4.022l-8.75 4.984c-2.354 1.34-5.354.085-6.014-2.517zM481 661.462v9.768c0 1.612-1.006 3.058-2.536 3.665a22.164 22.164 0 0 0-5.298 3c-1.29.988-3.072 1.092-4.492.292l-8.65-4.877c-2.332-1.314-2.723-4.443-.786-6.27a39.826 39.826 0 0 1 16.574-9.372c2.596-.729 5.188 1.156 5.188 3.794zm11 0c0-2.638 2.592-4.523 5.189-3.794a39.828 39.828 0 0 1 16.573 9.371c1.937 1.828 1.546 4.957-.786 6.271l-8.65 4.877c-1.42.8-3.202.696-4.492-.291a22.16 22.16 0 0 0-5.297-3.001c-1.53-.607-2.537-2.053-2.537-3.665v-9.768zm47.808 39.586l-3.398-.606c.186-1.894.272-3.817.246-5.765a51.541 51.541 0 0 0-.247-4.348l3.399-.607c1.793-.32 3.178-1.864 3.192-3.709.02-2.44-2.146-4.2-4.406-3.797l-3.49.624a50.862 50.862 0 0 0-3.429-9.493l3.006-1.759c1.577-.922 2.357-2.852 1.748-4.59-.806-2.301-3.434-3.205-5.421-2.042l-3.1 1.813a51.214 51.214 0 0 0-6.415-7.726l2.25-2.718c1.17-1.413 1.253-3.497.094-4.92a3.731 3.731 0 0 0-5.784-.04l-2.303 2.781a50.109 50.109 0 0 0-8.622-5.07l1.185-3.303c.623-1.733-.003-3.72-1.572-4.655-2.077-1.237-4.664-.218-5.449 1.967l-1.213 3.376a49.087 49.087 0 0 0-9.826-1.759v-3.497c0-1.844-1.26-3.495-3.05-3.83-2.37-.442-4.456 1.413-4.456 3.738v3.59a49.25 49.25 0 0 0-9.83 1.75l-1.178-3.28c-.623-1.734-2.363-2.848-4.158-2.543-2.376.405-3.71 2.872-2.926 5.056l1.212 3.376a50.036 50.036 0 0 0-8.63 5.068l-2.231-2.693c-1.17-1.413-3.181-1.857-4.765-.948-2.096 1.204-2.518 3.984-1.043 5.765l2.293 2.77a51.063 51.063 0 0 0-6.416 7.735l-3.004-1.757c-1.576-.922-3.616-.642-4.797.761-1.563 1.858-1.022 4.617.965 5.779l3.072 1.797a50.871 50.871 0 0 0-3.422 9.5l-3.393-.607c-1.793-.32-3.615.65-4.252 2.378-.841 2.288.599 4.692 2.858 5.096l3.488.623a51.87 51.87 0 0 0-.246 5.765c.02 1.465.106 2.914.246 4.347l-3.398.607c-1.793.32-3.177 1.864-3.192 3.709-.019 2.44 2.146 4.201 4.406 3.797l3.49-.623a50.842 50.842 0 0 0 3.428 9.493l-3.005 1.758c-1.577.922-2.358 2.852-1.748 4.59.805 2.301 3.434 3.205 5.421 2.042l3.1-1.813a51.216 51.216 0 0 0 6.415 7.727l-2.25 2.717c-1.17 1.413-1.253 3.497-.094 4.92a3.731 3.731 0 0 0 5.784.04l2.303-2.781a50.111 50.111 0 0 0 8.622 5.07l-1.186 3.303c-.622 1.733.004 3.72 1.573 4.655 2.077 1.238 4.664.218 5.449-1.967l1.213-3.376a49.09 49.09 0 0 0 9.826 1.759v3.497c0 1.844 1.26 3.495 3.05 3.83 2.369.442 4.456-1.413 4.456-3.738v-3.59a49.248 49.248 0 0 0 9.83-1.75l1.178 3.28c.623 1.734 2.363 2.849 4.158 2.543 2.376-.405 3.71-2.871 2.926-5.056l-1.213-3.375a50.028 50.028 0 0 0 8.632-5.069l2.23 2.693c1.17 1.414 3.181 1.857 4.765.948 2.096-1.204 2.518-3.984 1.043-5.765l-2.293-2.769a51.076 51.076 0 0 0 6.416-7.736l3.004 1.757c1.576.922 3.616.643 4.797-.761 1.563-1.858 1.021-4.617-.966-5.779l-3.071-1.797a50.834 50.834 0 0 0 3.422-9.5l3.483.623c2.26.404 4.425-1.356 4.406-3.797-.014-1.845-1.4-3.388-3.192-3.709z"/>
        <path fill="#128E75" d="M207.295 451.934l-19.963-11.648c-3.27-1.909-5.11-5.624-4.581-9.402.328-2.35.498-4.75.498-7.189 0-2.44-.17-4.84-.498-7.189-.529-3.778 1.312-7.493 4.581-9.402l19.963-11.648c5.372-3.135 12.218-.198 13.723 5.883a92.97 92.97 0 0 1 2.713 22.356c0 7.707-.941 15.195-2.713 22.356-1.505 6.081-8.351 9.018-13.723 5.883zM145.7 503.28v-23.3a9.444 9.444 0 0 1 5.846-8.744 50.647 50.647 0 0 0 12.21-7.16c2.973-2.355 7.08-2.604 10.352-.694l19.937 11.633c5.374 3.136 6.275 10.601 1.813 14.96-10.597 10.35-23.66 18.136-38.2 22.357-5.984 1.738-11.958-2.76-11.958-9.052zm-26.402 0c0 6.293-5.974 10.79-11.958 9.052-14.54-4.221-27.603-12.006-38.2-22.356-4.462-4.36-3.561-11.825 1.814-14.96l19.936-11.634c3.272-1.91 7.379-1.66 10.352.695a50.643 50.643 0 0 0 12.21 7.159 9.444 9.444 0 0 1 5.846 8.743v23.3zm-75.317-57.23a92.98 92.98 0 0 1-2.713-22.355 92.98 92.98 0 0 1 2.713-22.356c1.505-6.081 8.351-9.018 13.723-5.883l19.963 11.648c3.27 1.909 5.11 5.624 4.582 9.402a51.92 51.92 0 0 0 0 14.378c.528 3.778-1.312 7.493-4.582 9.402l-19.963 11.648c-5.372 3.135-12.218.198-13.723-5.883zm75.317-101.94v23.301a9.444 9.444 0 0 1-5.846 8.743 50.643 50.643 0 0 0-12.21 7.16c-2.973 2.355-7.08 2.604-10.352.694l-19.936-11.633c-5.375-3.136-6.276-10.601-1.813-14.96 10.596-10.35 23.659-18.135 38.199-22.357 5.984-1.738 11.958 2.76 11.958 9.052zm15.424 104.093c-15.168 1.368-27.823-11.422-26.472-26.752 1.036-11.752 10.399-21.216 22.026-22.264 15.168-1.368 27.823 11.422 26.472 26.752-1.036 11.752-10.399 21.216-22.026 22.264zm10.978-104.093c0-6.293 5.974-10.79 11.958-9.052 14.54 4.222 27.603 12.007 38.2 22.357 4.462 4.359 3.561 11.824-1.813 14.96l-19.937 11.633c-3.272 1.91-7.379 1.661-10.352-.695a50.647 50.647 0 0 0-12.21-7.159 9.444 9.444 0 0 1-5.846-8.743v-23.3zm111.812 92.833l-7.967-1.42c.435-4.43.637-8.928.576-13.486a120.168 120.168 0 0 0-.578-10.17l7.97-1.42c4.204-.749 7.452-4.358 7.486-8.673.045-5.71-5.033-9.828-10.332-8.883l-8.184 1.458a118.76 118.76 0 0 0-8.04-22.205l7.047-4.113c3.698-2.157 5.528-6.672 4.1-10.738-1.89-5.382-8.055-7.495-12.714-4.776l-7.27 4.242a119.862 119.862 0 0 0-15.043-18.074l5.277-6.356c2.744-3.305 2.937-8.18.218-11.508-3.597-4.404-10.105-4.259-13.563-.093l-5.4 6.504a117.616 117.616 0 0 0-20.221-11.862l2.78-7.723c1.46-4.055-.008-8.703-3.688-10.89-4.87-2.894-10.937-.509-12.777 4.602l-2.844 7.896a115.434 115.434 0 0 0-23.045-4.114v-8.18c0-4.314-2.954-8.174-7.152-8.957-5.556-1.036-10.45 3.303-10.45 8.74v8.397a115.81 115.81 0 0 0-23.051 4.096l-2.764-7.675c-1.46-4.054-5.542-6.66-9.752-5.945-5.571.947-8.701 6.716-6.861 11.826l2.843 7.895a117.39 117.39 0 0 0-20.241 11.856l-5.23-6.3c-2.745-3.305-7.462-4.344-11.176-2.216-4.915 2.816-5.904 9.32-2.446 13.485l5.378 6.477a119.523 119.523 0 0 0-15.047 18.095l-7.043-4.11c-3.697-2.157-8.48-1.502-11.25 1.781-3.667 4.345-2.395 10.798 2.264 13.517l7.203 4.203a118.802 118.802 0 0 0-8.025 22.22l-7.958-1.418c-4.204-.749-8.478 1.52-9.97 5.564-1.974 5.35 1.404 10.974 6.702 11.918l8.179 1.457c-.435 4.43-.637 8.928-.575 13.486.046 3.427.246 6.817.577 10.17l-7.97 1.42C3.283 437.691.035 441.3 0 445.615c-.045 5.71 5.033 9.828 10.332 8.883l8.184-1.458a118.754 118.754 0 0 0 8.041 22.205l-7.048 4.113c-3.697 2.157-5.528 6.672-4.1 10.738 1.89 5.382 8.055 7.495 12.714 4.776l7.27-4.242a119.871 119.871 0 0 0 15.043 18.074l-5.277 6.356c-2.744 3.306-2.937 8.18-.218 11.508 3.597 4.404 10.105 4.259 13.563.093l5.4-6.504a117.585 117.585 0 0 0 20.222 11.862l-2.782 7.723c-1.46 4.055.009 8.703 3.69 10.89 4.87 2.894 10.936.509 12.777-4.601l2.843-7.897a115.418 115.418 0 0 0 23.046 4.114v8.18c0 4.315 2.953 8.174 7.151 8.957 5.556 1.036 10.45-3.303 10.45-8.74v-8.397a115.85 115.85 0 0 0 23.051-4.096l2.764 7.675c1.46 4.054 5.542 6.66 9.752 5.945 5.571-.947 8.701-6.716 6.861-11.826l-2.843-7.895a117.392 117.392 0 0 0 20.242-11.856l5.23 6.3c2.744 3.305 7.46 4.344 11.175 2.216 4.915-2.816 5.904-9.319 2.446-13.485l-5.378-6.477a119.496 119.496 0 0 0 15.047-18.095l7.043 4.11c3.697 2.157 8.481 1.503 11.251-1.781 3.666-4.345 2.395-10.798-2.265-13.517l-7.203-4.203a118.813 118.813 0 0 0 8.025-22.22l8.17 1.455c5.298.945 10.376-3.172 10.33-8.883-.033-4.314-3.281-7.924-7.486-8.673z"/>
    </g>
</svg>
