<?xml version="1.0" encoding="utf-8"?>
<!-- Generator: Adobe Illustrator 19.0.0, SVG Export Plug-In . SVG Version: 6.00 Build 0)  -->
<svg version="1.1" id="Layer_1" xmlns="http://www.w3.org/2000/svg" xmlns:xlink="http://www.w3.org/1999/xlink" x="0px" y="0px"
	 viewBox="-14 -10 48 48" style="enable-background:new -14 -10 48 48;" xml:space="preserve">
<path d="M10-6C-1.1-6-10,2.9-10,14s8.9,20,20,20s20-9,20-20S21-6,10-6z M23.8,6h-5.9c-0.6-2.5-1.6-4.9-2.8-7.1
	C18.9,0.1,21.9,2.7,23.8,6z M10-1.9c1.7,2.4,3,5.1,3.8,7.9H6.2C7,3.1,8.3,0.5,10-1.9z M-5.5,18C-5.8,16.7-6,15.4-6,14s0.2-2.7,0.5-4
	h6.8C1.1,11.3,1,12.6,1,14s0.1,2.7,0.3,4H-5.5z M-3.8,22h5.9c0.6,2.5,1.6,4.9,2.8,7.1C1.1,27.9-1.9,25.3-3.8,22z M2.1,6h-5.9
	c1.9-3.3,5-5.9,8.7-7.1C3.6,1.1,2.7,3.5,2.1,6z M10,29.9c-1.7-2.4-3-5.1-3.8-7.9h7.6C13,24.9,11.7,27.5,10,29.9z M14.7,18H5.3
	C5.1,16.7,5,15.4,5,14s0.1-2.7,0.3-4h9.4c0.2,1.3,0.3,2.6,0.3,4S14.9,16.7,14.7,18z M15.2,29.1c1.2-2.2,2.1-4.6,2.8-7.1h5.9
	C21.9,25.3,18.9,27.9,15.2,29.1z M18.7,18c0.2-1.3,0.3-2.6,0.3-4s-0.1-2.7-0.3-4h6.8c0.3,1.3,0.5,2.6,0.5,4s-0.2,2.7-0.5,4H18.7z"/>
</svg>
