<?xml version="1.0" encoding="utf-8"?>
<!-- Generator: Adobe Illustrator 21.1.0, SVG Export Plug-In . SVG Version: 6.00 Build 0)  -->
<svg version="1.1" id="Layer_1" xmlns="http://www.w3.org/2000/svg" xmlns:xlink="http://www.w3.org/1999/xlink" x="0px" y="0px"
	 viewBox="0 0 200 200" style="enable-background:new 0 0 200 200;" xml:space="preserve">
<style type="text/css">
	.st0{fill:#595757;}
</style>
<g>
	<path class="st0" d="M101.2,94.4c15,0,27.1-12.2,27.1-27.1s-12.2-27.1-27.1-27.1S74.1,52.2,74.1,67.2S86.2,94.4,101.2,94.4z
		 M101.2,45.3c12.1,0,21.9,9.8,21.9,21.9s-9.8,21.9-21.9,21.9s-21.9-9.9-21.9-22S89.1,45.3,101.2,45.3z"/>
	<path class="st0" d="M101.2,97.1c-21.9,0-39.8,17.8-39.8,39.8v23.5H141v-23.5C141,115,123.1,97.1,101.2,97.1z M135.7,155.1H66.7
		v-18.2c0-19,15.5-34.5,34.5-34.5s34.5,15.5,34.5,34.5V155.1L135.7,155.1z"/>
</g>
</svg>
