<svg id="Layer_2" data-name="Layer 2" xmlns="http://www.w3.org/2000/svg" viewBox="0 0 400 400"><title>Liven Icons</title><path d="M114.06,186a8.2,8.2,0,0,1-.59-3.56,30.55,30.55,0,0,1,5.35-17.82v-1.19a25.51,25.51,0,0,1,1.78-8.91q1.18-35,22.87-58.21t56.73-23.17q35,0,56.73,23.17t22.87,58.21a25.51,25.51,0,0,1,1.78,8.91v1.19q4.75,7.13,4.75,17.82V186q13.06,5.35,25.54,33.26,7.13,16.64,8,30.59t-5,16.93Q307.11,271.59,294,252q-4.16,18.42-21.38,32.67,19,7.73,19,19,0,9.51-13.07,16.34t-31.48,6.83q-16.64,0-29.11-5.64t-15.44-14h-5.35q-3,8.33-15.15,14t-28.81,5.64q-18.42,0-31.48-6.83t-13.07-16.34q0-12.47,19-19Q110.48,270.39,106.34,252,93.26,271.58,85,266.83q-5.95-3-4.75-16.93t8.32-30.59Q99.79,191.39,114.06,186Z"/></svg>