<svg id="Layer_1" data-name="Layer 1" xmlns="http://www.w3.org/2000/svg" viewBox="0 0 195 178"><defs><style>.cls-1{fill:#e4a720;}.cls-1,.cls-2{fill-rule:evenodd;}.cls-2{fill:#fff;}</style></defs><title>Liven Icons2</title><path class="cls-1" d="M34,166.92H17.5c0.5-4.78.82-9.39,1.5-13.94,0.77-5.16,1.8-10.29,2.83-15.41C24.1,126.36,38.66,115,52.95,122.44a30.43,30.43,0,0,1,2.76,1.35c4.22,2.73,8.2,2.77,12.87.47,5.93-2.92,12.46-2.16,18.66-.54a9.66,9.66,0,0,0,9.09-1.82c15.3-11.76,20.23-23.64,16.38-44.52a64,64,0,0,0-2.26-8.08,21.7,21.7,0,0,0-8.6-11.71c-6.69-4.56-12.58-10-16.44-17.27-3.65-6.91-4.7-14.27-3.88-22.17H94.81c1.83,5,3.45,9.89,5.37,14.61A14.26,14.26,0,0,0,103.31,37a5,5,0,0,0,5.88,1.29c2.16-.89,4.38-1.64,6.49-2.62,13.39-6.18,26.4-4.09,39.13,1.92,8.66,4.09,14.32,11,18.08,19.77,5.63,13.19,5.4,26.71,3.05,40.41a94,94,0,0,1-12.87,34.39c-8.21,13.11-20.52,20.78-35.11,24.71C108.5,162.12,90,158.78,72.63,149a13.08,13.08,0,0,1-4.21-3.19c-1.62-2.2-3.73-2.49-6.08-2.58-6.25-.22-12.2-1.29-17.43-5.14-2.22-1.63-4.72-1.09-6.28,2a57.92,57.92,0,0,0-4,11.77,36.56,36.56,0,0,0-.6,7.53C34,161.79,34,164.21,34,166.92Zm97.26-22.13a7.45,7.45,0,0,0,.94-0.39c3-1.71,6.07-3.28,8.94-5.18,16.24-10.83,25.4-25.69,24.31-45.57C165.09,86.38,163,79.2,161.42,72a31,31,0,0,0-2.57-6.47c-1-2.08-2.19-4.07-3.29-6.09C164.94,93,161.07,122.44,131.3,144.79Z"/><path class="cls-2" d="M34,159.84H17.5c0.5-4.78.82-9.39,1.5-13.94,0.77-5.16,1.8-10.29,2.83-15.41C24.1,119.29,38.66,108,52.95,115.37a30.51,30.51,0,0,1,2.76,1.35c4.22,2.73,8.2,2.77,12.87.47,5.93-2.92,12.46-2.16,18.66-.54a9.66,9.66,0,0,0,9.09-1.82c15.3-11.76,20.23-23.64,16.38-44.52a64,64,0,0,0-2.26-8.08,21.69,21.69,0,0,0-8.6-11.71c-6.69-4.56-12.58-10-16.44-17.27-3.65-6.91-4.7-14.27-3.88-22.17H94.81c1.83,5,3.45,9.89,5.37,14.61a14.27,14.27,0,0,0,3.13,4.23,5,5,0,0,0,5.88,1.29c2.16-.89,4.38-1.64,6.49-2.62,13.39-6.18,26.4-4.09,39.13,1.92,8.66,4.09,14.32,11,18.07,19.77,5.63,13.19,5.4,26.71,3.05,40.41a94,94,0,0,1-12.87,34.39c-8.21,13.11-20.52,20.78-35.11,24.71C108.5,155,90,151.7,72.63,141.92a13.07,13.07,0,0,1-4.21-3.19c-1.62-2.2-3.73-2.49-6.08-2.58-6.25-.22-12.2-1.29-17.43-5.14-2.22-1.63-4.72-1.09-6.28,2a57.93,57.93,0,0,0-4,11.77,36.59,36.59,0,0,0-.59,7.53C34,154.72,34,157.14,34,159.84Zm97.26-22.13a7.47,7.47,0,0,0,.94-0.39c3-1.71,6.07-3.28,8.94-5.18,16.24-10.83,25.4-25.69,24.31-45.57-0.4-7.26-2.52-14.44-4.07-21.62a31,31,0,0,0-2.57-6.47c-1-2.08-2.19-4.07-3.29-6.09C164.94,85.88,161.07,115.36,131.3,137.71Z"/></svg>