<svg id="Layer_1" data-name="Layer 1" xmlns="http://www.w3.org/2000/svg" viewBox="0 0 195 180"><defs><style>.cls-1{fill:#e4a720;}.cls-1,.cls-2{fill-rule:evenodd;}.cls-2{fill:#fff;}</style></defs><title>Liven Icons2</title><path class="cls-1" d="M119.84,164.12h6.69c-1-4.68-1.84-9.21-3-13.64-1.7-6.54-3.37-13.11-5.55-19.5-4.57-13.35,2.15-23.56,13.81-28.9,4-1.81,8.23-2.91,11.5-6,7.4-7.07,7.05-7.12,2.62-15.38a24.27,24.27,0,0,0-9.71-10c-4.87-2.67-9.66-5.86-14.91-7.34-7.45-2.1-14.83-.34-21.26,4.15s-6.32,4.91-2.25,11.39c0.85,1.36,1.8,2.66,2.9,4.28,4.52-6.53,11.05-8.07,18-8.59a5.41,5.41,0,0,1,2.78.1,14.21,14.21,0,0,1,2.68,2.59c-0.94.8-1.78,2.09-2.85,2.32-2.73.59-5.69,0.35-8.34,1.15a22.42,22.42,0,0,0-6.6,3.67c-1.5,1.11-1.56,2.71.52,3.52,4.43,1.73,8.87,3.46,13.37,5,1.63,0.56,3.31.82,3,3-0.3,2.37-2.06,2.49-3.88,2.13C107.72,95.71,98,90.4,92.18,79.5a3.09,3.09,0,0,0-1.49-1.36,65.6,65.6,0,0,0-1.79,8.48A72,72,0,0,0,89,97.13c0.12,1.88-.12,3.42-2.1,3.75s-2.77-1.1-3-2.79C81.46,80.81,87.48,65,106.15,58.87c0.48-.16.95-0.35,2.15-0.79-4-1-7.37-1.65-10.6-2.76s-6.43-2.72-9.48-4c-3.06,2.27-6,5.12-9.52,6.86a59,59,0,0,1-12.83,4.29c-2.19.51-2.93,1.24-2.72,3.29,0.1,1,.11,2,0.17,3.22,7.38-.66,11,3.73,13.49,9.53a11.88,11.88,0,0,1,.55,5.23,2.43,2.43,0,0,1-3,2.47c-1.79-.28-2.18-1.52-2.07-3.23a8,8,0,0,0-8.71-8.59C63.14,82,57.86,85.57,51.49,88.27c-1.78.76-3.29,0.66-4.1-1.18s0.35-2.88,2-3.53c0.32-.13.62-0.29,0.93-0.43,7-3.11,8.49-5.46,8.08-13.05-0.13-2.3-.28-4.59-0.43-7-3-.58-6.13-1.15-9.21-1.76-0.75-.15-1.46-0.48-2.19-0.7-1.79-.55-3-1.61-2.28-3.58,0.66-1.81,2.13-1.83,3.83-1.31,5.53,1.72,11.19,2.76,17,1.65C72.2,56,79,53.85,83.53,47.77a91.81,91.81,0,0,1-5.12-8,10.12,10.12,0,0,1-.83-5.19c0.06-.77,1.5-1.9,2.41-2a3,3,0,0,1,2.31,1.82c1.17,8.23,7.52,11.6,13.87,14.87,1.82,0.94,4,2.67,6.16,1,3.09-2.3,5.63-5.12,5.29-9.41-0.1-1.26-.79-2.54-0.67-3.76s0.65-2.79,1.52-3.27c1.47-.81,2.78.16,3.33,1.79,2.15,6.26,1,11.8-4,16.66l21,8.11a71.7,71.7,0,0,1-.49-8,9.36,9.36,0,0,1,6.89-8.65c1.66-.48,2.9-0.15,3.53,1.52s-0.18,2.57-1.59,3.27c-3.3,1.64-4.1,3-3.75,6.68a16.38,16.38,0,0,0,7.32,12.14c5,3.52,8.35,8.26,11.18,13.5,0.16,0.29.35,0.56,0.55,0.87,4.89-8,3.18-19.68-3.49-25.81a3.8,3.8,0,0,1-.55-3.53c0.75-1.49,2.37-1.41,3.78-.43a17.29,17.29,0,0,1,6.92,10.49,49.45,49.45,0,0,1,1.17,9.13,2.67,2.67,0,0,0,1.75,2.62,53.35,53.35,0,0,1,7,4.65,2.52,2.52,0,0,1,.27,4.06c-1.31,1.23-2.68.9-4.07-.36-1.66-1.52-3.57-2.76-5.38-4.14-2,4.37-3.44,8.42-5.59,12s-5,6.69-7.28,9.76a60.13,60.13,0,0,1,4.76,5.36c1,1.38,1.13,3.22-.85,4.15s-2.94-.2-3.79-1.88c-1.3-2.59-3.77-3.86-7.24-2.83-5.89,1.75-11.8,3.68-15.45,9.3-2.29,3.53-3.45,7.3-2.36,11.45,2.27,8.6,4.71,17.16,7,25.76,0.93,3.55,1.68,7.16,2.36,10.78,0.28,1.48.9,2,2.39,1.92,1.78-.12,3.56,0,5.78,0-1.38-6.58-2.58-12.84-4-19s-3.18-12.18-4.83-18.44a28.29,28.29,0,0,1,4.15-.69c8.58-.32,15.87-3.82,22.47-9a15,15,0,0,0,6-10.14,2.44,2.44,0,0,1,.95-1.59c11.77-6.95,14.79-17.69,12.56-30.26s-9.44-22.61-19.23-30.68-21.46-13.33-33.73-16.93c-13.42-3.93-27.09-6.06-41.09-5-16.51,1.29-30.95,7.17-41.93,20.07C33.48,51.2,30.42,61.63,29.62,72.62A22.38,22.38,0,0,0,44,94.84c4,1.57,8.39,2.27,12.58,3.42a5.72,5.72,0,0,1,2.69,1.2c9.13,10.23,20.71,14.85,34.21,15a6.43,6.43,0,0,1,5.24,2.57c5.72,6.72,11.59,13.35,15.42,21.41,3.55,7.46,4.36,15.61,5.43,23.67C119.68,162.72,119.74,163.31,119.84,164.12Z"/><path class="cls-1" d="M69.76,139.52l-2.18,3.94c-1.37-.75-2.65-1.54-4-2.17-2.11-1-4.27-1.82-6.4-2.73a1.11,1.11,0,0,0-1.26.21,22.34,22.34,0,0,1-31.45-3.82,49.73,49.73,0,0,1-5.41-7.79,11.8,11.8,0,0,1,0-11.68c2.6-4.71,5.65-9.12,10.08-12.32a21.57,21.57,0,0,1,16.53-3.87A22.26,22.26,0,0,1,63,129.18l-0.29.82,9.21,4.37-1.47,3.11c-2.33-1.06-4.57-2.09-6.81-3.1a9.67,9.67,0,0,0-1.06-.37c-1.79-.54-1.79-0.54-2.93,1.13C62.7,137.26,66.34,138,69.76,139.52ZM60.37,128.1c0.09-.21.16-0.38,0.22-0.54a19.16,19.16,0,0,0-6.06-21.26c-6.6-5.23-13.81-5.92-21.42-2.3a2.57,2.57,0,0,0-.9.65,24.19,24.19,0,0,0-4.53,8.67,1.66,1.66,0,0,0,.2,1c0.3,0.65.75,1.25,1,1.93a16,16,0,0,1,.43,8.78,26.78,26.78,0,0,1-1.45,3.6,1.52,1.52,0,0,0,0,1,23.83,23.83,0,0,0,4.34,8.2,2.21,2.21,0,0,0,.71.62,19.48,19.48,0,0,0,20.24-1,0.59,0.59,0,0,0,.24-1,2.07,2.07,0,0,1,.26-2.57c1.21-1.48,2.06-1.62,3.86-.63,0.62-.43,0-0.67-0.18-0.92-1.15-1.26-1.13-2.37,0-3.49A3,3,0,0,1,60.37,128.1ZM28,134.74c-0.68-1.84-1.28-3.5-1.89-5.14a1.36,1.36,0,0,0-.3-0.28,8.35,8.35,0,0,1-1.53-1.83,15.76,15.76,0,0,1-.46-10.92,4.63,4.63,0,0,1,2-3,0.87,0.87,0,0,0,.27-0.43c0.63-1.75,1.26-3.51,1.92-5.35-0.82,1-1.66,1.94-2.37,3-1.44,2.07-2.92,4.12-4.17,6.31a8.46,8.46,0,0,0-.26,7.9C22.77,128.62,25.43,131.52,28,134.74Z"/><path class="cls-1" d="M42.48,104.84c10.34,0.43,18.36,9.29,15.86,19.07C56.37,114.74,51.6,108,42.48,104.84Z"/><path class="cls-2" d="M119.84,157.63h6.69c-1-4.68-1.84-9.21-3-13.64-1.7-6.54-3.37-13.11-5.55-19.5-4.57-13.35,2.15-23.56,13.81-28.9,4-1.81,8.23-2.91,11.49-6,7.4-7.07,7.05-7.12,2.62-15.38a24.27,24.27,0,0,0-9.71-10c-4.87-2.67-9.66-5.86-14.91-7.34-7.45-2.1-14.83-.34-21.26,4.15s-6.32,4.91-2.25,11.38c0.85,1.36,1.8,2.66,2.9,4.28,4.52-6.53,11.05-8.07,18-8.59a5.41,5.41,0,0,1,2.78.1,14.21,14.21,0,0,1,2.68,2.59c-0.94.8-1.78,2.09-2.85,2.32-2.73.59-5.69,0.35-8.34,1.14a22.43,22.43,0,0,0-6.6,3.67c-1.5,1.11-1.56,2.71.52,3.52,4.43,1.73,8.87,3.46,13.37,5,1.63,0.56,3.31.82,3,3-0.3,2.37-2.06,2.49-3.88,2.13C107.72,89.22,98,83.91,92.18,73a3.09,3.09,0,0,0-1.49-1.36,65.63,65.63,0,0,0-1.79,8.48A72.09,72.09,0,0,0,89,90.64c0.12,1.88-.12,3.42-2.1,3.75s-2.77-1.1-3-2.79c-2.43-17.28,3.59-33.06,22.27-39.21,0.48-.16.95-0.35,2.15-0.79-4-1-7.37-1.65-10.6-2.76s-6.43-2.72-9.48-4c-3.06,2.27-6,5.12-9.52,6.86a59,59,0,0,1-12.83,4.29c-2.19.51-2.93,1.24-2.72,3.29,0.1,1,.11,2,0.17,3.22,7.38-.66,11,3.73,13.49,9.53a11.88,11.88,0,0,1,.55,5.23,2.43,2.43,0,0,1-3,2.47c-1.79-.28-2.18-1.52-2.07-3.23a8,8,0,0,0-8.71-8.59c-0.49,7.61-5.77,11.23-12.13,13.92-1.78.76-3.29,0.66-4.1-1.18s0.35-2.88,2-3.53c0.32-.13.62-0.29,0.93-0.43,7-3.11,8.49-5.46,8.08-13.05-0.13-2.3-.28-4.59-0.43-7-3-.58-6.13-1.15-9.21-1.76-0.75-.15-1.46-0.48-2.19-0.7-1.79-.55-3-1.61-2.28-3.58,0.66-1.81,2.13-1.83,3.83-1.31C53.62,51,59.27,52,65,50.9c7.15-1.38,14-3.54,18.49-9.62a91.7,91.7,0,0,1-5.12-8,10.13,10.13,0,0,1-.83-5.19c0.06-.77,1.5-1.9,2.41-2a3,3,0,0,1,2.31,1.82c1.17,8.23,7.52,11.6,13.87,14.87,1.82,0.94,4,2.67,6.16,1,3.09-2.3,5.63-5.12,5.29-9.41-0.1-1.26-.79-2.54-0.67-3.76s0.65-2.79,1.52-3.27c1.47-.82,2.78.16,3.33,1.79,2.15,6.26,1,11.8-4,16.66l21,8.11a71.7,71.7,0,0,1-.49-8,9.36,9.36,0,0,1,6.89-8.65c1.66-.48,2.9-0.15,3.53,1.52s-0.18,2.57-1.59,3.27c-3.3,1.64-4.1,3-3.75,6.68a16.38,16.38,0,0,0,7.32,12.14c5,3.52,8.35,8.26,11.18,13.5,0.16,0.29.35,0.56,0.55,0.87,4.89-8,3.18-19.68-3.49-25.81a3.8,3.8,0,0,1-.55-3.53c0.75-1.49,2.37-1.41,3.78-.43A17.28,17.28,0,0,1,159.16,56a49.45,49.45,0,0,1,1.17,9.13,2.67,2.67,0,0,0,1.75,2.62,53.34,53.34,0,0,1,7,4.65,2.52,2.52,0,0,1,.27,4.06c-1.31,1.23-2.68.9-4.07-.36-1.66-1.52-3.57-2.76-5.38-4.14-2,4.37-3.44,8.42-5.59,12s-5,6.69-7.28,9.76a60.13,60.13,0,0,1,4.76,5.36c1,1.38,1.13,3.22-.85,4.15s-2.94-.2-3.79-1.88c-1.3-2.59-3.77-3.86-7.24-2.83-5.89,1.75-11.8,3.68-15.45,9.3-2.29,3.53-3.45,7.3-2.36,11.45,2.27,8.6,4.71,17.16,7,25.76,0.93,3.55,1.68,7.16,2.36,10.78,0.28,1.48.9,2,2.39,1.92,1.78-.12,3.56,0,5.78,0-1.38-6.58-2.58-12.84-4-19s-3.18-12.18-4.83-18.44a28.28,28.28,0,0,1,4.15-.69c8.58-.32,15.87-3.82,22.47-9a15,15,0,0,0,6-10.14,2.44,2.44,0,0,1,.95-1.59C176,91.9,179,81.15,176.82,68.59S167.38,46,157.59,37.91,136.12,24.58,123.85,21C110.43,17,96.76,14.91,82.76,16,66.25,17.3,51.81,23.18,40.83,36.08c-7.35,8.64-10.41,19.07-11.21,30.05A22.38,22.38,0,0,0,44,88.35c4,1.57,8.39,2.27,12.58,3.42A5.72,5.72,0,0,1,59.31,93C68.44,103.2,80,107.82,93.53,108a6.43,6.43,0,0,1,5.24,2.57c5.72,6.72,11.59,13.35,15.42,21.41,3.55,7.46,4.36,15.61,5.43,23.67C119.68,156.23,119.74,156.82,119.84,157.63Z"/><path class="cls-2" d="M69.76,133L67.59,137c-1.37-.75-2.65-1.54-4-2.17-2.11-1-4.27-1.82-6.4-2.73a1.11,1.11,0,0,0-1.26.21,22.34,22.34,0,0,1-31.45-3.82,49.75,49.75,0,0,1-5.41-7.79A11.8,11.8,0,0,1,19,109c2.6-4.71,5.65-9.12,10.08-12.32A21.57,21.57,0,0,1,45.66,92.8,22.26,22.26,0,0,1,63,122.69l-0.29.82,9.21,4.37L70.47,131c-2.33-1.06-4.57-2.09-6.81-3.1a9.67,9.67,0,0,0-1.06-.37c-1.79-.54-1.79-0.54-2.93,1.13C62.7,130.77,66.34,131.52,69.76,133Zm-9.39-11.42c0.09-.21.16-0.38,0.22-0.54a19.16,19.16,0,0,0-6.06-21.26c-6.6-5.23-13.81-5.92-21.42-2.3a2.57,2.57,0,0,0-.9.65,24.19,24.19,0,0,0-4.53,8.67,1.66,1.66,0,0,0,.2,1c0.3,0.65.75,1.25,1,1.93a16,16,0,0,1,.43,8.78,26.73,26.73,0,0,1-1.45,3.6,1.52,1.52,0,0,0,0,1,23.83,23.83,0,0,0,4.34,8.2,2.21,2.21,0,0,0,.71.62,19.48,19.48,0,0,0,20.24-1,0.59,0.59,0,0,0,.24-1,2.07,2.07,0,0,1,.26-2.57c1.21-1.48,2.06-1.62,3.86-.63,0.62-.43,0-0.67-0.18-0.92-1.15-1.26-1.13-2.37,0-3.49A3,3,0,0,1,60.37,121.61ZM28,128.26c-0.68-1.84-1.28-3.5-1.89-5.14a1.37,1.37,0,0,0-.3-0.28A8.36,8.36,0,0,1,24.25,121a15.76,15.76,0,0,1-.46-10.92,4.63,4.63,0,0,1,2-3,0.87,0.87,0,0,0,.27-0.43c0.63-1.75,1.26-3.51,1.92-5.35-0.82,1-1.66,1.94-2.37,3-1.44,2.07-2.92,4.12-4.17,6.31a8.46,8.46,0,0,0-.26,7.9C22.77,122.13,25.43,125,28,128.26Z"/><path class="cls-2" d="M42.48,98.35c10.34,0.43,18.36,9.29,15.87,19.07C56.37,108.25,51.6,101.5,42.48,98.35Z"/></svg>