<svg id="Layer_1" data-name="Layer 1" xmlns="http://www.w3.org/2000/svg" viewBox="0 0 195 180"><defs><style>.cls-1{fill:#e4a720;}.cls-1,.cls-2{fill-rule:evenodd;}.cls-2{fill:#fff;}</style></defs><title>Liven Icons2</title><path class="cls-1" d="M134.25,63.53c0.36,2.27.9,4.5,0.55,6.85-0.76,5.15-1.69,6.31-6.71,7.65a3.34,3.34,0,0,0-1.85,1c-8.16,9.24-18.37,8.32-28.87,5.74a33.87,33.87,0,0,1-4.09-1.54c-5.79-2.81-9.79-7-10.71-13.67-0.43-3.09.61-6,1-9,0.45-4,.63-7.92-0.92-11.76-0.53,2.72-.11,5.57-1.46,8.63-1.87-4.09-2.8-8.23-5.48-11.47a0.94,0.94,0,0,1-.69-0.1C71.9,41.58,67.45,38.7,63.9,34.91A14.39,14.39,0,0,0,62.79,34c-4.78-3.22-5.92-5.25-4.7-8.36,2.21-5.67,7.47-9.57,12.07-8.95a5.61,5.61,0,0,1,3.72,2.13c4.35,5.44,9.49,10.2,14.47,14.94,7,6.71,13.38,14.09,21,20.24,6.1,4.93,12,10.29,16.49,17-2.62-8.49-9.24-14.22-14.78-20.73C119.27,48.69,130,54.9,134.25,63.53Z"/><path class="cls-1" d="M114.54,164.55l-2.23,2.06c-4.4,4.22-8.7,4.51-12.38.82-6.48-3.29-7-4.25-5.12-11.47a150.1,150.1,0,0,0,3.85-20.09c1.29-10.74-1.28-20.06-8.4-28.13-3.37-3.83-4-8.5-4.3-13.29C85.9,93,85.4,90.82,87.8,90.79c2.14,0,4.13.88,4.66,3.33,0.34,1.53,0,3.19.68,4.68,4.82,9.9,13.22,18.32,12.61,30.46-0.06,1.11.56,2.14,0.31,3.26-0.31-4.79-.27-9.65-2.11-14.2A66.78,66.78,0,0,0,97,106c-1.06-1.56-2.21-3.17-.86-5.16,0-.12,0-0.25,0-0.37,0-7.59,0-7.59,7.39-7.81,5,0.28,9.8,2,14.87.81,4.21-.94,7.36-3.06,9.23-7a8.07,8.07,0,0,1,1-1.93,6.68,6.68,0,0,1,6.83-2.44c2.48,0.69,1.77,3.3,1.51,5.07-1.53,10.6-2.89,21.25-10.06,30-2.21,2.72-5.35,4.66-7,8.41,2.17-.77,2.92-2.77,4.53-3.65,1.11,0.82.17,1.56-.05,2.22a257.32,257.32,0,0,0-8.37,35.15A18.83,18.83,0,0,1,114.54,164.55Z"/><path class="cls-2" d="M134.25,56.92c0.36,2.27.9,4.5,0.55,6.85-0.76,5.15-1.69,6.31-6.71,7.65a3.34,3.34,0,0,0-1.85,1c-8.16,9.24-18.37,8.32-28.87,5.74a33.85,33.85,0,0,1-4.09-1.54c-5.79-2.81-9.79-7-10.71-13.67-0.43-3.09.61-6,1-9C84,50,84.16,46,82.6,42.19c-0.53,2.72-.11,5.57-1.46,8.63-1.87-4.09-2.8-8.23-5.48-11.47a0.94,0.94,0,0,1-.69-0.1C71.9,35,67.45,32.09,63.9,28.31a14.28,14.28,0,0,0-1.11-.93C58,24.15,56.87,22.13,58.09,19c2.21-5.67,7.47-9.57,12.07-8.95a5.61,5.61,0,0,1,3.72,2.13c4.35,5.44,9.49,10.2,14.47,14.94,7,6.71,13.38,14.09,21,20.24,6.1,4.93,12,10.29,16.49,17-2.62-8.49-9.24-14.22-14.78-20.73C119.26,42.09,130,48.29,134.25,56.92Z"/><path class="cls-2" d="M114.54,157.94L112.31,160c-4.4,4.22-8.7,4.51-12.38.82-6.48-3.29-7-4.25-5.12-11.47a150.08,150.08,0,0,0,3.85-20.09c1.29-10.74-1.28-20.06-8.4-28.13-3.37-3.83-4-8.5-4.3-13.29-0.07-1.43-.57-3.63,1.83-3.66,2.14,0,4.13.88,4.66,3.33,0.34,1.53,0,3.19.68,4.68,4.82,9.9,13.22,18.32,12.61,30.46-0.06,1.11.56,2.14,0.31,3.26-0.31-4.79-.27-9.65-2.11-14.2A66.78,66.78,0,0,0,97,99.35c-1.06-1.56-2.21-3.17-.86-5.16,0-.12,0-0.25,0-0.37,0-7.59,0-7.59,7.39-7.81,5,0.28,9.8,2,14.87.81,4.21-.94,7.36-3.06,9.23-7a8.05,8.05,0,0,1,1-1.93,6.69,6.69,0,0,1,6.83-2.44c2.48,0.69,1.77,3.3,1.51,5.07-1.53,10.6-2.89,21.25-10.06,30-2.21,2.72-5.35,4.66-7,8.41,2.17-.77,2.92-2.77,4.53-3.65,1.11,0.82.17,1.56-.05,2.22a257.27,257.27,0,0,0-8.37,35.15A18.85,18.85,0,0,1,114.54,157.94Z"/></svg>