<svg id="Layer_1" data-name="Layer 1" xmlns="http://www.w3.org/2000/svg" viewBox="0 0 194 180"><defs><style>.cls-1{fill:#e4a720;}.cls-2{fill:#fff;}</style></defs><title>Liven Icons2</title><path class="cls-1" d="M108.07,157.64a10.76,10.76,0,0,0,12.49-8.13A10.64,10.64,0,1,0,108.07,157.64Z"/><path class="cls-1" d="M142.46,169.84a6.54,6.54,0,0,0,7.87-5.17,6.68,6.68,0,0,0-13-3A6.69,6.69,0,0,0,142.46,169.84Z"/><polygon class="cls-1" points="76.58 76.87 116.19 49.68 120.55 30.61 57.48 16.22 52.57 37.73 83.29 44.74 43.68 71.93 39.33 91 104.47 105.86 109.38 84.35 76.58 76.87"/><polygon class="cls-1" points="134.13 115.52 152.04 103.22 154.67 91.68 120.01 83.77 116.9 97.37 130.74 100.53 112.83 112.82 110.19 124.37 145.91 132.51 149.01 118.91 134.13 115.52"/><path class="cls-2" d="M108.07,151.42a10.76,10.76,0,0,0,12.49-8.13A10.64,10.64,0,1,0,108.07,151.42Z"/><path class="cls-2" d="M142.46,163.61a6.54,6.54,0,0,0,7.87-5.17,6.68,6.68,0,0,0-13-3A6.69,6.69,0,0,0,142.46,163.61Z"/><polygon class="cls-2" points="76.58 70.65 116.19 43.45 120.55 24.39 57.48 10 52.57 31.51 83.29 38.52 43.68 65.71 39.33 84.77 104.47 99.64 109.38 78.13 76.58 70.65"/><polygon class="cls-2" points="134.13 109.29 152.04 97 154.67 85.46 120.01 77.55 116.9 91.15 130.74 94.3 112.83 106.6 110.19 118.14 145.91 126.29 149.01 112.69 134.13 109.29"/></svg>