<svg id="Layer_1" data-name="Layer 1" xmlns="http://www.w3.org/2000/svg" viewBox="0 0 194 178"><defs><style>.cls-1{fill:#e4a720;}.cls-2{fill:#fff;}</style></defs><title>Liven Icons2</title><path class="cls-1" d="M93.25,15.5s-26,38.4-26,52.76a26,26,0,1,0,52,0C119.26,53.9,93.25,15.5,93.25,15.5ZM80.54,80.87c-0.88-.87-1.79-1.69-2.61-2.6A16.82,16.82,0,0,1,73.7,71a7.58,7.58,0,0,1,.94-6.29q3-4.33,6.2-8.48a15.1,15.1,0,0,1,2.65-2.15C78.93,62.72,74.88,71.12,80.54,80.87Z"/><path class="cls-1" d="M113.49,108.87A15.11,15.11,0,1,0,128.6,124,15.11,15.11,0,0,0,113.49,108.87ZM105.84,131c-0.56-.56-1.15-1.09-1.68-1.68a10.76,10.76,0,0,1-2.72-4.65,4.89,4.89,0,0,1,.6-4.05q1.92-2.79,4-5.46a9.76,9.76,0,0,1,1.7-1.39C104.81,119.34,102.19,124.75,105.84,131Z"/><path class="cls-1" d="M77.23,145.36a11.82,11.82,0,1,0,11.82,11.82A11.82,11.82,0,0,0,77.23,145.36Zm-6,17.33c-0.44-.44-0.9-0.85-1.31-1.31a8.56,8.56,0,0,1-2.13-3.64,3.87,3.87,0,0,1,.48-3.17c1-1.45,2-2.88,3.12-4.27a8.29,8.29,0,0,1,1.34-1.09C70.43,153.55,68.39,157.77,71.25,162.69Z"/><path class="cls-2" d="M93.25,9s-26,38.4-26,52.76a26,26,0,1,0,52,0C119.26,47.4,93.25,9,93.25,9ZM80.54,74.36c-0.88-.87-1.79-1.69-2.61-2.6a16.82,16.82,0,0,1-4.22-7.23,7.58,7.58,0,0,1,.94-6.29q3-4.33,6.2-8.48a15.11,15.11,0,0,1,2.65-2.15C78.93,56.22,74.88,64.61,80.54,74.36Z"/><path class="cls-2" d="M113.49,102.37a15.11,15.11,0,1,0,15.11,15.11A15.11,15.11,0,0,0,113.49,102.37Zm-7.65,22.15c-0.56-.56-1.15-1.09-1.68-1.68a10.76,10.76,0,0,1-2.72-4.65,4.89,4.89,0,0,1,.6-4.05q1.92-2.79,4-5.46a9.76,9.76,0,0,1,1.7-1.39C104.81,112.84,102.19,118.24,105.84,124.52Z"/><path class="cls-2" d="M77.23,138.86a11.82,11.82,0,1,0,11.82,11.82A11.82,11.82,0,0,0,77.23,138.86Zm-6,17.33c-0.44-.44-0.9-0.85-1.31-1.31a8.56,8.56,0,0,1-2.13-3.64,3.87,3.87,0,0,1,.48-3.17c1-1.45,2-2.88,3.12-4.27a8.29,8.29,0,0,1,1.34-1.09C70.43,147,68.39,151.27,71.25,156.19Z"/></svg>