<svg id="Layer_2" data-name="Layer 2" xmlns="http://www.w3.org/2000/svg" viewBox="0 0 400 400"><title>Liven Icons</title><path d="M170.14,80.28h63.1L213.52,91.55H194.37q11.26,7.33,15.77,18,5.62,13,5.63,24.79A46.93,46.93,0,0,1,212.39,153a39.67,39.67,0,0,1-8.45,13.52,79.28,79.28,0,0,1-9.58,9,112.2,112.2,0,0,0-7.89,9q-3.38,5.07-3.38,9.58a11.33,11.33,0,0,0,2.25,7.32,67.39,67.39,0,0,0,6.2,7.32,15.45,15.45,0,0,1,2.54,1.69,40.9,40.9,0,0,1,3.1,2.82,11.78,11.78,0,0,0,2.82,2.25q0.55,0.57,9.58,7.89,2.81,2.83,8.45,9.58a73.48,73.48,0,0,1,6.2,11.83,50.16,50.16,0,0,1,2.25,15.77q0,23.11-20.28,40.56-22,18.59-60.28,18.59-11.83,0-17.46-1.13A79,79,0,0,1,111,313.52q-7.33-1.69-15.77-8.45a43.15,43.15,0,0,1-11.27-12.39A38.43,38.43,0,0,1,80,275.21q0-8.45,5.07-19.72Q89,247,99.15,239.72A71.45,71.45,0,0,1,120,229.58a110.3,110.3,0,0,1,22.54-5.63q20.28-1.69,21.41-1.69-9.59-13-9.58-22a7.84,7.84,0,0,1,.56-3.38,6.35,6.35,0,0,0,.56-2.82l0.56-1.13a6.42,6.42,0,0,1,1.13-1.69,7.43,7.43,0,0,1,.28-1.69,7.85,7.85,0,0,0,.28-1.69A66.91,66.91,0,0,1,147.61,189q-20.85,0-36.62-14.65-15.21-13.52-15.21-35.49,0-19.71,13.52-36.06a56.87,56.87,0,0,1,33.8-20.28A146.11,146.11,0,0,1,170.14,80.28ZM206.2,273a20,20,0,0,0-.56-5.63,9.63,9.63,0,0,0-.56-2.25,9.13,9.13,0,0,1-.56-2.82,25.2,25.2,0,0,0-2.82-5.07,23.3,23.3,0,0,1-1.69-2,13.59,13.59,0,0,1-1.69-2.54,21.2,21.2,0,0,0-3.38-3.94,18.22,18.22,0,0,0-1.69-1.41,14.78,14.78,0,0,1-1.69-1.41,1.59,1.59,0,0,1-.56-1.13,17.34,17.34,0,0,1-4.51-3.38L182,238a18.66,18.66,0,0,1-5.07-3.38q-3.95-2.81-4.51-2.82c-0.76-.37-3-0.56-6.76-0.56a153.5,153.5,0,0,0-15.77,1.13q-5.07.57-15.21,3.94a68.67,68.67,0,0,0-14.65,6.2,39.14,39.14,0,0,0-10.14,10.7A34.87,34.87,0,0,0,106.48,269q0,10.71,5.07,17.46,3.93,6.21,13,12.39a68.15,68.15,0,0,0,18,6.2,61.89,61.89,0,0,0,18,2.25,72.86,72.86,0,0,0,16.34-1.69q9-1.69,14.65-5.63a29.24,29.24,0,0,0,10.7-10.7Q206.19,283.1,206.2,273ZM189.3,148.45A76.73,76.73,0,0,0,187,129.86a159.3,159.3,0,0,0-6.76-18.59,65.31,65.31,0,0,0-12.39-15.21,27.85,27.85,0,0,0-17.46-5.63q-13.52,0-20.85,10.14-7.33,9-7.32,23.66a67.94,67.94,0,0,0,1.69,14.08A61.24,61.24,0,0,0,129,153a63,63,0,0,0,7.89,13.52q3.38,4.52,11.27,10.14,7.88,3.95,14.08,3.94,14.07,0,20.28-9Q189.3,163.1,189.3,148.45ZM320,116.9v18.59H283.38v37.18H264.79V135.49H227.61V116.9h37.18V80.28h18.59V116.9H320Z"/></svg>