<svg id="Layer_1" data-name="Layer 1" xmlns="http://www.w3.org/2000/svg" viewBox="0 0 194 180"><defs><style>.cls-1{fill:#e4a720;}.cls-2{fill:#fff;}</style></defs><title>Liven Icons2</title><path class="cls-1" d="M111.95,155.71c0-4.37-.07-8.73-0.08-13.1l-14.19-4.35-2.54,13.86Z"/><path class="cls-1" d="M87.95,129.74l-7.59-2.33V121.9l-9.48-4.52c-0.06,4.36-.09,8.73-0.15,13.1l16.19,4.84Z"/><path class="cls-1" d="M89.08,139.27l-16.91-.14q1.64,5.89,3.27,11.78l14.13-6.85Z"/><polygon class="cls-1" points="82.56 157.74 73.86 170 67.57 163.07 76.37 155.09 82.56 157.74"/><path class="cls-1" d="M83.21,119.65v5.29L105,135.32q0-11.46,0-22.94L82.57,119.5Z"/><polygon class="cls-1" points="100.42 169.08 85.63 168.3 92.36 157.86 101.09 156.38 100.42 169.08"/><path class="cls-1" d="M117,23.19c-9.62-1.18-15.73,10-15.74,10-2.19,1.88-5.05,4-6.54,5.34,0.56-2.11,5.4-6.84,5.58-7.9-4.13-5.9-9-14.89-14.42-13.83C79.68,18,62.72,31.92,62.4,37.31S78.08,55.21,77.48,58s-1.44,15-1.55,21.86c-0.08,4.52-.84,13.59-0.84,13.59-0.2,7.67-.39,16-0.47,21.91l8.79,2,22.44-7.11c0-5.61.76-16.84,0.76-16.84,0.18-2.89.35-6.06,0.41-8.28,0.38-13.59,23.45-37,24.47-43.45S126.65,24.38,117,23.19Z"/><path class="cls-2" d="M111.95,149c0-4.37-.07-8.73-0.08-13.1l-14.19-4.35-2.54,13.86Z"/><path class="cls-2" d="M87.95,123l-7.59-2.33v-5.51l-9.48-4.52c-0.06,4.36-.09,8.73-0.15,13.1l16.19,4.84Z"/><path class="cls-2" d="M89.08,132.53l-16.91-.14q1.64,5.89,3.27,11.78l14.13-6.85Z"/><polygon class="cls-2" points="82.56 151 73.86 163.26 67.57 156.33 76.37 148.35 82.56 151"/><path class="cls-2" d="M83.21,112.91v5.29L105,128.58q0-11.46,0-22.94l-22.44,7.12Z"/><polygon class="cls-2" points="100.42 162.34 85.63 161.56 92.36 151.12 101.09 149.64 100.42 162.34"/><path class="cls-2" d="M117,16.45c-9.62-1.18-15.73,10-15.74,10-2.2,1.88-5.05,4-6.54,5.34,0.56-2.11,5.4-6.84,5.58-7.9C96.21,18,91.3,9,85.92,10.09c-6.24,1.22-23.2,15.1-23.53,20.49s15.68,17.9,15.08,20.65-1.44,15-1.55,21.86c-0.08,4.52-.84,13.59-0.84,13.59-0.2,7.67-.39,16-0.47,21.91l8.79,2,22.44-7.11c0-5.61.76-16.84,0.76-16.84,0.18-2.89.35-6.06,0.41-8.28,0.38-13.59,23.45-37,24.47-43.45S126.65,17.64,117,16.45Z"/></svg>