<svg id="Layer_1" data-name="Layer 1" xmlns="http://www.w3.org/2000/svg" viewBox="0 0 195 180"><defs><style>.cls-1{fill:#e4a720;}.cls-2{fill:#fff;}</style></defs><title>Liven Icons2</title><path class="cls-1" d="M100.3,40.45a53.78,53.78,0,1,0,50.92,56.5A53.84,53.84,0,0,0,100.3,40.45Zm-3.36,64.67a11,11,0,1,1,11.53-10.39A11,11,0,0,1,96.94,105.12Z"/><path class="cls-1" d="M101.43,18.43a75.83,75.83,0,1,0,71.8,79.66A75.83,75.83,0,0,0,101.43,18.43ZM94.26,156.55A62.48,62.48,0,1,1,159.9,97.4,62.55,62.55,0,0,1,94.26,156.55Z"/><path class="cls-2" d="M100.3,32.12a53.78,53.78,0,1,0,50.92,56.5A53.84,53.84,0,0,0,100.3,32.12ZM96.94,96.79A11,11,0,1,1,108.46,86.4,11,11,0,0,1,96.94,96.79Z"/><path class="cls-2" d="M101.43,10.1a75.83,75.83,0,1,0,71.8,79.66A75.83,75.83,0,0,0,101.43,10.1ZM94.26,148.22A62.48,62.48,0,1,1,159.9,89.07,62.55,62.55,0,0,1,94.26,148.22Z"/></svg>