<svg id="Layer_1" data-name="Layer 1" xmlns="http://www.w3.org/2000/svg" viewBox="0 0 289.77 86"><defs><style>.cls-1{fill:#71af4a;}.cls-2{fill:#fff000;}.cls-3{fill:#fff;}</style></defs><title>Untitled-3</title><polygon class="cls-1" points="64.29 36.96 42.27 17.17 20.25 36.96 25.51 36.96 25.51 60.96 59.03 60.96 59.03 36.96 64.29 36.96"/><path class="cls-2" d="M68.64,62.07s1.7-4.32,3.24-5.78a16.57,16.57,0,0,0,4-14.23,3.2,3.2,0,0,1-1.69,2.08A12.08,12.08,0,0,0,68,50.9C65.83,56.12,68.64,62.07,68.64,62.07Z" transform="translate(-28.66 -16.57)"/><path class="cls-3" d="M68.77,63.37a23.71,23.71,0,0,1,.81-9.26c0.31-1.26,2.83-5.29,3-5.64a5.3,5.3,0,0,0,.55-2l-0.41-.07a5.2,5.2,0,0,1-1,2.83C70.62,50.76,68,54,68.33,63.33Z" transform="translate(-28.66 -16.57)"/><path class="cls-1" d="M102.88,32.26A41.64,41.64,0,0,0,40,29.7a41.66,41.66,0,0,1,54.39,8.41l-4.73,3.25,15.23,5.16,0.65-16.07Z" transform="translate(-28.66 -16.57)"/><path class="cls-1" d="M76.51,99.4a41.64,41.64,0,0,0,33.67-53.21A41.66,41.66,0,0,1,75.7,89.09l-0.45-5.73L63.16,94l13.59,8.6Z" transform="translate(-28.66 -16.57)"/><path class="cls-1" d="M31.55,43A41.64,41.64,0,0,0,60.79,98.75,41.66,41.66,0,0,1,40.88,47.44l5.18,2.47L42.92,34.14,28.68,41.62Z" transform="translate(-28.66 -16.57)"/><polygon class="cls-2" points="27.82 45.73 25.87 45.73 25.87 53.92 30.9 53.92 30.9 52.08 27.82 52.08 27.82 45.73"/><path class="cls-2" d="M63.41,62.2a3.49,3.49,0,0,0-2.69,1.24,4.63,4.63,0,0,0,0,6,3.53,3.53,0,0,0,5.38,0,4.64,4.64,0,0,0,0-6A3.49,3.49,0,0,0,63.41,62.2Zm0,6.66a1.85,1.85,0,0,1-1.46-.7,2.73,2.73,0,0,1,0-3.42,1.89,1.89,0,0,1,2.93,0,2.73,2.73,0,0,1,0,3.42A1.85,1.85,0,0,1,63.41,68.85Z" transform="translate(-28.66 -16.57)"/><polygon class="cls-2" points="43.28 48.91 41.04 48.91 41.04 45.78 39.1 45.78 39.1 53.98 41.04 53.98 41.04 50.75 43.28 50.75 43.28 53.98 45.22 53.98 45.22 45.78 43.28 45.78 43.28 48.91"/><path class="cls-2" d="M77.45,62.35L74,70.55h2.14l0.75-2h2.54l0.76,2h2.13l-3.43-8.2H77.45Zm1.28,4.37H77.61l0.56-1.46Z" transform="translate(-28.66 -16.57)"/><path class="cls-2" d="M86.83,66.35a4.23,4.23,0,0,0-1.8-1A2.47,2.47,0,0,1,84.25,65a0.45,0.45,0,0,1-.14-0.37,0.51,0.51,0,0,1,.15-0.39,0.53,0.53,0,0,1,.4-0.15,0.54,0.54,0,0,1,.4.14,0.8,0.8,0,0,1,.19.49l0,0.23h2V64.63a2.5,2.5,0,0,0-.77-1.73,2.43,2.43,0,0,0-1.75-.7,2.49,2.49,0,0,0-1.81.7,2.39,2.39,0,0,0-.71,1.78,2.28,2.28,0,0,0,.49,1.52,3.48,3.48,0,0,0,1.57.93,3.1,3.1,0,0,1,1,.49,0.68,0.68,0,0,1,.2.54,0.63,0.63,0,0,1-.21.5,0.83,0.83,0,0,1-.59.2,0.72,0.72,0,0,1-.53-0.19,1,1,0,0,1-.24-0.6l0-.23h-2l0,0.28A2.76,2.76,0,0,0,82.74,70a2.91,2.91,0,0,0,3.88,0,2.64,2.64,0,0,0,.78-2A2.35,2.35,0,0,0,86.83,66.35Z" transform="translate(-28.66 -16.57)"/><path class="cls-2" d="M79.55,19L80,19.12l0.93,0.3a2.06,2.06,0,0,1,1.16.79,1.36,1.36,0,0,1,.11,1.2,1.51,1.51,0,0,1-.84,1,1.83,1.83,0,0,1-.86.1l0.7,2.12-0.51-.16-0.51-.17L79.5,22.05l-0.6,1.85-0.43-.14L78,23.63Zm0.13,2.51,0.44,0.14a1.22,1.22,0,0,0,.76.05,0.66,0.66,0,0,0,.41-0.46,0.67,0.67,0,0,0-.06-0.61,1.21,1.21,0,0,0-.65-0.41l-0.44-.14Z" transform="translate(-28.66 -16.57)"/><path class="cls-2" d="M83.06,25.6a1.83,1.83,0,0,1-1-1.07A2,2,0,0,1,83.18,22a1.89,1.89,0,0,1,2.47,1.1,1.91,1.91,0,0,1-.05,1.49,2.3,2.3,0,0,1-.19.34l-2.61-1.17a1.15,1.15,0,0,0,.05.5,1,1,0,0,0,.55.61,1,1,0,0,0,.52.09,0.82,0.82,0,0,0,.45-0.18l0.85,0.38a1.72,1.72,0,0,1-1,.58A1.91,1.91,0,0,1,83.06,25.6Zm1.83-1.66a1.09,1.09,0,0,0,0-.57,1,1,0,0,0-1.34-.6,1.23,1.23,0,0,0-.45.35Z" transform="translate(-28.66 -16.57)"/><path class="cls-2" d="M86.46,27.36a1.69,1.69,0,0,1-.81-1.14,2,2,0,0,1,.25-1.46,1.92,1.92,0,0,1,1.18-.91,1.78,1.78,0,0,1,1.44.19,1.61,1.61,0,0,1,.72.91L90,23.64l0.38,0.22,0.38,0.23-2.49,4.2-0.35-.21-0.35-.21,0.2-.34A1.67,1.67,0,0,1,86.46,27.36Zm1.71-2.6a1,1,0,0,0-.83-0.1,1.26,1.26,0,0,0-.84,1.42,1,1,0,0,0,.48.67,1,1,0,0,0,.83.11,1.26,1.26,0,0,0,.84-1.42A1,1,0,0,0,88.17,24.75Z" transform="translate(-28.66 -16.57)"/><path class="cls-2" d="M90.4,27.75a1.31,1.31,0,0,0-.32.72,0.63,0.63,0,0,0,.27.54,0.66,0.66,0,0,0,.62.14,1.35,1.35,0,0,0,.63-0.51l1.17-1.53,0.35,0.27,0.35,0.27-2.23,2.9-0.32-.25-0.32-.25,0.2-.26a1.34,1.34,0,0,1-1.09-.27,1.3,1.3,0,0,1-.55-1,1.75,1.75,0,0,1,.42-1.18l1.31-1.71,0.35,0.27L91.6,26.2Z" transform="translate(-28.66 -16.57)"/><path class="cls-2" d="M95,32.51a1.79,1.79,0,0,1-1.15.22,1.91,1.91,0,0,1-1.07-.54,1.86,1.86,0,0,1-.59-1.36,2,2,0,0,1,1.92-2,1.86,1.86,0,0,1,1.38.54,1.93,1.93,0,0,1,.58,1.06,1.82,1.82,0,0,1-.18,1.18l-0.71-.68a0.91,0.91,0,0,0,0-.53A1,1,0,0,0,95,29.95a1,1,0,0,0-.76-0.28,1.13,1.13,0,0,0-.77.36,1.18,1.18,0,0,0-.36.82,1,1,0,0,0,.32.78,0.88,0.88,0,0,0,.44.23,0.93,0.93,0,0,0,.5,0Z" transform="translate(-28.66 -16.57)"/><path class="cls-2" d="M95.49,35.09a1.83,1.83,0,0,1-.42-1.4,2,2,0,0,1,2.13-1.76A1.89,1.89,0,0,1,98.93,34a1.91,1.91,0,0,1-.71,1.31,2.32,2.32,0,0,1-.32.22l-1.82-2.2a1.15,1.15,0,0,0-.18.47,1,1,0,0,0,.22.79,1,1,0,0,0,.42.31,0.81,0.81,0,0,0,.48,0l0.59,0.72a1.72,1.72,0,0,1-1.14.08A1.91,1.91,0,0,1,95.49,35.09Zm2.38-.67a1.09,1.09,0,0,0,.22-0.52,1,1,0,0,0-.94-1.13,1.23,1.23,0,0,0-.56.12Z" transform="translate(-28.66 -16.57)"/><path class="cls-2" d="M32.33,70.37l-0.1-.44L32,69a2.06,2.06,0,0,1,.1-1.4,1.36,1.36,0,0,1,1-.71,1.51,1.51,0,0,1,1.29.21,1.82,1.82,0,0,1,.52.69l1.48-1.68,0.11,0.52,0.11,0.52L35,68.86l1.9-.42L37,68.88l0.1,0.44ZM34.43,69l-0.1-.45A1.22,1.22,0,0,0,34,67.85a0.66,0.66,0,0,0-.6-0.12,0.67,0.67,0,0,0-.5.36,1.21,1.21,0,0,0,0,.76L33,69.31Z" transform="translate(-28.66 -16.57)"/><path class="cls-2" d="M36.27,64a1.83,1.83,0,0,1-.42,1.41,2,2,0,0,1-2.75.3,1.89,1.89,0,0,1-.3-2.69,1.91,1.91,0,0,1,1.31-.71,2.28,2.28,0,0,1,.39,0l0.31,2.84a1.15,1.15,0,0,0,.4-0.29,1,1,0,0,0,.24-0.78,1,1,0,0,0-.18-0.49,0.82,0.82,0,0,0-.38-0.3l-0.1-.92a1.72,1.72,0,0,1,1,.56A1.91,1.91,0,0,1,36.27,64Zm-2.36-.74a1.09,1.09,0,0,0-.47.32A1,1,0,0,0,33.6,65a1.23,1.23,0,0,0,.53.21Z" transform="translate(-28.66 -16.57)"/><path class="cls-2" d="M34.75,58.19a1.79,1.79,0,0,1,1,.68A1.92,1.92,0,0,1,36.06,60a1.86,1.86,0,0,1-.57,1.37,2,2,0,0,1-2.76,0A1.86,1.86,0,0,1,32.15,60a1.93,1.93,0,0,1,.37-1.16,1.82,1.82,0,0,1,1-.69v1a0.91,0.91,0,0,0-.39.35A1,1,0,0,0,33,60a1,1,0,0,0,.33.74,1.13,1.13,0,0,0,.8.31,1.18,1.18,0,0,0,.84-0.31A1,1,0,0,0,35.26,60a0.88,0.88,0,0,0-.14-0.48,0.93,0.93,0,0,0-.37-0.34v-1Z" transform="translate(-28.66 -16.57)"/><path class="cls-2" d="M37.33,56.93l-0.05.46-0.05.46L35.75,57h0l-3.46,1,0.05-.49L32.4,57l2.47-.57h0l-2.28-1.15,0.05-.49,0.05-.5Z" transform="translate(-28.66 -16.57)"/><path class="cls-2" d="M35.91,51.05a1.79,1.79,0,0,1,.79.87,1.91,1.91,0,0,1,.11,1.2A1.86,1.86,0,0,1,36,54.34a2,2,0,0,1-2.7-.58A1.86,1.86,0,0,1,33,52.3a1.93,1.93,0,0,1,.6-1.06,1.82,1.82,0,0,1,1.09-.47l-0.2,1A0.91,0.91,0,0,0,34,52a1,1,0,0,0-.24.49,1,1,0,0,0,.17.79,1.13,1.13,0,0,0,.72.46,1.18,1.18,0,0,0,.88-0.13A1,1,0,0,0,36,52.91a0.88,0.88,0,0,0,0-.49A0.93,0.93,0,0,0,35.71,52Z" transform="translate(-28.66 -16.57)"/><path class="cls-2" d="M32.53,49.62l0.12-.42,0.12-.42,4.68,1.38-0.12.42L37.21,51Z" transform="translate(-28.66 -16.57)"/><path class="cls-2" d="M38.29,48.11a1.83,1.83,0,0,1-1,1.06,2,2,0,0,1-2.59-1,1.89,1.89,0,0,1,1-2.53,1.91,1.91,0,0,1,1.49,0,2.3,2.3,0,0,1,.35.17l-1,2.67A1.15,1.15,0,0,0,37,48.39a1,1,0,0,0,.57-0.58,1,1,0,0,0,.06-0.52,0.82,0.82,0,0,0-.2-0.44L37.74,46a1.72,1.72,0,0,1,.63,1A1.91,1.91,0,0,1,38.29,48.11Zm-1.77-1.73a1.09,1.09,0,0,0-.57.07,1,1,0,0,0-.52,1.37,1.23,1.23,0,0,0,.38.43Z" transform="translate(-28.66 -16.57)"/><path class="cls-2" d="M95.37,89.42L95,89.66l-0.83.51a2.06,2.06,0,0,1-1.36.37,1.36,1.36,0,0,1-1-.69,1.51,1.51,0,0,1-.23-1.29,1.82,1.82,0,0,1,.48-0.72L90,87l0.45-.28,0.46-.28,2.16,1-1-1.66,0.38-.24,0.38-.24Zm-2-1.52L93,88.15a1.22,1.22,0,0,0-.53.55,0.66,0.66,0,0,0,.08.61,0.67,0.67,0,0,0,.51.35,1.22,1.22,0,0,0,.73-0.23l0.39-.24Z" transform="translate(-28.66 -16.57)"/><path class="cls-2" d="M88.06,87.81a1.83,1.83,0,0,1,1.46-.07,2,2,0,0,1,1.2,2.49,1.89,1.89,0,0,1-2.44,1.17,1.91,1.91,0,0,1-1.1-1A2.31,2.31,0,0,1,87,90l2.57-1.23a1.15,1.15,0,0,0-.41-0.28,1,1,0,0,0-.82,0,1,1,0,0,0-.4.34,0.82,0.82,0,0,0-.16.46l-0.84.4a1.72,1.72,0,0,1,.2-1.13A1.91,1.91,0,0,1,88.06,87.81Zm0.08,2.47a1.09,1.09,0,0,0,.45.34A1,1,0,0,0,89.92,90a1.23,1.23,0,0,0,0-.57Z" transform="translate(-28.66 -16.57)"/><path class="cls-2" d="M85.89,90.73a1.31,1.31,0,0,0-.43-0.66,0.63,0.63,0,0,0-.6-0.07,0.66,0.66,0,0,0-.46.44,1.35,1.35,0,0,0,.08.81l0.64,1.82-0.41.15-0.42.15-1.21-3.45,0.39-.14,0.39-.14L84,89.95a1.34,1.34,0,0,1,.82-0.76,1.3,1.3,0,0,1,1.12.07,1.75,1.75,0,0,1,.76,1l0.71,2L87,92.43l-0.42.15Z" transform="translate(-28.66 -16.57)"/><path class="cls-2" d="M81.69,93a0.4,0.4,0,0,0,.17.2,0.34,0.34,0,0,0,.24,0,0.35,0.35,0,0,0,.22-0.14,0.29,0.29,0,0,0,0-.24,0.25,0.25,0,0,0-.17-0.18,1.91,1.91,0,0,0-.49-0.07,1.88,1.88,0,0,1-.91-0.23,1,1,0,0,1-.4-0.62,1.19,1.19,0,0,1,.14-1,1.29,1.29,0,0,1,.83-0.56,1.34,1.34,0,0,1,1,.12,1.29,1.29,0,0,1,.61.8l-0.88.21A0.64,0.64,0,0,0,81.87,91a0.42,0.42,0,0,0-.33,0,0.44,0.44,0,0,0-.26.17,0.32,0.32,0,0,0-.05.28,0.34,0.34,0,0,0,.16.23,1.21,1.21,0,0,0,.44.08,2.12,2.12,0,0,1,1,.23,0.93,0.93,0,0,1,.42.61,1.08,1.08,0,0,1-.14.89,1.26,1.26,0,0,1-.79.52,1.16,1.16,0,0,1-.87-0.12,1.14,1.14,0,0,1-.55-0.68Z" transform="translate(-28.66 -16.57)"/><path class="cls-2" d="M78,90.84a1.83,1.83,0,0,1,1.42.38A2,2,0,0,1,79.81,94a1.89,1.89,0,0,1-2.68.37A1.91,1.91,0,0,1,76.39,93a2.29,2.29,0,0,1,0-.39l2.83-.39a1.15,1.15,0,0,0-.3-0.39,1,1,0,0,0-.79-0.22,1,1,0,0,0-.49.2,0.81,0.81,0,0,0-.29.39l-0.92.13a1.72,1.72,0,0,1,.53-1A1.91,1.91,0,0,1,78,90.84Zm-0.68,2.38a1.09,1.09,0,0,0,.33.47,1,1,0,0,0,1.46-.2A1.23,1.23,0,0,0,79.32,93Z" transform="translate(-28.66 -16.57)"/><path class="cls-1" d="M127.24,51.31a38.33,38.33,0,0,1-.61,5l-1.79-.39a34,34,0,0,0,.6-4.88Zm-1.91-.77a8.6,8.6,0,0,0-.39-1.86l1.3-.14,1-1.41a11.39,11.39,0,0,0-2.41-1.93l1-1.63,0.35,0.21c0.4-.83.79-1.7,1.18-2.67L129.05,42a24.65,24.65,0,0,1-1.46,2.93l0.6,0.54a14,14,0,0,0,1-2.76l1.84,0.46a15.74,15.74,0,0,1-1.88,4.06l1.46-.51c0.39,0.95.77,2,1.14,3.13l0.86-1.12c0.86,0.56,1.56,1.07,2.13,1.51l-1.28,1.42a15.75,15.75,0,0,0-1.84-1.34l-1.58.39L129.86,50l-0.49.07v7h-1.91V50.3Zm3.62-3-0.46.7,0.7-.07ZM131.76,54l-1.76.23L129.58,51l1.72-.35Zm5.6,2a1.21,1.21,0,0,1-.25.79,1.81,1.81,0,0,1-.79.63,4.63,4.63,0,0,1-2.78-.12l0.05-2.06a2.4,2.4,0,0,0,1.56.35,0.45,0.45,0,0,0,.23-0.44V53.47a13.53,13.53,0,0,1-4.23,3.3l-1.23-1.6a11.8,11.8,0,0,0,4.27-3.37l1.19,1V48.44h-3.85V46.53H137l0.12-.49h-5.39a0.6,0.6,0,0,1-.67-0.88l1.41-3.39a0.44,0.44,0,0,1,.56-0.32h6.36a0.54,0.54,0,0,1,.63.74L139,46.53h2.11v1.91h-3.69A14.07,14.07,0,0,0,138.68,52a15.37,15.37,0,0,0,3.09,3.79l-1.84,1.05a18.57,18.57,0,0,1-2.56-3.46V56Zm0.26-11.89,0.18-.77h-3.9l-0.32.77h4Zm3.9,5.85a13.87,13.87,0,0,1-1.9,2l-1.35-1.39a12.66,12.66,0,0,0,1.84-1.95Z" transform="translate(-28.66 -16.57)"/><path class="cls-1" d="M152.08,57.16H145.9a0.45,0.45,0,0,1-.49-0.51v-2.2a12.9,12.9,0,0,1-1,2.64l-1.83-.93a10.71,10.71,0,0,0,1.32-5.46V46.62a0.63,0.63,0,0,1,.7-0.7h7.2a0.63,0.63,0,0,1,.72.7v4.53a0.63,0.63,0,0,1-.72.72h-6l0,0.47,0.14,0h6.18a0.44,0.44,0,0,1,.51.49v3.85A0.45,0.45,0,0,1,152.08,57.16Zm0.9-12.1-1.9-.58V45.7h-5.43V44.6l-2.28.91-0.74-1.95c2.76-.69,4.6-1.55,5.46-2.58l1.74,0.67-0.16.21a14.49,14.49,0,0,0,3.9,1.23V42.8h2V53h-2V43.38Zm-2.35,3V48a0.27,0.27,0,0,0-.32-0.28h-4.22a0.25,0.25,0,0,0-.28.28v0.11h4.81Zm-4.81,1.7v0.33h4.5a0.28,0.28,0,0,0,.32-0.32v0h-4.81Zm4.3-5.71-1.76-.93-1.56.93h3.32Zm-2.72,10a0.06,0.06,0,0,0-.07.09v1.12a0.08,0.08,0,0,0,.07.11h3.21l0.09-.11V54.15a0.08,0.08,0,0,0-.09-0.09h-3.21Zm9.06-12.44h2V55.68a1.52,1.52,0,0,1-.23.83,2.47,2.47,0,0,1-.84.63,5.61,5.61,0,0,1-3.62-.21l0.09-2.11a3.69,3.69,0,0,0,2.34.46,0.52,0.52,0,0,0,.23-0.49V41.63Z" transform="translate(-28.66 -16.57)"/><path class="cls-1" d="M171.55,47.93V50a9.48,9.48,0,0,1-.63,3.5,14.21,14.21,0,0,1-2.53,3.71l-1.62-1.48,0.81-.84-1.39-1.46v3.64h-2V53.71L164,54a18,18,0,0,1-2,2.09l-1.67-1.19a16.24,16.24,0,0,0,3.34-3.34h-2.74V49.62h3.3V48.85h-3.16v-1.9h1.51a14.65,14.65,0,0,0-.67-2.32l1.18-.28h-1.81v-2h2.92V41.56h2v0.83h2.67v2H167L168.37,45l-0.6,1.53-0.19.46H169v1.9h-2.78v0.77H169v1.91H166.7c0.7,0.56,1.37,1.14,2.06,1.77a6.87,6.87,0,0,0,.81-3.28V42.61q-0.08-.71.47-0.74a33.14,33.14,0,0,0,5.45-.69l0.79,2.07a29.62,29.62,0,0,1-4.41.6,0.28,0.28,0,0,0-.32.35v1.74h5v2H175v9.15h-2V47.93h-1.53Zm-6.06-1c0.39-.9.76-1.77,1-2.6h-2.67l0.44,1.44,0.28,1.16h0.91Z" transform="translate(-28.66 -16.57)"/><path class="cls-1" d="M184.7,54.45l-0.46-2.11h0.19l-1.19-1.7V57h-2.11V51.62A19.71,19.71,0,0,1,180,53.45L178,52.62a16.59,16.59,0,0,0,2.92-4.87H178.8v-2h2.34V43.89l-1.95.18-0.3-2A32.86,32.86,0,0,0,185,41l0.4,2-2.18.53v2.16h2.16v2h-2.07c1,1.12,2,2.32,2.93,3.53l-1.21,1,5.88-.86V41.56h2.13v9.54l1.21-.19,0.3,2.11-1.51.21V57h-2.13V53.54Zm2.42-8.19c1.48,1.58,2.46,2.72,3,3.41l-1.65,1.19a27.69,27.69,0,0,0-2.88-3.32Zm0.47-4.13a34.09,34.09,0,0,1,3.18,3.69L189.13,47A28.18,28.18,0,0,0,186,43.44Z" transform="translate(-28.66 -16.57)"/><path class="cls-1" d="M198.23,46.46h-1.69V44.4h1.69V41.63h2V44.4h1.3v2.06h-1.3v2.21l0.77-.53,1.21,1.65-2,1.11V56a1.36,1.36,0,0,1-.25.83,1.88,1.88,0,0,1-.84.63,4.32,4.32,0,0,1-2.78-.11l0.05-2.13a2.43,2.43,0,0,0,1.55.37,0.51,0.51,0,0,0,.23-0.47V51.87l-1.55.61-0.84-1.9,2.39-.9V46.46Zm3.65,11.24-1.25-1.93a21.89,21.89,0,0,0,4.53-1.84,25.54,25.54,0,0,1-2.86-3.28l1.63-1.23a22.91,22.91,0,0,0,2.93,3.36A10,10,0,0,0,209.79,49h-7.38v-2h3.3v-2h-4V42.89h4V41.56h2v1.34h3.78v2.06h-3.78v2h3.37l1.23,1.11a17.8,17.8,0,0,1-1.76,3.83,12.72,12.72,0,0,1-2,2.16,19,19,0,0,0,4,1.72l-1.32,1.91a22.9,22.9,0,0,1-4.34-2.34A14.17,14.17,0,0,1,201.88,57.7Z" transform="translate(-28.66 -16.57)"/><path class="cls-1" d="M220.62,57.74l-0.86-1.23a1.28,1.28,0,0,1-.4.81,1.85,1.85,0,0,1-.72.4h-1.95l-0.46-2.2a5.44,5.44,0,0,0,1.35.19,0.25,0.25,0,0,0,.16-0.25V52.22h-1.16a22.76,22.76,0,0,1-.91,4.94l-2.18-.54a20.51,20.51,0,0,0,1.11-6.8V42.15a0.44,0.44,0,0,1,.49-0.49h4.18a0.49,0.49,0,0,1,.35.14,0.61,0.61,0,0,1,.18.35V46.4a2.49,2.49,0,0,0,1.21-2.2V42.08a0.46,0.46,0,0,1,.12-0.33,0.42,0.42,0,0,1,.32-0.12h5.32a0.46,0.46,0,0,1,.33.12l0.12,0.33v3.28l0.05,0.28,0.32,0.11h0.26l0.44-.14a0.73,0.73,0,0,0,.14-0.63l-0.05-1.3,1.9,0.18-0.16,2.6a1.1,1.1,0,0,1-.42.79,1.75,1.75,0,0,1-1.12.47h-1.74a1.57,1.57,0,0,1-1.12-.42,1.54,1.54,0,0,1-.46-1.11V43.91a0.3,0.3,0,0,0-.33-0.32h-1.67a0.24,0.24,0,0,0-.28.28v1a3.74,3.74,0,0,1-1.63,3.07H228L229.23,49a18.25,18.25,0,0,1-1.44,3.48,11.53,11.53,0,0,1-1.35,1.7,20.82,20.82,0,0,0,3.85,1.7L229,57.72a20.63,20.63,0,0,1-4.13-2.2A12.18,12.18,0,0,1,220.62,57.74ZM217.74,46V43.93l-0.09-.18-0.12-.05h-0.67a0.2,0.2,0,0,0-.23.23V46h1.11Zm0,4.18V48h-1.11v2.14h1.11Zm4-.21h-1V48.3h-0.05l-0.84-1.09v8.43a18,18,0,0,0,3.29-1.56A25.08,25.08,0,0,1,220.36,51Zm3,2.86A9.16,9.16,0,0,0,226.63,50h-4.43A21.56,21.56,0,0,0,224.7,52.82Z" transform="translate(-28.66 -16.57)"/><path class="cls-1" d="M235.47,57h-2v-7.5l-0.23.28-1.93-1a17.35,17.35,0,0,0,3.58-7.41l2,0.51a23.58,23.58,0,0,1-1.42,4.18v1.53a12.12,12.12,0,0,0,2.46-4.8l2,0.58A19,19,0,0,1,238,47.63h7a13.41,13.41,0,0,1-1.37-3.69,0.22,0.22,0,0,0-.19-0.25h-2.9v-2h4.16a0.49,0.49,0,0,1,.53.47,12.07,12.07,0,0,0,.95,3.37,9.31,9.31,0,0,0,2,2.72l-1.95,1-0.07,4.08a6.9,6.9,0,0,1-.58,2.86,2.46,2.46,0,0,1-1.21,1.18c-1,.42-2.46.33-4.46-0.25l0.05-2.48c1.55,0.65,2.62.86,3.18,0.63a1.48,1.48,0,0,0,.65-0.63,2.72,2.72,0,0,0,.25-0.93,15,15,0,0,0,0-3.85,0.29,0.29,0,0,0-.28-0.18h-2.51c-0.23,3.64-1.7,6.27-4.37,7.85l-1.37-1.3V57Zm3.64-7.34h-1.56V48.34l-0.7.84-1.37-.77v7.45a7.56,7.56,0,0,0,3.46-4.73A10,10,0,0,0,239.1,49.67Z" transform="translate(-28.66 -16.57)"/><path class="cls-1" d="M254.61,57.07h-2.11V48.65c-0.69.49-1.41,0.93-2.14,1.37L249,48.18l1.21-.67a21,21,0,0,0,3.72-3h-4.22v-2h5.78l0.95-1.56L258.36,42l-0.26.46h6.85v2h-8.2l-1.09,1.32h8.52a0.47,0.47,0,0,1,.54.53v9.22a1.76,1.76,0,0,1-1,1.55,4.42,4.42,0,0,1-1.72.51,14.18,14.18,0,0,1-2.93-.18l-0.12-2.35a5.56,5.56,0,0,0,3.11.18,0.78,0.78,0,0,0,.56-0.7V54.24h-8v2.83Zm8-8V48.06a0.16,0.16,0,0,0-.19-0.16h-7.62a0.15,0.15,0,0,0-.18.16v1.05h8Zm0,3.16V51.08h-8v1.19h8Z" transform="translate(-28.66 -16.57)"/><path class="cls-1" d="M283.63,56L282,57.52a18,18,0,0,1-1.84-1.35,11.84,11.84,0,0,1-3.83-6.43h-0.72v5.16l2.25-.6,0.46,2a28.15,28.15,0,0,1-6.15,1.21l-0.37-2,1.77-.21v-3a2.64,2.64,0,0,1-1.6,1.53,5.57,5.57,0,0,1-2.27,0v3.28h-2v-15l0.07-.23,0.21-.07h4.3l1.32,0.91V42.33a0.53,0.53,0,0,1,.6-0.6h7.55a0.54,0.54,0,0,1,.61.6v6.76a0.58,0.58,0,0,1-.65.65h-3.28l0.76,2a22.11,22.11,0,0,0,2.55-1.91L283,51.43a21.49,21.49,0,0,1-2.67,2A10.83,10.83,0,0,0,283.63,56ZM271.25,43.73H269.9l-0.12.05-0.05.12v7.8a2.16,2.16,0,0,0,1.26.21,0.83,0.83,0,0,0,.51-0.28c0.33-.61-0.07-1.77-1.25-3.44a1.27,1.27,0,0,1-.14-1.25Zm2.34-.67-1.21,3.41a1.53,1.53,0,0,0,.05,1.51,6.19,6.19,0,0,1,1.16,2.23V43.07Zm6.73,1.62V44.26a0.43,0.43,0,0,0-.49-0.49h-3.69a0.44,0.44,0,0,0-.51.51v0.4h4.69Zm-4.69,2v1h4.13a0.5,0.5,0,0,0,.56-0.54V46.72h-4.69Z" transform="translate(-28.66 -16.57)"/><path class="cls-1" d="M290.12,44.38a15.2,15.2,0,0,1-3.72,5.83l-1.88-1.32a13.8,13.8,0,0,0,3.58-5.31Zm-4.66,12.44-0.58-2.13,2.21-.16A59.35,59.35,0,0,0,291,46.77l1.95,1a51.63,51.63,0,0,1-3.2,6.59l7.36-.53c-0.93-1.48-1.74-2.65-2.35-3.51l1.86-1.11a64.61,64.61,0,0,1,4.44,7.17l-1.91,1-0.86-1.58Zm11.19-15.16a0.44,0.44,0,0,1,.56.35,11.51,11.51,0,0,0,1.32,3.76,11.35,11.35,0,0,0,2.83,3.07l-2,1.3A12.4,12.4,0,0,1,297,47.41a18.71,18.71,0,0,1-1.34-3.27c0-.3-0.11-0.44-0.23-0.44h-5.2v-2h6.41Z" transform="translate(-28.66 -16.57)"/><path class="cls-1" d="M317.5,41.59a0.61,0.61,0,0,1,.67.72v13.3a1.64,1.64,0,0,1-1,1.37c-1.21.7-3.13,0.74-5.76,0.11v-2.3c2,0.65,3.36.86,4,.6a0.87,0.87,0,0,0,.61-0.84V44a0.32,0.32,0,0,0-.35-0.35H303.71v-2H317.5Zm-2.9,2.88v2H304.1v-2h10.5Zm-1.05,9.94h-8.92a0.27,0.27,0,0,1-.3-0.32V47.65a0.27,0.27,0,0,1,.3-0.3h8.92a0.27,0.27,0,0,1,.3.3V54.1A0.27,0.27,0,0,1,313.55,54.42Zm-7.1-5a0.07,0.07,0,0,0-.09.07v2.79a0.08,0.08,0,0,0,.09.09h5.25c0.07,0,.11,0,0.11-0.09V49.48c0-.05,0-0.07-0.11-0.07h-5.25Z" transform="translate(-28.66 -16.57)"/><path class="cls-1" d="M131.75,74a6.66,6.66,0,0,1-4.8-1.91,6.45,6.45,0,0,1,0-9.28,6.51,6.51,0,0,1,4.73-1.91A6.81,6.81,0,0,1,135.39,62a6.14,6.14,0,0,1,2.43,2.88H135a3.71,3.71,0,0,0-1.42-1.3,4,4,0,0,0-1.92-.48,4.38,4.38,0,1,0,0,8.76,4,4,0,0,0,3-1.26,4.92,4.92,0,0,0,.77-1.08h-5.26V67.34h8.21v0.13a6.26,6.26,0,0,1-1.95,4.64A6.49,6.49,0,0,1,131.75,74h0Z" transform="translate(-28.66 -16.57)"/><path class="cls-1" d="M139.47,64.32h2.11V65l0.11-.15a2.24,2.24,0,0,1,2-.88h0.15v2.16a2.48,2.48,0,0,0-1.46.5,2.06,2.06,0,0,0-.59,1.63v5.48h-2.27V64.32Z" transform="translate(-28.66 -16.57)"/><path class="cls-1" d="M148.88,74.09a4.72,4.72,0,0,1-3.49-1.47,5.14,5.14,0,0,1,0-7.14,4.87,4.87,0,0,1,7,0,4.93,4.93,0,0,1,1.44,3.57,6,6,0,0,1-.08,1h-7.37a3,3,0,0,0,.64,1.12,2.51,2.51,0,0,0,1.93.85,2.64,2.64,0,0,0,1.31-.33,2.1,2.1,0,0,0,.88-0.89h2.4a4.44,4.44,0,0,1-1.72,2.4A4.93,4.93,0,0,1,148.88,74.09Zm2.57-5.85a2.81,2.81,0,0,0-.67-1.31,2.53,2.53,0,0,0-3.8,0,3.18,3.18,0,0,0-.68,1.31h5.15Z" transform="translate(-28.66 -16.57)"/><path class="cls-1" d="M159.36,74.09a4.72,4.72,0,0,1-3.49-1.47,5.14,5.14,0,0,1,0-7.14,4.87,4.87,0,0,1,7,0,4.93,4.93,0,0,1,1.44,3.57,6,6,0,0,1-.08,1h-7.37a3,3,0,0,0,.64,1.12,2.51,2.51,0,0,0,1.93.85,2.64,2.64,0,0,0,1.31-.33,2.1,2.1,0,0,0,.88-0.89H164a4.44,4.44,0,0,1-1.72,2.4A4.93,4.93,0,0,1,159.36,74.09Zm2.57-5.85a2.81,2.81,0,0,0-.67-1.31,2.53,2.53,0,0,0-3.8,0,3.18,3.18,0,0,0-.68,1.31h5.15Z" transform="translate(-28.66 -16.57)"/><path class="cls-1" d="M165.31,64.32h2.11v0.82A3.54,3.54,0,0,1,170.06,64a3.35,3.35,0,0,1,2.67,1.14,4.52,4.52,0,0,1,1,3.07v5.57h-2.27V68.71a3.37,3.37,0,0,0-.48-2,1.62,1.62,0,0,0-1.41-.67,1.7,1.7,0,0,0-1.47.68,3.5,3.5,0,0,0-.49,2v5h-2.27V64.32Z" transform="translate(-28.66 -16.57)"/><path class="cls-1" d="M178.05,61.16h2.33V73.77h-2.33V61.16Z" transform="translate(-28.66 -16.57)"/><path class="cls-1" d="M186.43,74.09a4.36,4.36,0,0,1-3.31-1.47,5,5,0,0,1-1.37-3.57,5,5,0,0,1,1.42-3.57A4.61,4.61,0,0,1,186.62,64a4.17,4.17,0,0,1,2.81,1.07V61.16h2.27V73.77h-2.09v-1A4.32,4.32,0,0,1,186.43,74.09Zm0.37-8a2.57,2.57,0,0,0-2,.86,3.25,3.25,0,0,0,0,4.26,2.56,2.56,0,0,0,2,.86,2.6,2.6,0,0,0,2-.86,3.25,3.25,0,0,0,0-4.26A2.59,2.59,0,0,0,186.8,66.06Z" transform="translate(-28.66 -16.57)"/><path class="cls-1" d="M197.46,74.09A4.72,4.72,0,0,1,194,72.62a5.14,5.14,0,0,1,0-7.14,4.87,4.87,0,0,1,7,0,4.93,4.93,0,0,1,1.44,3.57,6,6,0,0,1-.08,1h-7.37a3,3,0,0,0,.64,1.12,2.51,2.51,0,0,0,1.93.85,2.64,2.64,0,0,0,1.31-.33,2.1,2.1,0,0,0,.88-0.89h2.4a4.44,4.44,0,0,1-1.72,2.4A4.93,4.93,0,0,1,197.46,74.09ZM200,68.24a2.81,2.81,0,0,0-.67-1.31,2.53,2.53,0,0,0-3.8,0,3.18,3.18,0,0,0-.68,1.31H200Z" transform="translate(-28.66 -16.57)"/><path class="cls-1" d="M207.63,74.09a4.38,4.38,0,0,1-3.32-1.47,5.33,5.33,0,0,1,0-7.14A4.38,4.38,0,0,1,207.64,64a4.29,4.29,0,0,1,3.2,1.36v-1h2.09v9.45h-2.09v-1A4.39,4.39,0,0,1,207.63,74.09Zm0.37-8a2.6,2.6,0,0,0-2,.86,3.23,3.23,0,0,0,0,4.26,2.73,2.73,0,0,0,4,0,3.23,3.23,0,0,0,0-4.26A2.61,2.61,0,0,0,208,66.06Z" transform="translate(-28.66 -16.57)"/><path class="cls-1" d="M218,66.87a1,1,0,0,0-.32-0.6,0.89,0.89,0,0,0-.6-0.2,0.91,0.91,0,0,0-.64.22,0.75,0.75,0,0,0-.25.58,0.64,0.64,0,0,0,.31.55,5,5,0,0,0,1.18.47A4.87,4.87,0,0,1,219.85,69a2.57,2.57,0,0,1,.63,1.81,3.08,3.08,0,0,1-.94,2.33,3.34,3.34,0,0,1-2.41.9,3.45,3.45,0,0,1-2.46-.91,3.34,3.34,0,0,1-1-2.38H216a1.65,1.65,0,0,0,.41.91,1.07,1.07,0,0,0,.8.31,1.13,1.13,0,0,0,.77-0.26,0.84,0.84,0,0,0,.3-0.67,0.87,0.87,0,0,0-.27-0.68,3.11,3.11,0,0,0-1.06-.48,5.47,5.47,0,0,1-2.26-1.17A2.41,2.41,0,0,1,214,67a2.79,2.79,0,0,1,.9-2.15,3.26,3.26,0,0,1,2.31-.83,3,3,0,0,1,2.12.82,3,3,0,0,1,1,2H218Z" transform="translate(-28.66 -16.57)"/><path class="cls-1" d="M227.6,63.34h-2.35V61.16h7v2.17h-2.35V73.77H227.6V63.34Z" transform="translate(-28.66 -16.57)"/><path class="cls-1" d="M236.92,74.09a4.72,4.72,0,0,1-3.49-1.47,5.14,5.14,0,0,1,0-7.14,4.87,4.87,0,0,1,7,0,4.93,4.93,0,0,1,1.44,3.57,6,6,0,0,1-.08,1H234.4a3,3,0,0,0,.64,1.12A2.51,2.51,0,0,0,237,72a2.64,2.64,0,0,0,1.31-.33,2.1,2.1,0,0,0,.88-0.89h2.4a4.44,4.44,0,0,1-1.72,2.4A4.93,4.93,0,0,1,236.92,74.09Zm2.57-5.85a2.81,2.81,0,0,0-.67-1.31,2.53,2.53,0,0,0-3.8,0,3.18,3.18,0,0,0-.68,1.31h5.15Z" transform="translate(-28.66 -16.57)"/><path class="cls-1" d="M252.3,70.69a4.63,4.63,0,0,1-1.76,2.47,4.94,4.94,0,0,1-3,.92A4.81,4.81,0,0,1,244,72.62a5.09,5.09,0,0,1,0-7.14A4.8,4.8,0,0,1,247.58,64a5,5,0,0,1,3,.94,4.71,4.71,0,0,1,1.78,2.5h-2.53a2.36,2.36,0,0,0-.9-1,2.58,2.58,0,0,0-1.36-.35,2.51,2.51,0,0,0-1.91.85,2.93,2.93,0,0,0-.79,2.06,3.05,3.05,0,0,0,.81,2.16,2.62,2.62,0,0,0,2,.87,2.27,2.27,0,0,0,1.23-.36,2.4,2.4,0,0,0,.88-1h2.53Z" transform="translate(-28.66 -16.57)"/><path class="cls-1" d="M253.35,61.16h2.27V65a3.41,3.41,0,0,1,2.46-1,3.35,3.35,0,0,1,2.66,1.13,4.5,4.5,0,0,1,1,3.06v5.58h-2.27V68.7a3.36,3.36,0,0,0-.48-2,1.61,1.61,0,0,0-1.4-.67,1.69,1.69,0,0,0-1.47.68,3.53,3.53,0,0,0-.49,2v5h-2.27V61.16Z" transform="translate(-28.66 -16.57)"/><path class="cls-1" d="M263.07,64.32h2.11v0.82A3.54,3.54,0,0,1,267.81,64a3.35,3.35,0,0,1,2.67,1.14,4.52,4.52,0,0,1,1,3.07v5.57h-2.27V68.71a3.37,3.37,0,0,0-.48-2,1.62,1.62,0,0,0-1.41-.67,1.7,1.7,0,0,0-1.47.68,3.5,3.5,0,0,0-.49,2v5h-2.27V64.32Z" transform="translate(-28.66 -16.57)"/><path class="cls-1" d="M273.84,72.62a5.05,5.05,0,1,1,3.56,1.47A4.86,4.86,0,0,1,273.84,72.62Zm5.52-1.45a3.23,3.23,0,0,0,0-4.24,2.67,2.67,0,0,0-3.92,0,3.23,3.23,0,0,0,0,4.24A2.69,2.69,0,0,0,279.36,71.17Z" transform="translate(-28.66 -16.57)"/><path class="cls-1" d="M283.36,61.16h2.27V73.77h-2.27V61.16Z" transform="translate(-28.66 -16.57)"/><path class="cls-1" d="M288.42,72.62A5.05,5.05,0,1,1,292,74.09,4.86,4.86,0,0,1,288.42,72.62Zm5.52-1.45a3.23,3.23,0,0,0,0-4.24,2.67,2.67,0,0,0-3.92,0,3.23,3.23,0,0,0,0,4.24A2.69,2.69,0,0,0,293.94,71.17Z" transform="translate(-28.66 -16.57)"/><path class="cls-1" d="M303,75.55a2.84,2.84,0,0,0,2.18-.91,3.21,3.21,0,0,0,.82-2,4.45,4.45,0,0,1-3.31,1.45,4.34,4.34,0,0,1-3.3-1.47,5.35,5.35,0,0,1,0-7.14,4.34,4.34,0,0,1,3.3-1.48,4.23,4.23,0,0,1,3.2,1.37V64.32h2.2V72a5.79,5.79,0,0,1-1.42,4.09,4.88,4.88,0,0,1-3.77,1.54,5.23,5.23,0,0,1-3-.85,4.11,4.11,0,0,1-1.71-2.28h2.64a1.74,1.74,0,0,0,.82.77A2.91,2.91,0,0,0,303,75.55Zm0.07-9.5a2.56,2.56,0,0,0-2,.86,3.26,3.26,0,0,0,0,4.26,2.67,2.67,0,0,0,3.92,0,3.26,3.26,0,0,0,0-4.26A2.56,2.56,0,0,0,303,66.06Z" transform="translate(-28.66 -16.57)"/><path class="cls-1" d="M312.93,77h-2.4l1.75-4h0l-3.46-8.61h2.57l2.15,6.18h0l2.31-6.18h2.57Z" transform="translate(-28.66 -16.57)"/></svg>