<?xml version="1.0" encoding="utf-8"?>
<!-- Generator: Adobe Illustrator 19.1.0, SVG Export Plug-In . SVG Version: 6.00 Build 0)  -->
<svg version="1.1" id="Layer_1" xmlns="http://www.w3.org/2000/svg" xmlns:xlink="http://www.w3.org/1999/xlink" x="0px" y="0px"
	 viewBox="0 0 160 80" style="enable-background:new 0 0 160 80;" xml:space="preserve">
<style type="text/css">
	.st0{fill:#231F20;}
	.st1{fill:#D5AB82;}
	.st2{fill:#F16534;}
	.st3{fill:#C3996B;}
	.st4{fill:#FFFCE8;}
	.st5{fill:#EAD438;}
	.st6{fill:#F0729F;}
	.st7{fill:#A6A8AB;}
	.st8{fill:#8F6A48;}
	.st9{fill:#DA2037;}
	.st10{fill:#0780B0;}
	.st11{fill:#FFFFFF;}
	.st12{fill:#5A4A42;}
	.st13{fill:#E2CFC7;}
	.st14{fill:#238347;}
	.st15{fill:#173E0F;}
	.st16{fill:#FCB823;}
	.st17{fill:#C667A7;}
	.st18{clip-path:url(#SVGID_2_);}
	.st19{fill:none;stroke:#000000;stroke-width:4;stroke-miterlimit:10;}
	.st20{fill:#FFFFFF;stroke:#000000;stroke-width:4;stroke-miterlimit:10;}
	.st21{fill:#FFFFFF;stroke:#000000;stroke-width:4;stroke-linecap:round;stroke-linejoin:round;stroke-miterlimit:10;}
	.st22{fill:none;stroke:#000000;stroke-width:4;stroke-miterlimit:10;stroke-dasharray:10;}
	.st23{fill:none;stroke:#000000;stroke-width:4;stroke-linecap:round;stroke-linejoin:round;stroke-miterlimit:10;}
	.st24{fill:none;stroke:#CCCCCC;stroke-width:2;stroke-miterlimit:10;stroke-dasharray:4;}
	.st25{fill:#F2F2F2;}
	.st26{clip-path:url(#SVGID_4_);}
	.st27{fill:#333333;}
	.st28{clip-path:url(#SVGID_6_);}
	.st29{fill:#FFDD00;}
	.st30{fill:none;stroke:#FFFFFF;stroke-width:14.1863;stroke-miterlimit:10;}
	.st31{fill:none;stroke:#FFFFFF;stroke-width:7.0931;stroke-miterlimit:10;}
	.st32{fill:none;stroke:#FFFFFF;stroke-width:8.2753;stroke-miterlimit:10;}
	.st33{fill:none;stroke:#FFFFFF;stroke-width:4.7288;stroke-miterlimit:10;}
	.st34{fill:none;stroke:#FFFFFF;stroke-width:6.127;stroke-miterlimit:10;}
	.st35{fill:none;stroke:#FFD55B;stroke-width:1.1822;stroke-miterlimit:10;}
	.st36{fill:#BBBDBF;}
	.st37{fill-rule:evenodd;clip-rule:evenodd;fill:#231F20;}
	.st38{fill-rule:evenodd;clip-rule:evenodd;}
	.st39{fill:none;stroke:#000000;stroke-width:0.5;stroke-miterlimit:22.9256;}
	.st40{fill:none;stroke:#000000;stroke-width:2;stroke-miterlimit:10;}
	.st41{fill-rule:evenodd;clip-rule:evenodd;fill:none;stroke:#000000;stroke-width:0.5;stroke-miterlimit:22.9256;}
	.st42{clip-path:url(#SVGID_8_);}
	.st43{fill:#26A9E0;}
	.st44{fill:none;stroke:#231F20;stroke-width:16.1392;stroke-linecap:round;stroke-linejoin:round;stroke-miterlimit:10;}
	.st45{fill:none;stroke:#FFFFFF;stroke-width:1.2415;stroke-linecap:round;stroke-miterlimit:10;}
	.st46{fill:none;}
	.st47{fill:none;stroke:#231F20;stroke-width:4.2979;stroke-miterlimit:10;}
	.st48{fill:none;stroke:#231F20;stroke-width:14.0224;stroke-linecap:round;stroke-linejoin:round;stroke-miterlimit:10;}
	.st49{fill:#999999;}
	.st50{fill:none;stroke:#999999;stroke-width:4;stroke-miterlimit:10;}
	.st51{clip-path:url(#SVGID_10_);fill:#BBBDBF;}
	.st52{clip-path:url(#SVGID_10_);fill:none;stroke:#FFFFFF;stroke-width:14.1863;stroke-miterlimit:10;}
	.st53{clip-path:url(#SVGID_10_);fill:none;stroke:#FFFFFF;stroke-width:7.0931;stroke-miterlimit:10;}
	.st54{clip-path:url(#SVGID_10_);fill:none;stroke:#FFFFFF;stroke-width:8.2753;stroke-miterlimit:10;}
	.st55{clip-path:url(#SVGID_10_);fill:none;stroke:#FFFFFF;stroke-width:4.7288;stroke-miterlimit:10;}
	.st56{clip-path:url(#SVGID_10_);fill:none;stroke:#FFFFFF;stroke-width:6.127;stroke-miterlimit:10;}
	.st57{clip-path:url(#SVGID_10_);fill:none;stroke:#FFD55B;stroke-width:1.1822;stroke-miterlimit:10;}
	.st58{clip-path:url(#SVGID_10_);}
	.st59{fill:#6DBF67;}
	.st60{clip-path:url(#SVGID_12_);}
	.st61{fill:#E6E7E8;}
	.st62{clip-path:url(#SVGID_14_);fill:#6D6E70;}
	.st63{clip-path:url(#SVGID_16_);fill:#6D6E70;}
	.st64{fill:#FFD55B;}
	.st65{fill:#409E7E;}
	.st66{clip-path:url(#SVGID_12_);fill:none;stroke:#409E7E;stroke-width:12.9269;stroke-miterlimit:10;}
	.st67{fill:#4FBD95;}
	.st68{opacity:0.8;clip-path:url(#SVGID_12_);}
	.st69{fill:#95B7E0;}
	.st70{fill:#00ADEE;}
	.st71{fill:none;stroke:#CCCCCC;stroke-width:2;stroke-miterlimit:10;}
	.st72{fill:none;stroke:#CCCCCC;stroke-width:2;stroke-miterlimit:10;stroke-dasharray:4,4;}
	.st73{fill:none;stroke:#000000;stroke-width:10;stroke-miterlimit:10;}
	.st74{fill:none;stroke:#999999;stroke-width:2;stroke-miterlimit:10;}
	.st75{fill:#6F000A;}
	.st76{fill:#FFF100;}
	.st77{clip-path:url(#SVGID_18_);fill:#FFFCE8;}
	.st78{fill:#81629C;}
	.st79{fill:#3B2314;}
	.st80{fill:#EC1C24;}
	.st81{clip-path:url(#SVGID_20_);}
	.st82{fill:none;stroke:#FBB03B;stroke-width:5;stroke-miterlimit:10;}
	.st83{fill:none;stroke:#FFFFFF;stroke-width:4;stroke-miterlimit:10;}
	.st84{fill:none;stroke:#FFFFFF;stroke-width:10;stroke-miterlimit:10;}
	.st85{clip-path:url(#SVGID_22_);fill:#FFFCE8;}
	.st86{fill:#FFFFFF;stroke:#000000;stroke-width:4;stroke-linejoin:round;stroke-miterlimit:10;}
	.st87{clip-path:url(#SVGID_24_);}
	.st88{fill-rule:evenodd;clip-rule:evenodd;fill:#FFFFFF;}
	.st89{fill:none;stroke:#000000;stroke-width:4;stroke-linejoin:round;stroke-miterlimit:10;}
	.st90{fill:none;stroke:#000000;stroke-width:4;stroke-linejoin:round;}
	.st91{fill:none;stroke:#000000;stroke-width:4;stroke-linejoin:round;stroke-dasharray:11,11;}
	.st92{fill:#808184;}
	.st93{fill:#58595B;}
	.st94{fill:#404041;}
	.st95{fill:none;stroke:#4E6584;stroke-width:0.8467;stroke-linejoin:round;stroke-miterlimit:10;}
	.st96{fill:#003F7E;}
	.st97{fill:#DBDCDD;}
	.st98{fill:#F16864;}
	.st99{fill:none;stroke:#FFFCE8;stroke-width:1.6355;stroke-linecap:round;stroke-miterlimit:10;}
	.st100{fill:#C5C7C9;}
	.st101{fill:#FFFFFF;stroke:#231F20;stroke-width:3;stroke-linecap:round;stroke-linejoin:round;stroke-miterlimit:10;}
	.st102{fill:none;stroke:#231F20;stroke-linejoin:round;stroke-miterlimit:10;}
	.st103{fill:none;stroke:#FFFFFF;stroke-linejoin:round;stroke-miterlimit:10;}
	.st104{clip-path:url(#SVGID_26_);fill:#BBBDBF;}
	.st105{clip-path:url(#SVGID_26_);fill:none;stroke:#FFFFFF;stroke-width:14.1863;stroke-miterlimit:10;}
	.st106{clip-path:url(#SVGID_26_);fill:none;stroke:#FFFFFF;stroke-width:7.0931;stroke-miterlimit:10;}
	.st107{clip-path:url(#SVGID_26_);fill:none;stroke:#FFFFFF;stroke-width:8.2753;stroke-miterlimit:10;}
	.st108{clip-path:url(#SVGID_26_);fill:none;stroke:#FFFFFF;stroke-width:4.7288;stroke-miterlimit:10;}
	.st109{clip-path:url(#SVGID_26_);fill:none;stroke:#FFFFFF;stroke-width:6.127;stroke-miterlimit:10;}
	.st110{clip-path:url(#SVGID_26_);fill:none;stroke:#FFD55B;stroke-width:1.1822;stroke-miterlimit:10;}
	.st111{clip-path:url(#SVGID_26_);}
	.st112{fill:none;stroke:#29ABE2;stroke-width:6;stroke-miterlimit:10;}
	.st113{stroke:#FFFFFF;stroke-width:2;stroke-miterlimit:10;}
	.st114{clip-path:url(#SVGID_28_);}
	.st115{clip-path:url(#SVGID_30_);fill:#FFFFFF;stroke:#000000;stroke-width:4;stroke-miterlimit:10;}
	.st116{clip-path:url(#SVGID_32_);fill:#FFFFFF;stroke:#000000;stroke-width:4;stroke-miterlimit:10;}
	.st117{clip-path:url(#SVGID_34_);}
	.st118{clip-path:url(#SVGID_36_);}
	.st119{clip-path:url(#SVGID_38_);fill:#BBBDBF;}
	.st120{clip-path:url(#SVGID_38_);fill:none;stroke:#FFFFFF;stroke-width:14.1863;stroke-miterlimit:10;}
	.st121{clip-path:url(#SVGID_38_);fill:none;stroke:#FFFFFF;stroke-width:7.0931;stroke-miterlimit:10;}
	.st122{clip-path:url(#SVGID_38_);fill:none;stroke:#FFFFFF;stroke-width:8.2753;stroke-miterlimit:10;}
	.st123{clip-path:url(#SVGID_38_);fill:none;stroke:#FFFFFF;stroke-width:4.7288;stroke-miterlimit:10;}
	.st124{clip-path:url(#SVGID_38_);fill:none;stroke:#FFFFFF;stroke-width:6.127;stroke-miterlimit:10;}
	.st125{clip-path:url(#SVGID_38_);fill:none;stroke:#FFD55B;stroke-width:1.1822;stroke-miterlimit:10;}
	.st126{clip-path:url(#SVGID_38_);}
	.st127{fill:none;stroke:#000000;stroke-width:4;stroke-linecap:round;stroke-miterlimit:10;}
	.st128{opacity:0.8;fill:#FFFFFF;}
	.st129{fill:none;stroke:#1D1D1B;stroke-width:4;stroke-miterlimit:10;}
	.st130{fill:#1D1D1B;}
	.st131{fill:#1D1D1B;stroke:#000000;stroke-width:4;stroke-miterlimit:10;}
</style>
<g>
	<g>
		<path d="M19.2,54.8c-0.7,0-1.4-0.2-2-0.7L1.1,41.6v19.7c0,10,8.1,18.1,18.1,18.1c10,0,18.1-8.1,18.1-18.1V41.6L21.2,54.1
			C20.6,54.6,19.9,54.8,19.2,54.8z"/>
		<path d="M19.2,4.8C9.2,4.8,1.1,13,1.1,23v11.7l18.1,14.1l18.1-14.1V23C37.3,13,29.2,4.8,19.2,4.8z"/>
		<path class="st11" d="M1.1,34.7v6.9l16.1,12.5c0.6,0.4,1.3,0.7,2,0.7s1.4-0.2,2-0.7l16.1-12.5v-6.9L19.2,48.7L1.1,34.7z"/>
		<circle class="st0" cx="30.5" cy="5.1" r="4.5"/>
		<circle class="st0" cx="7.9" cy="5.1" r="4.5"/>
		<circle class="st11" cx="19.2" cy="23" r="4.4"/>
		<path class="st0" d="M21.2,20.3c0,1.1-0.9,2-2,2c-1.1,0-2-0.9-2-2c0-1.1,0.9-2,2-2C20.3,18.3,21.2,19.2,21.2,20.3z"/>
	</g>
	<g>
		<path class="st0" d="M100.1,61c0.6,0,1,0,1.2,0.1l0.3,0.1c0.2,0,0.3,0.1,0.4,0.2c0.1,0.1,0.2,0.3,0.1,0.5c-0.2,3-0.6,5.4-1.3,7.3
			c0,0,0,0.1,0,0.1c0.6,0.5,1.1,0.9,1.4,1.3c0.1,0.1,0.2,0.3,0.2,0.5c0,0.2-0.1,0.4-0.2,0.5l-0.8,1.1c-0.1,0.1-0.2,0.2-0.4,0.2
			s-0.3-0.1-0.4-0.2c-0.3-0.3-0.6-0.7-1-1.1c0,0-0.1,0-0.1,0c-0.7,1.1-1.6,2-2.6,2.7c-0.1,0.1-0.3,0.1-0.4,0.1
			c-0.2,0-0.3-0.1-0.4-0.3c-0.3-0.4-0.5-0.8-0.8-1.1c-0.1-0.1-0.1-0.3-0.1-0.4c0-0.2,0.1-0.3,0.2-0.4c0.9-0.6,1.6-1.4,2.2-2.4
			c0,0,0-0.1,0-0.1c-0.6-0.4-2-1.2-2-1.2c-0.2-0.1-0.3-0.2-0.3-0.4c-0.1-0.2-0.1-0.3,0-0.5c0.3-1.2,0.5-2.3,0.9-4.2
			c0-0.1,0-0.1-0.1-0.1h-0.5c-0.2,0-0.3-0.1-0.4-0.2C95,63.1,95,62.9,95,62.8v-1.2c0-0.2,0.1-0.3,0.2-0.4c0.1-0.1,0.3-0.2,0.4-0.2h1
			c0,0,0.1,0,0.1-0.1c0.1-0.8,0.3-1.7,0.5-2.8c0-0.2,0.1-0.3,0.2-0.4c0.1-0.1,0.2-0.1,0.4-0.1c0,0,0,0,0.1,0l1.2,0.1
			c0.2,0,0.3,0.1,0.4,0.2c0.1,0.1,0.1,0.3,0.1,0.4c-0.2,0.9-0.3,1.7-0.5,2.6c0,0,0,0.1,0.1,0.1H100.1z M99.6,63.5
			C99.6,63.4,99.6,63.4,99.6,63.5l-1-0.1c0,0-0.1,0-0.1,0.1c-0.2,0.8-0.4,1.9-0.7,3.4c0,0,0,0.1,0,0.1c0.3,0.2,0.5,0.3,0.8,0.5
			c0,0,0.1,0,0.1,0C99.2,66.4,99.5,65,99.6,63.5z M111.3,64.6c0.2,0,0.3,0.1,0.4,0.2c0.1,0.1,0.2,0.3,0.2,0.4v1.2
			c0,0.2-0.1,0.3-0.2,0.4c-0.1,0.1-0.3,0.2-0.4,0.2h-3.1c-0.1,0-0.1,0-0.1,0.1v4.7c0,0.6-0.1,1.1-0.2,1.5c-0.1,0.4-0.4,0.6-0.8,0.9
			c-0.6,0.3-1.4,0.4-2.5,0.5c-0.2,0-0.3-0.1-0.5-0.2c-0.1-0.1-0.2-0.3-0.3-0.4c-0.1-0.4-0.3-0.9-0.5-1.4c-0.1-0.1,0-0.3,0-0.4
			c0.1-0.1,0.2-0.2,0.3-0.2c0.4,0,0.8,0,1,0c0.2,0,0.3,0,0.4,0c0.2,0,0.3,0,0.3-0.1c0.1,0,0.1-0.1,0.1-0.2v-4.6c0-0.1,0-0.1-0.1-0.1
			h-2.6c-0.2,0-0.3-0.1-0.4-0.2c-0.1-0.1-0.2-0.3-0.2-0.4v-1.2c0-0.2,0.1-0.3,0.2-0.4c0.1-0.1,0.3-0.2,0.4-0.2h2.6
			c0.1,0,0.1,0,0.1-0.1v-1.2c0-0.2,0.1-0.3,0.2-0.4c0.1-0.1,0.3-0.2,0.4-0.2h0.1c0.1,0,0.1,0,0.1-0.1c0.4-0.5,0.8-1.1,1.2-1.8
			c0,0,0-0.1,0-0.1h-4.4c-0.2,0-0.3-0.1-0.4-0.2c-0.1-0.1-0.2-0.3-0.2-0.4V59c0-0.2,0.1-0.3,0.2-0.4c0.1-0.1,0.3-0.2,0.4-0.2h6
			c0,0,0.1,0,0.1,0c0.1,0,0.2,0,0.3,0c0.2,0,0.4,0.1,0.6,0.2l0.8,0.6c0.1,0.1,0.2,0.2,0.2,0.4c0,0.2,0,0.3-0.1,0.5
			c-1,1.5-2,2.8-2.9,3.7c0,0-0.1,0.1-0.1,0.1v0.6c0,0.1,0,0.1,0.1,0.1H111.3z"/>
		<g>
			<path class="st0" d="M59.8,71.1c-0.1-0.2-0.2-0.3-0.3-0.4c-0.2-0.1-0.3-0.1-0.5-0.1l-1.3,0.3c-0.2,0-0.3,0.1-0.4,0.3
				c-0.1,0.1-0.1,0.3,0,0.5c0.2,0.7,0.4,1.3,0.5,1.8c0,0.2,0.1,0.3,0.2,0.4c0.1,0.1,0.3,0.1,0.5,0.1l1.4-0.3c0.2,0,0.3-0.1,0.4-0.3
				c0.1-0.1,0.1-0.3,0.1-0.5C60.2,72.3,60,71.7,59.8,71.1z"/>
			<path class="st0" d="M55.8,70.9c-0.1-0.1-0.3-0.2-0.5-0.1l-1.2,0.1c-0.2,0-0.3,0.1-0.4,0.2c-0.1,0.1-0.2,0.3-0.1,0.4
				c0.1,0.6,0.1,1.2,0.1,1.8c0,0.2,0.1,0.3,0.2,0.4c0.1,0.1,0.3,0.2,0.4,0.1l1.4-0.2c0.2,0,0.3-0.1,0.4-0.2c0.1-0.1,0.2-0.3,0.2-0.5
				c0-0.5-0.1-1.1-0.2-1.8C56,71.2,55.9,71,55.8,70.9z"/>
			<path class="st0" d="M64.9,72.8c-0.4-0.7-1-1.5-1.7-2.5c0,0,0-0.1,0-0.1h1.1c0.2,0,0.3-0.1,0.4-0.2c0.1-0.1,0.2-0.3,0.2-0.4v-1
				c0-0.2-0.1-0.3-0.2-0.4C64.6,68,64.4,68,64.2,68h-6.1c0,0-0.1,0-0.1-0.1v-0.4c0,0,0-0.1,0.1-0.1h4.7c0.2,0,0.3-0.1,0.4-0.2
				c0.1-0.1,0.2-0.3,0.2-0.4v-0.7c0-0.2-0.1-0.3-0.2-0.4c-0.1-0.1-0.3-0.2-0.4-0.2h-4.7c0,0-0.1,0-0.1-0.1V65c0,0,0-0.1,0.1-0.1h4.6
				c0.2,0,0.3-0.1,0.4-0.2c0.1-0.1,0.2-0.3,0.2-0.4v-6.1c0-0.2-0.1-0.3-0.2-0.4c-0.1-0.1-0.3-0.2-0.4-0.2H50.9
				c-0.2,0-0.3,0.1-0.4,0.2c-0.1,0.1-0.2,0.3-0.2,0.4v6.1c0,0.2,0.1,0.3,0.2,0.4c0.1,0.1,0.3,0.2,0.4,0.2h4.5c0,0,0.1,0,0.1,0.1v0.4
				c0,0,0,0.1-0.1,0.1h-4.7c-0.2,0-0.3,0.1-0.4,0.2c-0.1,0.1-0.2,0.3-0.2,0.4v0.7c0,0.2,0.1,0.3,0.2,0.4c0.1,0.1,0.3,0.2,0.4,0.2
				h4.7c0,0,0.1,0,0.1,0.1v0.4c0,0.1,0,0.1-0.1,0.1h-6.1c-0.2,0-0.3,0.1-0.4,0.2c-0.1,0.1-0.2,0.3-0.2,0.4v1c0,0.2,0.1,0.3,0.2,0.4
				c0.1,0.1,0.3,0.2,0.4,0.2h0.9c0,0,0.1,0,0,0.1c-0.4,1-0.8,1.8-1.3,2.4c-0.1,0.1-0.1,0.2-0.1,0.4c0,0.1,0.1,0.2,0.2,0.3l1.4,0.6
				c0.1,0,0.2,0.1,0.4,0.1c0.1,0,0.1,0,0.2,0c0.2,0,0.3-0.1,0.4-0.3c0.5-0.7,1-1.5,1.3-2.4c0.1-0.2,0-0.3,0-0.5
				c-0.1-0.1-0.2-0.2-0.4-0.3l-1.5-0.4v0h11.8c0,0,0,0,0,0l-1.4,0.5c-0.2,0-0.3,0.1-0.3,0.3c0,0.1,0,0.3,0.1,0.4
				c0.6,0.9,1.1,1.6,1.4,2.3c0.1,0.2,0.2,0.3,0.4,0.3c0.1,0,0.2,0.1,0.3,0.1c0.1,0,0.2,0,0.2,0l1.4-0.5c0.2,0,0.3-0.1,0.3-0.3
				c0-0.1,0-0.1,0-0.2C64.9,73,64.9,72.9,64.9,72.8z M58.1,59.8L58.1,59.8c0-0.1,0-0.1,0.1-0.1h2.5c0,0,0.1,0,0.1,0.1v0v2.9
				c0,0.1,0,0.1-0.1,0.1h-2.5c0,0-0.1,0-0.1-0.1V59.8z M55.4,62.8C55.4,62.8,55.4,62.8,55.4,62.8l-2.6,0.1c-0.1,0-0.1,0-0.1-0.1v-3
				c0,0,0-0.1,0.1-0.1h2.5c0,0,0.1,0,0.1,0.1V62.8z"/>
			<circle class="st0" cx="54.1" cy="61.2" r="0.9"/>
			<circle class="st0" cx="59.4" cy="61.2" r="0.9"/>
		</g>
		<g>
			<path class="st0" d="M79,71.3c-0.1-0.1-0.3-0.2-0.5-0.1l-1.2,0.1c-0.2,0-0.3,0.1-0.4,0.2c-0.1,0.1-0.1,0.2-0.1,0.4l0.1,1.9
				c0,0.2,0.1,0.3,0.2,0.4c0.1,0.1,0.3,0.2,0.4,0.1l1.3-0.1c0.2,0,0.3-0.1,0.4-0.2c0.1-0.1,0.2-0.3,0.2-0.5c0-0.6-0.1-1.2-0.2-1.8
				C79.2,71.6,79.1,71.4,79,71.3z"/>
			<path class="st0" d="M75.4,71L74,70.7c-0.2,0-0.3,0-0.5,0.1c-0.2,0.1-0.3,0.2-0.3,0.4c-0.3,0.8-0.7,1.4-1.2,2
				c-0.1,0.1-0.1,0.2-0.1,0.3c0,0,0,0.1,0,0.1c0,0.1,0.1,0.2,0.2,0.3l1.4,0.5c0.1,0,0.2,0.1,0.3,0.1c0.1,0,0.1,0,0.2,0
				c0.2,0,0.3-0.1,0.4-0.3c0.5-0.7,1-1.5,1.3-2.3c0.1-0.2,0-0.3,0-0.5C75.7,71.2,75.5,71.1,75.4,71z"/>
			<path class="st0" d="M78.8,62.3h-5.6c-0.2,0-0.3,0.1-0.4,0.2c-0.1,0.1-0.2,0.3-0.2,0.4v6.7c0,0.2,0.1,0.3,0.2,0.4
				c0.1,0.1,0.3,0.2,0.4,0.2h1.1c0.2,0,0.3-0.1,0.4-0.2c0.1-0.1,0.2-0.3,0.2-0.4V68c0-0.1,0-0.1,0.1-0.1h2c0,0,0.1,0,0.1,0.1v0.3
				c0,0.2-0.1,0.2-0.3,0.2c-0.2,0-0.4,0-0.6,0c-0.2,0-0.3,0.1-0.3,0.2c-0.1,0.1-0.1,0.2,0,0.4c0.1,0.2,0.2,0.4,0.2,0.6
				c0,0.2,0.1,0.3,0.3,0.4c0.1,0.1,0.3,0.2,0.5,0.2c0.9,0,1.5-0.1,1.9-0.3c0.3-0.1,0.5-0.3,0.6-0.6c0.1-0.3,0.2-0.6,0.2-1.1V63
				c0-0.2-0.1-0.3-0.2-0.4C79.2,62.4,79,62.3,78.8,62.3z M77.1,66.4C77.1,66.5,77,66.5,77.1,66.4l-2,0.1c-0.1,0-0.1,0-0.1-0.1v-0.4
				c0,0,0-0.1,0.1-0.1h2c0,0,0.1,0,0.1,0.1V66.4z M77.1,64.5C77.1,64.5,77,64.6,77.1,64.5l-2,0.1c-0.1,0-0.1,0-0.1-0.1v-0.4
				c0-0.1,0-0.1,0.1-0.1h2c0,0,0.1,0,0.1,0.1V64.5z"/>
			<path class="st0" d="M86.6,71c-0.1-0.1-0.3-0.2-0.5-0.3c-0.1,0-0.2,0-0.2,0c-0.1,0-0.2,0-0.3,0.1l-1.3,0.4
				c-0.2,0-0.2,0.1-0.3,0.3c0,0,0,0.1,0,0.1c0,0.1,0,0.2,0.1,0.3c0.6,0.8,1,1.5,1.4,2.2c0.1,0.2,0.2,0.3,0.4,0.3
				c0.1,0,0.2,0.1,0.3,0.1c0.1,0,0.1,0,0.2,0l1.5-0.5c0.2-0.1,0.3-0.2,0.3-0.3c0-0.1,0-0.1,0-0.2c0-0.1,0-0.2-0.1-0.2
				C87.7,72.5,87.2,71.8,86.6,71z"/>
			<path class="st0" d="M82.9,71.5c-0.1-0.2-0.2-0.3-0.3-0.4c-0.2-0.1-0.3-0.1-0.5-0.1l-1.2,0.2c-0.2,0-0.3,0.1-0.4,0.3
				c0,0.1-0.1,0.2-0.1,0.3c0,0.1,0,0.1,0,0.2c0.2,0.7,0.4,1.3,0.5,1.8c0,0.2,0.1,0.3,0.2,0.4c0.1,0.1,0.3,0.1,0.5,0.1l1.4-0.3
				c0.2,0,0.3-0.1,0.4-0.3c0.1-0.1,0.1-0.3,0.1-0.5C83.3,72.7,83.1,72.2,82.9,71.5z"/>
			<path class="st0" d="M88.1,62.1c0-0.1-0.1-0.1-0.1-0.2c-0.1-0.1-0.2-0.2-0.4-0.2h-3.9c-0.3,0-0.5,0-0.6-0.1
				c-0.1-0.1-0.1-0.2-0.1-0.5V61c0-0.1,0-0.1,0.1-0.1c1.4-0.2,2.6-0.6,3.8-0.9c0.1-0.1,0.2-0.2,0.3-0.3c0-0.1,0-0.3-0.1-0.4
				l-0.7-0.8c-0.2-0.2-0.4-0.3-0.6-0.3c-0.1,0-0.2,0-0.4,0.1c-0.6,0.2-1.3,0.5-2.2,0.7c-0.1,0-0.1,0-0.1-0.1v-0.7
				c0-0.2-0.1-0.3-0.2-0.4c-0.1-0.1-0.3-0.2-0.4-0.2h-1.2c-0.2,0-0.3,0.1-0.4,0.2c-0.1,0.1-0.2,0.3-0.2,0.4v2.9c0,0,0,0,0,0s0,0,0,0
				c-0.4-0.7-1-1.6-1.9-2.6c-0.1-0.1-0.3-0.2-0.4-0.3c-0.2,0-0.4,0-0.5,0.1l-0.9,0.4c-0.1,0.1-0.2,0.2-0.3,0.3c0,0.2,0,0.3,0.1,0.4
				c0,0.1,0.1,0.1,0.2,0.2c0,0,0,0.1,0,0.1l-1.3,0c0,0-0.1,0,0-0.1c0.3-0.4,0.5-0.8,0.7-1.1c0.1-0.1,0.1-0.3,0-0.4
				c-0.1-0.1-0.2-0.2-0.3-0.3l-1.5-0.3c0,0-0.1,0-0.1,0c-0.1,0-0.2,0-0.3,0.1c-0.1,0.1-0.2,0.2-0.3,0.4c-0.2,0.6-0.4,1.2-0.6,1.7
				c0,0.1-0.1,0.1-0.1,0.1l-0.7,0c-0.2,0-0.3,0.1-0.4,0.2c-0.1,0.1-0.2,0.3-0.2,0.4l0.1,0.8c0,0.2,0.1,0.3,0.2,0.4
				c0.1,0.1,0.3,0.2,0.5,0.2c1.3-0.1,3.2-0.2,5.7-0.3c0.1,0,0.1,0,0.1,0.1v0c0.1,0.2,0.2,0.3,0.4,0.3c0.2,0.1,0.3,0.1,0.5,0l1.5-0.7
				c0,0,0.1,0,0.1,0.1c0,0.9,0.2,1.6,0.6,2c0.4,0.4,1.1,0.5,2.2,0.5h2.3l1.9,0c0.1,0,0.3-0.1,0.4-0.2c0.1-0.1,0.1-0.2,0.1-0.4v-1
				C88.2,62.2,88.2,62.1,88.1,62.1z"/>
			<path class="st0" d="M88.1,68.7c0-0.1-0.1-0.1-0.1-0.2c-0.1-0.1-0.2-0.2-0.4-0.2h-3.9c-0.3,0-0.5,0-0.6-0.1
				c-0.1-0.1-0.1-0.5-0.1-0.8v-0.2c0-0.1,0-0.1,0.1-0.1c1.4-0.2,2.6-0.6,3.8-0.9c0.1-0.1,0.2-0.2,0.3-0.3c0-0.1,0-0.3-0.1-0.4
				l-0.7-0.8c-0.2-0.2-0.4-0.3-0.6-0.3c-0.1,0-0.2,0-0.4,0.1c-0.6,0.2-1.3,0.5-2.2,0.7c-0.1,0-0.1,0-0.1-0.1v-0.6
				c0-0.2-0.1-0.3-0.2-0.4c-0.1-0.1-0.3-0.2-0.4-0.2h-1.2c-0.2,0-0.3,0.1-0.4,0.2c-0.1,0.1-0.2,0.3-0.2,0.4v3v0.2
				c0,0.9,0.2,1.6,0.6,2c0.4,0.4,1.1,0.5,2.2,0.5h2.3l1.9,0c0.1,0,0.3-0.1,0.4-0.2c0.1-0.1,0.1-0.2,0.1-0.4v-1
				C88.2,68.8,88.2,68.7,88.1,68.7z"/>
		</g>
		<g>
			<path class="st0" d="M135.4,71c-0.1-0.2-0.2-0.3-0.4-0.4c-0.3-0.2-0.6-0.4-0.9-0.6c-0.1-0.1-0.2-0.1-0.3,0
				c-0.1,0.1-0.2,0.1-0.2,0.3c-0.1,1.2-0.2,1.7-0.3,1.7c-0.2,0-0.4-0.4-0.6-1.1c-0.2-0.7-0.4-1.6-0.5-2.8c0,0,0-0.1,0.1-0.1h2.2
				c0.2,0,0.3-0.1,0.4-0.2c0.1-0.1,0.2-0.3,0.2-0.4v-1.1c0-0.2-0.1-0.3-0.2-0.4c-0.1-0.1-0.3-0.2-0.4-0.2h-2.4c-0.1,0-0.1,0-0.1-0.1
				c0-0.5-0.1-1-0.1-1.5c0-0.1,0-0.1,0.1-0.1h2.1c0.2,0,0.3-0.1,0.4-0.2c0.1-0.1,0.2-0.3,0.2-0.4v-4.7c0-0.2-0.1-0.3-0.2-0.4
				c-0.1-0.1-0.3-0.2-0.4-0.2h-7.9c-0.2,0-0.3,0.1-0.4,0.2c-0.1,0.1-0.2,0.3-0.2,0.4v14.5c0,0-0.1,0.9,1,0.6
				c1.1-0.2,2.1-0.5,3.1-0.7c0.2,0,0.3-0.1,0.4-0.3c0.1-0.1,0.2-0.3,0.1-0.5l-0.1-1c0-0.2-0.1-0.3-0.2-0.4c-0.1-0.1-0.3-0.1-0.4-0.1
				c-0.2,0-0.7,0.1-1.3,0.2c0,0-0.1,0-0.1-0.1v-2.8c0,0,0-0.1,0.1-0.1h1.5c0,0,0.1,0,0.1,0.1c0.2,1.2,0.4,2.3,0.7,3.2
				c0.3,0.9,0.6,1.6,1.1,2.2c0.4,0.6,0.9,0.9,1.5,0.9c0.5,0,0.9-0.1,1.2-0.2c0.3-0.1,0.6-0.4,0.8-0.9c0.2-0.4,0.4-1.1,0.5-1.8
				c0,0,0-0.1,0-0.1C135.5,71.3,135.5,71.2,135.4,71z M129.5,65.8h-1.2c0,0-0.1,0-0.1-0.1v-1.5c0-0.1,0-0.1,0.1-0.1h1.1
				c0.1,0,0.1,0,0.1,0.1C129.5,64.6,129.5,65,129.5,65.8C129.5,65.7,129.5,65.8,129.5,65.8z M128.2,61.8
				C128.2,61.8,128.2,61.8,128.2,61.8l-0.1-1.3c0-0.1,0-0.1,0.1-0.1h3.9c0,0,0.1,0,0.1,0.1v1.2c0,0,0,0.1-0.1,0.1H128.2z"/>
			<path class="st0" d="M124.4,58.4c-0.1-0.1-0.3-0.2-0.4-0.2h-4.7c-0.2,0-0.3,0.1-0.4,0.2c-0.1,0.1-0.2,0.3-0.2,0.4v12.1
				c0,0.2,0.1,0.3,0.2,0.4c0.1,0.1,0.3,0.2,0.4,0.2h4.7c0.2,0,0.3-0.1,0.4-0.2c0.1-0.1,0.2-0.3,0.2-0.4v-1.7V58.9
				C124.6,58.7,124.6,58.5,124.4,58.4z M122.2,69.2C122.2,69.2,122.2,69.2,122.2,69.2l-1,0.1c0,0-0.1,0-0.1-0.1v-1.3
				c0-0.1,0-0.1,0.1-0.1h0.9c0,0,0.1,0,0.1,0.1V69.2z M122.2,65.5C122.2,65.5,122.2,65.6,122.2,65.5l-1,0.1c0,0-0.1,0-0.1-0.1v-1.3
				c0-0.1,0-0.1,0.1-0.1h0.9c0,0,0.1,0,0.1,0.1V65.5z M122.2,61.8C122.2,61.9,122.2,61.9,122.2,61.8l-1,0.1c0,0-0.1,0-0.1-0.1v-1.2
				c0,0,0-0.1,0.1-0.1h0.9c0,0,0.1,0,0.1,0.1V61.8z"/>
		</g>
		<g>
			<path class="st0" d="M142.8,63.1h5.7c0.2,0,0.3-0.1,0.4-0.2c0.1-0.1,0.2-0.3,0.2-0.4v-1.2c0-0.2-0.1-0.3-0.2-0.4
				c-0.1-0.1-0.3-0.2-0.4-0.2h-1.5c0,0-0.1,0-0.1-0.1v-2.3c0-0.2-0.1-0.3-0.2-0.4s-0.3-0.2-0.4-0.2h-1.2c-0.2,0-0.3,0.1-0.4,0.2
				c-0.1,0.1-0.2,0.3-0.2,0.4v2.3c0,0.1,0,0.1-0.1,0.1h-1.7c-0.2,0-0.3,0.1-0.4,0.2c-0.1,0.1-0.2,0.3-0.2,0.4v1.2
				c0,0.2,0.1,0.3,0.2,0.4C142.5,63,142.6,63.1,142.8,63.1z"/>
			<g>
				<path class="st0" d="M145.1,64.4c0-0.2-0.1-0.3-0.2-0.4c-0.1-0.1-0.3-0.2-0.4-0.2l-0.9,0c-0.2,0-0.3,0.1-0.4,0.2
					c-0.1,0.1-0.2,0.3-0.2,0.4c0,1.6,0.5,5.2,0.7,6.7c0,0.2,0.1,0.3,0.2,0.4c0.1,0.1,0.3,0.2,0.5,0.2l1,0c0.2,0,0.3-0.1,0.4-0.2
					c0.1-0.1,0.1-0.3,0.1-0.4C145.7,69.7,145.2,66.1,145.1,64.4z"/>
				<path class="st0" d="M148.2,63.9c-0.1-0.1-0.3-0.2-0.4-0.2l-0.9,0c-0.2,0-0.3,0.1-0.4,0.2c-0.1,0.1-0.2,0.3-0.2,0.4
					c0,1.7-0.6,5.3-0.8,6.7c0,0.2,0,0.3,0.1,0.4c0.1,0.1,0.2,0.2,0.4,0.2l1,0c0.2,0,0.3-0.1,0.5-0.2c0.1-0.1,0.2-0.3,0.2-0.4
					c0.2-1.5,0.7-5.1,0.7-6.7C148.4,64.2,148.3,64,148.2,63.9z"/>
			</g>
			<path class="st0" d="M158.8,60.7c-0.1-0.1-0.3-0.2-0.4-0.2h-3.2c-0.1,0-0.1,0-0.1-0.1v-2.4c0-0.2-0.1-0.3-0.2-0.4
				c-0.1-0.1-0.3-0.2-0.4-0.2H153c-0.2,0-0.3,0.1-0.4,0.2c-0.1,0.1-0.2,0.3-0.2,0.4v7.7c0,0.1,0,0.1-0.1,0.1h-2.1
				c-0.2,0-0.3,0.1-0.4,0.2c-0.1,0.1-0.2,0.3-0.2,0.4v6.6c0,0.2,0.1,0.3,0.2,0.4c0.1,0.1,0.3,0.2,0.4,0.2h7.6c0.2,0,0.3-0.1,0.4-0.2
				c0.1-0.1,0.2-0.3,0.2-0.4v-6.6c0-0.2-0.1-0.3-0.2-0.4c-0.1-0.1-0.3-0.2-0.4-0.2h-2.6c-0.1,0-0.1,0-0.1-0.1v-2.7
				c0,0,0-0.1,0.1-0.1h3.2c0.2,0,0.3-0.1,0.4-0.2c0.1-0.1,0.2-0.3,0.2-0.4v-1.2C158.9,61,158.9,60.8,158.8,60.7z M155.6,68.3
				C155.7,68.3,155.7,68.3,155.6,68.3l0.1,2.9c0,0.1,0,0.1-0.1,0.1h-3.5c-0.1,0-0.1,0-0.1-0.1v-2.8c0,0,0-0.1,0.1-0.1H155.6z"/>
			<path class="st0" d="M149.2,72.5v-1.2c0-0.2-0.1-0.3-0.2-0.4c-0.1-0.1-0.3-0.2-0.4-0.2h-5.8c-0.2,0-0.3,0.1-0.4,0.2
				c-0.1,0.1-0.2,0.3-0.2,0.4v1.2c0,0.2,0.1,0.3,0.2,0.4c0.1,0.1,0.3,0.2,0.4,0.2h5.8c0.2,0,0.3-0.1,0.4-0.2
				C149.2,72.8,149.2,72.7,149.2,72.5z"/>
		</g>
	</g>
	<g>
		<g>
			<path class="st0" d="M99.4,12.4c0-0.2,0.1-0.4,0.3-0.4h5.7c4,0,6.3,3,6.3,5.6c0,1.9,0,4.7-3.1,5.6v0.1c1.9,0.7,3.2,2.8,3.2,5.2
				c0,1.6,0,6.7-6.4,6.7h-5.7c-0.2,0-0.3-0.2-0.3-0.3V12.4z M104.9,20.7c0,0.1,0.1,0.2,0.2,0.2c0.4,0,0.9-0.3,0.9-0.9v-2.7
				c0-0.6-0.5-0.8-0.9-0.8c-0.1,0-0.2,0.1-0.2,0.2V20.7z M104.9,30.3c0,0.1,0.1,0.2,0.2,0.2c0.5,0,0.9-0.4,0.9-0.9v-3.2
				c0-0.5-0.5-0.8-1-0.8c-0.1,0-0.2,0.1-0.2,0.2V30.3z"/>
			<path class="st0" d="M114.2,12.4c0-0.2,0.2-0.4,0.4-0.4h11c0.2,0,0.3,0.2,0.3,0.3v5.6c0,0.2-0.2,0.3-0.3,0.3h-5.2
				c-0.1,0-0.2,0.1-0.2,0.2v1.7c0,0.1,0.1,0.2,0.2,0.2h2.4c0.1,0,0.2,0.1,0.2,0.2v5.6c0,0.2-0.1,0.3-0.2,0.3h-2.5
				c-0.1,0-0.2,0.1-0.2,0.2v1.8c0,0.1,0.1,0.2,0.2,0.2h5.3c0.2,0,0.3,0.2,0.3,0.3v5.7c0,0.2-0.2,0.3-0.3,0.3h-11
				c-0.2,0-0.3-0.2-0.3-0.4V12.4z"/>
			<path class="st0" d="M138.6,12c0.2,0,0.4,0.2,0.4,0.4l4.2,22.1c0.1,0.3-0.1,0.7-0.4,0.7h-5c-0.2,0-0.4-0.1-0.4-0.3l-0.6-4.6
				c0-0.2-0.2-0.2-0.3-0.2h-1.7c-0.1,0-0.2,0.1-0.3,0.3l-0.6,4.5c0,0.2-0.2,0.3-0.4,0.3h-5.1c-0.3,0-0.4-0.2-0.4-0.5l4.1-22.3
				c0-0.2,0.2-0.4,0.4-0.4H138.6z M135.8,23.7c-0.1-0.4-0.1-0.7-0.2-0.7c-0.1,0-0.2,0.2-0.2,0.7l-0.4,2.9c0,0.2,0,0.3,0.2,0.3
				c1,0,1.1,0,1-0.3L135.8,23.7z"/>
			<path class="st46" d="M151.6,18.5c-0.2,0-0.2,0.1-0.2,0.3v2.8c0,0.2,0.1,0.3,0.2,0.3c0.7,0,0.7-0.9,0.7-2.3
				C152.3,18.9,151.8,18.5,151.6,18.5z"/>
			<path d="M155.2,23.1L155.2,23.1c2.9-0.5,3.2-3.5,3.2-5.2c0-3.8-3.2-5.9-6-5.9h-6.9c-0.2,0-0.3,0.2-0.3,0.4v22.4
				c0,0.2,0.2,0.4,0.4,0.4h5.3c0.2,0,0.4-0.2,0.4-0.4v-9.9c0-0.2,0-0.4,0.2-0.4c0.3,0,0.8,0.3,0.8,1.6v8.7c0,0.2,0.2,0.4,0.4,0.4
				h5.5c0.2,0,0.4-0.2,0.4-0.4v-5.5C158.5,26.6,158,24.5,155.2,23.1z M151.5,21.9c-0.2,0-0.2-0.1-0.2-0.3v-2.8
				c0-0.2,0.1-0.3,0.2-0.3c0.3,0,0.7,0.4,0.7,1.1C152.3,21,152.3,21.9,151.5,21.9z"/>
		</g>
		<g>
			<path class="st0" d="M49.9,12.3c0-0.2,0.1-0.3,0.3-0.3h5.2c0.2,0,0.3,0.1,0.3,0.2v8.1c0,0.1,0.1,0.2,0.2,0.2h0.6
				c0.2,0,0.3-0.1,0.3-0.2v-8.1c0-0.2,0.1-0.3,0.2-0.3h5.2c0.2,0,0.3,0.1,0.3,0.3v22.5c0,0.2-0.1,0.3-0.2,0.3H57
				c-0.2,0-0.3-0.2-0.3-0.3v-8.1c0-0.1-0.1-0.2-0.2-0.2h-0.7c-0.2,0-0.2,0.1-0.2,0.2v8.1c0,0.2-0.1,0.3-0.3,0.3h-5.1
				c-0.2,0-0.4-0.2-0.4-0.5V12.3z"/>
			<path class="st0" d="M65.1,12.4c0-0.2,0.2-0.4,0.4-0.4h11c0.2,0,0.3,0.2,0.3,0.3v5.6c0,0.2-0.2,0.3-0.3,0.3h-5.2
				c-0.1,0-0.2,0.1-0.2,0.2v1.7c0,0.1,0.1,0.2,0.2,0.2h2.4c0.1,0,0.2,0.1,0.2,0.2v5.6c0,0.2-0.1,0.3-0.2,0.3h-2.5
				c-0.1,0-0.2,0.1-0.2,0.2v1.8c0,0.1,0.1,0.2,0.2,0.2h5.3c0.2,0,0.3,0.2,0.3,0.3v5.7c0,0.2-0.2,0.3-0.3,0.3h-11
				c-0.2,0-0.3-0.2-0.3-0.4V12.4z"/>
			<path class="st0" d="M78.9,12.3c0-0.1,0-0.2,0.2-0.2h5.6c0.2,0,0.3,0.1,0.3,0.3l1.5,6.4c0,0.2,0.1,0.2,0.2,0.2
				c0.1,0,0.2-0.1,0.2-0.2l1.4-6.3c0.1-0.2,0.2-0.4,0.4-0.4H94c0.2,0,0.3,0.2,0.2,0.4l-4,13c-0.1,0.4-0.3,1.3-0.3,1.6v7.7
				c0,0.2-0.2,0.4-0.4,0.4h-6c-0.2,0-0.3-0.2-0.4-0.4V27c0-0.5-0.1-0.8-0.3-1.5L78.9,12.3z"/>
		</g>
	</g>
	<g>
		<g>
			<path class="st0" d="M56.5,49.5c0,0.1,0,0.2,0,0.3c0,0.1,0,0.2,0,0.2c0,0.1,0,0.1-0.1,0.2c0,0-0.1,0.1-0.1,0.2
				c-0.1,0.1-0.2,0.1-0.3,0.2c-0.2,0.1-0.3,0.2-0.6,0.3c-0.2,0.1-0.5,0.2-0.8,0.2c-0.3,0.1-0.6,0.1-0.9,0.1c-0.7,0-1.3-0.1-1.8-0.3
				c-0.5-0.2-1-0.5-1.4-0.9c-0.4-0.4-0.7-0.9-0.9-1.5c-0.2-0.6-0.3-1.3-0.3-2.1c0-0.8,0.1-1.6,0.3-2.2c0.2-0.6,0.5-1.2,0.9-1.6
				c0.4-0.4,0.9-0.8,1.4-1c0.6-0.2,1.2-0.3,1.8-0.3c0.3,0,0.5,0,0.8,0.1c0.2,0,0.5,0.1,0.7,0.2c0.2,0.1,0.4,0.2,0.6,0.3
				c0.2,0.1,0.3,0.2,0.4,0.2c0.1,0.1,0.1,0.1,0.1,0.2c0,0,0,0.1,0.1,0.2c0,0.1,0,0.2,0,0.2c0,0.1,0,0.2,0,0.4c0,0.1,0,0.3,0,0.4
				c0,0.1,0,0.2-0.1,0.3c0,0.1-0.1,0.1-0.1,0.1c0,0-0.1,0-0.1,0c-0.1,0-0.2,0-0.3-0.1c-0.1-0.1-0.3-0.2-0.4-0.3
				c-0.2-0.1-0.4-0.2-0.6-0.3c-0.3-0.1-0.6-0.1-0.9-0.1c-0.4,0-0.7,0.1-1,0.2c-0.3,0.2-0.6,0.4-0.8,0.7c-0.2,0.3-0.4,0.6-0.5,1.1
				c-0.1,0.4-0.2,0.9-0.2,1.4c0,0.6,0.1,1.1,0.2,1.5c0.1,0.4,0.3,0.8,0.5,1c0.2,0.3,0.5,0.5,0.8,0.6c0.3,0.1,0.7,0.2,1,0.2
				c0.3,0,0.6,0,0.9-0.1c0.3-0.1,0.5-0.2,0.7-0.3c0.2-0.1,0.3-0.2,0.4-0.3c0.1-0.1,0.2-0.1,0.3-0.1c0.1,0,0.1,0,0.1,0
				c0,0,0.1,0.1,0.1,0.1c0,0.1,0,0.1,0,0.3C56.4,49.2,56.5,49.3,56.5,49.5z"/>
			<path class="st0" d="M66.7,50.2c0.1,0.2,0.1,0.3,0.1,0.4c0,0.1,0,0.2-0.1,0.2C66.7,51,66.6,51,66.5,51c-0.1,0-0.3,0-0.6,0
				c-0.3,0-0.5,0-0.6,0c-0.1,0-0.3,0-0.3,0c-0.1,0-0.1-0.1-0.2-0.1c0,0-0.1-0.1-0.1-0.2l-0.6-1.9h-3.6l-0.6,1.9c0,0.1,0,0.1-0.1,0.2
				c0,0-0.1,0.1-0.2,0.1c-0.1,0-0.2,0-0.3,0.1s-0.3,0-0.5,0c-0.2,0-0.4,0-0.5,0c-0.1,0-0.2-0.1-0.3-0.1c0-0.1-0.1-0.1-0.1-0.2
				c0-0.1,0.1-0.2,0.1-0.4l3-8.6c0-0.1,0.1-0.2,0.1-0.2c0-0.1,0.1-0.1,0.2-0.1c0.1,0,0.2,0,0.4-0.1c0.2,0,0.4,0,0.6,0
				c0.3,0,0.5,0,0.7,0c0.2,0,0.3,0,0.4,0.1c0.1,0,0.2,0.1,0.2,0.1c0,0.1,0.1,0.1,0.1,0.2L66.7,50.2z M62.3,43.2L62.3,43.2l-1.4,4.1
				h2.7L62.3,43.2z"/>
			<path class="st0" d="M75.3,44.2c0,0.5-0.1,1-0.3,1.4c-0.2,0.4-0.4,0.8-0.7,1.1c-0.3,0.3-0.7,0.5-1.2,0.7c-0.5,0.1-1,0.2-1.7,0.2
				h-0.8v3.1c0,0,0,0.1,0,0.1c0,0-0.1,0.1-0.2,0.1c-0.1,0-0.2,0-0.3,0.1c-0.1,0-0.3,0-0.5,0c-0.2,0-0.3,0-0.5,0
				c-0.1,0-0.2,0-0.3-0.1c-0.1,0-0.1-0.1-0.2-0.1c0,0,0-0.1,0-0.1V42c0-0.2,0.1-0.4,0.2-0.5c0.1-0.1,0.3-0.2,0.5-0.2h2.3
				c0.2,0,0.4,0,0.7,0c0.2,0,0.5,0.1,0.7,0.1c0.3,0.1,0.6,0.2,0.9,0.3c0.3,0.2,0.5,0.3,0.8,0.6c0.2,0.2,0.4,0.5,0.5,0.8
				C75.3,43.5,75.3,43.9,75.3,44.2z M73.3,44.4c0-0.3-0.1-0.6-0.2-0.8c-0.1-0.2-0.3-0.4-0.4-0.5c-0.2-0.1-0.4-0.2-0.5-0.2
				c-0.2,0-0.4,0-0.6,0h-0.8v3.3h0.9c0.3,0,0.6,0,0.8-0.1c0.2-0.1,0.4-0.2,0.5-0.4c0.1-0.2,0.2-0.3,0.3-0.5
				C73.2,44.9,73.3,44.6,73.3,44.4z"/>
			<path class="st0" d="M83.3,48.1c0,0.5-0.1,1-0.3,1.3c-0.2,0.4-0.4,0.7-0.8,1c-0.3,0.3-0.7,0.4-1.1,0.6c-0.4,0.1-0.9,0.2-1.4,0.2
				c-0.3,0-0.6,0-0.9-0.1c-0.3-0.1-0.5-0.1-0.8-0.2c-0.2-0.1-0.4-0.2-0.5-0.2c-0.1-0.1-0.3-0.2-0.3-0.2c-0.1-0.1-0.1-0.2-0.1-0.3
				c0-0.1,0-0.3,0-0.5c0-0.2,0-0.3,0-0.4c0-0.1,0-0.2,0-0.3c0-0.1,0.1-0.1,0.1-0.1c0,0,0.1,0,0.1,0c0.1,0,0.2,0,0.3,0.1
				c0.1,0.1,0.3,0.2,0.5,0.3c0.2,0.1,0.4,0.2,0.7,0.3c0.3,0.1,0.6,0.1,1,0.1c0.2,0,0.5,0,0.6-0.1c0.2-0.1,0.3-0.1,0.5-0.2
				c0.1-0.1,0.2-0.2,0.3-0.4c0.1-0.2,0.1-0.3,0.1-0.5c0-0.2-0.1-0.4-0.2-0.6c-0.1-0.2-0.3-0.3-0.5-0.4c-0.2-0.1-0.4-0.2-0.7-0.3
				c-0.2-0.1-0.5-0.2-0.8-0.3c-0.3-0.1-0.5-0.3-0.8-0.4s-0.5-0.3-0.7-0.5c-0.2-0.2-0.3-0.5-0.5-0.8c-0.1-0.3-0.2-0.6-0.2-1
				c0-0.5,0.1-0.9,0.3-1.2c0.2-0.4,0.4-0.6,0.7-0.9c0.3-0.2,0.6-0.4,1-0.5c0.4-0.1,0.8-0.2,1.3-0.2c0.2,0,0.5,0,0.7,0.1
				c0.2,0,0.4,0.1,0.6,0.1c0.2,0.1,0.4,0.1,0.5,0.2c0.2,0.1,0.3,0.1,0.3,0.2c0,0,0.1,0.1,0.1,0.1c0,0,0,0.1,0,0.1c0,0.1,0,0.1,0,0.2
				c0,0.1,0,0.2,0,0.3c0,0.1,0,0.3,0,0.4c0,0.1,0,0.2,0,0.2c0,0.1,0,0.1-0.1,0.1c0,0-0.1,0-0.1,0c-0.1,0-0.1,0-0.3-0.1
				c-0.1-0.1-0.3-0.1-0.4-0.2c-0.2-0.1-0.4-0.2-0.6-0.2c-0.2-0.1-0.5-0.1-0.8-0.1c-0.2,0-0.4,0-0.6,0.1c-0.2,0.1-0.3,0.1-0.4,0.2
				c-0.1,0.1-0.2,0.2-0.2,0.3c-0.1,0.1-0.1,0.3-0.1,0.4c0,0.2,0.1,0.4,0.2,0.6c0.1,0.2,0.3,0.3,0.5,0.4c0.2,0.1,0.4,0.2,0.7,0.3
				c0.2,0.1,0.5,0.2,0.8,0.3c0.3,0.1,0.5,0.3,0.8,0.4c0.2,0.2,0.5,0.3,0.7,0.5c0.2,0.2,0.4,0.5,0.5,0.7
				C83.2,47.4,83.3,47.7,83.3,48.1z"/>
			<path class="st0" d="M93.3,47.4c0,0.6-0.1,1.1-0.3,1.6c-0.2,0.5-0.4,0.9-0.8,1.2c-0.3,0.3-0.8,0.6-1.3,0.7
				c-0.5,0.2-1.1,0.3-1.7,0.3c-0.6,0-1.2-0.1-1.6-0.2c-0.5-0.2-0.9-0.4-1.2-0.7c-0.3-0.3-0.6-0.7-0.8-1.2c-0.2-0.5-0.3-1-0.3-1.6
				v-5.9c0,0,0-0.1,0-0.1c0,0,0.1-0.1,0.2-0.1c0.1,0,0.2,0,0.3-0.1c0.1,0,0.3,0,0.5,0c0.2,0,0.3,0,0.5,0c0.1,0,0.2,0,0.3,0.1
				c0.1,0,0.1,0.1,0.2,0.1c0,0,0,0.1,0,0.1v5.7c0,0.4,0,0.7,0.1,1c0.1,0.3,0.2,0.5,0.4,0.7c0.2,0.2,0.4,0.3,0.6,0.4
				c0.2,0.1,0.5,0.1,0.8,0.1c0.3,0,0.6,0,0.8-0.1c0.2-0.1,0.5-0.2,0.6-0.4c0.2-0.2,0.3-0.4,0.4-0.7c0.1-0.3,0.1-0.6,0.1-0.9v-5.8
				c0,0,0-0.1,0-0.1c0,0,0.1-0.1,0.2-0.1c0.1,0,0.2,0,0.3-0.1c0.1,0,0.3,0,0.5,0c0.2,0,0.3,0,0.5,0c0.1,0,0.2,0,0.3,0.1
				c0.1,0,0.1,0.1,0.2,0.1c0,0,0,0.1,0,0.1V47.4z"/>
			<path class="st0" d="M101.3,50.2c0,0.1,0,0.3,0,0.4c0,0.1,0,0.2-0.1,0.3c0,0.1-0.1,0.1-0.1,0.1c0,0-0.1,0-0.1,0h-4.4
				c-0.2,0-0.3,0-0.4-0.1c-0.1-0.1-0.2-0.3-0.2-0.5v-8.8c0,0,0-0.1,0-0.1c0,0,0.1-0.1,0.2-0.1c0.1,0,0.2,0,0.3-0.1
				c0.1,0,0.3,0,0.5,0c0.2,0,0.4,0,0.5,0c0.1,0,0.2,0,0.3,0.1c0.1,0,0.1,0.1,0.2,0.1c0,0,0,0.1,0,0.1v7.8h3c0.1,0,0.1,0,0.1,0
				c0,0,0.1,0.1,0.1,0.1c0,0.1,0,0.1,0.1,0.2C101.3,49.9,101.3,50,101.3,50.2z"/>
			<path class="st0" d="M108.9,50.2c0,0.1,0,0.3,0,0.4c0,0.1,0,0.2-0.1,0.2c0,0.1-0.1,0.1-0.1,0.1c0,0-0.1,0-0.1,0h-4.9
				c-0.2,0-0.3,0-0.4-0.1c-0.1-0.1-0.2-0.3-0.2-0.5v-8.4c0-0.2,0.1-0.4,0.2-0.5c0.1-0.1,0.3-0.1,0.4-0.1h4.8c0,0,0.1,0,0.1,0
				c0,0,0.1,0.1,0.1,0.1c0,0.1,0,0.1,0.1,0.2c0,0.1,0,0.2,0,0.4c0,0.1,0,0.3,0,0.4c0,0.1,0,0.2-0.1,0.2c0,0.1-0.1,0.1-0.1,0.1
				c0,0-0.1,0-0.1,0h-3.4v2.4h2.9c0,0,0.1,0,0.1,0c0,0,0.1,0.1,0.1,0.1c0,0.1,0,0.1,0.1,0.2c0,0.1,0,0.2,0,0.4c0,0.1,0,0.3,0,0.4
				c0,0.1,0,0.2-0.1,0.2c0,0.1-0.1,0.1-0.1,0.1c0,0-0.1,0-0.1,0h-2.9v2.7h3.5c0,0,0.1,0,0.1,0c0,0,0.1,0.1,0.1,0.1
				c0,0.1,0,0.1,0.1,0.2C108.9,49.9,108.9,50.1,108.9,50.2z"/>
			<path class="st0" d="M123.2,50.7c0,0,0,0.1,0,0.1c0,0-0.1,0.1-0.2,0.1c-0.1,0-0.2,0-0.3,0.1c-0.1,0-0.3,0-0.5,0
				c-0.2,0-0.4,0-0.5,0c-0.1,0-0.2,0-0.3-0.1c-0.1,0-0.1-0.1-0.2-0.1c0,0,0-0.1,0-0.1v-3.9h-3.6v3.9c0,0,0,0.1,0,0.1
				c0,0-0.1,0.1-0.2,0.1c-0.1,0-0.2,0-0.3,0.1c-0.1,0-0.3,0-0.5,0c-0.2,0-0.3,0-0.5,0c-0.1,0-0.2,0-0.3-0.1c-0.1,0-0.1-0.1-0.2-0.1
				c0,0,0-0.1,0-0.1v-9.1c0,0,0-0.1,0-0.1c0,0,0.1-0.1,0.2-0.1s0.2,0,0.3-0.1c0.1,0,0.3,0,0.5,0c0.2,0,0.4,0,0.5,0
				c0.1,0,0.2,0,0.3,0.1c0.1,0,0.1,0.1,0.2,0.1c0,0,0,0.1,0,0.1v3.5h3.6v-3.5c0,0,0-0.1,0-0.1c0,0,0.1-0.1,0.2-0.1
				c0.1,0,0.2,0,0.3-0.1c0.1,0,0.3,0,0.5,0c0.2,0,0.3,0,0.5,0c0.1,0,0.2,0,0.3,0.1c0.1,0,0.1,0.1,0.2,0.1c0,0,0,0.1,0,0.1V50.7z"/>
			<path class="st0" d="M134.6,46c0,0.8-0.1,1.5-0.3,2.2c-0.2,0.6-0.5,1.2-0.9,1.6c-0.4,0.4-0.9,0.8-1.5,1c-0.6,0.2-1.3,0.3-2,0.3
				c-0.8,0-1.4-0.1-2-0.3c-0.6-0.2-1-0.5-1.4-0.9c-0.4-0.4-0.7-0.9-0.8-1.5c-0.2-0.6-0.3-1.4-0.3-2.2c0-0.8,0.1-1.5,0.3-2.1
				c0.2-0.6,0.5-1.2,0.9-1.6c0.4-0.4,0.9-0.8,1.5-1c0.6-0.2,1.3-0.4,2-0.4c0.7,0,1.4,0.1,1.9,0.3c0.6,0.2,1,0.5,1.4,0.9
				c0.4,0.4,0.7,0.9,0.9,1.5C134.5,44.5,134.6,45.2,134.6,46z M132.6,46.1c0-0.5,0-1-0.1-1.4c-0.1-0.4-0.2-0.8-0.4-1.1
				c-0.2-0.3-0.4-0.5-0.8-0.7c-0.3-0.2-0.7-0.2-1.2-0.2c-0.5,0-0.9,0.1-1.2,0.3c-0.3,0.2-0.6,0.4-0.8,0.7c-0.2,0.3-0.3,0.7-0.4,1.1
				c-0.1,0.4-0.1,0.8-0.1,1.3c0,0.5,0,1,0.1,1.4c0.1,0.4,0.2,0.8,0.4,1.1c0.2,0.3,0.4,0.5,0.8,0.7c0.3,0.2,0.7,0.2,1.2,0.2
				c0.5,0,0.9-0.1,1.2-0.3c0.3-0.2,0.6-0.4,0.8-0.7c0.2-0.3,0.3-0.7,0.4-1.1C132.5,47,132.6,46.6,132.6,46.1z"/>
			<path class="st0" d="M143.3,42.1c0,0.1,0,0.3,0,0.4c0,0.1,0,0.2-0.1,0.2c0,0.1-0.1,0.1-0.1,0.1c0,0-0.1,0-0.1,0h-2.4v7.8
				c0,0,0,0.1,0,0.1c0,0-0.1,0.1-0.2,0.1c-0.1,0-0.2,0-0.3,0.1c-0.1,0-0.3,0-0.5,0c-0.2,0-0.3,0-0.5,0c-0.1,0-0.2,0-0.3-0.1
				c-0.1,0-0.1-0.1-0.2-0.1c0,0,0-0.1,0-0.1v-7.8h-2.4c-0.1,0-0.1,0-0.1,0c0,0-0.1-0.1-0.1-0.1c0-0.1,0-0.1-0.1-0.2
				c0-0.1,0-0.2,0-0.4c0-0.1,0-0.3,0-0.4c0-0.1,0-0.2,0.1-0.2c0-0.1,0.1-0.1,0.1-0.1c0,0,0.1,0,0.1,0h6.8c0,0,0.1,0,0.1,0
				c0,0,0.1,0.1,0.1,0.1c0,0.1,0,0.1,0.1,0.2C143.3,41.8,143.3,42,143.3,42.1z"/>
			<path class="st0" d="M150.8,50.2c0,0.1,0,0.3,0,0.4c0,0.1,0,0.2-0.1,0.2c0,0.1-0.1,0.1-0.1,0.1c0,0-0.1,0-0.1,0h-4.9
				c-0.2,0-0.3,0-0.4-0.1c-0.1-0.1-0.2-0.3-0.2-0.5v-8.4c0-0.2,0.1-0.4,0.2-0.5c0.1-0.1,0.3-0.1,0.4-0.1h4.8c0,0,0.1,0,0.1,0
				c0,0,0.1,0.1,0.1,0.1c0,0.1,0,0.1,0.1,0.2c0,0.1,0,0.2,0,0.4c0,0.1,0,0.3,0,0.4c0,0.1,0,0.2-0.1,0.2c0,0.1-0.1,0.1-0.1,0.1
				c0,0-0.1,0-0.1,0h-3.4v2.4h2.9c0,0,0.1,0,0.1,0c0,0,0.1,0.1,0.1,0.1c0,0.1,0,0.1,0.1,0.2c0,0.1,0,0.2,0,0.4c0,0.1,0,0.3,0,0.4
				c0,0.1,0,0.2-0.1,0.2c0,0.1-0.1,0.1-0.1,0.1c0,0-0.1,0-0.1,0h-2.9v2.7h3.5c0,0,0.1,0,0.1,0c0,0,0.1,0.1,0.1,0.1
				c0,0.1,0,0.1,0.1,0.2C150.8,49.9,150.8,50.1,150.8,50.2z"/>
			<path class="st0" d="M158.5,50.2c0,0.1,0,0.3,0,0.4c0,0.1,0,0.2-0.1,0.3c0,0.1-0.1,0.1-0.1,0.1c0,0-0.1,0-0.1,0h-4.4
				c-0.2,0-0.3,0-0.4-0.1c-0.1-0.1-0.2-0.3-0.2-0.5v-8.8c0,0,0-0.1,0-0.1c0,0,0.1-0.1,0.2-0.1c0.1,0,0.2,0,0.3-0.1
				c0.1,0,0.3,0,0.5,0c0.2,0,0.4,0,0.5,0c0.1,0,0.2,0,0.3,0.1c0.1,0,0.1,0.1,0.2,0.1c0,0,0,0.1,0,0.1v7.8h3c0.1,0,0.1,0,0.1,0
				c0,0,0.1,0.1,0.1,0.1c0,0.1,0,0.1,0.1,0.2C158.5,49.9,158.5,50,158.5,50.2z"/>
		</g>
	</g>
</g>
</svg>
