<svg id="Layer_1" data-name="Layer 1" xmlns="http://www.w3.org/2000/svg" viewBox="0 0 195 178"><defs><style>.cls-1{fill:#e4a720;}.cls-1,.cls-2{fill-rule:evenodd;}.cls-2{fill:#fff;}</style></defs><title>Liven Icons2</title><path class="cls-1" d="M70.33,75.1c2.43,2.34,3.49,2.66,7.6,2.48-0.07.51-.13,1-0.19,1.46-0.57,3.82.55,7.93,2.1,11.61A37.66,37.66,0,0,1,82.19,113a82,82,0,0,0-1.58,13.34c-0.24,9.44-.06,18.89-0.09,28.33a6.13,6.13,0,0,1-5.2,6.29,6,6,0,0,1-6.61-4.12,8.89,8.89,0,0,1-.34-2.77q0-22.55,0-45.12v-2.11c-2.06-.44-2.08-0.44-2.08,1.66q0,22.66,0,45.33a10,10,0,0,1-.32,3A6,6,0,0,1,59.55,161a6.2,6.2,0,0,1-5.44-6.33c0-7.33-.05-23.94,0-28.57s-0.76-8.32-1.72-13.72c-1.58-8.91-.64-12.4,2.23-21.25,1-3,2.38-8.75,1.3-13.52a30.4,30.4,0,0,0,4.57-.22,7,7,0,0,0,3.28-2,11.38,11.38,0,0,0-1.2.41,6.77,6.77,0,0,1-7.72-1,7.13,7.13,0,0,1-2.22-8.24c0.79-2.19-.4-3.74-0.74-5.59-0.39-2.1-1.61-3-3.59-3.76-12-4.5-21.39-12.35-29.14-22.37-0.14-.17-0.28-0.34-0.4-0.52-1.79-2.68-1.71-4.73.26-6.12s3.93-.68,5.83,1.87c6.64,8.92,14.9,16,25.29,20,14.94,5.83,29.3,4,42.86-4.38a61.69,61.69,0,0,0,17.06-16c1.6-2.17,3.8-2.76,5.56-1.49s2.08,3.46.39,5.75c-7.9,10.7-17.77,18.88-30.38,23.46A3.76,3.76,0,0,0,83,60.17c-0.69,2.45-1.77,4.65-.78,7.48,0.93,2.63-.08,5.31-2.44,7.18C77.19,76.86,74.61,77,70.33,75.1Z"/><path class="cls-1" d="M67.42,50.37A12.82,12.82,0,0,1,54.49,37.59a12.82,12.82,0,1,1,25.64,0A12.76,12.76,0,0,1,67.42,50.37Z"/><path class="cls-1" d="M167.73,75.28C164,85.64,159.91,87.5,148.8,83.79c3.33,4.64,8.62,5.05,15.72,1.24,4.26,5.5,5.12,17.61,1,23.4-1.06,1.5-1.16,3.8-1.37,5.77-1.32,11.6-2.54,23.22-3.8,34.83-0.24,2.16-.51,4.31-0.8,6.46-0.47,3.4-3.74,5.77-7.57,5.48-4-.29-6.79-2.84-6.8-6.39,0-11.62,0-23.24,0-34.86V117.1l-2.46-.12c0,0.89-.11,1.62-0.11,2.34,0,11.55-.13,23.09,0,34.64,0.07,4.18-2.8,6.71-6.83,7s-7.23-2.18-7.67-6.18c-1.44-13.1-2.78-26.2-4.28-39.29a24.65,24.65,0,0,0-2.26-8.76C117.88,99.4,119.41,92.1,123,85c7.34,3.91,12.12,3.42,16.14-1.71-3.76,2.43-7.71,3.35-12,1.6s-6.44-5.09-7.25-9.88a8.66,8.66,0,0,0,1.24,7.29c1,1.33.75,2.27,0.09,3.61-3.14,6.45-3.95,13.1-1.5,20a3.16,3.16,0,0,1-.3,2.26,4.83,4.83,0,0,1-5.2,2.26c-2.39-.58-4-2.18-3.92-4.55,0.28-14.2,1.17-28.33,7.37-41.43A35.71,35.71,0,0,1,123.88,56c2.46-2.69,5.82-3.72,9.56-3.65,6.67,0.12,13.36.28,20,0,6.47-.29,10.81,2.82,14.22,7.79a43.81,43.81,0,0,1,7.13,19c1.22,8.8,1.91,17.69,2.68,26.55,0.21,2.3-1.28,4-3.46,4.67a4.62,4.62,0,0,1-5.5-1.89,3.63,3.63,0,0,1-.35-2.63,25.06,25.06,0,0,0-1.73-20,3.72,3.72,0,0,1,.06-3.84,43.49,43.49,0,0,0,1.94-6.5Z"/><path class="cls-1" d="M143.89,23.23A13,13,0,0,1,157,36.3,13.14,13.14,0,1,1,143.89,23.23Z"/><path class="cls-2" d="M70.33,68.81c2.43,2.34,3.49,2.66,7.6,2.48-0.07.51-.13,1-0.19,1.46-0.57,3.82.55,7.93,2.1,11.61a37.66,37.66,0,0,1,2.35,22.37,82,82,0,0,0-1.58,13.34c-0.24,9.44-.06,18.89-0.09,28.33a6.13,6.13,0,0,1-5.2,6.29,6,6,0,0,1-6.61-4.12,8.89,8.89,0,0,1-.34-2.77q0-22.55,0-45.12v-2.11c-2.06-.44-2.08-0.44-2.08,1.66q0,22.66,0,45.33a10,10,0,0,1-.32,3,6,6,0,0,1-6.39,4.16,6.2,6.2,0,0,1-5.44-6.33c0-7.33-.05-23.94,0-28.57s-0.76-8.32-1.72-13.72c-1.58-8.91-.64-12.4,2.23-21.25,1-3,2.38-8.75,1.3-13.52a30.41,30.41,0,0,0,4.57-.22,7,7,0,0,0,3.28-2,11.38,11.38,0,0,0-1.2.41,6.77,6.77,0,0,1-7.72-1,7.13,7.13,0,0,1-2.22-8.24c0.79-2.19-.4-3.74-0.74-5.59-0.39-2.1-1.61-3-3.59-3.76-12-4.5-21.39-12.35-29.14-22.37C19,28.36,18.91,28.2,18.78,28,17,25.34,17.07,23.29,19,21.9s3.93-.68,5.83,1.87c6.64,8.92,14.9,16,25.29,20,14.94,5.83,29.3,4,42.86-4.38a61.7,61.7,0,0,0,17.06-16c1.6-2.17,3.8-2.76,5.56-1.49s2.08,3.46.39,5.75c-7.9,10.7-17.77,18.88-30.38,23.46A3.76,3.76,0,0,0,83,53.87c-0.69,2.45-1.77,4.65-.78,7.48,0.93,2.63-.08,5.31-2.44,7.18C77.19,70.57,74.61,70.71,70.33,68.81Z"/><path class="cls-2" d="M67.42,44.07A12.82,12.82,0,0,1,54.49,31.3a12.82,12.82,0,1,1,25.64,0A12.76,12.76,0,0,1,67.42,44.07Z"/><path class="cls-2" d="M167.73,69C164,79.35,159.91,81.21,148.8,77.5c3.33,4.64,8.62,5.05,15.72,1.24,4.26,5.5,5.12,17.61,1,23.4-1.06,1.5-1.16,3.8-1.37,5.77-1.32,11.6-2.54,23.22-3.8,34.83-0.24,2.16-.51,4.31-0.8,6.46-0.47,3.4-3.74,5.77-7.57,5.48-4-.29-6.79-2.84-6.8-6.39,0-11.62,0-23.24,0-34.86v-2.63l-2.46-.12c0,0.89-.11,1.62-0.11,2.34,0,11.55-.13,23.09,0,34.64,0.07,4.18-2.8,6.71-6.83,7s-7.23-2.18-7.67-6.18c-1.44-13.1-2.78-26.2-4.28-39.29a24.65,24.65,0,0,0-2.26-8.76c-3.73-7.33-2.2-14.63,1.43-21.69,7.34,3.91,12.12,3.42,16.14-1.71-3.76,2.43-7.71,3.35-12,1.6s-6.44-5.09-7.25-9.88a8.66,8.66,0,0,0,1.24,7.29c1,1.33.75,2.27,0.09,3.61-3.14,6.45-3.95,13.1-1.5,20a3.17,3.17,0,0,1-.3,2.26,4.83,4.83,0,0,1-5.2,2.26c-2.39-.58-4-2.18-3.92-4.55,0.28-14.2,1.17-28.33,7.37-41.43a35.72,35.72,0,0,1,6.13-8.48c2.46-2.69,5.82-3.72,9.56-3.65,6.67,0.12,13.36.28,20,0,6.47-.29,10.81,2.82,14.22,7.79a43.81,43.81,0,0,1,7.13,19c1.22,8.8,1.91,17.69,2.68,26.55,0.21,2.3-1.28,4-3.46,4.67a4.62,4.62,0,0,1-5.5-1.89,3.63,3.63,0,0,1-.35-2.63,25.06,25.06,0,0,0-1.73-20,3.72,3.72,0,0,1,.06-3.84,43.51,43.51,0,0,0,1.94-6.5Z"/><path class="cls-2" d="M143.89,16.94A13,13,0,0,1,157,30,13.14,13.14,0,1,1,143.89,16.94Z"/></svg>