<svg id="Layer_1" data-name="Layer 1" xmlns="http://www.w3.org/2000/svg" viewBox="0 0 194 180"><defs><style>.cls-1{fill:#e4a720;}.cls-1,.cls-2{fill-rule:evenodd;}.cls-2{fill:#fff;}</style></defs><title>Liven Icons2</title><path class="cls-1" d="M29.6,85.24c3.13-1.61,5.32-1.37,7.39,2.11C40.26,92.86,43.12,93,48.22,89c1-.77,1.83-1.69,2.81-2.46C55.95,82.67,58.27,83,61.89,88c0.94,1.3,1.77,2.68,2.79,3.9,3.31,3.93,5.58,3.87,9.07,0,1.31-1.45,2.35-4.44,4.79-2.95,1.93,1.18,2.31,3.87,1.54,6.3s-1.55,5.09-2.47,7.58c-4.39,11.79-1.39,22,8.52,29.57,4.27,3.26,4.27,7.75,3.06,12.56-1.16,4.66-4.31,5.29-8.46,5.24-17.42-.2-34.88.56-52.19-2.16-2.41-1-2.75-3.08-2.81-5.24-0.46-18,.53-35.86,1.44-53.78A4.59,4.59,0,0,1,29.6,85.24Z"/><path class="cls-1" d="M27.34,153.47a97,97,0,0,0,19,2.2c25.58,0.37,51.19.63,76.71-1.34,13.47-1,26.85-2.49,40.4-1.13,4.15,0.42,5.14,1.63,4.07,5.56-1.4,5.2-4,8.36-9.78,8.82a764.27,764.27,0,0,1-119.8.12c-2.12-.16-4.26-0.16-6.38-0.25C27.4,164.92,25.73,159.45,27.34,153.47Z"/><path class="cls-1" d="M91.51,69.15C89,76,86.71,82.85,82.31,88.81c-4.68-4.72-5.48-4.78-10.25.73-2.32,2.67-3.68,2.34-5.76-.23-7.85-9.69-9.86-9.83-20.3-2.26-2,1.46-4.35,3.41-6-.29C37.45,81.14,33.2,81.35,28.39,83c-1.67-4-.16-8,0.4-11.94,0.32-2.27,2.48-3.31,4.69-3.75a20.63,20.63,0,0,1,7.39.12c8.85,1.43,17.6.71,26.36-1A40.15,40.15,0,0,1,91.51,69.15Z"/><path class="cls-1" d="M166,74.49c0.38,3.53.81,7.06,1.11,10.6,0.26,2.94-.82,4.26-3.58,2.23-3.91-2.86-6.72-2.26-9,2.1-1.75,3.39-3.19,1.87-4.13-.64s-1.16-5.6-3.25-7.79c-2.58-2.7-5-3.34-7.33.28-0.57.89-1,1.84-1.59,2.75-1.9,3.18-2.4,9.38-8,2.38-2.65-3.3-4.74.14-6,3-0.6,1.35-.53,3.85-2.53,3.56-2.36-.35-2.39-2.72-2.34-4.75,0.12-5.69-1.67-12.5.86-16.74C122.89,67,130.6,68.66,136,67.07s10.87-1.74,16.37-2.19C158.47,65.81,163.16,68.82,166,74.49Z"/><path class="cls-1" d="M100.87,16.87c4.84,8.24,5.95,17.47,6.47,26.68,1.07,18.63,1.28,37.29-1,55.87a51.35,51.35,0,0,1-6.27,19.64c-1.91,3.34-4.69,3.45-7.73,3.29-3.29-.17-5.22-2.24-5.9-5.26a22.53,22.53,0,0,1,1.79-14.5C91.8,94.67,96.56,87.32,99.08,79c5.51-20.26,9.52-40.54.72-61C99.38,16.87,99.92,16.66,100.87,16.87Z"/><path class="cls-1" d="M128.34,88.68c5.35,6.2,8,5.73,11.29-1.74,0.86-2,.75-5.17,4-4.87,3,0.28,2.63,3.35,3.38,5.42A32.19,32.19,0,0,0,148.21,91c2.16,4.35,5.65,4.55,8.57.59,0.92-1.26,1.28-4.21,3.61-2.59s6.53,1.39,6.68,5.18c0.55,14.22.79,28.44,1.22,42.66,0.09,2.86-2.23,2.67-3.84,3.52-15.66,8.25-32.93,7.11-49.75,8.56-2.48.21-5,.2-7.46,0.19-3.31,0-7.08,1.71-8.41-3.73-1.85-7.65-1.15-11.66,3.61-14.43,6.55-3.82,11.25-9.23,13.4-16.56,1.29-4.43,2.23-9,3.17-13.49,0.51-2.44-.89-5.43,4.16-4.94C126.34,96.27,125.89,91.06,128.34,88.68Z"/><path class="cls-1" d="M158.75,147.05c2.62-2.62,4.94-2.89,7-3.69,1.36-.53,2.46-0.41,2.61,1.39,0.14,1.6-.19,2.87-2.17,2.78S162,147.26,158.75,147.05Z"/><path class="cls-2" d="M29.6,78.45c3.13-1.61,5.32-1.37,7.39,2.11,3.27,5.5,6.12,5.68,11.23,1.62,1-.77,1.83-1.69,2.81-2.46,4.92-3.85,7.24-3.53,10.86,1.49,0.94,1.3,1.77,2.68,2.79,3.9,3.32,3.93,5.58,3.87,9.07,0,1.31-1.45,2.35-4.44,4.79-2.95,1.93,1.18,2.31,3.87,1.54,6.3s-1.55,5.09-2.47,7.58c-4.39,11.79-1.39,22,8.52,29.57,4.27,3.26,4.27,7.75,3.06,12.56-1.16,4.66-4.31,5.29-8.46,5.24-17.42-.2-34.88.56-52.19-2.16-2.41-1-2.75-3.08-2.8-5.24-0.46-18,.53-35.86,1.43-53.78A4.59,4.59,0,0,1,29.6,78.45Z"/><path class="cls-2" d="M27.34,146.68a97,97,0,0,0,19,2.2c25.58,0.37,51.19.63,76.71-1.34,13.47-1,26.85-2.49,40.4-1.13,4.15,0.42,5.14,1.63,4.07,5.56-1.4,5.2-4,8.36-9.78,8.82a764.26,764.26,0,0,1-119.8.12c-2.12-.16-4.26-0.16-6.38-0.25C27.4,158.12,25.73,152.65,27.34,146.68Z"/><path class="cls-2" d="M91.51,62.35C89,69.16,86.71,76.05,82.31,82c-4.68-4.72-5.48-4.78-10.25.73-2.32,2.67-3.68,2.34-5.76-.23-7.85-9.69-9.86-9.83-20.3-2.26-2,1.46-4.35,3.41-6-.29-2.54-5.62-6.79-5.41-11.59-3.77-1.67-4-.16-8,0.4-11.94,0.32-2.27,2.48-3.31,4.69-3.75a20.64,20.64,0,0,1,7.39.12c8.85,1.43,17.6.71,26.36-1A40.15,40.15,0,0,1,91.51,62.35Z"/><path class="cls-2" d="M166,67.69c0.38,3.53.81,7.06,1.11,10.6,0.26,2.94-.82,4.26-3.58,2.23-3.91-2.86-6.72-2.26-9,2.1-1.75,3.39-3.19,1.87-4.13-.64s-1.16-5.6-3.25-7.79c-2.58-2.7-5-3.34-7.33.28-0.57.89-1,1.84-1.59,2.75-1.9,3.18-2.4,9.38-8,2.38-2.65-3.3-4.74.14-6,3-0.6,1.35-.53,3.85-2.53,3.56-2.36-.35-2.39-2.72-2.34-4.75,0.12-5.69-1.67-12.5.86-16.74,2.64-4.44,10.35-2.75,15.71-4.34s10.87-1.74,16.37-2.19C158.47,59,163.16,62,166,67.69Z"/><path class="cls-2" d="M100.87,10.07c4.84,8.24,5.95,17.47,6.47,26.68,1.07,18.63,1.28,37.29-1,55.87a51.35,51.35,0,0,1-6.27,19.64c-1.91,3.34-4.69,3.45-7.73,3.29-3.29-.17-5.22-2.24-5.9-5.26a22.53,22.53,0,0,1,1.79-14.5c3.53-7.92,8.29-15.26,10.81-23.63,5.51-20.26,9.52-40.54.72-61C99.38,10.07,99.92,9.87,100.87,10.07Z"/><path class="cls-2" d="M128.34,81.88c5.35,6.2,8,5.73,11.29-1.74,0.86-2,.75-5.17,4-4.87,3,0.28,2.63,3.35,3.38,5.42a32.25,32.25,0,0,0,1.24,3.51c2.16,4.35,5.65,4.55,8.57.59,0.92-1.26,1.28-4.21,3.61-2.59s6.53,1.39,6.68,5.18c0.55,14.22.79,28.44,1.22,42.66,0.09,2.86-2.23,2.67-3.84,3.52-15.66,8.25-32.93,7.11-49.75,8.56-2.48.21-5,.2-7.46,0.19-3.31,0-7.08,1.71-8.41-3.73-1.85-7.65-1.15-11.66,3.61-14.43,6.55-3.82,11.25-9.23,13.4-16.56,1.29-4.43,2.23-9,3.17-13.49,0.51-2.44-.89-5.43,4.16-4.94C126.34,89.47,125.89,84.26,128.34,81.88Z"/><path class="cls-2" d="M158.75,140.25c2.62-2.62,4.94-2.89,7-3.69,1.36-.53,2.46-0.41,2.61,1.39,0.14,1.6-.19,2.87-2.17,2.78S162,140.46,158.75,140.25Z"/></svg>