<svg id="Layer_1" data-name="Layer 1" xmlns="http://www.w3.org/2000/svg" viewBox="0 0 195 178"><defs><style>.cls-1{fill:#e4a720;}.cls-1,.cls-2{fill-rule:evenodd;}.cls-2{fill:#fff;}</style></defs><title>Liven Icons2</title><path class="cls-1" d="M134.63,93c4.16,2.64,8.35,5.24,10.45,10.18a63.41,63.41,0,0,0,3.9,6.73,4.52,4.52,0,0,0,1.39-5.24c-1.2-4.23-4.07-7.4-7-10.54-0.92-1-2-1.89-3-2.83l0.28-.64c2.13,0.27,4.28.4,6.37,0.84,3.37,0.72,6.69,1.66,10,2.5a4.25,4.25,0,0,0,1.47.38,18.15,18.15,0,0,0,2.55-.83c-0.37-.74-0.54-1.81-1.13-2.15a34.19,34.19,0,0,0-6.48-3.09c-4.12-1.29-8.34-2.24-12.79-3.4,3.45-3.24,6.84-6.4,10.2-9.58a11.87,11.87,0,0,0,2-2.24,1.89,1.89,0,0,0-.05-1.76,2,2,0,0,0-1.74-.46,23.35,23.35,0,0,0-3.58,1.66c-4.73,2.49-9.44,5-14.06,7.46-2.15-2.7-4.53-5.15-6.26-8a26.15,26.15,0,0,1-3.74-8.77c-1.1-6.43,3.63-13.35,10.42-16.36,5.16-2.29,10.39-2.09,15.69-.61C165,50.51,175.24,62.88,177,79.56c1.25,11.56.1,23-4.83,33.54-4.54,9.77-11.26,17.87-21.36,22.48-11.57,5.28-27.1-1.36-30.72-13.12-2-6.49,0-12.34,3.68-17.66a64.87,64.87,0,0,1,6-6.7C131.29,96.44,132.86,94.82,134.63,93Zm15.55-39.71c-8.52-5.68-17.64-2.12-20.31,7.72C135.12,54.54,142.16,53.24,150.18,53.25Z"/><path class="cls-1" d="M54.33,84.88C50,86,45.94,87,41.9,88.17a25.52,25.52,0,0,0-5.84,2.46c-1,.58-1.43,1.94-2.13,2.94,1.21,0.18,2.48.7,3.61,0.47,3.51-.71,6.95-1.79,10.44-2.57a21.43,21.43,0,0,1,6.44-.38,74.31,74.31,0,0,0-5.07,5.6c-1.65,2.21-3,4.67-4.42,7a2.07,2.07,0,0,0-.36,1.25c0.21,1.43.55,2.84,0.83,4.26a26.4,26.4,0,0,0,2.67-2.65,11.58,11.58,0,0,0,1.72-3.06c2-5.27,6.44-7.95,10.63-10.62,3.23,3.41,6.5,6.56,9.4,10,3.64,4.3,5.89,9.32,5.78,15.08-0.17,8-5.07,12.83-11.47,16.51-8.32,4.79-16.57,4-24.25-1.26a47.87,47.87,0,0,1-20.74-31.45c-2-10.48-2.67-21,.84-31.29,5-14.73,15.54-23.06,30.83-25.29C59.2,44,68.37,49.52,71.24,57.43c1.22,3.36.57,6.86-.85,10.08a28.57,28.57,0,0,1-3.15,5.27c-1.76,2.41-3.73,4.69-5.73,7.19-4.31-2.28-8.75-4.65-13.2-7a27.17,27.17,0,0,0-3.95-1.91,6,6,0,0,0-2.4.25,8.85,8.85,0,0,0,.43,2.39,6.39,6.39,0,0,0,1.56,1.51ZM51.08,50.95c-6.75.77-12.77,3.12-17.63,8C29,63.39,25.24,73.2,26.71,76.64,32.28,65.64,39.36,56.11,51.08,50.95Z"/><path class="cls-1" d="M95.43,138.71H86.09v-2.47c0-11,0-22,0-33a3.15,3.15,0,0,0-1.54-3.06c-5.72-3.73-11.37-7.55-18.36-8.57A2.55,2.55,0,0,1,64.72,90a8.88,8.88,0,0,1,.88-7.61,2,2,0,0,1,1.7-.77c6.53,1.75,12.95,3.77,18.79,8.5V55.7h9.34v83Z"/><path class="cls-1" d="M108.82,138.76H99.65V55.7h9.26V90.08c5.49-4.23,11.49-6.38,17.68-8.19,1.92-.57,3-0.19,3.4,1.7a18,18,0,0,1,.76,4.49c-0.06,2.05-.81,3.41-3.4,3.88-6.62,1.21-12.19,4.86-17.53,8.78a3.45,3.45,0,0,0-.87,2.47c-0.06,11.14,0,22.29,0,33.43C108.91,137.29,108.86,137.93,108.82,138.76Z"/><path class="cls-2" d="M134.63,87.16c4.16,2.64,8.35,5.24,10.45,10.18a63.48,63.48,0,0,0,3.9,6.73,4.52,4.52,0,0,0,1.39-5.24c-1.2-4.23-4.07-7.4-7-10.54-0.92-1-2-1.89-3-2.83l0.28-.64c2.13,0.27,4.28.4,6.37,0.84,3.37,0.72,6.69,1.66,10,2.5a4.25,4.25,0,0,0,1.47.38,18.15,18.15,0,0,0,2.55-.83c-0.37-.74-0.54-1.81-1.13-2.15a34.19,34.19,0,0,0-6.48-3.09c-4.12-1.29-8.34-2.24-12.79-3.4,3.45-3.24,6.84-6.4,10.2-9.58a11.88,11.88,0,0,0,2-2.24,1.89,1.89,0,0,0-.05-1.76,2,2,0,0,0-1.74-.46,23.37,23.37,0,0,0-3.58,1.66c-4.73,2.49-9.44,5-14.06,7.46-2.15-2.7-4.53-5.15-6.26-8a26.15,26.15,0,0,1-3.74-8.77C122.43,51,127.16,44,134,41c5.16-2.29,10.39-2.09,15.69-.61C165,44.71,175.24,57.08,177,73.76c1.25,11.56.1,23-4.83,33.54-4.54,9.77-11.26,17.87-21.36,22.48-11.57,5.28-27.1-1.36-30.72-13.12-2-6.49,0-12.34,3.68-17.66a64.84,64.84,0,0,1,6-6.7C131.29,90.64,132.86,89,134.63,87.16Zm15.55-39.71c-8.52-5.68-17.64-2.12-20.31,7.72C135.12,48.73,142.16,47.43,150.18,47.45Z"/><path class="cls-2" d="M54.33,79.07C50,80.2,45.94,81.17,41.9,82.37a25.51,25.51,0,0,0-5.84,2.46c-1,.58-1.43,1.94-2.13,2.94,1.21,0.18,2.48.7,3.61,0.47,3.51-.71,6.95-1.79,10.44-2.57a21.44,21.44,0,0,1,6.44-.38,74.31,74.31,0,0,0-5.07,5.6c-1.65,2.21-3,4.67-4.42,7a2.07,2.07,0,0,0-.36,1.25c0.21,1.43.55,2.84,0.83,4.26a26.46,26.46,0,0,0,2.67-2.65,11.58,11.58,0,0,0,1.72-3.06c2-5.27,6.44-7.95,10.63-10.62,3.23,3.41,6.5,6.56,9.4,10,3.64,4.3,5.89,9.32,5.78,15.08-0.17,8-5.07,12.83-11.47,16.51-8.32,4.79-16.57,4-24.25-1.26A47.87,47.87,0,0,1,19.16,96c-2-10.48-2.67-21,.84-31.29C25,50,35.54,41.64,50.83,39.41c8.37-1.22,17.54,4.31,20.41,12.21,1.22,3.36.57,6.86-.85,10.08A28.55,28.55,0,0,1,67.24,67c-1.76,2.41-3.73,4.69-5.73,7.19-4.31-2.28-8.75-4.65-13.2-7a27.17,27.17,0,0,0-3.95-1.91,6,6,0,0,0-2.4.25,8.84,8.84,0,0,0,.43,2.39,6.38,6.38,0,0,0,1.56,1.51ZM51.08,45.15c-6.75.77-12.77,3.12-17.63,8C29,57.58,25.24,67.4,26.71,70.84,32.28,59.84,39.36,50.31,51.08,45.15Z"/><path class="cls-2" d="M95.43,132.91H86.09v-2.47c0-11,0-22,0-33a3.15,3.15,0,0,0-1.54-3.06c-5.72-3.73-11.37-7.55-18.36-8.57a2.55,2.55,0,0,1-1.49-1.56,8.88,8.88,0,0,1,.88-7.61,2,2,0,0,1,1.7-.77c6.53,1.75,12.95,3.77,18.79,8.5V49.9h9.34v83Z"/><path class="cls-2" d="M108.82,133H99.65V49.89h9.26V84.28c5.49-4.23,11.49-6.38,17.68-8.19,1.92-.57,3-0.19,3.4,1.7a18,18,0,0,1,.76,4.49c-0.06,2.05-.81,3.41-3.39,3.88-6.62,1.21-12.19,4.86-17.53,8.78A3.46,3.46,0,0,0,109,97.4c-0.06,11.14,0,22.29,0,33.43C108.91,131.49,108.86,132.13,108.82,133Z"/></svg>