<svg id="Layer_1" data-name="Layer 1" xmlns="http://www.w3.org/2000/svg" viewBox="0 0 194 179"><defs><style>.cls-1{fill:#e4a720;}.cls-1,.cls-2{fill-rule:evenodd;}.cls-2{fill:#fff;}</style></defs><title>Liven Icons2</title><path class="cls-1" d="M107,91.37c2.76,0.61,5.44,1.09,8,1.87a3,3,0,0,1,1.58,2.06,20.9,20.9,0,0,1,.31,4.9,17.5,17.5,0,0,0,3.86,12.07,55.36,55.36,0,0,1,9.45,16.81,26.32,26.32,0,0,0,4.65,7.34c0.61,0.76,2.28.66,3.46,1,0.15-1.12.65-2.35,0.37-3.35-0.77-2.73-1.87-5.35-2.93-8.28a12.54,12.54,0,0,1,1.84.34q4.67,1.55,9.32,3.15c2.51,0.87,4.52.31,5.23-1.63,1-2.78-1.35-3.24-3-3.84-4.54-1.65-9.2-3-13.7-4.69a11.52,11.52,0,0,1-4.53-3.12A78,78,0,0,1,123,104.83a27.1,27.1,0,0,1,3.9.63c8.22,2.6,16.42,5.26,24.64,7.91,0.57,0.18,1.14.41,1.7,0.62,1.69,0.65,3.12.35,3.92-1.34a2.73,2.73,0,0,0-1.61-4,114.61,114.61,0,0,0-10.9-4c-7.2-2.1-14.47-3.94-22-6-0.1-1.58-.21-3.34-0.36-5.83,5.24,0.8,10.14,1.5,15,2.32,2.38,0.4,4.7,1.12,7.09,1.48,1.63,0.25,3.13-.15,3.58-2.13s-0.79-2.92-2.36-3.41a61.53,61.53,0,0,0-19.21-2.31c-1.45,0-2.91,0-5.15,0,1.22-3.61,2.31-7,3.51-10.32,0.69-1.94,1.68-3.78,2.34-5.73,0.53-1.54-.15-3-1.7-3.19-1-.13-2.75.54-3.09,1.33-1.88,4.34-3.58,8.77-5,13.26-0.55,1.69-1.14,2.11-2.85,1.93-7.53-.8-7.54-0.75-8.1-8.21-0.12-1.56-.18-3.11-0.33-4.66C105.33,66,107.59,59.91,113.78,56c6.47-4.13,12.91-2.19,18.75,1.58,8.85,5.7,15.58,13.62,21.71,22,10,13.65,17.13,28.56,19.67,45.43a68.89,68.89,0,0,1-1.14,27c-1,4-2.08,8-3.22,12-0.75,2.63-2.55,4.5-5.27,4.73-13.12,1.11-26.22,1.78-38.77-3.57-11.67-5-18-14.06-20.3-26.26-2.58-13.54-1.59-27,.73-40.45C106.32,96.27,106.59,94.05,107,91.37Z"/><path class="cls-1" d="M77.49,86.17c-1.36-4-2.6-7.75-4-11.46a13.22,13.22,0,0,0-2.13-4.11,3.4,3.4,0,0,0-3-1,3.25,3.25,0,0,0-1.66,2.67,28.89,28.89,0,0,0,1.89,5.28C70,81.16,71.29,84.76,72.82,89,68,89,64,88.74,60.09,89c-3.6.26-7.16,1-10.73,1.65a3.68,3.68,0,0,0-2.1.88c-0.65.76-1.46,2-1.26,2.72a3.57,3.57,0,0,0,2.3,2.21A14.27,14.27,0,0,0,52.89,96c4.93-.87,9.84-1.83,14.76-2.66a24.22,24.22,0,0,1,3.75,0c0,1.12-.08,2.14,0,3.15,0.18,1.8-.6,2.46-2.36,2.92-8.92,2.35-17.8,4.86-26.67,7.38a25.06,25.06,0,0,0-4,1.75c-1.73.84-2.45,2.26-1.68,4.06s2.41,1.89,4.15,1.3c7.94-2.65,15.87-5.31,23.83-7.86a59,59,0,0,1,6.11-1.3c0.14,0.24.28,0.49,0.41,0.73-3.24,4.1-6.42,8.26-9.77,12.27-0.64.77-1.95,1-3,1.41-4.89,1.71-9.8,3.32-14.65,5.09-1.31.47-3,1.05-2.22,3.11a3.59,3.59,0,0,0,4.59,2.21c3.91-1.31,7.8-2.67,12.14-4.17-1.07,2.85-2.18,5.25-2.84,7.76-0.35,1.32.05,2.84,0.11,4.28,1.49-.61,3.57-0.81,4.35-1.92a34.26,34.26,0,0,0,4.83-9.07,35.46,35.46,0,0,1,6.7-11.86,23.07,23.07,0,0,0,5.69-16.7c-0.24-4.18.18-4.49,4.2-5.41C83.17,92,85,91.82,87,91.5c2.79,16,5,31.73,1.78,47.75C85.4,156,74.93,165.35,58.06,168.19c-8.17,1.38-16.69,1.12-25.05,1-6.13-.06-7.9-2-9.41-8-2-7.95-4.27-15.84-4.33-24.15-0.1-16,4.57-30.61,12.15-44.46a116.79,116.79,0,0,1,20.8-27.48c4.35-4.25,8.89-8.35,14.95-10.37,12.31-4.12,20.75,5.73,20.88,15.15a130.78,130.78,0,0,1-.91,13.69,2.32,2.32,0,0,1-1.49,1.58C83,85.63,80.34,85.85,77.49,86.17Z"/><path class="cls-1" d="M109,17a61.62,61.62,0,0,1,.76,6.61c0,2.52-.78,4.84-3.25,6.05a7.28,7.28,0,0,0-4.38,7c0,14.24.09,28.48,0.14,42.72,0,4.38,0,8.75,0,13.07H91.4c0-4.91,0-9.82,0-14.72q-0.11-19.56-.25-39.12c0-4.1-1-7.65-5.27-9.52a4.68,4.68,0,0,1-2-2.84,14.25,14.25,0,0,1-.4-4.59C83.73,17,83.79,17,88.29,17,95,16.95,101.75,17,109,17Z"/><path class="cls-2" d="M107,83.91c2.76,0.61,5.44,1.09,8,1.87a3,3,0,0,1,1.58,2.06,20.91,20.91,0,0,1,.31,4.9,17.49,17.49,0,0,0,3.86,12.07,55.36,55.36,0,0,1,9.45,16.81,26.33,26.33,0,0,0,4.65,7.34c0.61,0.76,2.28.66,3.46,1,0.15-1.12.65-2.35,0.37-3.35-0.77-2.73-1.87-5.35-2.93-8.28a12.5,12.5,0,0,1,1.84.34q4.67,1.55,9.32,3.15c2.51,0.87,4.52.31,5.23-1.63,1-2.78-1.35-3.24-3-3.84-4.54-1.65-9.2-3-13.7-4.69a11.52,11.52,0,0,1-4.53-3.12A78,78,0,0,1,123,97.37a27.1,27.1,0,0,1,3.9.63c8.22,2.6,16.42,5.26,24.64,7.91,0.57,0.18,1.14.41,1.7,0.62,1.69,0.65,3.12.35,3.92-1.34a2.73,2.73,0,0,0-1.61-4,114.57,114.57,0,0,0-10.9-4c-7.2-2.1-14.47-3.94-22-6-0.1-1.58-.21-3.34-0.36-5.83,5.24,0.8,10.14,1.5,15,2.32,2.38,0.4,4.7,1.12,7.09,1.48C146,89.38,147.52,89,148,87s-0.79-2.92-2.36-3.41a61.53,61.53,0,0,0-19.2-2.31c-1.45,0-2.91,0-5.15,0,1.22-3.61,2.31-7,3.51-10.32,0.69-1.94,1.68-3.78,2.34-5.73,0.53-1.54-.15-3-1.7-3.19-1-.13-2.75.54-3.09,1.33-1.88,4.34-3.58,8.77-5,13.26-0.55,1.69-1.14,2.11-2.85,1.93-7.53-.8-7.54-0.75-8.1-8.21-0.12-1.56-.18-3.11-0.33-4.66-0.67-7.21,1.58-13.26,7.78-17.21,6.47-4.13,12.91-2.19,18.75,1.58,8.85,5.7,15.58,13.62,21.71,22,10,13.65,17.13,28.56,19.67,45.43a68.89,68.89,0,0,1-1.14,27c-1,4-2.08,8-3.22,12-0.75,2.63-2.55,4.5-5.27,4.73-13.12,1.11-26.22,1.78-38.77-3.57-11.67-5-18-14.06-20.3-26.26-2.58-13.54-1.59-27,.73-40.45C106.32,88.8,106.59,86.59,107,83.91Z"/><path class="cls-2" d="M77.49,78.71c-1.36-4-2.6-7.75-4-11.46a13.21,13.21,0,0,0-2.12-4.11,3.4,3.4,0,0,0-3-1,3.25,3.25,0,0,0-1.66,2.67,28.89,28.89,0,0,0,1.89,5.28C70,73.7,71.29,77.3,72.82,81.5c-4.83,0-8.8-.22-12.72.06-3.6.26-7.16,1-10.73,1.65a3.68,3.68,0,0,0-2.1.88c-0.65.76-1.46,2-1.26,2.72A3.57,3.57,0,0,0,48.31,89a14.27,14.27,0,0,0,4.58-.46c4.93-.87,9.84-1.83,14.76-2.66a24.22,24.22,0,0,1,3.75,0c0,1.12-.08,2.14,0,3.15,0.18,1.8-.6,2.46-2.36,2.92-8.92,2.35-17.8,4.86-26.67,7.38a25,25,0,0,0-4,1.75c-1.73.84-2.45,2.26-1.68,4.06s2.41,1.89,4.15,1.3c7.94-2.65,15.87-5.31,23.83-7.86a59,59,0,0,1,6.11-1.3c0.14,0.24.28,0.49,0.41,0.73-3.24,4.1-6.42,8.26-9.77,12.27-0.64.77-1.95,1-3,1.41-4.89,1.71-9.8,3.32-14.65,5.09-1.31.47-3,1.05-2.22,3.11a3.59,3.59,0,0,0,4.59,2.21c3.91-1.31,7.8-2.67,12.14-4.17-1.07,2.85-2.18,5.25-2.84,7.76-0.35,1.32.05,2.84,0.11,4.28,1.49-.61,3.58-0.81,4.35-1.92A34.26,34.26,0,0,0,64.75,119a35.46,35.46,0,0,1,6.7-11.86,23.07,23.07,0,0,0,5.69-16.7c-0.24-4.18.18-4.49,4.2-5.41,1.83-.42,3.71-0.63,5.62-1,2.79,16,5,31.73,1.78,47.75-3.33,16.78-13.81,26.11-30.68,28.95-8.18,1.38-16.69,1.12-25.05,1-6.13-.06-7.9-2-9.41-8-2-7.95-4.27-15.84-4.33-24.15-0.1-16,4.57-30.61,12.15-44.46a116.8,116.8,0,0,1,20.8-27.48c4.35-4.25,8.89-8.35,14.95-10.37C79.48,43.19,87.92,53,88.05,62.45a130.87,130.87,0,0,1-.91,13.69,2.32,2.32,0,0,1-1.49,1.58C83,78.17,80.34,78.38,77.49,78.71Z"/><path class="cls-2" d="M109,9.51a61.59,61.59,0,0,1,.76,6.61c0,2.52-.78,4.84-3.25,6.05a7.28,7.28,0,0,0-4.38,7c0,14.24.09,28.48,0.14,42.72,0,4.38,0,8.75,0,13.07H91.4c0-4.91,0-9.82,0-14.72q-0.11-19.56-.25-39.12c0-4.1-1-7.65-5.27-9.52a4.69,4.69,0,0,1-2-2.84,14.25,14.25,0,0,1-.4-4.59c0.25-4.64.31-4.67,4.81-4.7C95,9.48,101.75,9.51,109,9.51Z"/></svg>