<svg id="Layer_1" data-name="Layer 1" xmlns="http://www.w3.org/2000/svg" viewBox="0 0 195 180"><defs><style>.cls-1{fill:#e4a720;}.cls-1,.cls-2{fill-rule:evenodd;}.cls-2{fill:#fff;}</style></defs><title>Liven Icons2</title><path class="cls-1" d="M177.45,77.6a35.6,35.6,0,0,1-4,18.12c-6.49,13.2-17.28,21.93-30.57,27.24-25.62,10.24-50.87,9.18-74.78-5.12-13.4-8-22.73-19.43-24.81-35.56-0.53-4.06-.41-8.2-0.9-12.27-0.77-6.33-3.93-10.27-8.8-11.33-1.62-.37-2.93-0.45-4.26,1.25a6.56,6.56,0,0,1-10,.18A6.88,6.88,0,0,1,20.2,50,6.77,6.77,0,0,1,30.09,52a3.48,3.48,0,0,0,1.83,1.65c11.19,1.17,14.57,9.79,15.4,18.16,0.18,1.82.25,3.66,0.4,5.84H177.45Zm-152.52-26-1.39.05c-0.88,1.28-2.31,2.49-2.5,3.86a2.92,2.92,0,0,0,3.4,3.36c1.27-.24,3.07-2.1,3.11-3.28S25.87,52.9,24.93,51.56Z"/><path class="cls-1" d="M113.88,75.77c16.78-9.7,32.73-18.95,48.74-28.1a3,3,0,0,1,2.8.13c6.92,7.54,11.34,16.25,12.06,26.61a8.23,8.23,0,0,1-.13,1.36H113.88Z"/><path class="cls-1" d="M163.2,45.4L111.49,75.3,111,75c1.15-2,2.29-4.09,3.46-6.12,7-12.21,14.13-24.39,21.08-36.66,1.1-1.93,2.08-2.22,4.11-1.43A69.13,69.13,0,0,1,163.2,45.4Z"/><path class="cls-1" d="M110.5,71.06V25.69a79.48,79.48,0,0,1,24.84,3.71c-8.19,14.15-16.22,28-24.26,41.85Z"/><path class="cls-1" d="M97.32,145.76a15.94,15.94,0,0,1-16,16A16.11,16.11,0,1,1,97.32,145.76Zm-5.48.25a10.57,10.57,0,1,0-21.13-.72A10.57,10.57,0,1,0,91.84,146Z"/><path class="cls-1" d="M139.28,161.72c-8.87-.14-16.06-7.22-16-15.76a16.18,16.18,0,0,1,16.94-16.43c8.36,0.2,15.25,7.58,15.16,16.28A15.88,15.88,0,0,1,139.28,161.72Zm0.08-5.37a11,11,0,0,0,10.76-10.84c0.1-5.28-5.09-10.54-10.41-10.59A10.72,10.72,0,1,0,139.36,156.35Z"/><path class="cls-2" d="M177.45,70.19a35.6,35.6,0,0,1-4,18.12c-6.49,13.2-17.28,21.93-30.57,27.24-25.62,10.24-50.87,9.18-74.78-5.12-13.4-8-22.73-19.43-24.81-35.56-0.53-4.06-.41-8.2-0.9-12.27-0.77-6.33-3.93-10.27-8.8-11.33-1.62-.37-2.93-0.45-4.26,1.25a6.56,6.56,0,0,1-10,.18,6.88,6.88,0,0,1,.92-10.07,6.77,6.77,0,0,1,9.9,1.91,3.48,3.48,0,0,0,1.83,1.65C43.11,47.35,46.5,56,47.32,64.35c0.18,1.82.25,3.66,0.4,5.84H177.45Zm-152.52-26-1.39.05c-0.88,1.28-2.32,2.49-2.5,3.86a2.92,2.92,0,0,0,3.4,3.36c1.27-.24,3.07-2.1,3.11-3.28S25.87,45.48,24.93,44.15Z"/><path class="cls-2" d="M113.88,68.36c16.78-9.7,32.73-18.95,48.74-28.1a3,3,0,0,1,2.8.13c6.92,7.54,11.34,16.25,12.06,26.61a8.22,8.22,0,0,1-.13,1.36H113.88Z"/><path class="cls-2" d="M163.19,38L111.49,67.88,111,67.54c1.15-2,2.29-4.09,3.46-6.12,7-12.21,14.13-24.39,21.08-36.66,1.1-1.93,2.08-2.22,4.11-1.43A69.12,69.12,0,0,1,163.19,38Z"/><path class="cls-2" d="M110.5,63.64V18.27A79.48,79.48,0,0,1,135.33,22c-8.19,14.15-16.22,28-24.26,41.85Z"/><path class="cls-2" d="M97.32,138.35a15.94,15.94,0,0,1-16,16A16.11,16.11,0,1,1,97.32,138.35Zm-5.48.25a10.57,10.57,0,1,0-21.13-.72A10.57,10.57,0,1,0,91.84,138.6Z"/><path class="cls-2" d="M139.28,154.3c-8.87-.14-16.06-7.22-16-15.76a16.18,16.18,0,0,1,16.94-16.43c8.36,0.2,15.25,7.58,15.16,16.28A15.88,15.88,0,0,1,139.28,154.3Zm0.08-5.37a11,11,0,0,0,10.76-10.84c0.1-5.28-5.09-10.54-10.41-10.59A10.72,10.72,0,1,0,139.36,148.94Z"/></svg>