<svg id="Layer_1" data-name="Layer 1" xmlns="http://www.w3.org/2000/svg" viewBox="0 0 194 180"><defs><style>.cls-1{fill:#e4a720;}.cls-2{fill:#fff;}</style></defs><title>Liven Icons2</title><path class="cls-1" d="M173.29,102a19.41,19.41,0,0,1-.57-4.24,17.86,17.86,0,0,0-1-5.85,1.15,1.15,0,0,0-.38-0.46,3.65,3.65,0,0,1-.77-0.54,1.07,1.07,0,0,0-1.52-.57l0.83-.75-0.62-1.22c0.59-.45.26-1.63-0.78-3a3.83,3.83,0,0,0-2.89-1.58,2.28,2.28,0,0,0,.12-1c-0.71-1.3-1.44-2.6-2.26-3.82a18.16,18.16,0,0,0-1.74-2c0,0.62,0,1.32,0,2a5.25,5.25,0,0,0-.24.89,11.58,11.58,0,0,1-.44,5.33,1.72,1.72,0,0,0,.7,2c1.09,1,2.25,1.87,3.23,2.92a38.65,38.65,0,0,1,2.52,3.24,0.42,0.42,0,0,1,.05.27,2.71,2.71,0,0,0-1.21-.07,2.15,2.15,0,0,0-.15,1.07,1.44,1.44,0,0,1-.22-1c0.39-.83,0-1.11-0.73-1.26a1.31,1.31,0,0,0-.75-1.54c-0.55-.4-1.08-0.82-1.67-1.17a1.38,1.38,0,0,0-.86-0.14,1,1,0,0,1-1.28-.5,5.68,5.68,0,0,0-.82-0.93l-2.48,4.11a8.84,8.84,0,0,1-.11-1.14,1.77,1.77,0,0,1,.17-0.8c0.84-1.65,1.75-3.28,2.55-5,0.59-1.22,1.42-2.39,1.29-3.85,0-.47-0.08-0.94-0.16-1.4a9.49,9.49,0,0,0-.58-2.39c-0.88-1.74-1.91-3.4-2.87-5.11a2.37,2.37,0,0,1-.15-0.49l0.13-.06,3.16,5,0.33-.12a13,13,0,0,0,0-1.56,13.5,13.5,0,0,0-.38-1.94,4.71,4.71,0,0,0-.75-2c-1.72-1.64-2-2.44-1.2-4.67a6.69,6.69,0,0,0,.38-1.37c0.16-1.38.28-2.77,0.42-4.16a18.14,18.14,0,0,1-.4,6.61,1.54,1.54,0,0,0,0,1c0.41,1,.9,2,1.34,3,0.5-1,1-2,1.48-3.06,0.34-.83.53-1.72,0.85-2.57a3,3,0,0,1,.54-0.8,4.51,4.51,0,0,0,1.06-1.3c0.39-1.42.56-2.9,0.92-4.33a8.46,8.46,0,0,0-.7-5.16c-0.74-1.93-2.42-2.94-4.23-3.74-0.76-.33-1.56-0.58-2.34-0.87-0.52-.2-1-0.44-1.59-0.66,0.59,2.22,1.15,4.28,1.72,6.35a11.13,11.13,0,0,1-1-2.81c-0.41-2-.88-3.85-2.77-5a4.89,4.89,0,0,1-2-2.49c-0.06-.13-0.11-0.26-0.19-0.39-0.86-.18-1.18-1.08-1.82-1.55a0.65,0.65,0,0,1-.32-0.71,4.36,4.36,0,0,0-.71-0.32c-0.94-.35-2-0.41-2.93-0.71a6.74,6.74,0,0,1-1.44-.86l0.19-.36L150,42.08c-1.22-.8-1.54-2.14-2-3.43s-1.12-2.77-2.8-3.32a7,7,0,0,1-2-1.49c-0.7-.59-1.34-1.28-2.09-1.81a9.11,9.11,0,0,0-1.69-.78l-0.26.35,1.43,1.1-0.17.21c-1.61-.62-2.68-2.25-4.57-2.43,2.76,1.09,3.22,4,5,5.87a2,2,0,0,0-.8.34c-0.47.64,0.29,2.26,1.06,2.47s1.55,0.5,2.32.76c0,0.08,0,.15-0.07.23a11.69,11.69,0,0,0-2.1-.47c-1.81-.07-3.63-0.05-5.44,0-1,0-2,.08-3.08.1-0.83,0-1.68-.09-2.51,0a4.76,4.76,0,0,1-2.62-.24c-0.82-.36-1.65-0.69-2.49-1s-1.48-.55-2.19-0.85a1.18,1.18,0,0,0-1.84.75,1.14,1.14,0,0,1-.21-0.82,4.8,4.8,0,0,1,1.18-.68l-0.59-1a5,5,0,0,0,1-.21,3.6,3.6,0,0,0,.73-0.56l0.23,0.24A5.65,5.65,0,0,0,123,36a1.66,1.66,0,0,0-.22.72,5,5,0,0,0,1,.44c0-.28,0-0.55.05-0.82a1.48,1.48,0,0,1,0-.24l0.21-.09c0.15,0.33.31,0.65,0.45,1a1.34,1.34,0,0,0,.17.56c1,0.47,2,.88,3,1.31-0.34-.89-0.69-1.69-1.69-1.87a0.89,0.89,0,0,1-.5-0.28c-0.67-.81-1.32-1.64-2-2.48-1.14.19-1.79-.12-1.87-0.92a1,1,0,0,1,1-1.24c0,0.1-.08.2-0.12,0.3a1.42,1.42,0,0,1,1.28,1.12,2.07,2.07,0,0,0,.56.82q1.88,2.08,3.8,4.13a0.85,0.85,0,0,0,.47.3c1.75,0.14,3.5.31,5.25,0.35,0.89,0,1.78-.24,2.67-0.27a1.31,1.31,0,0,0,1.34-.75,1.36,1.36,0,0,1,.68-0.56c0.94-.36,1-0.54.5-1.45a31.91,31.91,0,0,0-1.87-3.18,10.7,10.7,0,0,0-2.54-2.61c-1.73-1.11-2.59-.86-3.93.67a5.6,5.6,0,0,1-.38.45,1.32,1.32,0,0,1-1.89,0,1.6,1.6,0,0,1-.23-1.28,2.19,2.19,0,0,1,1-.63c0.14,0.33.29,0.66,0.42,1a1.9,1.9,0,0,1-.09.61,1.85,1.85,0,0,0,.45-0.32c0.63-.62,1.21-1.3,1.91-2.07l-2.08-1.55,0,0c-1.44.18-2.88,0.38-4.32,0.5a4.76,4.76,0,0,1-1.43-.2,10.81,10.81,0,0,1-1.35-.43,2.09,2.09,0,0,1-.83-0.45c-0.84-.93-1.65-1.9-2.44-2.87s-1.48-1.88-2.22-2.83a5.86,5.86,0,0,0-3.62-2.6c-0.6-.09-1.23.05-1.84,0-1.59-.18-3.16-0.45-4.75-0.62a4.66,4.66,0,0,0-1.92.1,45.54,45.54,0,0,0-5.25,2,5.56,5.56,0,0,0-3.13,3c2.6,0,2.6,0,3,.68l-0.94.65c1.57,1.5,3.51,1.77,5.5,2-1.32.61-2.59,1-3.81-.08a3.58,3.58,0,0,0-.92-0.59,15,15,0,0,0-3.93-1.62c-3.1-.39-1.87,2-4.75,3.78-0.52.32-1.74,2.5-2.31,2.74-1,.4-6.08-2.13-6.11-3.16,0-.13.48-2.88,0.4-3A2.85,2.85,0,0,0,80,24c-0.19.16,0.1,2-.14,2-3,.16-3.64,1.08-5.89,3.16-1.26,1.16-.54,2.38-0.63,4.42,0,0.24-5.31-1.64-5.48-1.42-0.91,1.17-1.82,2.33-2.74,3.49a0.27,0.27,0,0,0,0,.16l0.61-.05a24.91,24.91,0,0,0-1.39,3.62,24.84,24.84,0,0,0-.24,3.85,0.53,0.53,0,0,1-.18-0.08,1.31,1.31,0,0,1-.19-0.28,5.41,5.41,0,0,1-.09-5c0.5-1.18,1.21-2.28,1.77-3.44a11.88,11.88,0,0,0,.5-1.78L65.17,33a4.84,4.84,0,0,1,1.06-1.82c1.58-1.47,3.2-2.88,4.83-4.28a8.74,8.74,0,0,1,1.83-1.32c1.41-.68,2.88-1.25,4.34-1.84a10.24,10.24,0,0,1,8.09.35,2.2,2.2,0,0,0,3-.6l-2.12-.35,0.19-.26a3,3,0,0,0-.63-1.12,5.68,5.68,0,0,0-4-.91c0.41,1.2-.31,1.34-1.17,1.34s-1.72.07-2.58,0c-1.05-.08-2.26.29-3-0.87a1,1,0,0,0-.67-0.19c-1.68,0-2.87,1.08-4.21,1.83a6,6,0,0,1-1.7.8,10.26,10.26,0,0,0-4.45,1.89,4.61,4.61,0,0,1-1.15.68,39.55,39.55,0,0,0-4,1.4c-1.62.8-3.32,1.66-4.17,3.38-0.75,1.47-1.23,3.06-1.88,4.58a4.42,4.42,0,0,1-.86,1.39c-0.69.69-1.51,1.26-2.2,2a7.91,7.91,0,0,0-.9,1.39c3.83,0.79,6.56-.32,8.11-3.88a4,4,0,0,1-1.71,3c-0.59.44-1.17,0.88-1.79,1.27a1.93,1.93,0,0,1-1,.29c-2,0-4-.47-5.8.71-0.28.18-.59,0.32-0.87,0.51l-2.83,1.92c0.13-.24.24-0.46,0.4-0.76a5,5,0,0,0-3.07,2.24c-0.64,1-.94,2.3-2.06,3a0.47,0.47,0,0,0-.21.34A1.1,1.1,0,0,1,37,50.21c-1.21.68-2.48,1.3-3.65,2-0.73.46-1.27,1.22-2,1.66C29.52,55,28.6,56.8,27.67,58.6a5.49,5.49,0,0,0-.3,1.48L28.93,60c-0.68,1.42-1.3,2.65-1.85,3.92a3.89,3.89,0,0,0-.41,1.73c0.17,1.89.46,3.77,0.69,5.64l1,0.22a12.61,12.61,0,0,1-1.1,1.76c-1.58,1.78-3.19,3.53-4.81,5.27a6.36,6.36,0,0,0-1.77,5.95,1.33,1.33,0,0,0,.61.78,6.45,6.45,0,0,1,3.1,3.08c0.14,0.29.34,0.55,0.52,0.85l0.46-.64c0,0.36.06,0.54,0.06,0.73q0,2.09,0,4.18c0,0.74.13,1.58-.91,1.83a0.58,0.58,0,0,0-.23.41,10.7,10.7,0,0,0-.38,1.89c-0.06,1.26,0,2.53,0,3.78H23.79c-0.1-.4-0.22-0.79-0.33-1.19a2.11,2.11,0,0,0-.4,1c-0.4,2.11.4,4.05,0.86,6a6.21,6.21,0,0,0,2.85,4.18,1.37,1.37,0,0,1,.22.25c0.58,0.66,1.13,1.36,1.75,2a1.35,1.35,0,0,0,2.08.14c0,0.46-.06.77-0.08,1.09a2.22,2.22,0,0,0,.52-0.76,15.08,15.08,0,0,1,1.56-2.56,2.54,2.54,0,0,0,.76-1.69c0-.81.1-1.61,0.15-2.42h0.1c0.1,1.1.21,2.21,0.32,3.32a10.38,10.38,0,0,0,1.63-2.43c0.38-.82.62-1.71,0.92-2.58a5.65,5.65,0,0,1-.91,3.47,10.28,10.28,0,0,0-1.22,2.28c-0.45,1.26-.72,2.58-1.1,3.86A2.15,2.15,0,0,1,33,116a3.34,3.34,0,0,1-.19-0.8,2.36,2.36,0,0,1,.27-0.61c0.17-.45.33-0.92,0.49-1.37a0.45,0.45,0,0,0-.44.22c-0.57,1.21-1.15,2.43-1.71,3.65a12.56,12.56,0,0,0-1,2.32,13.86,13.86,0,0,0-.15,2.77,2.55,2.55,0,0,0,.29.8l0.14,0c0-.45.05-0.9,0.08-1.36a1.9,1.9,0,0,1,.32,1.05,3.73,3.73,0,0,0,.74,2.79,23.46,23.46,0,0,1,2.3,4,0.74,0.74,0,0,0,.1.13L37.05,133a3.9,3.9,0,0,0,.27,4.2c0.58,0.76,1.23,1.48,1.81,2.24,0.75,1,.8,2.38,1.94,3.12a2.81,2.81,0,0,1,.68.6A7.13,7.13,0,0,0,47.16,146c1.36,0.12,2.72.9,4.09,0,0.74,1.18,1.47,2.29,2.15,3.43a8.33,8.33,0,0,0,3.4,3,4.16,4.16,0,0,1,1.07.24c0.61,0.78,1.42.69,2.24,0.79,1.58,0.18,3.18-1,4.74.06h0c0.21-.3.77-0.45,0.4-1a0.31,0.31,0,0,1,.09-0.28,1.58,1.58,0,0,0,.55-1.65,0.92,0.92,0,0,1,.25-0.59,5.78,5.78,0,0,1,.72.89c0.37,0.72.71,1.46,1,2.21,0.82,2.05,2.4,3.46,4,4.94a3.41,3.41,0,0,1-.8-0.48c-1.07-1.17-2.17-2.32-3.12-3.59a1.25,1.25,0,0,0-1.69-.66,5.76,5.76,0,0,1-1.37.2h0c-0.55.16-1.1,0.33-1.66,0.48s-1.08.27-1.79,0.43l-2.11-.79-0.18.25a6.2,6.2,0,0,0,.53,1.29c0.71,1,1.49,1.94,2.24,2.91,1.52,2,3.71,3.12,5.8,4.37a2.25,2.25,0,0,0,.31,0,4.35,4.35,0,0,1,.69.37c0.52,0.38,1,.81,1.52,1.18a1.22,1.22,0,0,0,1.81-.4,2.59,2.59,0,0,1,.59-0.35l-0.78,1.1,0.06,0.2a3.14,3.14,0,0,1,3.45.6c1.11,0.89,2.48.72,3.82,0.56-0.05-.38-0.09-0.66-0.14-1.08a11.92,11.92,0,0,0,2.74.21,9.9,9.9,0,0,0,2.37-1l-0.47-.53a20.57,20.57,0,0,1,2.72.77,13.73,13.73,0,0,0,5.23,1.06,1,1,0,0,0,.58-0.07,5,5,0,0,1,3-.6,11,11,0,0,0,2.65-.37c1-.31,1.87-0.88,2.83-1.26a9.81,9.81,0,0,0,3.84-2.49,1.12,1.12,0,0,1,.4-0.18l0.16,0.16a3.79,3.79,0,0,1-.61.8,19.63,19.63,0,0,1-2.51,1.82,12.31,12.31,0,0,1-6.2,1.9,13.2,13.2,0,0,0-1.91.26c0.72,0.65,1.26,1.12,1.78,1.61a13.56,13.56,0,0,0,6.49,3,7.32,7.32,0,0,0,3.29-.06,28,28,0,0,0,3.5-1.56c1-.4,2-0.65,2.95-1,2.18-.81,3.68-2.64,5.63-3.82,0.58-.35,1.19-1,1.88-0.42a1.38,1.38,0,0,0,1.62.22,13.59,13.59,0,0,0,2.47-1.4c1.59-1.24,3.09-2.58,4.64-3.86a1.4,1.4,0,0,1,.71-0.38c0.69,0,1.37.12,2.06,0.09,2.6-.12,5-0.71,6.59-3a25.72,25.72,0,0,1,2.5-2.69,11.82,11.82,0,0,0,1.76-2,4.06,4.06,0,0,1,3.54-2.19,7.85,7.85,0,0,0,6.29-3.7c1-1.58,1.92-3.18,1.78-5.15-0.1-1.45-.24-2.9-0.27-4.35a8.36,8.36,0,0,1,.35-1.8l0.29,0.06c0.13,2.92.8,5.86-.31,8.76a11.18,11.18,0,0,0,1.44-6.22,3.17,3.17,0,0,1,.08-1.16,14.16,14.16,0,0,0,.43-4.85,6.59,6.59,0,0,1,1.43-3.64c0.6-.82,1.7-1.26,2.25-2.28,0.76-1.42,1.66-2.77,2.47-4.16a0.91,0.91,0,0,1,.93-0.72,3.53,3.53,0,0,0,1.92-.47,32.48,32.48,0,0,0,3.87-2.77,9.37,9.37,0,0,0,3.16-6.41,2.28,2.28,0,0,1,.29-0.93c0.33-.58.81-1.09,1.08-1.7A6.54,6.54,0,0,0,173.29,102ZM34.37,93c-0.42.4-.75,0.5-1-0.13-0.67-1.45-1.36-2.88-2-4.18a12.24,12.24,0,0,0-.3,6,10.59,10.59,0,0,0,2.83,5.38l-1.44,1c-0.33-.78-0.68-1.54-1-2.32-0.2-.51-0.34-1.05-0.52-1.58a9.33,9.33,0,0,1-.61-5.6,21.09,21.09,0,0,0,.47-7.1,11.72,11.72,0,0,1,1.36-6.22c-0.25,1.61,4.08,3.88,4.12,5.49,0.08,3.17-4.26,5.64-2.06,8.17C34.51,92.28,34.84,92.58,34.37,93Zm0.72-28.46c-0.94,1.62-2.16,3.16-2.25,5.16-0.11,2.26-.16,4.51-0.24,6.77a2.24,2.24,0,0,1,0,.38l-0.22,0c0.1-2.54.1-5.09,0.34-7.62,0.2-2.22,1.48-4,2.82-5.72,0.39-.5.84-1,1.26-1.42L37,62.25A17.47,17.47,0,0,0,35.09,64.58ZM63.8,30.36c-0.32,1.36-.6,2.52-0.92,3.84A3.15,3.15,0,0,1,63.8,30.36Zm-1.94,4.56,0.23,0.19L61,36.46l-0.33-.28Zm-7,16.22c0.78-.19,1.53-0.49,2.3-0.75A2.77,2.77,0,0,1,58,50a4.3,4.3,0,0,0,3.07-1.3,1.54,1.54,0,0,0,.82-1.9c-0.15-.5.66-1.27,1.09-2,0.83,1,.66,1.44-0.26,3.33-0.58,1.22-1.63,1.58-2.81,2a2.43,2.43,0,0,0,.32.22l1.18,0.42c-0.31.24-.63,0.47-0.92,0.72a3.44,3.44,0,0,1-.75.71,11.8,11.8,0,0,1-2,.47,4.69,4.69,0,0,0-1.51.32l0.62,0.45-7.47.62-0.06-.08,3.47-1.34c0.93,0.74,2.11.35,3.39-1.5-0.85.18-1.71,0.34-2.56,0.55-1.1.28-2.18,0.58-3.28,0.87,0-.16-0.08-0.32-0.12-0.49C51.82,51.82,53.34,51.51,54.85,51.14Zm-4,40.21,2-4.88c0.7,1.88-.27,5.47-1.62,5.89,0-.31,0-0.61.05-1Zm-2-46.88s0.22,0.15.35,0.24l-0.7,1-0.35-.26C48.36,45.09,48.59,44.77,48.83,44.46ZM38,60.41c1.64-1.63,3.2-3.85,6-4.66,0,0.15.05,0.33,0.08,0.58l3.34-1.64c0,0.09,6.93,3.75,7,3.84-1.71.94-10.26-1.68-12-.7,0.22,0.14,4,6.84,4.27,7C44.82,65.62,39.5,59.75,38,60.41Zm8.28,40.43c0.25-.88.57-1.73,0.89-2.59a9,9,0,0,1,.47-0.78l2.54-5,0.35,0.2a14.07,14.07,0,0,0-1,1.87,27.08,27.08,0,0,0-.81,3,12.89,12.89,0,0,1-.34,1.89,10.19,10.19,0,0,1-1.19,1.87,0.69,0.69,0,0,1-.56.22A1,1,0,0,1,46.26,100.84Zm4.43,33.88c-1.05-1.12-2.78-.38-3.79-1.45L47,133l4.09,1ZM49.75,117l0.19-.1q1.2,1.82,2.42,3.63C51,119.66,50.58,118.18,49.75,117Zm2.1,21.4c0.58,1.45,1.15,2.82,1.74,4.29C52.68,142,51.5,139.08,51.85,138.38Zm3.57-15.15-2.19-1.59,0.14-.19L55.58,123Zm5.77,30-0.31,0a7.78,7.78,0,0,1-.56-1.16,1.53,1.53,0,0,1,.47-0.5,7.93,7.93,0,0,1,.74,1.1A1.41,1.41,0,0,1,61.19,153.25ZM60.91,140c-0.7,0-1.9-3,10.72,3.15,8.63,0.84,17.8,13.34,18.51,13.89,0.4,0.3-22.85-10.66-23.41-10.63C60.06,146.68,61.08,140,60.91,140Zm-5.23-37.23c-1.8-4.21-1.46-8.5-1.46-13.1a86.36,86.36,0,0,1,.4-11.22c0.47-3.53,2.62-6.72,4.52-9.61L59,69.23c1.86-.22,1.44-2.44,2-3.75a30.27,30.27,0,0,0,1.43-2.79c0.29-1.06-.28-2.07.06-3,1.28-.24,2.62.09,2,1.28-0.46.91-1.33,1.09-1.61,2.23a32.42,32.42,0,0,0-.43,7.45c2.32-.75-0.6-3.93,3.08-4.28,0.23,2.23,0,4-1.61,5.42C62.67,72.89,61.75,74,60.51,75c-1.64,1.27-4,3.22-4.06,5.52a11.12,11.12,0,0,0,1.22,3.89,4.76,4.76,0,0,0,1.14-.53c0.14,1.4-.47,1.4-0.84,2.52s-0.26,2.55-.5,3.56A13,13,0,0,0,56.9,94c0.16,1.85,1.07,3.32,1.48,5a36.28,36.28,0,0,1,.91,3.52c0.22,1.6-.4,3.15.49,4.51,1.05,1.62,2.4.91,3.88,1.79,1,0.6,1.37,1.94,2.6,2.14a1.8,1.8,0,0,1,0,.81,4.61,4.61,0,0,0-1.34.15,5.83,5.83,0,0,1,1.81,1.81C61.14,113.05,57.74,107.55,55.68,102.72ZM67,54.91a9.82,9.82,0,0,0,.21-1c0-.41,0-0.82,0-1.24a5.07,5.07,0,0,0-1.26.05c-2,.59-2.26.5-2.88-1.26,1.32-.49,2.65-1,4-1.49a25.51,25.51,0,0,0,3.34-1.45c1.52-.89,2.9-1.92,4.79-2.07a4.34,4.34,0,0,0,2-1.36,3.6,3.6,0,0,1,4.35-.41A28.53,28.53,0,0,0,67,54.91Zm9.93,105.43,3.93,1.83C79.55,161.72,78.05,161.67,76.94,160.34ZM92.44,51.75C88,52,83.58,52.69,79.15,53.19c4.66-2.47,9.58-4.37,14.94-4.21,6.3,0.18,11.38-2.09,15.89-6.34,0.92-.87,2.63-0.93,4.15-0.81C107.55,46.69,101,51.34,92.44,51.75Zm9.4,113.67a14.84,14.84,0,0,1-1.63-.21,7.86,7.86,0,0,1,.06-1.13l1.68,1C101.93,165.17,101.88,165.3,101.84,165.42ZM143,66.37l-0.19.15-2-2.42C142.32,64.19,142.28,65.61,143,66.37Zm-5.7-18.7c-1.2,1.36-2,.92-4.19-2.1Zm-0.77,10.68-1.47-.14C135.69,57.35,136,57.36,136.56,58.36ZM106.87,159.1a4.08,4.08,0,0,1,3-1.52c0,0.08.07,0.16,0.12,0.24Zm4.37,2.94c0.22-.62.35-1.12,0.56-1.58a0.59,0.59,0,0,1,.49-0.19,0.52,0.52,0,0,1,.27.36A1.34,1.34,0,0,1,111.25,162Zm-3-25.33c-2,1.77-4,1.73-6.38,1.76-1.33,0-3,.57-4.28.35s-3.65-3.16-4.38-.57l0.06-.56a4,4,0,0,0-.45-0.66,7.92,7.92,0,0,0,1.49-1c-0.85-.62-1.8-1.18-2.66-1.8C92.91,132,97,136.09,99,136.33c1.56,0.19,2.22-.54,3.7-0.75,1-.13,2.58.52,3.88,0.06,2.49-.87,7.89-8.5,6.15-11.37a8.45,8.45,0,0,1,1.72-2.36c3,2.78-.07,5.81-1.75,8.41C111.37,132.44,110.09,135.11,108.27,136.71Zm4-73.17a1,1,0,0,1,.45.07c0.71,0.53,1.41,1.08,2.11,1.63l-0.08.36a3.59,3.59,0,0,1-1.22-.28,6.68,6.68,0,0,1-1.2-1.26A1,1,0,0,1,112.26,63.54Zm5.22,89.92-3.41,1.69C114.19,154.27,115.26,153.73,117.48,153.46Zm-4,2.66,3.59-.42c0,0.09,0,.18,0,0.27l-3.58.46C113.49,156.32,113.48,156.22,113.46,156.12Zm2.94,7.78-0.36-.24,1.14-1.57,0.33,0.23Zm4-100.2a7,7,0,0,0-1.59-.4c0.08,0.95.27,1.93,0.36,2.87-2.23.45-1.88-4.74-2.91-6.25-0.8-1.17-1.68-1.19-2.7-2.08-0.66-.57-1.17-2.06-2.25-2.67-2.08-1.18-10.46-.32-11.39,2.56a7.59,7.59,0,0,1-2.63.23c0.13-3.67,4-3.38,6.76-3.79,2.25-.33,4.82-1,7-0.75,2.39,0.32,3.52,1.67,5,3.29,0.8,0.89,2.19,1.74,2.77,2.71s0,4.34,2.21,3.31l-0.42.29A3,3,0,0,0,120.45,63.7Zm0.19,96c0.36-.6.85-0.78,3.49-1.36,1.28-.28,2.54-0.64,3.81-1a0.9,0.9,0,0,1,.07.14Zm2.55-9.52L125,149l0.14,0.21-1.8,1.26Zm3.62-107.53a3.82,3.82,0,0,0-1,0,2.69,2.69,0,0,1-.8,0,20.84,20.84,0,0,1-2.79-.91,12.93,12.93,0,0,1-2.07-1.34c-0.32-.23-0.56-0.84-1-0.38s0.21,0.68.45,1,0.4,0.42.6,0.63l-0.21.26a7.91,7.91,0,0,0-.95-0.71,3.75,3.75,0,0,0-.92-0.27,3.82,3.82,0,0,0,.19.93,5.09,5.09,0,0,0,.65.82l-0.19.17a9.61,9.61,0,0,1-1.12-1.34,1.1,1.1,0,0,1,.2-0.9c0.38-.53.84-1,1.26-1.47h0l0,0c-0.58-.21-1.15-0.43-1.73-0.58a15.59,15.59,0,0,0-3.73-.83,5.11,5.11,0,0,1-3.87-1.84,8,8,0,0,0-1.31-1c-0.66-.46-1.33-0.87-2-1.31a1.62,1.62,0,0,0-.48-0.33c-1.8-.34-3.14-2-5.1-1.85a0.85,0.85,0,0,1-.19-0.28h2.65l-1.32-1a3,3,0,0,1,2.51.53,12.14,12.14,0,0,1,4.15,3.6,8.3,8.3,0,0,0,6,3.19,13.48,13.48,0,0,1,2.88.56A6.47,6.47,0,0,1,119,39.06l0.07,0,0,0c0.93,0.56,1.84,1.16,2.79,1.66a8.82,8.82,0,0,0,5.5,1.36,2.23,2.23,0,0,1,.68.24,7.64,7.64,0,0,1,1.46.39A4.9,4.9,0,0,1,131,44C129.61,43.51,128.22,43,126.81,42.65Zm3,96.65c-0.06.55-.12,1.11-0.19,1.66l-0.32,0c0.09-.55.18-1.1,0.27-1.65Zm-0.55,18a0.93,0.93,0,0,1-.6-0.55,2.74,2.74,0,0,1,0-.95l1.6-.47C130.4,155.84,129.71,157.26,129.29,157.26Zm2.08-2.5-0.33-.24,1.43-2.14,0.25,0.16Zm-0.27-13.19a2.18,2.18,0,0,0-.82.68,3.94,3.94,0,0,0-.41.62l-0.14-.08c0.11-.53.18-1.08,0.34-1.61a0.67,0.67,0,0,1,.42-0.44c1.13,0,2.26,0,3.39,0,0,0.11,0,.22,0,0.33C133,141.22,132,141.33,131.1,141.57Zm10.75-3.05-2.42.77,2.53-2C141.93,137.67,141.89,138.05,141.85,138.52Zm1.9-31.83c-1.43,2.23-2.09,4.35-4.31,6.52s-5.87,4.26-7.58,6.58l-0.36-1.06c-1.55-.6-0.1-1.39-0.82-2.49,0,2.24-7.4,5.48-11.82,6.11-1.26-1.28,0-2.14,1.63-3.33,6.33-4.75,19-9,19.88-14.36,1.89-11-.2-8.8.26-13.35s-5.67-8.53-8.09-12.79c-1.09-1.9-1.63-4.24-4.17-5.38-3.06-1.4-13.22-.78-13.09-3.44,3.8-.58,9,0.56,12.12,1.28,7.47,1.7,7.6,4.39,9.19,8.22,1.06,2.57,3.42,4.84,4.83,7.31,2,3.47,2.48,7.47,3.63,11.07C146.15,101,146,103.22,143.75,106.69Zm5.05-37.78,0.27-.26,2.57,3-0.33.3Zm2.69,69.41-0.31-.05c0.17-1,.34-2,0.51-3l0.42,0.08Q151.81,136.83,151.5,138.32Zm19.09-31c-0.21-.6-0.43-1.21-0.63-1.82l0.33-.13,0.78,1.77Z"/><path class="cls-2" d="M173.29,94.32a19.45,19.45,0,0,1-.57-4.24,17.86,17.86,0,0,0-1-5.85,1.15,1.15,0,0,0-.38-0.46,3.64,3.64,0,0,1-.77-0.54,1.07,1.07,0,0,0-1.52-.57l0.83-.75-0.62-1.22c0.59-.45.26-1.63-0.78-3a3.83,3.83,0,0,0-2.89-1.58,2.28,2.28,0,0,0,.12-1c-0.71-1.3-1.44-2.6-2.26-3.82a18.13,18.13,0,0,0-1.74-2c0,0.62,0,1.32,0,2a5.21,5.21,0,0,0-.24.89,11.58,11.58,0,0,1-.44,5.33,1.72,1.72,0,0,0,.7,2c1.09,1,2.25,1.87,3.23,2.92a38.66,38.66,0,0,1,2.53,3.24,0.42,0.42,0,0,1,.05.27,2.71,2.71,0,0,0-1.21-.07,2.15,2.15,0,0,0-.15,1.07,1.44,1.44,0,0,1-.22-1c0.39-.83,0-1.11-0.73-1.26a1.31,1.31,0,0,0-.75-1.54c-0.55-.4-1.09-0.82-1.67-1.17a1.38,1.38,0,0,0-.86-0.14,1,1,0,0,1-1.28-.5,5.65,5.65,0,0,0-.82-0.93l-2.48,4.11a8.89,8.89,0,0,1-.11-1.14,1.77,1.77,0,0,1,.17-0.8c0.84-1.65,1.75-3.28,2.55-5,0.59-1.22,1.42-2.39,1.29-3.85,0-.47-0.08-0.94-0.16-1.4A9.47,9.47,0,0,0,160.5,70c-0.88-1.74-1.91-3.4-2.87-5.11a2.37,2.37,0,0,1-.15-0.49l0.13-.06,3.16,5,0.33-.12a12.89,12.89,0,0,0,0-1.56,13.42,13.42,0,0,0-.38-1.94,4.71,4.71,0,0,0-.75-2c-1.72-1.64-2-2.44-1.2-4.67a6.71,6.71,0,0,0,.38-1.37c0.16-1.38.28-2.77,0.42-4.16a18.14,18.14,0,0,1-.4,6.61,1.54,1.54,0,0,0,0,1c0.41,1,.9,2,1.34,3,0.5-1,1-2,1.48-3.06,0.34-.83.54-1.72,0.85-2.57a3,3,0,0,1,.54-0.8,4.51,4.51,0,0,0,1.06-1.3c0.39-1.42.56-2.9,0.92-4.33a8.46,8.46,0,0,0-.7-5.16c-0.74-1.93-2.42-2.94-4.23-3.74-0.76-.33-1.56-0.58-2.34-0.87-0.52-.2-1-0.44-1.6-0.66,0.59,2.22,1.15,4.28,1.72,6.35a11.14,11.14,0,0,1-1-2.81c-0.41-2-.88-3.85-2.77-5a4.9,4.9,0,0,1-2-2.49c-0.06-.13-0.11-0.26-0.19-0.39-0.86-.18-1.18-1.08-1.82-1.55a0.65,0.65,0,0,1-.32-0.71,4.32,4.32,0,0,0-.71-0.32c-0.94-.35-2-0.41-2.93-0.71a6.74,6.74,0,0,1-1.44-.86l0.19-.36L150,34.44c-1.22-.8-1.54-2.14-2-3.43s-1.12-2.77-2.8-3.32a6.94,6.94,0,0,1-2-1.49c-0.7-.59-1.34-1.28-2.09-1.81a9.12,9.12,0,0,0-1.69-.78l-0.26.35,1.43,1.1-0.17.21c-1.61-.62-2.68-2.25-4.57-2.43,2.76,1.09,3.22,4,5,5.87a2,2,0,0,0-.8.34c-0.47.64,0.29,2.26,1.06,2.47s1.55,0.5,2.32.76c0,0.08,0,.15-0.07.23a11.69,11.69,0,0,0-2.11-.47c-1.81-.07-3.63,0-5.44,0-1,0-2,.08-3.08.1-0.83,0-1.68-.09-2.51,0a4.76,4.76,0,0,1-2.62-.24c-0.82-.36-1.65-0.69-2.49-1s-1.48-.55-2.19-0.85a1.18,1.18,0,0,0-1.84.75,1.14,1.14,0,0,1-.21-0.82,4.81,4.81,0,0,1,1.18-.68l-0.59-1a5,5,0,0,0,1-.21,3.6,3.6,0,0,0,.73-0.56l0.23,0.24a5.65,5.65,0,0,0-.45.62,1.65,1.65,0,0,0-.22.72,5,5,0,0,0,1,.44c0-.28,0-0.55.05-0.82a1.48,1.48,0,0,1,0-.24l0.21-.09c0.15,0.33.31,0.65,0.45,1a1.35,1.35,0,0,0,.17.56c1,0.47,2,.88,3,1.31-0.34-.89-0.69-1.69-1.69-1.87a0.89,0.89,0,0,1-.5-0.28c-0.67-.81-1.32-1.64-2-2.48-1.14.19-1.79-.12-1.87-0.92a1,1,0,0,1,1-1.24c0,0.1-.08.2-0.12,0.3a1.41,1.41,0,0,1,1.28,1.12,2.07,2.07,0,0,0,.56.82q1.88,2.08,3.8,4.13a0.85,0.85,0,0,0,.47.3c1.75,0.14,3.5.31,5.25,0.35,0.89,0,1.78-.24,2.68-0.27a1.31,1.31,0,0,0,1.34-.75,1.36,1.36,0,0,1,.68-0.56c0.94-.36,1-0.54.5-1.45a31.9,31.9,0,0,0-1.87-3.18,10.7,10.7,0,0,0-2.54-2.61c-1.73-1.11-2.59-.86-3.93.67a5.59,5.59,0,0,1-.38.45,1.32,1.32,0,0,1-1.89,0,1.6,1.6,0,0,1-.23-1.28,2.18,2.18,0,0,1,1-.63c0.14,0.33.29,0.66,0.42,1a1.9,1.9,0,0,1-.09.61,1.86,1.86,0,0,0,.45-0.32c0.63-.62,1.21-1.3,1.91-2.07l-2.08-1.55,0,0c-1.44.18-2.88,0.38-4.32,0.5a4.76,4.76,0,0,1-1.43-.2,10.82,10.82,0,0,1-1.35-.43A2.09,2.09,0,0,1,122,19c-0.84-.93-1.65-1.9-2.44-2.87s-1.48-1.88-2.22-2.83a5.86,5.86,0,0,0-3.62-2.6c-0.6-.09-1.23.05-1.84,0-1.59-.18-3.16-0.45-4.75-0.62a4.66,4.66,0,0,0-1.92.1,45.51,45.51,0,0,0-5.25,2,5.56,5.56,0,0,0-3.13,3c2.6,0,2.6,0,3,.68l-0.94.65c1.57,1.5,3.51,1.77,5.5,2-1.32.61-2.59,1-3.81-.08a3.58,3.58,0,0,0-.92-0.59,15,15,0,0,0-3.93-1.62c-3.1-.39-1.87,2-4.75,3.78-0.52.32-1.74,2.5-2.31,2.74-1,.4-6.08-2.13-6.11-3.16,0-.13.48-2.88,0.4-3a2.85,2.85,0,0,0-3-.25c-0.19.16,0.1,2-.14,2-3,.16-3.64,1.08-5.89,3.16-1.26,1.16-.54,2.38-0.63,4.42,0,0.24-5.31-1.64-5.48-1.42-0.91,1.17-1.82,2.33-2.74,3.49a0.27,0.27,0,0,0,0,.16L65.71,28a24.89,24.89,0,0,0-1.39,3.62,24.8,24.8,0,0,0-.24,3.85,0.53,0.53,0,0,1-.18-0.08,1.33,1.33,0,0,1-.19-0.28,5.41,5.41,0,0,1-.09-5c0.5-1.18,1.21-2.28,1.77-3.44A11.8,11.8,0,0,0,65.9,25l-0.73.39a4.85,4.85,0,0,1,1.06-1.82c1.58-1.47,3.2-2.88,4.83-4.28a8.73,8.73,0,0,1,1.83-1.32c1.41-.68,2.88-1.25,4.34-1.84a10.24,10.24,0,0,1,8.09.35,2.2,2.2,0,0,0,3-.6l-2.12-.35,0.19-.26a3,3,0,0,0-.63-1.12,5.69,5.69,0,0,0-4-.91c0.41,1.2-.31,1.34-1.17,1.34s-1.72.07-2.59,0c-1.05-.08-2.26.29-3-0.87a1,1,0,0,0-.67-0.19c-1.68,0-2.87,1.08-4.21,1.83a6,6,0,0,1-1.7.8A10.26,10.26,0,0,0,63.88,18a4.6,4.6,0,0,1-1.15.68,39.61,39.61,0,0,0-4,1.4c-1.62.8-3.32,1.66-4.17,3.38-0.75,1.47-1.23,3.06-1.88,4.58a4.42,4.42,0,0,1-.86,1.39c-0.69.69-1.51,1.26-2.2,2a7.91,7.91,0,0,0-.9,1.39c3.83,0.79,6.56-.32,8.11-3.88a4,4,0,0,1-1.71,3c-0.59.44-1.17,0.88-1.79,1.27a1.93,1.93,0,0,1-1,.29c-2,0-4-.47-5.8.71-0.28.18-.59,0.32-0.87,0.51l-2.83,1.92c0.13-.24.24-0.46,0.4-0.76A5,5,0,0,0,40.13,38c-0.64,1-.94,2.3-2.06,3a0.46,0.46,0,0,0-.21.34A1.1,1.1,0,0,1,37,42.57c-1.21.68-2.48,1.3-3.65,2-0.73.46-1.27,1.22-2,1.66-1.85,1.09-2.77,2.88-3.7,4.68a5.47,5.47,0,0,0-.3,1.48l1.56-.08c-0.68,1.42-1.3,2.65-1.85,3.92A3.89,3.89,0,0,0,26.67,58c0.17,1.89.46,3.77,0.69,5.64l1,0.22a12.58,12.58,0,0,1-1.1,1.76c-1.58,1.78-3.19,3.53-4.81,5.27a6.36,6.36,0,0,0-1.77,5.95,1.34,1.34,0,0,0,.61.78,6.44,6.44,0,0,1,3.1,3.08c0.14,0.29.34,0.55,0.52,0.85l0.46-.64c0,0.36.06,0.54,0.06,0.73q0,2.09,0,4.18c0,0.74.13,1.58-.91,1.83a0.58,0.58,0,0,0-.23.41A10.64,10.64,0,0,0,23.9,90c-0.06,1.26,0,2.53,0,3.78H23.79c-0.1-.4-0.22-0.79-0.33-1.19a2.11,2.11,0,0,0-.4,1c-0.4,2.11.4,4.05,0.86,6a6.21,6.21,0,0,0,2.85,4.18A1.35,1.35,0,0,1,27,104c0.58,0.66,1.13,1.36,1.75,2a1.35,1.35,0,0,0,2.08.14c0,0.46-.06.77-0.08,1.09a2.22,2.22,0,0,0,.52-0.76,15,15,0,0,1,1.55-2.55,2.54,2.54,0,0,0,.76-1.69c0-.81.1-1.61,0.15-2.42h0.1c0.1,1.1.21,2.21,0.32,3.32a10.38,10.38,0,0,0,1.63-2.43c0.38-.82.62-1.71,0.92-2.58a5.64,5.64,0,0,1-.91,3.47,10.28,10.28,0,0,0-1.22,2.28c-0.45,1.26-.72,2.58-1.1,3.86a2.15,2.15,0,0,1-.5.64,3.34,3.34,0,0,1-.19-0.8A2.39,2.39,0,0,1,33,107c0.17-.45.33-0.92,0.49-1.37a0.45,0.45,0,0,0-.44.22c-0.58,1.21-1.15,2.43-1.71,3.65a12.58,12.58,0,0,0-1,2.32,13.83,13.83,0,0,0-.15,2.77,2.55,2.55,0,0,0,.29.8l0.14,0c0-.45,0-0.9.08-1.36a1.9,1.9,0,0,1,.32,1.05,3.73,3.73,0,0,0,.74,2.79,23.48,23.48,0,0,1,2.3,4,0.76,0.76,0,0,0,.1.13l2.84,3.47a3.9,3.9,0,0,0,.27,4.2c0.58,0.76,1.23,1.48,1.81,2.24,0.75,1,.8,2.38,1.94,3.12a2.81,2.81,0,0,1,.68.6,7.13,7.13,0,0,0,5.41,2.84c1.36,0.12,2.72.9,4.09,0,0.74,1.18,1.47,2.29,2.15,3.43a8.33,8.33,0,0,0,3.4,3,4.15,4.15,0,0,1,1.07.24c0.61,0.78,1.42.69,2.24,0.79,1.58,0.18,3.18-1,4.74.06h0c0.21-.3.77-0.45,0.4-1a0.31,0.31,0,0,1,.09-0.28,1.58,1.58,0,0,0,.55-1.65,0.92,0.92,0,0,1,.25-0.59,5.76,5.76,0,0,1,.72.89c0.37,0.72.71,1.46,1,2.21,0.82,2.05,2.4,3.46,4,4.94a3.4,3.4,0,0,1-.8-0.48c-1.07-1.17-2.17-2.32-3.12-3.59a1.25,1.25,0,0,0-1.69-.66,5.76,5.76,0,0,1-1.37.2h0c-0.55.16-1.1,0.33-1.66,0.48s-1.09.27-1.79,0.43L59.29,146l-0.18.25a6.19,6.19,0,0,0,.53,1.29c0.71,1,1.49,1.94,2.24,2.91,1.52,2,3.71,3.12,5.8,4.37a2.25,2.25,0,0,0,.31,0,4.34,4.34,0,0,1,.69.37c0.52,0.38,1,.81,1.52,1.18A1.22,1.22,0,0,0,72,156a2.57,2.57,0,0,1,.59-0.35l-0.78,1.1,0.06,0.2a3.14,3.14,0,0,1,3.45.6c1.11,0.89,2.48.72,3.82,0.56,0-.38-0.09-0.66-0.14-1.08a11.94,11.94,0,0,0,2.74.21,9.89,9.89,0,0,0,2.37-1l-0.47-.53a20.55,20.55,0,0,1,2.72.77,13.73,13.73,0,0,0,5.23,1.06,1,1,0,0,0,.58-0.07,5,5,0,0,1,3-.6,11,11,0,0,0,2.65-.37c1-.31,1.87-0.88,2.83-1.26a9.81,9.81,0,0,0,3.84-2.49,1.11,1.11,0,0,1,.4-0.18l0.16,0.16a3.79,3.79,0,0,1-.61.8,19.66,19.66,0,0,1-2.51,1.82,12.31,12.31,0,0,1-6.2,1.9,13.21,13.21,0,0,0-1.91.26c0.72,0.65,1.26,1.12,1.78,1.61a13.56,13.56,0,0,0,6.49,3,7.32,7.32,0,0,0,3.29-.06,27.94,27.94,0,0,0,3.5-1.56c1-.4,2-0.65,2.95-1,2.18-.81,3.68-2.64,5.63-3.82,0.58-.35,1.19-1,1.88-0.42a1.38,1.38,0,0,0,1.62.22,13.59,13.59,0,0,0,2.47-1.4c1.59-1.24,3.09-2.58,4.64-3.86a1.4,1.4,0,0,1,.71-0.38c0.69,0,1.37.12,2.06,0.09,2.6-.12,5-0.71,6.59-3a25.71,25.71,0,0,1,2.5-2.69,11.82,11.82,0,0,0,1.76-2,4.06,4.06,0,0,1,3.54-2.19,7.85,7.85,0,0,0,6.29-3.7c1-1.58,1.92-3.18,1.78-5.15-0.1-1.45-.24-2.9-0.27-4.35a8.36,8.36,0,0,1,.35-1.8l0.29,0.06c0.13,2.92.8,5.86-.31,8.76a11.18,11.18,0,0,0,1.44-6.22,3.17,3.17,0,0,1,.08-1.16,14.16,14.16,0,0,0,.43-4.85,6.59,6.59,0,0,1,1.43-3.64c0.6-.82,1.7-1.26,2.25-2.28,0.76-1.42,1.66-2.77,2.47-4.16a0.91,0.91,0,0,1,.93-0.72,3.53,3.53,0,0,0,1.92-.47,32.48,32.48,0,0,0,3.87-2.77,9.37,9.37,0,0,0,3.16-6.41,2.28,2.28,0,0,1,.29-0.93c0.33-.58.81-1.09,1.08-1.7A6.54,6.54,0,0,0,173.29,94.32ZM34.37,85.39c-0.42.4-.75,0.5-1-0.13-0.67-1.45-1.36-2.88-2-4.18a12.24,12.24,0,0,0-.3,6,10.59,10.59,0,0,0,2.83,5.38l-1.44,1c-0.33-.78-0.68-1.54-1-2.32-0.2-.51-0.34-1.05-0.52-1.58a9.33,9.33,0,0,1-.61-5.6,21.1,21.1,0,0,0,.47-7.1,11.72,11.72,0,0,1,1.36-6.22c-0.25,1.61,4.08,3.88,4.12,5.49,0.08,3.17-4.26,5.64-2.06,8.17C34.51,84.64,34.84,84.94,34.37,85.39Zm0.72-28.46c-0.94,1.62-2.16,3.16-2.25,5.16-0.11,2.26-.16,4.51-0.24,6.77a2.21,2.21,0,0,1,0,.38l-0.22,0c0.1-2.54.1-5.09,0.34-7.62,0.2-2.22,1.48-4,2.82-5.72,0.39-.5.84-1,1.26-1.42L37,54.61A17.52,17.52,0,0,0,35.09,56.93ZM63.8,22.72c-0.32,1.36-.6,2.52-0.92,3.84A3.15,3.15,0,0,1,63.8,22.72Zm-1.94,4.56,0.23,0.19L61,28.82l-0.33-.28Zm-7,16.22c0.78-.19,1.53-0.49,2.3-0.75a2.78,2.78,0,0,1,.9-0.36,4.3,4.3,0,0,0,3.07-1.3,1.54,1.54,0,0,0,.82-1.9c-0.15-.5.66-1.27,1.08-2,0.83,1,.66,1.44-0.26,3.33-0.58,1.22-1.63,1.58-2.81,2a2.46,2.46,0,0,0,.32.22l1.18,0.42c-0.31.24-.63,0.47-0.92,0.72a3.44,3.44,0,0,1-.75.71,11.76,11.76,0,0,1-2,.47,4.69,4.69,0,0,0-1.51.32l0.62,0.45-7.47.62-0.06-.08,3.47-1.34c0.93,0.74,2.1.35,3.39-1.5-0.85.18-1.71,0.34-2.56,0.55-1.1.28-2.18,0.58-3.28,0.87,0-.16-0.08-0.32-0.12-0.49C51.82,44.17,53.34,43.87,54.85,43.5Zm-4,40.21,2-4.88c0.7,1.88-.27,5.47-1.62,5.89,0-.31,0-0.61.05-1Zm-2-46.88s0.22,0.15.35,0.24l-0.7,1-0.35-.26C48.36,37.44,48.59,37.12,48.83,36.82ZM38,52.77c1.64-1.63,3.2-3.85,6-4.66,0,0.15.05,0.33,0.08,0.58L47.4,47c0,0.09,6.93,3.75,7,3.84-1.71.94-10.26-1.68-12-.7,0.22,0.14,4,6.84,4.27,7C44.82,58,39.5,52.11,38,52.77Zm8.28,40.43c0.25-.88.57-1.73,0.89-2.59a9,9,0,0,1,.47-0.78l2.54-5L50.51,85a14,14,0,0,0-1,1.87,27,27,0,0,0-.81,3,13,13,0,0,1-.34,1.89,10.21,10.21,0,0,1-1.19,1.87,0.69,0.69,0,0,1-.56.22A1,1,0,0,1,46.26,93.19Zm4.43,33.88c-1.05-1.12-2.78-.38-3.79-1.45l0.07-.24,4.09,1Zm-0.94-17.74,0.19-.1q1.2,1.82,2.42,3.63C51,112,50.58,110.54,49.75,109.33Zm2.1,21.4c0.58,1.45,1.15,2.82,1.74,4.29C52.68,134.35,51.5,131.44,51.85,130.74Zm3.57-15.15L53.22,114l0.14-.19,2.21,1.54Zm5.77,30-0.31,0a7.79,7.79,0,0,1-.56-1.16,1.52,1.52,0,0,1,.47-0.5,8,8,0,0,1,.74,1.1A1.42,1.42,0,0,1,61.19,145.61Zm-0.29-13.3c-0.7,0-1.9-3,10.72,3.15,8.63,0.84,17.8,13.34,18.51,13.89,0.4,0.3-22.85-10.66-23.41-10.63C60.06,139,61.08,132.31,60.91,132.31ZM55.68,95.08c-1.8-4.21-1.46-8.5-1.46-13.1a86.36,86.36,0,0,1,.4-11.22c0.47-3.53,2.62-6.72,4.52-9.61L59,61.59c1.86-.22,1.44-2.44,2-3.75A30.26,30.26,0,0,0,62.37,55c0.29-1.06-.28-2.07.06-3,1.28-.24,2.62.09,2,1.28-0.46.91-1.33,1.09-1.61,2.23A32.4,32.4,0,0,0,62.42,63c2.32-.75-0.6-3.93,3.08-4.28,0.23,2.23,0,4-1.61,5.42-1.22,1.06-2.14,2.21-3.38,3.17-1.64,1.27-4,3.22-4.06,5.52a11.13,11.13,0,0,0,1.22,3.89,4.76,4.76,0,0,0,1.14-.53c0.14,1.4-.47,1.4-0.84,2.52s-0.26,2.55-.5,3.56a13,13,0,0,0-.58,4.07c0.16,1.85,1.07,3.32,1.48,5a36.28,36.28,0,0,1,.91,3.52c0.22,1.6-.4,3.15.49,4.51,1.05,1.62,2.4.91,3.88,1.79,1,0.6,1.37,1.94,2.6,2.14a1.79,1.79,0,0,1,0,.81,4.6,4.6,0,0,0-1.34.15,5.83,5.83,0,0,1,1.81,1.81C61.14,105.41,57.74,99.91,55.68,95.08ZM67,47.26a9.81,9.81,0,0,0,.21-1c0-.41,0-0.82,0-1.24A5.07,5.07,0,0,0,66,45c-2,.59-2.26.5-2.88-1.26,1.32-.49,2.65-1,4-1.49a25.51,25.51,0,0,0,3.34-1.45c1.52-.89,2.9-1.92,4.79-2.07a4.34,4.34,0,0,0,2-1.36A3.6,3.6,0,0,1,81.55,37,28.53,28.53,0,0,0,67,47.26ZM76.94,152.7l3.93,1.83C79.55,154.08,78.05,154,76.94,152.7ZM92.44,44.11c-4.44.22-8.86,0.94-13.29,1.44,4.66-2.47,9.58-4.37,14.94-4.21,6.3,0.18,11.38-2.09,15.89-6.34,0.92-.87,2.63-0.93,4.15-0.81C107.55,39.05,101,43.7,92.44,44.11Zm9.4,113.67a14.85,14.85,0,0,1-1.63-.21,7.84,7.84,0,0,1,.06-1.13l1.68,1C101.93,157.52,101.88,157.66,101.84,157.78ZM143,58.73l-0.19.15-2-2.42C142.32,56.55,142.28,58,143,58.73ZM137.33,40c-1.2,1.36-2,.92-4.19-2.1Zm-0.77,10.68-1.47-.14C135.69,49.71,136,49.72,136.56,50.71ZM106.87,151.46a4.08,4.08,0,0,1,3-1.52c0,0.08.07,0.16,0.12,0.24Zm4.37,2.94c0.22-.62.35-1.12,0.56-1.58a0.59,0.59,0,0,1,.49-0.19,0.52,0.52,0,0,1,.27.36A1.34,1.34,0,0,1,111.25,154.4Zm-3-25.33c-2,1.77-4,1.73-6.38,1.76-1.33,0-3,.57-4.28.35S94,128,93.23,130.61l0.06-.56a4,4,0,0,0-.45-0.66,7.89,7.89,0,0,0,1.49-1c-0.85-.62-1.8-1.18-2.66-1.8,1.25-2.18,5.34,1.89,7.36,2.13,1.55,0.19,2.22-.54,3.7-0.75,1-.13,2.58.52,3.88,0.06,2.49-.87,7.89-8.5,6.15-11.37a8.44,8.44,0,0,1,1.72-2.36c3,2.78-.07,5.81-1.75,8.41C111.37,124.8,110.09,127.47,108.27,129.07Zm4-73.17a1,1,0,0,1,.45.07c0.71,0.52,1.41,1.08,2.11,1.62l-0.08.36a3.58,3.58,0,0,1-1.22-.28,6.67,6.67,0,0,1-1.2-1.26A1,1,0,0,1,112.26,55.89Zm5.22,89.92-3.41,1.69C114.19,146.62,115.26,146.09,117.48,145.82Zm-4,2.66,3.59-.42c0,0.09,0,.18,0,0.27l-3.58.46C113.49,148.68,113.48,148.58,113.46,148.48Zm2.94,7.78-0.36-.24,1.14-1.57,0.33,0.23Zm4-100.2a7,7,0,0,0-1.59-.4c0.08,0.95.27,1.93,0.36,2.87-2.23.45-1.88-4.74-2.91-6.25-0.8-1.17-1.68-1.19-2.7-2.08-0.66-.57-1.17-2.06-2.25-2.67-2.08-1.18-10.46-.32-11.39,2.56a7.59,7.59,0,0,1-2.63.23c0.13-3.67,4-3.38,6.76-3.79,2.25-.33,4.82-1,7-0.75,2.39,0.32,3.52,1.67,5,3.29,0.8,0.89,2.19,1.74,2.77,2.71s0,4.34,2.21,3.31l-0.42.29A3,3,0,0,0,120.45,56.05Zm0.19,96c0.36-.6.85-0.78,3.49-1.36,1.28-.28,2.54-0.64,3.81-1a0.93,0.93,0,0,1,.07.14Zm2.55-9.52,1.82-1.23,0.14,0.21-1.8,1.26ZM126.81,35a3.82,3.82,0,0,0-1,0,2.7,2.7,0,0,1-.8,0,20.86,20.86,0,0,1-2.79-.91,12.89,12.89,0,0,1-2.06-1.34c-0.32-.23-0.56-0.84-1-0.38s0.21,0.68.45,1,0.4,0.42.6,0.63l-0.21.26a7.91,7.91,0,0,0-.95-0.71,3.75,3.75,0,0,0-.92-0.27,3.82,3.82,0,0,0,.19.93,5.06,5.06,0,0,0,.65.82l-0.19.17a9.61,9.61,0,0,1-1.12-1.34,1.1,1.1,0,0,1,.2-0.9c0.38-.53.84-1,1.26-1.47h0l0,0c-0.57-.21-1.15-0.43-1.73-0.58a15.59,15.59,0,0,0-3.73-.83,5.11,5.11,0,0,1-3.87-1.84,8,8,0,0,0-1.31-1c-0.66-.46-1.33-0.87-2-1.31a1.62,1.62,0,0,0-.48-0.33c-1.8-.34-3.14-2-5.1-1.85a0.85,0.85,0,0,1-.19-0.28h2.65l-1.32-1a3,3,0,0,1,2.51.53,12.14,12.14,0,0,1,4.15,3.6,8.31,8.31,0,0,0,6,3.19,13.48,13.48,0,0,1,2.88.56A6.47,6.47,0,0,1,119,31.42l0.07,0,0,0c0.93,0.56,1.84,1.16,2.79,1.66a8.82,8.82,0,0,0,5.5,1.36,2.23,2.23,0,0,1,.68.24,7.64,7.64,0,0,1,1.46.39,4.91,4.91,0,0,1,1.5,1.21C129.61,35.87,128.22,35.41,126.81,35Zm3,96.65c-0.06.55-.12,1.11-0.19,1.66l-0.32,0c0.09-.55.18-1.1,0.27-1.65Zm-0.55,18a0.93,0.93,0,0,1-.6-0.55,2.75,2.75,0,0,1,0-.95l1.6-.47C130.4,148.19,129.71,149.62,129.29,149.61Zm2.08-2.5-0.33-.24,1.43-2.14,0.25,0.16Zm-0.27-13.19a2.19,2.19,0,0,0-.82.68,4,4,0,0,0-.41.62l-0.14-.08c0.11-.53.18-1.08,0.34-1.61a0.67,0.67,0,0,1,.42-0.44c1.13,0,2.26,0,3.39,0,0,0.11,0,.22,0,0.33C133,133.57,132,133.69,131.1,133.92Zm10.75-3.05-2.42.77,2.53-2C141.93,130,141.89,130.41,141.85,130.87ZM143.75,99c-1.43,2.23-2.09,4.35-4.31,6.52s-5.87,4.26-7.58,6.58l-0.36-1.06c-1.55-.6-0.1-1.39-0.82-2.49,0,2.24-7.4,5.48-11.82,6.11-1.26-1.28,0-2.14,1.63-3.33,6.33-4.75,19-9,19.88-14.36,1.89-11-.2-8.8.26-13.35s-5.67-8.53-8.09-12.79c-1.08-1.9-1.63-4.24-4.16-5.38-3.06-1.4-13.22-.78-13.09-3.44,3.8-.58,9,0.56,12.12,1.28,7.47,1.7,7.6,4.39,9.19,8.22,1.06,2.57,3.42,4.84,4.83,7.31,2,3.47,2.48,7.47,3.63,11.07C146.15,93.37,146,95.58,143.75,99Zm5.05-37.78,0.27-.26,2.57,3-0.33.3Zm2.69,69.41-0.31-.05c0.17-1,.34-2,0.51-3l0.42,0.08Q151.81,129.19,151.5,130.68Zm19.09-31c-0.21-.6-0.43-1.21-0.63-1.82l0.33-.13,0.78,1.77Z"/></svg>