<svg id="Layer_2" data-name="Layer 2" xmlns="http://www.w3.org/2000/svg" viewBox="0 0 400 400"><title>Liven Icons</title><path d="M295.21,151a23,23,0,0,1,.56,6.2q0,53.53-38.31,96.9t-102,43.38q-42.25,0-75.49-22,1.69,0,5.63.28c2.62,0.19,4.69.28,6.2,0.28a97.12,97.12,0,0,0,60.85-20.85,49,49,0,0,1-28.45-10.14,50.47,50.47,0,0,1-17.75-24.23,61.53,61.53,0,0,0,9.58.56q9,0,12.39-1.13A49.23,49.23,0,0,1,89,171.83v-0.56q9,5.07,22.54,6.2-22-14.07-22-41.13a45.45,45.45,0,0,1,6.76-24.79q40.56,49,102,51.27a35.45,35.45,0,0,1-1.69-11.27,46.74,46.74,0,0,1,14.65-34.65,48.15,48.15,0,0,1,34.93-14.37q22,0,36.06,15.77a121.14,121.14,0,0,0,31-12.39,43,43,0,0,1-21.41,27q16.9-1.69,28.17-7.32Q308.17,142.54,295.21,151Z"/></svg>