<svg id="Layer_1" data-name="Layer 1" xmlns="http://www.w3.org/2000/svg" viewBox="0 0 194 178"><defs><style>.cls-1{fill:#e4a720;}.cls-1,.cls-2{fill-rule:evenodd;}.cls-2{fill:#fff;}</style></defs><title>Liven Icons2</title><path class="cls-1" d="M119.85,105.2l-6.74-29.76c-0.35,5.86-.52,12-1.13,18.16a67.08,67.08,0,0,1-2.21,10.16,4.89,4.89,0,0,1-1.7,2.59c-4.56,3.25-9.08,6.59-13.87,9.47-9.63,5.77-19.26,11.6-29.21,16.78A232.55,232.55,0,0,1,39.47,144c-7.46,2.81-9.45,1.55-12.22-6-5-13.64-7.69-27.84-9.47-42.22a92.11,92.11,0,0,1,.41-26.69C21,52.28,31.4,42.68,48.44,40.65c19.25-2.29,38.2-.5,57.22,2.75,9.71,1.67,19.72,1.79,29.62,2.13,8.85,0.31,17.67.57,26.35,2.59A28.57,28.57,0,0,1,175,55.74c2.71,2.61,2.55,5.09-.05,7.48-12,11-23.94,22.06-36,33C133.62,101.16,127.06,103.69,119.85,105.2Zm-57.25-59-0.24-.89c-7,1.76-14.08,3.27-21,5.32-9.52,2.84-15.53,14.14-16.59,27.25C31.87,60.32,46.32,52.13,62.6,46.18Z"/><path class="cls-2" d="M119.85,98.24l-6.74-29.76c-0.35,5.86-.52,12-1.13,18.16a67,67,0,0,1-2.21,10.16,4.89,4.89,0,0,1-1.7,2.59c-4.56,3.25-9.08,6.59-13.87,9.47-9.63,5.77-19.26,11.6-29.21,16.78A232.52,232.52,0,0,1,39.47,137c-7.46,2.81-9.45,1.55-12.22-6-5-13.64-7.69-27.84-9.47-42.22a92.1,92.1,0,0,1,.41-26.69C21,45.31,31.4,35.72,48.44,33.69c19.25-2.29,38.2-.5,57.22,2.75,9.71,1.67,19.72,1.79,29.62,2.13,8.85,0.31,17.67.57,26.35,2.59A28.57,28.57,0,0,1,175,48.78c2.71,2.61,2.55,5.09-.05,7.48-12,11-23.94,22.06-36,33C133.62,94.2,127.06,96.73,119.85,98.24Zm-57.25-59-0.24-.89c-7,1.76-14.08,3.27-21,5.32C31.84,46.49,25.83,57.78,24.77,70.9,31.87,53.36,46.32,45.17,62.6,39.21Z"/></svg>