<svg id="Layer_1" data-name="Layer 1" xmlns="http://www.w3.org/2000/svg" viewBox="0 0 195 180"><defs><style>.cls-1{fill:#e4a720;}.cls-2{fill:#fff;}</style></defs><title>Liven Icons2</title><path class="cls-1" d="M97.52,17.37c6.46,0,11,4.47,11,10.85a10.79,10.79,0,0,1-10.75,11.2A11,11,0,0,1,86.48,28.18,10.56,10.56,0,0,1,97.52,17.37Z"/><path class="cls-1" d="M119.21,84.3c-2.8.46-4.36-1.18-4.84-3.82-1-5.51-1.91-11-2.85-16.56l-1.14.12c1,10.94,2,21.89,3,33.14l-5.26.82v19.81c0,1.46,0,2.9,0,4.36-0.15,3.09-1.43,5.49-4.78,5.65s-5.07-2-5.23-5.17c-0.23-4.49-.17-9-0.21-13.49,0-3.31,0-6.62,0-9.93H97c0,7.23,0,14.46,0,21.7,0,3.53-.7,6.5-4.84,6.91-3.3.33-5.1-2.22-5.11-7,0-7.52,0-15,0-22.82l-5.33-.77c1-12,2.07-23.94,3.1-35.84l-0.88-.11c-1.06,5.94-2.13,11.87-3.16,17.82-0.5,2.9-1.32,5.74-5,5.17-4-.62-3.77-3.77-3.25-6.79,1.46-8.42,2.91-16.85,4.48-25.25a39.59,39.59,0,0,1,1.93-6.67,7,7,0,0,1,7-4.83c7.69,0,15.38,0,23.08,0a7.11,7.11,0,0,1,7.44,6c2.25,10.77,4.26,21.59,6.28,32.41C123.2,81.9,121.94,83.86,119.21,84.3Z"/><rect class="cls-1" x="30.72" y="128.04" width="133.56" height="12.83"/><circle class="cls-1" cx="97.5" cy="154.48" r="15.52"/><path class="cls-2" d="M97.52,10c6.46,0,11,4.47,11,10.85a10.79,10.79,0,0,1-10.75,11.2A11,11,0,0,1,86.48,20.81,10.56,10.56,0,0,1,97.52,10Z"/><path class="cls-2" d="M119.21,76.93c-2.8.45-4.36-1.18-4.84-3.82-1-5.51-1.91-11-2.85-16.56l-1.14.12c1,10.94,2,21.89,3,33.14l-5.26.82v19.81c0,1.46,0,2.9,0,4.36-0.15,3.09-1.43,5.49-4.78,5.65s-5.07-2-5.23-5.17c-0.23-4.49-.17-9-0.21-13.49,0-3.31,0-6.62,0-9.93H97c0,7.23,0,14.46,0,21.7,0,3.53-.7,6.5-4.84,6.91-3.3.33-5.1-2.22-5.11-7,0-7.52,0-15,0-22.82l-5.33-.77c1-12,2.07-23.94,3.1-35.84l-0.89-.11c-1.06,5.94-2.13,11.87-3.16,17.82-0.5,2.9-1.32,5.74-5,5.17-4-.62-3.77-3.77-3.25-6.79,1.46-8.42,2.91-16.85,4.48-25.25a39.59,39.59,0,0,1,1.93-6.67,7,7,0,0,1,7-4.83c7.69,0,15.38,0,23.08,0a7.11,7.11,0,0,1,7.44,6c2.25,10.77,4.26,21.59,6.28,32.41C123.2,74.53,121.94,76.48,119.21,76.93Z"/><rect class="cls-2" x="30.72" y="120.66" width="133.56" height="12.83"/><circle class="cls-2" cx="97.5" cy="147.11" r="15.52"/></svg>