<svg id="Layer_1" data-name="Layer 1" xmlns="http://www.w3.org/2000/svg" viewBox="0 0 195 180"><defs><style>.cls-1{fill:#e4a720;}.cls-2{fill:#fff;}</style></defs><title>Liven Icons2</title><path class="cls-1" d="M93.36,88.74V19.3a73.9,73.9,0,0,0-66.06,48Z"/><path class="cls-1" d="M24.77,75.15A73.85,73.85,0,0,0,50,152.79L90.81,96.61Z"/><path class="cls-1" d="M56.68,157.65a73.66,73.66,0,0,0,81.64,0L97.5,101.47Z"/><path class="cls-1" d="M170.24,75.15l-66,21.46L145,152.79A73.91,73.91,0,0,0,170.24,75.15Z"/><path class="cls-1" d="M141.9,33.34a74.69,74.69,0,0,0-40.26-14V88.74l66.05-21.46A74.7,74.7,0,0,0,141.9,33.34Z"/><path class="cls-2" d="M93.36,79.44V10A73.9,73.9,0,0,0,27.3,58Z"/><path class="cls-2" d="M24.77,65.85A73.85,73.85,0,0,0,50,143.5L90.81,87.31Z"/><path class="cls-2" d="M56.68,148.36a73.66,73.66,0,0,0,81.64,0L97.5,92.17Z"/><path class="cls-2" d="M170.24,65.85l-66,21.46L145,143.5A73.91,73.91,0,0,0,170.24,65.85Z"/><path class="cls-2" d="M141.9,24a74.69,74.69,0,0,0-40.26-14V79.44L167.69,58A74.69,74.69,0,0,0,141.9,24Z"/></svg>