<svg id="Layer_1" data-name="Layer 1" xmlns="http://www.w3.org/2000/svg" viewBox="0 0 195 180"><defs><style>.cls-1{fill:#e4a720;}.cls-2{fill:#fff;}</style></defs><title>Liven Icons2</title><path class="cls-1" d="M97.4,17.3a11,11,0,0,1,11.16,11.16A11.2,11.2,0,0,1,97.79,39.6a11.07,11.07,0,0,1-11.35-11A10.93,10.93,0,0,1,97.4,17.3Z"/><path class="cls-1" d="M123.19,80.82c0,3.6-1.86,5.9-5.47,5.79s-5.25-2.48-5.23-6.07q0-12.29,0-24.58c0-1.37-.12-2.73-0.19-4.09l-1.15-.09c-0.1,1.39-.27,2.77-0.27,4.15,0,21.42,0,42.83-.12,64.26,0,1.67.09,4-.9,4.88-1.73,1.5-4.31,3-6.44,2.86-3.22-.19-4.6-3-4.6-6.26q0-15.53,0-31a6.77,6.77,0,0,0,0-2.15,6.12,6.12,0,0,0-1.32-1.6,3.88,3.88,0,0,0-1.18,1.42,33.53,33.53,0,0,0-.1,4.28c0,9.49,0,19,0,28.46,0,4.66-2.3,7.35-6,7.25s-5.91-2.77-5.93-7.48q-0.09-32.11-.09-64.22V52H82.72c-0.07,1.49-.2,3-0.21,4.45,0,8-.08,16.1-0.05,24.15,0,3.6-1.6,6-5.24,6s-5.42-2.17-5.4-5.83c0-9.49-.15-19,0.1-28.46,0.19-7.68,4.36-11.53,12-11.59,9.05-.06,18.12-0.09,27.17,0,7.55,0.07,11.63,3.7,11.89,11.21C123.35,61.55,123.18,71.18,123.19,80.82Z"/><rect class="cls-1" x="31.39" y="128.46" width="132.21" height="12.69"/><path class="cls-1" d="M112.86,154.63A15.36,15.36,0,1,1,97.5,139.27,15.36,15.36,0,0,1,112.86,154.63Z"/><path class="cls-2" d="M97.4,10a11,11,0,0,1,11.16,11.16A11.2,11.2,0,0,1,97.79,32.3a11.07,11.07,0,0,1-11.35-11A10.93,10.93,0,0,1,97.4,10Z"/><path class="cls-2" d="M123.19,73.52c0,3.6-1.86,5.9-5.47,5.79s-5.25-2.48-5.23-6.07q0-12.29,0-24.58c0-1.37-.12-2.73-0.19-4.09l-1.15-.09c-0.1,1.39-.27,2.77-0.27,4.15,0,21.42,0,42.83-.12,64.26,0,1.67.09,4-.9,4.88-1.73,1.5-4.31,3-6.44,2.86-3.22-.19-4.6-3-4.6-6.26q0-15.53,0-31a6.77,6.77,0,0,0,0-2.15,6.12,6.12,0,0,0-1.32-1.6A3.88,3.88,0,0,0,96.23,81a33.47,33.47,0,0,0-.1,4.28c0,9.49,0,19,0,28.46,0,4.66-2.3,7.35-6,7.25s-5.91-2.77-5.93-7.48q-0.09-32.11-.09-64.22v-4.6H82.72c-0.07,1.49-.2,3-0.21,4.45,0,8-.08,16.1-0.05,24.15,0,3.6-1.6,6-5.23,6s-5.42-2.17-5.4-5.83c0-9.49-.15-19,0.1-28.46,0.19-7.68,4.36-11.53,12-11.59,9.05-.06,18.11-0.09,27.17,0,7.55,0.07,11.63,3.7,11.89,11.21C123.35,54.25,123.18,63.88,123.19,73.52Z"/><rect class="cls-2" x="31.39" y="121.16" width="132.21" height="12.69"/><path class="cls-2" d="M112.86,147.33A15.36,15.36,0,1,1,97.5,132,15.36,15.36,0,0,1,112.86,147.33Z"/></svg>