<svg id="Layer_1" data-name="Layer 1" xmlns="http://www.w3.org/2000/svg" viewBox="0 0 194 180"><defs><style>.cls-1{fill:#e4a720;}.cls-1,.cls-2{fill-rule:evenodd;}.cls-2{fill:#fff;}</style></defs><title>Liven Icons2</title><path class="cls-1" d="M164,64.11c-0.74,2-2.27,2.08-4.13,2.15-6.61.24-10.73,4.86-15,9a2.09,2.09,0,0,0,.26,3.16c2.28,2.14,4.49,4.42,7.31,5.87a5.66,5.66,0,0,0,7.17-1.2c2-2.06,3.9-4.2,5.82-6.34a2,2,0,0,1,2.78-.54c1.06,0.67,1,1.65.52,2.74-1.35,3.18-3,6.06-5.93,8.1-2.67,1.89-1.7,3.06.83,3.9,2.15,0.72,4.39.63,6.58,0.91,1.6,0.2,4-.66,3.86,2.44-0.14,2.94-2.11,2.83-4.19,2.53-13.24-1.89-25.32-6.18-34.58-16.51a101.16,101.16,0,0,0-7.46-6.87c-2.81-1.71-2.92,1-3.87,2.36-1.26,10.69.19,13.38,9.48,18.07,6.85,3.46,14.36,4.77,21.65,6.8a24.7,24.7,0,0,1,2.63.78,1.92,1.92,0,0,1,1.18,2.24c-0.18,1.15-1.05,1.4-2,1.33a10.21,10.21,0,0,1-1.95-.27c-7-1.92-7-.73-5,6.06,0.43,1.5,1,3,1.41,4.48,0.33,1.08.33,2.14-.88,2.68-1.41.62-2.18-.18-2.74-1.38-1.63-3.56-3.61-7-3.66-11.08,0-2.32-.89-3.48-3.28-4-4.34-1-8.59-2.31-12.13-5.25-0.69-.57-1.58-1.13-2.49-0.46a2.08,2.08,0,0,0-.52,2.17c0.77,5.68,1.2,11.09,7.78,14.09,6.91,3.15,11.08,9.8,15.66,15.66,1,1.24,1.5,2.73,0,3.77s-2.87-.39-3.44-1.54c-2.86-5.79-8.17-9-13-12.75-0.7-.54-1.54-1.45-2.41-1-1.23.65-.48,1.93-0.19,2.8,1.37,4.22,2.9,8.39,4.32,12.6,0.52,1.55,1.57,3.44-.83,4.3s-3.1-.83-3.78-2.76c-3.17-9-6.5-17.95-8.24-27.38-0.24-1.29-.5-2.75-2-3.08-1.83-.41-2.44,1.19-3.11,2.43s-1.35,2.82-2,4.25-1.63,2.51-3.34,1.6-1.17-2.23-.32-3.32c7.28-9.33,7.32-20,5.9-31a43.45,43.45,0,0,1-.33-4.69c-0.18-6.27-6.7-10.79-12.82-8.87-2.37.74-2.07,2.83-2.08,4.55-0.07,9.81,0,19.62,0,29.43,0,22.24,0,44.46,0,66.7,0,4.46-2.17,6.17-7.2,6.16s-7.86-2.24-7.86-6.56q-0.05-34.15,0-68.28c0-1,0-2.1,0-3.14-0.15-2.85-1.13-4.23-4.14-2.47a42.89,42.89,0,0,1-6.33,3.1c-3,1.11-3.3,3-2.18,5.59a67.66,67.66,0,0,0,3.22,7.14c4,6.86,2.93,13.13-1.49,19.35-4.09,5.75-6.94,12-6.22,19.33,0.12,1.22.15,2.52-1.49,2.67s-1.76-1.29-2-2.39c-1.33-5.48-.23-10.62,2.32-15.54,0.7-1.34,2-2.77.59-4.27s-3.34-.86-5.09-0.12c-3.86,1.67-6.37,4.91-9.17,7.82a27.72,27.72,0,0,1-3.18,2.9,1.75,1.75,0,0,1-2.47-.32,1.53,1.53,0,0,1,.12-2.43c6.74-5,11-14.13,21.67-12.64,2.73,0.38,4.72-2.62,4-5.82-0.93-4.41-3.27-8.24-6-11.79-1.39-1.81-2.92-1.21-4.29.27-1.77,1.92-3.88,3.6-5.31,5.75-6.2,9.3-15.19,13.58-25.91,14.93-3.27,0-6.54.11-9.8,0-1.28,0-3.44.37-3.18-1.8,0.2-1.79,2-1,3.28-1,6.67-.05,13.36-0.1,19.05-4.41a5.08,5.08,0,0,1,.1-1.54c1.93-5.32,1.93-5.31-3.1-7.92-3.56-1.85-7.72-2.21-11.07-4.56-1-.77-1.71-1.68-0.93-3,0.65-1.08,1.77-1,2.82-.93,6.18,0.14,11.68,2.46,17.07,5.26,4.64,2.42,6.12,2,9.15-2.27-1.19-2.79.72-4.34,2.36-6,4.87-5,4.46-6.56-2.22-8.85a14.58,14.58,0,0,0-9.58-.23c-1.48.49-3,1.1-4.53,0.31-3.66,0-3-2-1.39-3.65,3.87-4.15,9-4.39,14.16-3.83A37.72,37.72,0,0,1,65.9,82a5.37,5.37,0,0,1,3.45.15c3.31,1.27,6.37.39,9.41-1a8.52,8.52,0,0,0,5.56-8.53c0-9.88-.08-19.76,0-29.64,0-2-.45-4.27,1.77-5.62,0-3.65.13-7.3,0.07-11,0-2.2.64-2.69,2.79-1.89,3.2,1.2,6.54,1.82,9.88.32,1.93-2.16,3.15-1.17,3.86,1a15.08,15.08,0,0,1,.35,4.66c0,5.08-.13,10.18.08,15.26,0.17,4,1.39,5.33,5.22,6.16a47.54,47.54,0,0,1,7.55,2c4.55,1.8,9.09,2.24,13.71.36a3.44,3.44,0,0,1,3.69.28c1.67-.75,3.32-1.51,5-2.25s3.3-1.49,4.47.53S142.53,56,141,57a13.24,13.24,0,0,0-1.45,1.29,8,8,0,0,1-2.49,2.93c-2.22,1.29-2.39,2.88-.82,4.8s3.4,2.93,5.69,1.15a55.28,55.28,0,0,1,4.67-3.51c1.76-1.11,3.56-1.54,5.51-.47,2.7-.19,5.41-0.44,8.12-0.53C161.65,62.6,163.14,62.67,164,64.11Z"/><path class="cls-1" d="M100.56,21c-2.91,2.08-6.17,1.66-9.42,1.37-0.92-.46-1.89-0.86-2.76-1.39s-1.4-1.46-.59-2.26c2.09-2.05,4.77-2.39,7.56-2.16,2.37,0.19,4.72.51,5.48,3.33A2.61,2.61,0,0,1,100.56,21Z"/><path class="cls-2" d="M164,57.64c-0.74,2-2.27,2.08-4.13,2.15-6.61.24-10.73,4.86-15,9a2.09,2.09,0,0,0,.26,3.16c2.28,2.14,4.49,4.42,7.31,5.87a5.66,5.66,0,0,0,7.17-1.2c2-2.06,3.9-4.2,5.82-6.34a2,2,0,0,1,2.78-.54c1.06,0.67,1,1.65.52,2.74-1.35,3.18-3,6.06-5.93,8.1-2.67,1.89-1.7,3.06.83,3.9,2.14,0.72,4.39.63,6.58,0.91,1.6,0.2,4-.66,3.86,2.44-0.14,2.94-2.11,2.83-4.19,2.53-13.24-1.89-25.32-6.18-34.58-16.51A101.1,101.1,0,0,0,127.86,67c-2.81-1.71-2.92,1-3.87,2.36-1.26,10.69.19,13.38,9.48,18.07,6.85,3.46,14.36,4.77,21.65,6.8a24.68,24.68,0,0,1,2.63.78,1.92,1.92,0,0,1,1.18,2.24c-0.18,1.15-1,1.4-2,1.33a10.21,10.21,0,0,1-1.95-.27c-7-1.92-7-.73-5,6.06,0.43,1.5,1,3,1.41,4.48,0.33,1.08.33,2.14-.88,2.68-1.41.62-2.18-.18-2.74-1.38-1.63-3.56-3.61-7-3.66-11.08,0-2.32-.89-3.48-3.28-4-4.34-1-8.59-2.31-12.13-5.25-0.69-.57-1.58-1.13-2.49-0.46a2.08,2.08,0,0,0-.52,2.17c0.77,5.68,1.2,11.09,7.78,14.09,6.91,3.15,11.08,9.8,15.66,15.66,1,1.24,1.5,2.73,0,3.77s-2.87-.39-3.44-1.54c-2.86-5.79-8.17-9-13-12.75-0.7-.54-1.54-1.45-2.41-1-1.23.65-.48,1.93-0.19,2.8,1.37,4.22,2.9,8.39,4.32,12.6,0.52,1.55,1.57,3.44-.83,4.3s-3.1-.83-3.78-2.76c-3.17-9-6.5-17.95-8.24-27.38-0.24-1.29-.5-2.75-2-3.08-1.83-.41-2.44,1.19-3.11,2.43s-1.35,2.82-2,4.25-1.63,2.51-3.34,1.6-1.17-2.23-.32-3.32c7.28-9.33,7.32-20,5.9-31a43.45,43.45,0,0,1-.33-4.69c-0.18-6.27-6.7-10.79-12.82-8.87-2.37.74-2.07,2.83-2.08,4.55-0.07,9.81,0,19.62,0,29.43,0,22.24,0,44.46,0,66.7,0,4.46-2.17,6.17-7.2,6.16s-7.86-2.24-7.87-6.56q-0.05-34.15,0-68.28c0-1,0-2.1,0-3.14-0.15-2.85-1.13-4.23-4.14-2.47a42.87,42.87,0,0,1-6.33,3.1c-3,1.11-3.3,3-2.18,5.59a67.67,67.67,0,0,0,3.22,7.14c4,6.86,2.93,13.13-1.49,19.35-4.09,5.75-6.94,12-6.22,19.33,0.12,1.22.15,2.52-1.49,2.67s-1.76-1.29-2-2.39c-1.33-5.48-.23-10.62,2.32-15.54,0.7-1.34,2-2.77.59-4.27s-3.34-.86-5.09-0.12c-3.86,1.67-6.37,4.91-9.17,7.82a27.72,27.72,0,0,1-3.18,2.9,1.75,1.75,0,0,1-2.47-.32,1.53,1.53,0,0,1,.12-2.43c6.74-5,11-14.13,21.68-12.64,2.73,0.38,4.72-2.62,4-5.82-0.93-4.41-3.27-8.24-6-11.79-1.38-1.81-2.92-1.21-4.29.27-1.77,1.92-3.88,3.6-5.31,5.75-6.2,9.3-15.19,13.58-25.91,14.93-3.27,0-6.54.11-9.8,0-1.28,0-3.44.37-3.18-1.8,0.2-1.79,2-1,3.28-1,6.67-.05,13.36-0.1,19.05-4.41a5.07,5.07,0,0,1,.1-1.54c1.93-5.32,1.93-5.31-3.1-7.92-3.56-1.85-7.72-2.21-11.07-4.56-1-.77-1.71-1.68-0.93-3,0.65-1.08,1.77-1,2.82-.93,6.18,0.14,11.69,2.46,17.07,5.26,4.64,2.42,6.12,2,9.15-2.27-1.19-2.79.72-4.34,2.36-6,4.87-5,4.46-6.56-2.22-8.85a14.58,14.58,0,0,0-9.58-.23c-1.48.49-3,1.1-4.53,0.31-3.66,0-2.95-2-1.39-3.65,3.87-4.15,9-4.39,14.16-3.83A37.71,37.71,0,0,1,65.9,75.54a5.37,5.37,0,0,1,3.45.15c3.31,1.27,6.37.39,9.41-1a8.52,8.52,0,0,0,5.56-8.53c0-9.88-.08-19.76,0-29.64,0-2-.45-4.27,1.77-5.62,0-3.65.13-7.3,0.07-11,0-2.2.64-2.69,2.79-1.89,3.2,1.2,6.54,1.82,9.88.32,1.93-2.16,3.15-1.17,3.86,1a15.08,15.08,0,0,1,.35,4.66c0,5.08-.13,10.18.08,15.26,0.17,4,1.39,5.33,5.22,6.16a47.57,47.57,0,0,1,7.55,2c4.55,1.8,9.09,2.24,13.71.36a3.44,3.44,0,0,1,3.69.28c1.67-.75,3.32-1.51,5-2.25s3.3-1.49,4.47.53-0.26,3.09-1.77,4.09a13.27,13.27,0,0,0-1.45,1.29,8,8,0,0,1-2.49,2.93c-2.22,1.29-2.39,2.88-.82,4.8s3.4,2.93,5.69,1.15a55.23,55.23,0,0,1,4.67-3.51c1.76-1.11,3.56-1.54,5.51-.47,2.7-.19,5.41-0.44,8.12-0.53C161.65,56.13,163.14,56.19,164,57.64Z"/><path class="cls-2" d="M100.56,14.5c-2.9,2.08-6.17,1.66-9.42,1.37-0.92-.46-1.89-0.86-2.76-1.39S87,13,87.79,12.22c2.09-2.05,4.77-2.39,7.56-2.16,2.37,0.19,4.72.51,5.48,3.33A2.61,2.61,0,0,1,100.56,14.5Z"/></svg>