<svg id="Layer_1" data-name="Layer 1" xmlns="http://www.w3.org/2000/svg" viewBox="0 0 195 180"><defs><style>.cls-1{fill:#e4a720;}.cls-1,.cls-2{fill-rule:evenodd;}.cls-2{fill:#fff;}</style></defs><title>Liven Icons2</title><path class="cls-1" d="M130.06,75.05c3.09,6.71,4.35,13.63,2.17,20.88a4.81,4.81,0,0,0,.34,3.36c5.84,15-2.06,33.1-17,39.22-2.09.85-3.59,1-4.58-1.43a7.79,7.79,0,0,0-1.75-2.5c-2.69-2.64-5.66-5-9.69-3.35-3.81,1.57-3.78,5.18-3.72,8.61a21.76,21.76,0,0,0,.23,2.62c0.92,6.52.18,7.41-6.49,8.27-8.11,1.05-16,.74-23.61-2.75-7.25-5.18-13.6-11.07-15.81-20.2-0.34-1.42-1.65-1.93-2.7-2.71a21.13,21.13,0,0,1-7.7-21.84c0.44-1.71.95-3.74,2.4-4.57,4.2-2.42,3.73-5.76,2.87-9.65-0.56-2.52-.27-5.22-0.36-7.85-2.09-1.82-1.29-3.71.13-5.32s2.89-.74,4.33.14a8.72,8.72,0,0,0,3.48,1.67c2.13,0.25,4.46.93,5.86-1.39s0.62-4.74-.81-6.81a9.35,9.35,0,0,0-1.79-1.59c-1.61-1.32-3.35-2.84-2.27-5.11s2.85-4.5,6.11-3.67c8.09-5.64,17.2-6.86,26.75-6.16,2.06,0.15,4.5,0,5.89,1.35C96,57.8,100,57,104.45,56.69c8.38-.61,20.62,7.6,24.23,15.65C129.1,73.26,129.6,74.15,130.06,75.05Z"/><path class="cls-1" d="M44.82,45.1a10.75,10.75,0,0,1-.64,3c-4.22,7.77.35,12.64,5.6,17.27,1.54,1.35,3.23,2.54,4.82,3.82,1.82,1.47,3.51,3.47,2,5.6-1.69,2.45-4.23,1.13-6.22-.16-3-2-5.41-4.82-8.38-7-4.64-3.39-8.8-4.21-13.54-.54a17.27,17.27,0,0,1-4,1.74c-1.47-.22-3-0.4-3.33-2.24s1-2.64,2.24-3.38a24.67,24.67,0,0,1,3.12-1.58c6-2.42,9.88-6.56,11.22-13a25.28,25.28,0,0,1,1.15-3.76c0.57-1.52,1.25-3.12,3.21-3.12C44.22,41.77,44.58,43.44,44.82,45.1Z"/><path class="cls-1" d="M163.66,91.8c2.55-.33,3.61-2.25,4.54-4.29,0.79-1.73,1.46-3.52,2.35-5.19,0.72-1.35,1.87-2.5,3.54-1.81,2,0.82,1.6,2.53,1,4.12a27,27,0,0,1-1.25,2.8c-2.49,5-2.33,9.75,1.06,14.44,1.63,2.26,4.23,5.77,1.16,7.6s-4.32-2.43-5.47-4.67c-2.24-4.37-5.87-5.33-10.26-5-3.5.23-7,.49-10.5,0.65-1.87.08-3.66-.58-4.39-2.32-0.8-1.9,1.07-2.77,2.2-3.84C152.87,92.6,158.58,94.28,163.66,91.8Z"/><path class="cls-1" d="M127.38,20.39a10,10,0,0,1-2.87.87c-6.8-.08-9.85,3.75-10.8,10-0.25,1.7-.8,3.36-1.22,5-1.07.64-2,2-3.47,0.94-1.09-.8-1-2.09-0.8-3.25a17.57,17.57,0,0,1,.94-3.83c2.1-5.23,2.6-9.95-3.29-13.24-1.2-.67-2.62-2.11-1.44-3.62,1.32-1.7,3.19-.74,4.17.51,3.9,5,8.82,5.66,14.55,4.19C125.06,17.49,127.11,17.61,127.38,20.39Z"/><path class="cls-1" d="M42.11,144.51c-0.76,2.89-2.9,4.67-5.18,6.3-5.72,4.07-6.12,5.45-3.48,12.12-0.3,1.34.51,3.46-1.3,3.77-2,.33-2-1.9-2.13-3.17-0.58-5.34-3.55-8.43-8.55-9.9a12.25,12.25,0,0,1-2.77-1.28c-0.73-.44-1.57-1-1-2.09a1.47,1.47,0,0,1,1.92-.61c7.41,3.79,12.34-.06,17.07-5.21C38.13,142.88,40.35,141.57,42.11,144.51Z"/><path class="cls-1" d="M123.65,164.5c-8.48-3.49-15.25,1.34-21.73,7.37-1.45,1.35-3.65,3.68-5.52,1.2-1.64-2.16,0-4.3,2-6,7.4-6.33,7.83-8.52,4.21-17.42a76.33,76.33,0,0,1-3.18-9.56c-0.53-2-.34-4.41,2.11-5.13,2.22-.64,4.09.68,4.94,2.74a133.31,133.31,0,0,1,4.76,12.72c1.59,5.32,4.87,7.72,10.37,7.35a15.75,15.75,0,0,1,3.91.4c2.16,0.41,4.09,1.25,3.63,4S126.62,164.57,123.65,164.5Z"/><path class="cls-2" d="M130.06,68.51c3.09,6.71,4.35,13.63,2.17,20.88a4.81,4.81,0,0,0,.34,3.36c5.84,15-2.06,33.1-17,39.22-2.09.85-3.59,1-4.58-1.43a7.78,7.78,0,0,0-1.75-2.5c-2.69-2.64-5.66-5-9.69-3.35-3.81,1.57-3.78,5.18-3.72,8.61a21.76,21.76,0,0,0,.23,2.62c0.92,6.52.18,7.41-6.49,8.27-8.11,1.05-16,.74-23.61-2.75-7.25-5.18-13.6-11.07-15.81-20.2-0.34-1.42-1.65-1.93-2.7-2.71a21.13,21.13,0,0,1-7.7-21.84c0.44-1.71.95-3.74,2.4-4.57,4.2-2.42,3.73-5.76,2.87-9.65-0.56-2.52-.27-5.22-0.36-7.85-2.09-1.82-1.29-3.71.13-5.32s2.89-.74,4.33.14a8.72,8.72,0,0,0,3.48,1.67c2.13,0.25,4.46.93,5.86-1.39S59,65,57.6,62.92a9.35,9.35,0,0,0-1.78-1.59c-1.61-1.32-3.35-2.84-2.27-5.11s2.85-4.5,6.11-3.67c8.09-5.64,17.2-6.86,26.75-6.16,2.06,0.15,4.5,0,5.89,1.35,3.67,3.53,7.75,2.75,12.15,2.42,8.38-.61,20.62,7.6,24.23,15.65C129.1,66.72,129.6,67.61,130.06,68.51Z"/><path class="cls-2" d="M44.82,38.56a10.78,10.78,0,0,1-.64,3c-4.22,7.77.35,12.64,5.6,17.27,1.54,1.35,3.23,2.54,4.82,3.82,1.82,1.47,3.51,3.47,2,5.6-1.69,2.45-4.23,1.13-6.22-.16-3-2-5.41-4.82-8.38-7-4.64-3.39-8.8-4.21-13.54-.54a17.28,17.28,0,0,1-4,1.74c-1.47-.22-3-0.4-3.33-2.24s1-2.64,2.24-3.38a24.65,24.65,0,0,1,3.12-1.58c6-2.42,9.88-6.56,11.22-13a25.33,25.33,0,0,1,1.15-3.76c0.57-1.52,1.25-3.12,3.21-3.12C44.22,35.23,44.58,36.9,44.82,38.56Z"/><path class="cls-2" d="M163.66,85.27c2.55-.33,3.61-2.25,4.54-4.29,0.79-1.73,1.46-3.52,2.35-5.19,0.72-1.35,1.87-2.5,3.54-1.81,2,0.82,1.6,2.53,1,4.12a27,27,0,0,1-1.25,2.8c-2.49,5-2.33,9.75,1.06,14.44,1.63,2.26,4.23,5.77,1.16,7.6s-4.32-2.43-5.47-4.67c-2.24-4.37-5.87-5.33-10.26-5-3.5.23-7,.49-10.5,0.65-1.87.08-3.66-.58-4.39-2.32-0.8-1.9,1.07-2.77,2.2-3.84C152.87,86.06,158.58,87.74,163.66,85.27Z"/><path class="cls-2" d="M127.38,13.85a10,10,0,0,1-2.87.87c-6.8-.08-9.85,3.75-10.8,10-0.25,1.7-.8,3.36-1.22,5-1.07.64-2,2-3.47,0.94-1.09-.8-1-2.09-0.8-3.25a17.56,17.56,0,0,1,.94-3.83c2.1-5.23,2.6-9.95-3.29-13.24-1.2-.67-2.62-2.11-1.44-3.62,1.32-1.7,3.19-.74,4.17.51,3.9,5,8.82,5.66,14.55,4.19C125.06,11,127.11,11.07,127.38,13.85Z"/><path class="cls-2" d="M42.11,138c-0.76,2.89-2.9,4.67-5.18,6.3-5.72,4.07-6.12,5.45-3.48,12.12-0.3,1.34.51,3.46-1.3,3.77-2,.33-2-1.9-2.13-3.17-0.58-5.34-3.55-8.43-8.55-9.9a12.25,12.25,0,0,1-2.77-1.28c-0.73-.44-1.57-1-1-2.09a1.47,1.47,0,0,1,1.92-.61c7.41,3.79,12.34-.06,17.07-5.21C38.13,136.34,40.35,135,42.11,138Z"/><path class="cls-2" d="M123.65,158c-8.48-3.49-15.25,1.34-21.73,7.37-1.45,1.35-3.65,3.68-5.52,1.2-1.64-2.16,0-4.3,2-6,7.4-6.33,7.83-8.52,4.21-17.42a76.38,76.38,0,0,1-3.18-9.56c-0.53-2-.34-4.41,2.11-5.13,2.22-.64,4.09.68,4.94,2.74a133.31,133.31,0,0,1,4.76,12.72c1.59,5.32,4.87,7.72,10.37,7.35a15.75,15.75,0,0,1,3.91.4c2.16,0.41,4.09,1.25,3.63,4S126.62,158,123.65,158Z"/></svg>