<svg id="Layer_1" data-name="Layer 1" xmlns="http://www.w3.org/2000/svg" viewBox="0 0 195 178"><defs><style>.cls-1{fill:#e4a720;}.cls-1,.cls-2{fill-rule:evenodd;}.cls-2{fill:#fff;}</style></defs><title>Liven Icons2</title><path class="cls-1" d="M72,50.46c3.21,0.79,4.51.1,5.6-2.12A57.55,57.55,0,0,1,89.26,32.22c6.92-6.69,15-9.67,24.62-7.94,14.26,2.56,26.75,8.62,37,18.88,2,2,3.24,4.68,4.84,7.06l-0.65.68c-4.91,0-9.82,0-14.73-.05a3.1,3.1,0,0,1-1.67-1c-9.23-8.89-20.5-11.72-32.91-11-3.69.22-7.18,4-8,8.32,1.89,0.21,3.76.46,5.64,0.59a2.35,2.35,0,0,0,1.61-.52c5.09-4.78,10.75-4.49,16.6-1.81A74.34,74.34,0,0,1,144.44,61c4.37,4.52,8.5,9.26,12.92,14.09l-11.19,8.78C143.47,77.73,139.11,73.3,134,69.2a2.62,2.62,0,0,0-.1,1c6.4,12.59,7,25.83,3.44,39.14-4.72,17.47-11.21,34.31-20.66,49.86-3.19,5.25-7.53,9.42-14.15,9.76-5.65.3-10.39-2.29-14.71-5.59-11.66-8.94-21.06-20-29.18-32.1A162.8,162.8,0,0,1,39.08,91.09c-4.32-13.25,1.14-31.48,16.62-38,2.29-1,3.39-2.54,3.29-4.69-0.17-3.76-.22-7.66-1.28-11.21-1.68-5.67-4.15-11.1-6.36-16.84l11.11-4.83c1.14,2.7,2.13,5.34,3.35,7.87,2.18,4.49,3.07,4.65,6.56,1,2.33-2.43,4.4-5.1,6.69-7.58a3.32,3.32,0,0,1,2.28-1.19c4.76,0.55,9.51,1.3,14.56,2-3.32,3.46-6.56,6.56-9.47,9.95a91.83,91.83,0,0,0-8.16,10.72C75.91,42.11,74.17,46.25,72,50.46Zm9.28,11c-1.85.15-3.8-.06-5.51,0.5q-8.1,2.66-16,5.82a12.31,12.31,0,0,0-7,7.62c-1.64,4.43-1.5,9-.85,13.56,0.28,2,.76,3.91,1.15,5.86C54.34,76.6,67.39,69,81.32,61.49Z"/><path class="cls-2" d="M72,43.91c3.21,0.79,4.51.1,5.6-2.12A57.55,57.55,0,0,1,89.26,25.67c6.92-6.69,15-9.67,24.62-7.94,14.26,2.56,26.75,8.62,37,18.88,2,2,3.24,4.68,4.84,7.06l-0.65.68c-4.91,0-9.82,0-14.73-.05a3.1,3.1,0,0,1-1.67-1c-9.23-8.89-20.5-11.72-32.91-11-3.69.22-7.18,4-8,8.32,1.89,0.21,3.76.46,5.64,0.59a2.35,2.35,0,0,0,1.61-.52c5.09-4.78,10.75-4.49,16.6-1.81a74.35,74.35,0,0,1,22.77,15.59c4.37,4.52,8.5,9.26,12.92,14.09l-11.19,8.78c-2.69-6.14-7.05-10.57-12.18-14.67a2.62,2.62,0,0,0-.1,1c6.4,12.59,7,25.83,3.44,39.14-4.72,17.47-11.21,34.31-20.66,49.86-3.19,5.25-7.53,9.42-14.15,9.76-5.65.3-10.4-2.29-14.71-5.59-11.66-8.94-21.06-20-29.18-32.1A162.82,162.82,0,0,1,39.08,84.54c-4.32-13.25,1.14-31.48,16.62-38C58,45.62,59.09,44,59,41.89c-0.17-3.76-.22-7.66-1.28-11.21C56,25,53.56,19.57,51.35,13.83L62.46,9c1.14,2.7,2.13,5.34,3.35,7.87,2.18,4.49,3.07,4.65,6.56,1,2.33-2.43,4.4-5.1,6.69-7.58a3.32,3.32,0,0,1,2.28-1.19c4.76,0.55,9.5,1.3,14.56,2-3.32,3.46-6.56,6.56-9.47,9.95a91.83,91.83,0,0,0-8.16,10.72C75.91,35.56,74.17,39.71,72,43.91Zm9.28,11c-1.85.15-3.8-.06-5.51,0.5q-8.1,2.66-16,5.82a12.31,12.31,0,0,0-7,7.62c-1.64,4.43-1.5,9-.85,13.56,0.28,2,.76,3.91,1.15,5.86C54.34,70.05,67.39,62.42,81.32,54.94Z"/></svg>