<svg id="Layer_1" data-name="Layer 1" xmlns="http://www.w3.org/2000/svg" viewBox="0 0 195 179"><defs><style>.cls-1{fill:#e4a720;}.cls-2{fill:#fff;}</style></defs><title>Liven Icons2</title><path class="cls-1" d="M166.64,38.18c-2.53-2.9-4.83-6.05-7.63-8.67-6.12-5.73-12.35-4.4-16.09,3.11-2.73,5.46-2.69,11.6-4.42,17.28-2.13,7-3.45,14.51-10.06,19.13a22.86,22.86,0,0,0-9.65,13.89C118,86.11,117,89.49,113,90.35c-6.1-1.44-8.58-6.62-11.61-11.23-1.38-2.37-1.93-6.36-6.14-3.1-3,.36-3.2,2.85-3.79,5-0.91,3.42-2.28,6.53-6.48,6.43C81,87.39,79.53,84.4,79,81.15c-0.88-5.64-4.24-9.7-8.34-13C63.05,62,59.37,54,58.64,44.45a15.39,15.39,0,0,0-4.86-10.62c-4.84-10.82-14-9.41-19.92-1.51-10.43,14-14.21,29.86-16,46.69-1.93,18.62,3.75,35.55,11.55,51.82,5.17,10.77,9.59,22.51,21.51,28.32,8.73,3.23,12.87,2.07,18.23-5,3.17-4.18,5.81-9,9.75-12.29,13.7-11.31,32.6-8.46,43.09,5.93,2.17,3,4.26,6,6.61,8.85a10.86,10.86,0,0,0,11.29,3.87,23.58,23.58,0,0,0,10.68-5.39c7.92-6.65,12-16,16.24-24.93C181.27,99.62,180.9,68.83,166.64,38.18ZM52.65,53.3c-2,4.19-1.1,7.92-1,12.41C47,59.91,47.3,56.38,52.65,53.3Zm-3,43.33c-0.05,4.66,1.2,8.57,5.19,12-3.43.74-4.94-1-6.07-3.12C47.1,102.39,46.94,99.32,49.66,96.63ZM45.36,28.72l-4.9,7.58C39.22,31.13,40.82,29.64,45.36,28.72Zm0.52,16.8c-4.59,2.4-7.17,4.79-8.38,8.85C35.69,48.3,38.09,45.44,45.89,45.52ZM27.77,62.66A14.9,14.9,0,0,0,26,74.25C20.82,71.49,21.22,67.12,27.77,62.66ZM27.6,112.94c2,3.34,3.52,6.55,6.54,9.38C27.75,121.12,26.15,118.8,27.6,112.94Zm5.92-21.37c-0.17,3.92-.24,7.38,2.55,10.59C29.86,100.1,29,96.6,33.51,91.57Zm3.06-15.06c-0.6-3.3,1-5.67,6.16-7.22-5,5.07-4,8.84.58,12.42C38.79,82,37.12,79.51,36.57,76.51Zm6.29,39.8c1.53,2.78,4,4.58,6.7,6.68C43.61,123.54,42.17,122.09,42.86,116.32Zm4.07,22.53c3.81,2.06,7.33,3.38,12.56,2.27C53.9,146.06,50.06,145.18,46.93,138.85ZM63.47,92.26c-5.54-3.74-4.82-9.94,1.39-13.22C63,83.43,61.32,87.43,63.47,92.26Zm6.88,25.06a22,22,0,0,0,9,9.19C72.56,127.07,69.72,124,70.35,117.32Zm12.49-6.74c-3.85-4.81-3-8.62,2.62-11.69C84,102.91,82.18,106.46,82.84,110.58Zm30,0.42c0.69-4.42-.81-8-2.32-11.81C115.94,101.28,117,106.18,112.8,111Zm3.83,15c4-1.58,6.6-4.43,8.77-8.87C126.05,124.63,122,128.35,116.64,126Zm41.12-71.5c-1.85-3.34-2.81-7.07-7.38-8.7C157,45.32,159.65,48.79,157.75,54.54Zm-13.43-.71c4.7,3.62,4.57,7.3-.81,12C145.06,61.53,144.75,57.82,144.32,53.83Zm1.07,42.53c2.92,2.51,3.52,4.17,2.52,7.16s-2.53,5.61-7.14,5.48C144.58,105.36,146.71,101.6,145.39,96.36Zm-12.08-3.48c-0.28-5,.56-9.33-1.83-13.24C135.88,82.3,136.49,86.49,133.31,92.88Zm2.42,48.58c4.85,0.44,9,.26,13.12-2.74C145.94,145.2,141.35,146.16,135.73,141.45Zm10.4-18.52a20.52,20.52,0,0,0,7.41-7.91C153.81,121.93,152.07,123.57,146.13,122.94Zm6.22-40.54c3.36-4.3,5-7.76,1.42-11.85,3.78,1.16,4.85,2.06,5,4.4C158.91,78.54,157,80.72,152.35,82.39Zm10.07,15c0.53-2.23-1-3.94-1.2-6.59,3.19,1.62,4.64,3.59,4.07,6.59s-2.29,4.94-6,5.38C160.11,100.61,161.94,99.38,162.42,97.38Zm-1,25.51c3.24-3.6,5.25-6.34,6.6-10.46C169.71,118.59,168.62,120.38,161.42,122.88Zm7.51-59.6c5.39,3.75,5.79,7.09,1.29,11.67C170.35,70.82,170.45,67.18,168.93,63.28Z"/><path class="cls-2" d="M166.64,30.35c-2.53-2.9-4.83-6.05-7.63-8.67-6.12-5.73-12.35-4.4-16.09,3.11-2.73,5.46-2.69,11.6-4.42,17.28-2.13,7-3.45,14.51-10.06,19.13a22.86,22.86,0,0,0-9.65,13.89C118,78.28,117,81.66,113,82.52c-6.1-1.44-8.58-6.62-11.61-11.23-1.38-2.37-1.93-6.36-6.14-3.1-3,.36-3.2,2.85-3.79,5-0.91,3.42-2.29,6.53-6.48,6.43C81,79.56,79.53,76.57,79,73.31c-0.88-5.64-4.24-9.7-8.34-13-7.63-6.17-11.31-14.11-12.05-23.69A15.39,15.39,0,0,0,53.78,26c-4.84-10.82-14-9.41-19.92-1.51-10.43,14-14.21,29.86-16,46.69C15.95,89.8,21.63,106.73,29.43,123c5.17,10.77,9.59,22.51,21.51,28.32,8.73,3.23,12.87,2.07,18.23-5,3.17-4.18,5.81-9,9.75-12.29,13.7-11.31,32.6-8.46,43.09,5.93,2.17,3,4.26,6,6.61,8.85a10.86,10.86,0,0,0,11.29,3.87,23.57,23.57,0,0,0,10.68-5.39c7.92-6.65,12-16,16.24-24.93C181.27,91.79,180.9,61,166.64,30.35Zm-114,15.12c-2,4.19-1.1,7.92-1,12.41C47,52.07,47.3,48.54,52.65,45.47Zm-3,43.33c-0.05,4.66,1.2,8.57,5.19,12-3.43.74-4.94-1-6.07-3.12C47.1,94.56,46.95,91.49,49.66,88.8ZM45.36,20.89l-4.9,7.58C39.22,23.3,40.82,21.81,45.36,20.89Zm0.52,16.8c-4.59,2.4-7.17,4.79-8.38,8.85C35.69,40.47,38.09,37.61,45.89,37.68ZM27.77,54.83A14.9,14.9,0,0,0,26,66.42C20.82,63.66,21.22,59.28,27.77,54.83ZM27.6,105.11c2,3.34,3.52,6.55,6.54,9.38C27.75,113.29,26.15,111,27.6,105.11Zm5.92-21.37c-0.17,3.92-.24,7.38,2.55,10.59C29.86,92.27,29,88.77,33.51,83.74Zm3.06-15.06c-0.6-3.3,1-5.67,6.16-7.22-5,5.07-4,8.84.58,12.42C38.79,74.12,37.12,71.68,36.57,68.68Zm6.29,39.8c1.53,2.78,4,4.58,6.7,6.68C43.61,115.71,42.17,114.26,42.86,108.48ZM46.93,131c3.81,2.06,7.33,3.38,12.56,2.27C53.9,138.23,50.06,137.35,46.93,131ZM63.47,84.43c-5.54-3.74-4.82-9.94,1.39-13.22C63,75.59,61.32,79.6,63.47,84.43Zm6.88,25.06a22,22,0,0,0,9,9.19C72.56,119.24,69.72,116.2,70.35,109.49Zm12.49-6.74c-3.85-4.81-3-8.62,2.62-11.69C84,95.08,82.18,98.63,82.84,102.75Zm30,0.42c0.69-4.42-.81-8-2.32-11.81C115.94,93.45,117,98.35,112.8,103.17Zm3.83,15c4-1.58,6.6-4.43,8.77-8.87C126.05,116.8,122,120.52,116.64,118.21Zm41.12-71.5c-1.85-3.34-2.81-7.07-7.38-8.7C157,37.49,159.65,41,157.75,46.71ZM144.32,46c4.7,3.62,4.57,7.3-.81,12C145.06,53.7,144.75,50,144.32,46Zm1.07,42.53c2.92,2.51,3.52,4.17,2.52,7.16s-2.53,5.61-7.14,5.48C144.58,97.53,146.71,93.77,145.39,88.53ZM133.31,85c-0.28-5,.56-9.33-1.83-13.24C135.88,74.47,136.49,78.65,133.31,85Zm2.42,48.58c4.85,0.44,9,.26,13.12-2.74C145.94,137.37,141.35,138.33,135.73,133.62Zm10.4-18.52a20.52,20.52,0,0,0,7.41-7.91C153.81,114.1,152.07,115.74,146.13,115.1Zm6.22-40.54c3.36-4.3,5-7.76,1.42-11.85,3.78,1.16,4.85,2.06,5,4.4C158.91,70.7,157,72.89,152.35,74.56Zm10.07,15c0.53-2.23-.95-3.94-1.2-6.59,3.19,1.62,4.65,3.59,4.07,6.59s-2.29,4.94-6,5.38C160.11,92.77,161.94,91.55,162.42,89.54Zm-1,25.51c3.24-3.6,5.25-6.34,6.6-10.46C169.71,110.75,168.62,112.55,161.42,115Zm7.51-59.6c5.39,3.75,5.79,7.09,1.29,11.67C170.35,63,170.45,59.35,168.93,55.45Z"/></svg>