<?xml version="1.0" encoding="utf-8"?>
<!-- Generator: Adobe Illustrator 21.1.0, SVG Export Plug-In . SVG Version: 6.00 Build 0)  -->
<svg version="1.1" id="Layer_1" xmlns="http://www.w3.org/2000/svg" xmlns:xlink="http://www.w3.org/1999/xlink" x="0px" y="0px"
	 viewBox="0 0 469.4 264" style="enable-background:new 0 0 469.4 264;" xml:space="preserve">
<style type="text/css">
	.st0{fill:#00BAB3;}
</style>
<g>
	<g>
		<path class="st0" d="M279.5,33h-29.9l-20.5,35.6c-3.6-5.1-8.3-9.6-14.1-12.9c-21.2-12.2-48.4-4.9-60.6,16.3l-50.8,88.5l30,0
			l50.9-88.5l0,0c5-8.8,16.3-11.8,25.1-6.7c4.2,2.4,7.3,6.4,8.6,11.1c1.3,4.7,0.6,9.7-1.8,13.9l-40.2,70.1l28.6,0l1.3,0l0,0h0l0.6-1
			L279,33.9L279.5,33z"/>
		<path class="st0" d="M255.3,100.6l-34.4,60.1h0l0,0l29.9,0l0,0h0l11.6-20.2l23.5-40.8c5.3-8,16.1-10.6,24.6-5.7
			c4.2,2.4,7.3,6.4,8.6,11.1c1.3,4.7,0.6,9.7-1.8,13.9l-23.8,41.7l29.9,0l8.9-15.8c12.2-21.2,4.9-48.4-16.3-60.6
			c-5.6-3.2-11.6-5.1-17.8-5.7l25.7-44.6l0.5-0.9h-29.9l-37,64.2C256.6,98.3,255.9,99.4,255.3,100.6z"/>
		<path class="st0" d="M366.2,42.8c-0.7-1.3-2.1-3-3.8-4.6c-1.7-1.7-3.4-3-4.6-3.8c-1.5-0.9-3.2-1.4-4.9-1.4c-1.7,0-3.4,0.4-4.9,1.4
			c-1.3,0.7-3,2.1-4.6,3.7c-1.7,1.7-3,3.3-3.7,4.6c-0.9,1.5-1.4,3.2-1.4,4.9c0,1.7,0.5,3.4,1.4,4.9c0.7,1.3,2.1,3,3.8,4.6
			c1.7,1.7,3.4,3,4.6,3.8c1.5,0.9,3.2,1.4,4.9,1.4c1.7,0,3.4-0.4,4.9-1.4c1.3-0.7,3-2.1,4.6-3.7c1.7-1.7,3-3.3,3.7-4.6
			c0.9-1.5,1.4-3.2,1.4-4.9C367.6,46,367.1,44.3,366.2,42.8z"/>
	</g>
	<g>
		<path class="st0" d="M134.2,202.4c0-8-6.8-14-15.2-14c-4,0-7.7,1.5-10.6,4.2c-2.4,2.4-4.4,6.1-4.4,9.7h8.9
			c0.5-1.6,1.3-2.6,2.1-3.3c1-1,2.5-1.5,4-1.5c3,0,5.5,2.2,5.5,4.8c0,1.4-0.7,2.5-1.8,3.6L104,224v0v5.9v2.8h3h0.5h26.2l0-8.7h-15.9
			l11.1-10.7C132.1,210.4,134.2,206.6,134.2,202.4z"/>
		<path class="st0" d="M253.9,203.6c-3.6,0-6.9,1.7-9.1,4.5v-4.6h-2.4v29.2h2.4v-17.6c0-5,4.1-9.1,9.1-9.1c5,0,9.1,4.1,9.1,9.1v17.6
			h2.4v-17.6C265.4,208.8,260.3,203.6,253.9,203.6z"/>
		<rect x="210.3" y="203.6" class="st0" width="2.4" height="29.2"/>
		<path class="st0" d="M318.3,217.4c-0.1-0.1-1.4-0.6-3.9-1.2c-2.2-0.5-3.4-1.2-3.5-1.3c-1.8-1.2-2.7-2.6-2.7-4.3c0-2.8,3-5,6.6-5
			c2.8,0,5.3,1.4,6.3,3.4l0.2,0.4l2.2-1l-0.2-0.4c-1.3-2.9-4.7-4.8-8.5-4.8c-5,0-9.1,3.4-9.1,7.5c0,2.6,1.3,4.8,3.8,6.4
			c0.2,0.1,1.6,1,4.3,1.6c2.2,0.5,3.4,1,3.6,1.1c2.6,0.9,4.3,3.1,4.3,5.3c0,3.2-3.3,5.7-7.4,5.7c-3.2,0-6.1-1.6-7-4l-0.2-0.4
			l-2.3,0.9l0.2,0.4c1.4,3.3,5.1,5.5,9.3,5.5c5.4,0,9.8-3.7,9.8-8.2C324.1,221.7,321.8,218.7,318.3,217.4z"/>
		<path class="st0" d="M342.6,217.4c-0.1-0.1-1.4-0.6-3.9-1.2c-2.2-0.5-3.4-1.2-3.5-1.3c-1.8-1.2-2.7-2.6-2.7-4.3c0-2.8,3-5,6.6-5
			c2.8,0,5.3,1.4,6.3,3.4l0.2,0.4l2.2-1l-0.2-0.4c-1.3-2.9-4.7-4.8-8.5-4.8c-5,0-9.1,3.4-9.1,7.5c0,2.6,1.3,4.8,3.8,6.4
			c0.2,0.1,1.6,1,4.3,1.6c2.2,0.5,3.4,1,3.6,1.1c2.6,0.9,4.3,3.1,4.3,5.3c0,3.2-3.3,5.7-7.4,5.7c-3.2,0-6.1-1.6-7-4l-0.2-0.4
			l-2.3,0.9l0.2,0.4c1.4,3.3,5.1,5.5,9.3,5.5c5.4,0,9.8-3.7,9.8-8.2C348.5,221.7,346.1,218.7,342.6,217.4z"/>
		<path class="st0" d="M234.2,229.7c-0.2,0.1-0.5,0.3-0.7,0.4c-0.5,0.2-1.1,0.3-1.6,0.3c-2.9,0-4.6-1.7-4.6-4.6v-19.6h7.9v-2.4h-7.9
			V196h-2.4v7.8H219v2.4h5.8v19.6c0,4.3,2.8,7.1,7.1,7.1c0.9,0,1.7-0.2,2.5-0.5c0.4-0.1,0.8-0.3,1.1-0.6l0.4-0.2l-1.3-2.1
			L234.2,229.7z"/>
		<path class="st0" d="M202.5,188.3c0.6,0,1.1,0.1,1.6,0.3c0.3,0.1,0.5,0.2,0.7,0.4l0.4,0.2l1.3-2.1l-0.4-0.2
			c-0.4-0.2-0.7-0.4-1.1-0.6c-0.8-0.3-1.6-0.5-2.5-0.5c-4.3,0-7.1,2.8-7.1,7.1v10.8h-5.6v2.4h5.6v26.6h2.4v-26.6h7.7v-2.4h-7.7
			v-10.8C197.9,190,199.6,188.3,202.5,188.3z"/>
		<circle class="st0" cx="211.6" cy="197.9" r="2"/>
		<path class="st0" d="M285.8,203.1c-7.9,0-13.7,6.2-13.7,14.9s5.8,14.9,13.7,14.9c4.5,0,8.4-1.7,11.4-4.8l0.3-0.3l-1.8-1.7
			l-0.3,0.3c-2.5,2.7-5.9,4.1-9.7,4.1c-6.1,0-10.7-4.6-11.2-11.2h24.9V218C299.5,209.4,293.8,203.1,285.8,203.1z M274.6,216.7
			c0.5-6.6,5.1-11.2,11.2-11.2c6.1,0,10.7,4.6,11.2,11.2H274.6z"/>
		<path class="st0" d="M162.4,201.9c-7-1-10.4,4.7-10.4,4.7V201v-2v-12.3h-9.9v46.1h9.9h0v-17.9c0-2.7,2.2-4.9,4.9-4.9
			c2.7,0,4.9,2.2,4.9,4.9v17.9h9.6v-17.1c0,0,0,0,0,0C171.2,208.2,168.7,203,162.4,201.9z"/>
	</g>
</g>
</svg>
